<?xml version="1.0" standalone="no"?>
<!DOCTYPE svg PUBLIC "-//W3C//DTD SVG 1.1//EN" "http://www.w3.org/Graphics/SVG/1.1/DTD/svg11.dtd" >
<svg xmlns="http://www.w3.org/2000/svg">
<metadata>
This is a custom SVG webfont generated by Font Squirrel.
Copyright   : Copyright c Fontime 2004 All rights reserved
Foundry     : Fontime
</metadata>
<defs>
<font id="LineareSerifBook" horiz-adv-x="1024" >
<font-face units-per-em="2048" ascent="1638" descent="-410" />
<missing-glyph horiz-adv-x="512" />
<glyph unicode=" "  horiz-adv-x="512" />
<glyph unicode="&#x09;" horiz-adv-x="512" />
<glyph unicode="&#xa0;" horiz-adv-x="512" />
<glyph unicode="!" horiz-adv-x="595" d="M260 86q0 41 27.5 69.5t70.5 28.5q41 0 69 -28.5t28 -69.5t-28 -70.5t-69 -29.5q-43 0 -70.5 29.5t-27.5 70.5zM301 1300l219 72l-121 -1050l-63 -21z" />
<glyph unicode="&#x22;" horiz-adv-x="591" d="M102 1327l152 27l-31 -400l-90 -24zM338 1327l151 27l-30 -400l-90 -24z" />
<glyph unicode="#" horiz-adv-x="1269" d="M82 399l29 105h256l59 221h-254l29 104h256l125 445h108l-123 -445h277l125 445h110l-123 -445h232l-29 -104h-233l-62 -221h234l-29 -105h-235l-123 -444h-109l123 444h-281l-120 -444h-109l123 444h-256zM475 504h281l59 221h-278z" />
<glyph unicode="$" horiz-adv-x="870" d="M119 227q0 88 6 155t16 114h64q0 -78 18.5 -132.5t36.5 -82.5q47 -10 84 -11q74 0 120 15.5t72.5 43t37 63.5t10.5 77q0 59 -34 93t-85 56.5t-111.5 43t-112 52t-85 82t-33.5 134.5q0 49 15.5 87t42 66.5t60 48t72.5 31.5l21 269l96 10l-31 -264q10 2 18 2h17h32 q15 0 32 -2l18 254l96 10l-32 -277q29 -4 55.5 -11t50.5 -13q0 -61 -5 -104.5t-15 -110.5h-64q0 12 -3 33.5t-8 45t-12.5 46t-17.5 34.5q-29 4 -52.5 6.5t-41.5 2.5q-94 0 -136 -49.5t-42 -114.5q0 -63 34.5 -99t86 -59.5t112 -43t111.5 -48.5t86 -76t35 -127 q0 -98 -61.5 -172t-178.5 -102l-18 -264l-97 -11l29 260q-12 -2 -26 -2h-27h-45l-17 -247l-96 -11l31 267q-76 12 -129 32z" />
<glyph unicode="%" horiz-adv-x="1554" d="M113 1024q0 78 22.5 139.5t60 103.5t91 63.5t114.5 21.5t114.5 -21.5t91.5 -63.5t60.5 -103.5t22.5 -139.5q0 -156 -80 -243t-209 -87q-61 0 -114.5 22.5t-91 64.5t-60 103.5t-22.5 139.5zM201 1024q0 -96 57 -144.5t143 -48.5t145.5 47.5t59.5 145.5t-59.5 146.5 t-145.5 48.5t-143 -50.5t-57 -144.5zM252 10q244 344 475 684t459 686l110 -73q-244 -342 -477 -683t-459 -690zM864 317q0 158 83 242t208 84q61 0 113.5 -21.5t90.5 -62.5t60.5 -102.5t22.5 -139.5q0 -158 -80 -244.5t-207 -86.5q-125 0 -208 86.5t-83 244.5zM952 317 q0 -98 56.5 -146t146.5 -48q84 0 143.5 48t59.5 146q0 96 -59.5 145.5t-143.5 49.5q-90 0 -146.5 -50.5t-56.5 -144.5z" />
<glyph unicode="&#x26;" horiz-adv-x="1304" d="M70 344q0 143 96 258t285 193q-12 66 -13 139q0 78 27 147.5t73 121.5t109.5 82t138.5 30q45 0 94.5 -12.5t91.5 -42t69.5 -76.5t27.5 -117q0 -35 -14.5 -74t-42 -74.5t-67.5 -65.5t-93 -46q47 -6 89 -9t85 -3q45 0 94 5t109 15l18 -72q-41 -10 -79 -16t-72 -10 q0 -129 -35 -246t-94 -211q45 -41 98 -82t90 -65q23 -6 46.5 -8.5t51.5 -2.5h42q22 0 44 2l21 -65q-29 -14 -62 -27q-29 -10 -60.5 -18t-63.5 -8q-25 0 -60 17t-75 45t-79.5 59.5t-70.5 58.5q-78 -84 -180.5 -132t-216.5 -48q-96 0 -174 29.5t-133.5 79.5t-85 114.5 t-29.5 134.5zM233 358q0 -53 18.5 -104t53.5 -91t86 -63.5t117 -23.5q88 0 167 43t142 112q-104 98 -197.5 217t-148.5 263q-131 -66 -184.5 -153t-53.5 -200zM580 934q0 -88 25.5 -172t68.5 -160t98 -143.5t115 -124.5q45 80 70.5 177t25.5 202q-70 4 -147.5 11t-143.5 24 v73q117 29 167 98.5t50 147.5q0 66 -40 115t-99 49q-37 0 -71.5 -16.5t-60.5 -51.5t-42 -92t-16 -137z" />
<glyph unicode="'" horiz-adv-x="356" d="M102 1327l152 27l-31 -400l-90 -24z" />
<glyph unicode="(" horiz-adv-x="720" d="M150 516q0 115 26.5 233.5t72.5 232.5t107.5 218.5t128.5 190.5h86q-68 -92 -118 -199t-82.5 -218.5t-49 -227t-16.5 -230.5q0 -113 16.5 -228.5t49 -228t83 -218t117.5 -197.5h-86q-68 86 -129 190.5t-107 218t-72.5 232t-26.5 231.5z" />
<glyph unicode=")" horiz-adv-x="720" d="M150 -356q68 92 117.5 197.5t83.5 218t50.5 228t16.5 228.5q0 115 -16.5 230.5t-49.5 227t-84 218t-118 199.5h86q68 -86 129 -190.5t107 -218.5t72.5 -232.5t26.5 -233.5q0 -113 -26.5 -231.5t-72.5 -232t-107.5 -218t-128.5 -190.5h-86z" />
<glyph unicode="*" horiz-adv-x="884" d="M113 1069l12 154q125 -41 192.5 -81t83.5 -57q-2 55 -13 129t-36 140l150 32q0 -131 -18.5 -205.5t-28.5 -101.5q53 20 119.5 54t119.5 77l78 -131q-96 -35 -176 -43t-127 -8q33 -45 85 -97t112 -89l-101 -115q-78 106 -107.5 178t-35.5 94q-31 -47 -65.5 -112.5 t-49.5 -130.5l-141 59q78 104 136 155.5t79 65.5q-45 12 -105.5 23.5t-119.5 11.5q-10 0 -21.5 -1t-21.5 -1z" />
<glyph unicode="+" horiz-adv-x="1269" d="M225 563v105h357v358h104v-358h358v-105h-358v-356h-104v356h-357z" />
<glyph unicode="," horiz-adv-x="434" d="M20 -262q53 63 76 121.5t23 107.5q0 39 -12.5 78t-30.5 72l164 45q16 -35 23 -64.5t7 -64.5q0 -49 -18.5 -98.5t-48 -95.5t-68.5 -87t-80 -78z" />
<glyph unicode="-" horiz-adv-x="1150" d="M203 512v100q102 -4 192 -5t180 -1t180.5 1t192.5 5v-100q-102 4 -193 5t-182 1q-90 0 -180 -1t-190 -5z" />
<glyph unicode="." horiz-adv-x="376" d="M82 92q0 45 30.5 77t75.5 32t76 -32t31 -77q0 -43 -31 -74.5t-76 -31.5t-75.5 31.5t-30.5 74.5z" />
<glyph unicode="/" horiz-adv-x="628" d="M-35 -176q139 397 267 789.5t251 787.5l125 -41q-139 -395 -268 -788.5t-252 -788.5z" />
<glyph unicode="0" d="M31 686q0 168 36.5 299t102.5 221t154 137.5t188 47.5q98 0 186 -47.5t152.5 -137.5t102.5 -221t38 -299q0 -166 -35.5 -296t-100 -220t-153 -137t-190.5 -47q-100 0 -188 47t-154 137t-102.5 220t-36.5 296zM207 682q0 -152 22.5 -265.5t63.5 -188t97 -112.5t122 -38 q129 0 216 150.5t87 453.5q0 152 -23.5 267.5t-63.5 193.5t-95 117.5t-121 39.5t-122 -39.5t-97 -117.5t-63.5 -193.5t-22.5 -267.5z" />
<glyph unicode="1" d="M123 1239q53 10 117.5 29.5t128 41t119 43t87.5 38.5h41v-1196q0 -31 24 -51.5t62.5 -34t90 -21.5t106.5 -16l-16 -72q-35 2 -81 4t-93 3t-91.5 2t-72.5 1q-45 0 -106.5 -1t-119.5 -3q-68 -2 -135 -6l-20 72q49 10 101 23.5t95 28.5t70 32.5t27 38.5v1017l-316 -43z" />
<glyph unicode="2" d="M66 0v84q178 156 317 313q59 68 115.5 142.5t101.5 151.5t71.5 154t26.5 146q0 86 -27.5 142.5t-71.5 88t-98.5 44t-107.5 12.5q-35 0 -76 -5t-75 -22q-10 -14 -17.5 -36.5t-12.5 -46t-7 -44t-2 -32.5h-66q-6 23 -12 55q-4 29 -9 68.5t-5 93.5q53 29 138 55.5t189 26.5 q205 0 327 -101.5t122 -281.5q0 -96 -50.5 -199.5t-125 -203t-161.5 -188.5t-163 -156.5t-126 -106.5l-50 -39l510 16q35 2 55.5 9t34.5 24.5t23.5 49.5t19.5 83h78q-4 -57 -6 -93t-3 -64.5t-1 -59.5v-80h-856z" />
<glyph unicode="3" d="M92 66l12 71q68 -20 139.5 -31.5t141.5 -11.5q88 0 154.5 25.5t111.5 68.5t67.5 97.5t22.5 111.5q0 59 -24.5 116.5t-73.5 104t-121.5 74t-171.5 27.5l-33 69q57 2 124 15.5t123.5 46.5t94 89t37.5 142q0 90 -67.5 145.5t-186.5 55.5q-41 0 -92 -10t-88 -33 q-10 -14 -17 -36.5t-12.5 -46t-7.5 -44t-2 -33.5h-65q-6 23 -13 56q-4 29 -9 68.5t-5 92.5q74 33 175.5 64t213.5 31q78 0 144.5 -20.5t115.5 -57.5t77 -88t28 -113q0 -76 -30 -135t-79 -102.5t-113.5 -70t-134.5 -36.5q78 -8 151 -30.5t128 -65.5t89 -111.5t34 -167.5 q0 -90 -35 -164.5t-98.5 -129t-152.5 -85t-200 -30.5q-113 0 -204 26.5t-148 55.5z" />
<glyph unicode="4" d="M16 352v84l611 955h157l-665 -953l506 13v604l159 84v-686l199 6v-107h-199v-159q0 -31 13.5 -50.5t41 -32t69.5 -20.5t100 -16l-21 -74q-63 4 -94 5t-54.5 2t-48.5 1h-79q-45 0 -87 -1t-75 -3q-37 -2 -70 -4l-22 74q66 23 117 50.5t51 68.5v159h-609z" />
<glyph unicode="5" d="M100 68l13 71q61 -20 128.5 -31.5t135.5 -11.5q94 0 157.5 27t102.5 70t55.5 98t16.5 115q0 63 -26 125.5t-87 111.5t-164.5 79t-257.5 30l100 602q176 10 276.5 19t153 22.5t67.5 33t22 50.5h81q-2 -33 -4 -69t-3 -68.5t-2 -59.5t-1 -39h-526l-39 -424q100 0 207.5 -13 t197 -58.5t146.5 -129t57 -223.5q0 -90 -33.5 -164.5t-95 -129t-148.5 -85t-196 -30.5q-111 0 -196 26.5t-138 55.5z" />
<glyph unicode="6" d="M78 506q0 156 54 308.5t156.5 276t250 204.5t335.5 96l13 -52q-166 -37 -277.5 -111.5t-184.5 -167.5t-109.5 -195.5t-53.5 -194.5q63 41 137 62.5t150 21.5q78 0 149.5 -21.5t127 -66.5t88 -113t32.5 -160t-31.5 -166.5t-91 -128t-143.5 -83t-186 -29.5q-94 0 -171 38.5 t-131.5 107.5t-84 165t-29.5 209zM250 467q0 -193 63.5 -300.5t180.5 -107.5q68 0 119 27t84.5 72t50 101t16.5 116q0 55 -16.5 109.5t-50 96.5t-85 67.5t-118.5 25.5q-68 0 -127.5 -24.5t-108.5 -61.5q-4 -33 -6 -62.5t-2 -58.5z" />
<glyph unicode="7" d="M90 1077q4 59 7 94t4 65t1 59v79h842v-37l-516 -1337l-211 -14l612 1271l-516 -26q-37 -2 -58.5 -7t-36.5 -20.5t-24.5 -45.5t-21.5 -81h-82z" />
<glyph unicode="8" d="M72 313q0 49 19.5 105.5t58 109t97 97.5t136.5 73q-68 49 -119 90t-86 83t-52 88.5t-17 101.5q0 68 26.5 128t78.5 104t127 71t171 27q90 0 165 -24t129 -65.5t85 -100t31 -126.5q0 -57 -22.5 -108.5t-60.5 -95.5t-90.5 -81.5t-111.5 -66.5q88 -59 147.5 -109.5 t96.5 -96.5t53 -91t18 -92q0 -72 -30.5 -135.5t-87 -110.5t-137.5 -74.5t-181 -27.5q-96 0 -178 24.5t-141.5 68.5t-92 104t-32.5 130zM242 326q0 -115 79.5 -181.5t200.5 -66.5q115 0 180.5 57.5t65.5 149.5q0 47 -10 86t-43 80t-95.5 90t-164.5 116q-113 -59 -163 -140.5 t-50 -190.5zM256 1102q0 -45 20.5 -85t60.5 -78t100.5 -80t140.5 -95q41 23 74.5 58.5t58 77.5t38 87t13.5 84q-4 117 -72.5 176.5t-185.5 59.5q-129 0 -188.5 -59.5t-59.5 -145.5z" />
<glyph unicode="9" d="M76 961q0 90 32.5 168.5t92 137t142.5 91.5t185 33q96 0 173 -39t131.5 -108.5t84 -165t29.5 -210.5q0 -156 -52 -304t-153.5 -269t-250 -203t-340.5 -106l-13 47q160 37 270.5 107.5t182.5 159.5t110.5 188.5t57.5 189.5q-47 -55 -117 -77.5t-141 -22.5 q-199 0 -311.5 101.5t-112.5 281.5zM264 956q0 -154 67.5 -230.5t196.5 -76.5q31 0 65 8.5t66.5 24.5t60.5 43t46 63q4 31 6 63t2 62q0 190 -63.5 297t-173.5 107q-135 0 -204 -100.5t-69 -260.5z" />
<glyph unicode=":" horiz-adv-x="376" d="M82 92q0 45 30.5 77t75.5 32t76 -32t31 -77q0 -43 -31 -74.5t-76 -31.5t-75.5 31.5t-30.5 74.5zM82 831q0 45 30.5 77t75.5 32t76 -31.5t31 -77.5q0 -43 -31 -74.5t-76 -31.5t-75.5 31.5t-30.5 74.5z" />
<glyph unicode=";" horiz-adv-x="434" d="M20 -262q53 63 76 121.5t23 107.5q0 39 -12.5 78t-30.5 72l164 45q16 -35 23 -64.5t7 -64.5q0 -49 -18.5 -98.5t-48 -95.5t-68.5 -87t-80 -78zM61 831q0 45 31 77t76 32t75.5 -31.5t30.5 -77.5q0 -43 -30.5 -74.5t-75.5 -31.5t-76 31.5t-31 74.5z" />
<glyph unicode="&#x3c;" horiz-adv-x="1269" d="M236 614l722 445l76 -90l-614 -355l614 -354l-76 -90z" />
<glyph unicode="=" horiz-adv-x="1269" d="M225 399v105h819v-105h-819zM225 725v104h819v-104h-819z" />
<glyph unicode="&#x3e;" horiz-adv-x="1269" d="M236 260l614 354l-614 355l75 90l723 -445l-723 -444z" />
<glyph unicode="?" horiz-adv-x="808" d="M223 84q0 41 29 70.5t70 29.5t68.5 -29.5t27.5 -70.5t-28 -69.5t-68 -28.5q-41 0 -70 28.5t-29 69.5zM233 526q63 29 122 68t104 91t71.5 116.5t26.5 144.5q0 49 -13.5 102.5t-48 101.5t-95 87t-152.5 63v72q96 -12 183 -39.5t154.5 -76t107.5 -117t40 -160.5 q0 -90 -34.5 -165t-90 -134t-125 -103.5t-137.5 -74.5l2 -180l-63 -17z" />
<glyph unicode="@" horiz-adv-x="1712" d="M94 451q0 178 68.5 332.5t185.5 269t273.5 181t330.5 66.5q150 0 273 -45t210 -128t135 -197.5t48 -253.5q0 -113 -29.5 -220.5t-89 -190.5t-149.5 -133t-213 -50q-41 0 -80 48t-39 130q0 45 16 107h-8q-20 -72 -53 -127.5t-71 -94.5t-80 -58t-81 -19q-49 0 -90 26.5 t-69.5 73.5t-45 113.5t-16.5 148.5q0 106 32 197.5t88 158t133 104.5t167 38q35 0 81 -14.5t93 -45.5l33 117h53q-27 -246 -47 -399.5t-20 -243.5q0 -86 22.5 -124t73.5 -38q63 0 114.5 38t88 103.5t56 151.5t19.5 184q0 123 -44 225.5t-121.5 177.5t-184 116t-231.5 41 q-150 0 -274 -54.5t-214 -152t-140 -232.5t-50 -297q0 -156 45 -279.5t124 -209.5t185.5 -132t231.5 -46q129 0 230 33.5t193 101.5l48 -70q-102 -68 -226.5 -105.5t-259.5 -37.5q-158 0 -291 47t-229 138t-150.5 224.5t-54.5 305.5zM657 453q0 -57 9.5 -110.5t28 -94.5 t45 -65.5t61.5 -24.5q49 0 96 61.5t83 159.5t58.5 219t22.5 240q-33 16 -59.5 22t-61.5 6q-129 0 -206 -111.5t-77 -301.5z" />
<glyph unicode="A" horiz-adv-x="1388" d="M0 63q80 25 133 53.5t72 80.5l430 1124h106l445 -1137q20 -51 73.5 -77.5t170.5 -43.5l-15 -73q-59 4 -98 6t-72 3t-66 1h-83q-41 0 -84 -2t-78 -4q-41 -2 -78 -4l-22 73q35 10 68.5 22.5t60 26t42 27t15.5 27.5q0 6 -2 11t-10.5 28.5t-26.5 74t-51 146.5h-522 q-16 -43 -33 -87t-29 -80t-19.5 -59.5t-7.5 -27.5q0 -18 21.5 -34.5t55.5 -30t77 -24.5t88 -20l-16 -73q-33 2 -71 4t-77 3t-74.5 2t-62.5 1q-41 0 -84 -2t-78 -4q-41 -2 -80 -4zM430 508h469l-231 637z" />
<glyph unicode="B" horiz-adv-x="1153" d="M82 72q80 25 131 53.5t51 69.5v935q0 41 -51 71t-131 52l20 74q66 -2 131.5 -3t124 -2t103.5 -1h67q229 0 361.5 -78t132.5 -237q0 -66 -25.5 -119t-67.5 -91t-95.5 -62.5t-110.5 -35.5v-2q80 -6 151.5 -29.5t124 -65.5t83 -99.5t30.5 -128.5q0 -96 -43 -166t-119 -116 t-179 -68.5t-224 -22.5h-445zM412 195q0 -33 17 -54.5t45 -35t61.5 -18.5t68.5 -5q90 0 154.5 24.5t106.5 65.5t62.5 94t20.5 109q0 68 -28.5 120t-77.5 87.5t-113.5 53t-136.5 17.5h-180v-458zM412 729h170q59 0 110 19.5t88 54.5t57.5 83t20.5 105q0 129 -83 188.5 t-245 59.5q-31 0 -63.5 -2t-54.5 -6v-502z" />
<glyph unicode="C" horiz-adv-x="1073" d="M51 649q0 162 47 290t133 217t209 136t275 47q90 0 168 -17t125 -34q0 -53 -4.5 -96t-8.5 -74q-6 -37 -12 -61h-65q0 12 -3.5 36.5t-8.5 51t-13 51.5t-19 37q-33 8 -72.5 12t-90.5 4q-109 0 -198 -41t-151.5 -115.5t-96.5 -181t-34 -237.5q0 -125 30 -233.5t89.5 -189.5 t148.5 -128t208 -47q102 0 174.5 18.5t132.5 46.5l18 -75q-59 -31 -154.5 -55.5t-199.5 -24.5q-154 0 -270.5 47t-196.5 134t-120 209.5t-40 272.5z" />
<glyph unicode="D" horiz-adv-x="1347" d="M82 72q82 25 132 53.5t50 69.5v935q0 41 -50 71t-132 52l20 74q121 0 222 -2q43 0 87 -1t81.5 -2t67.5 -1h44q168 0 300 -52t224.5 -142.5t140.5 -212t48 -261.5q0 -141 -44 -260t-132 -207t-217 -137t-299 -49h-523zM412 195q0 -23 8 -43.5t29.5 -36t57.5 -24.5t89 -9 q135 0 238.5 43t172 118.5t103.5 181t35 228.5q0 119 -36 223.5t-104.5 183.5t-167 125t-225.5 46q-59 0 -110 -3t-90 -7v-1026z" />
<glyph unicode="E" horiz-adv-x="1036" d="M82 61q80 25 131 53.5t51 69.5v951q0 41 -51 70.5t-131 51.5l20 74q82 -2 160 -4q66 -2 134.5 -4t109.5 -2h105q56 0 113.5 1t111 3t94.5 6q0 -66 -4 -118t-8 -87q-6 -41 -13 -69h-61q0 12 -2 33.5t-7.5 45t-12.5 46t-17 37.5l-393 8v-504h444v-119l-444 43v-463 q0 -29 11 -46t50 -27.5t115 -13.5t203 -3q31 0 50 11.5t31.5 35t21.5 60.5t17 88h74q-4 -57 -7 -94t-4 -66t-1 -59v-80q-117 6 -243 8t-224 2q-41 0 -109.5 -2t-134.5 -4q-78 -2 -160 -4z" />
<glyph unicode="F" horiz-adv-x="956" d="M82 61q82 25 132 53.5t50 69.5v951q0 41 -50 70.5t-132 51.5l22 74q84 -2 162 -4q66 -2 135.5 -4t110.5 -2h105q56 0 113.5 1t111 3t94.5 6q0 -66 -4 -118t-8 -87q-6 -41 -15 -69h-61q0 12 -3 33.5t-7 46t-11.5 49t-17.5 41.5h-397v-525h446v-118l-446 43v-443 q0 -31 17 -51t48 -33.5t74 -21.5t94 -17l-14 -71q-57 2 -92 4t-61.5 4t-55.5 2h-78q-41 0 -84 -2t-78 -4q-41 -2 -78 -4z" />
<glyph unicode="G" horiz-adv-x="1259" d="M51 649q0 141 45 266t134 219.5t224.5 149.5t313.5 55q86 0 172 -14t145 -37q0 -53 -3 -96t-7 -74q-6 -37 -12 -61h-68q0 12 -3 35.5t-8 50t-12 51.5t-18 37q-41 10 -86 14t-92 4q-135 0 -236.5 -45t-171 -122.5t-104.5 -182t-35 -225.5q0 -125 30 -233.5t89.5 -189.5 t148.5 -128t208 -47q106 0 185 16.5t120 32.5v201q0 31 -17.5 51t-48.5 33.5t-74 21.5t-94 17l15 73q59 -4 93 -6t61.5 -4t55.5 -2h78q84 0 133 6l50 6l18 -73q-18 -12 -39.5 -24.5t-40 -28t-31 -33t-12.5 -37.5v-269q-94 -31 -221 -51t-258 -20q-154 0 -271.5 47 t-196.5 134t-119 209.5t-40 272.5z" />
<glyph unicode="H" horiz-adv-x="1525" d="M82 61q84 25 134 53.5t50 69.5v953q0 41 -50 69.5t-134 53.5l20 71q39 -2 80 -4q35 -2 79 -4t85 -2q27 0 62.5 1t74.5 2t77 3t71 4l16 -71q-51 -8 -94 -17.5t-73.5 -23t-48 -34t-17.5 -50.5v-406h665v408q0 41 -50 69.5t-134 53.5l20 71q39 -2 80 -4q35 -2 79 -4t85 -2 q27 0 62.5 1t74.5 2t77 3t71 4l16 -71q-51 -8 -94 -17.5t-73.5 -23t-48 -34t-17.5 -50.5v-951q0 -31 17.5 -51t48 -32.5t73.5 -20.5t94 -19l-16 -71q-33 2 -71 4t-77 3t-74.5 2t-62.5 1q-41 0 -85 -2t-79 -4q-41 -2 -80 -4l-20 71q84 25 134 53.5t50 69.5v461h-665v-461 q0 -31 17.5 -51t48 -32.5t73.5 -20.5t94 -19l-16 -71q-33 2 -71 4t-77 3t-74.5 2t-62.5 1q-41 0 -85 -2t-79 -4q-41 -2 -80 -4z" />
<glyph unicode="I" horiz-adv-x="712" d="M82 61q84 25 134 53.5t50 69.5v953q0 41 -50 69.5t-134 53.5l20 71q39 -2 80 -4q35 -2 79 -4t85 -2q27 0 62.5 1t74.5 2t77 3t71 4l16 -71q-51 -8 -94 -17.5t-73.5 -23t-48 -34t-17.5 -50.5v-951q0 -31 17.5 -51t48 -32.5t73.5 -20.5t94 -19l-16 -71q-33 2 -71 4t-77 3 t-74.5 2t-62.5 1q-41 0 -85 -2t-79 -4q-41 -2 -80 -4z" />
<glyph unicode="J" horiz-adv-x="651" d="M-121 -375q0 51 1 92t4 76t7.5 68t10.5 67h59q0 -39 9.5 -83t19.5 -70q111 0 172 22.5t92 66.5t38 109.5t7 151.5v1010q0 31 -16.5 51t-47 33.5t-73.5 22.5t-96 18l16 71q33 -2 70.5 -4t76.5 -3t75 -2t63 -1q41 0 85 2t78 4q41 2 80 4l21 -71q-84 -25 -134.5 -53.5 t-50.5 -69.5v-973q0 -113 -45 -211t-121.5 -171t-180 -115t-220.5 -42z" />
<glyph unicode="K" horiz-adv-x="1282" d="M82 61q84 25 134 53.5t50 69.5v953q0 41 -50 69.5t-134 53.5l20 71q39 -2 80 -4q35 -2 79 -4t85 -2q27 0 62.5 1t74.5 2t77 3t71 4l16 -71q-51 -8 -94 -17.5t-73.5 -23t-48 -34t-17.5 -50.5v-455l538 641q59 0 125 1t137 9l17 -74q-51 -8 -85 -15t-58.5 -15t-44 -20.5 t-39.5 -32.5l-459 -490q49 -14 115.5 -79.5t135 -151.5t132 -175.5t106.5 -150.5q23 -18 92.5 -28.5t153.5 -10.5l18 -61q-51 -14 -100 -25q-41 -10 -86 -18.5t-76 -8.5q-37 0 -63.5 7.5t-44.5 35.5q-45 70 -109.5 161t-135.5 184.5t-141.5 175.5t-127.5 133v-488 q0 -31 17.5 -51t48 -32.5t73.5 -20.5t94 -19l-16 -71q-33 2 -71 4t-77 3t-74.5 2t-62.5 1q-41 0 -85 -2t-79 -4q-41 -2 -80 -4z" />
<glyph unicode="L" horiz-adv-x="989" d="M82 1260l20 71q39 -2 80 -4q35 -2 79 -4t85 -2q27 0 62.5 1t74.5 2t77 3t71 4l16 -71q-51 -8 -94 -17.5t-73.5 -23t-48 -34t-17.5 -50.5v-951q0 -29 9 -46t46 -27.5t109.5 -13.5t197.5 -3q31 0 51.5 11.5t32.5 35t20.5 60.5t16.5 88h72q-2 -57 -4 -94t-3 -66t-1 -59v-80 q-117 8 -236 9t-215 1q-23 0 -67 -1t-99 -2t-117 -3l-123 -4l-20 71q80 25 131 53.5t51 69.5v953q0 41 -50 69.5t-134 53.5z" />
<glyph unicode="M" horiz-adv-x="1855" d="M61 63q84 23 132.5 50.5t50.5 70.5l47 953q-2 41 -49 69.5t-133 53.5l20 73q133 -12 346 -12l422 -1065l459 1075q43 -4 88 -7t88 -3t96 2t105 10l14 -73q-106 -18 -170 -42t-64 -81q0 -6 2.5 -57.5t6.5 -131.5t9 -179t10 -202.5t10 -203t10 -179.5q4 -61 66.5 -81.5 t166.5 -39.5l-18 -73q-20 2 -52 4t-67 4t-72 2h-67q-90 0 -155 -3t-110 -7l-20 73q82 23 132 51.5t50 69.5q0 18 -3 94t-7 180.5t-9 222.5t-9.5 219t-7.5 170t-3 75h-8l-440 -1077h-103l-436 1077h-8q-2 -80 -5 -177.5t-6 -198.5t-5.5 -198.5t-5.5 -177.5t-4 -135t-1 -72 q0 -61 64.5 -82.5t173.5 -40.5l-19 -73q-57 4 -92 6t-63.5 3t-58.5 1h-76q-43 0 -79 -2t-65 -4q-33 -2 -57 -4z" />
<glyph unicode="N" horiz-adv-x="1474" d="M61 63q82 23 132.5 51.5t50.5 69.5v953q0 41 -50.5 69.5t-132.5 53.5l21 73q68 -4 151.5 -8t147.5 -4l778 -1182h8l-18 998q0 41 -51 69.5t-131 53.5l18 73q27 -2 62 -6q59 -6 147 -6q49 0 81 1t57.5 2t52 4t63.5 5l16 -73q-104 -18 -154 -39t-50 -84v-1137h-166 l-750 1116h-6q0 -12 2 -52t5 -141.5t6 -278.5t5 -460q0 -61 65.5 -82.5t168.5 -38.5l-17 -73q-57 4 -92 6t-63.5 3t-58.5 1h-76q-41 0 -78 -2t-66 -4q-33 -2 -57 -4z" />
<glyph unicode="O" horiz-adv-x="1390" d="M51 649q0 166 54.5 294t146.5 216t212 134t251 46q139 0 254.5 -44t197.5 -128t127 -206.5t45 -282.5q0 -166 -54 -295t-146 -217t-212 -134t-249 -46q-154 0 -271.5 47t-196.5 134t-119 209.5t-40 272.5zM229 674q0 -125 30 -233.5t89.5 -189.5t148.5 -128t208 -47 q92 0 175 40t144 114.5t97 182t36 240.5t-31.5 244t-93 188.5t-149.5 120.5t-201 43q-94 0 -176 -41t-143.5 -115.5t-97.5 -181t-36 -237.5z" />
<glyph unicode="P" horiz-adv-x="1075" d="M82 61q84 25 134 53.5t50 69.5v946q0 41 -51 70t-131 51l20 74q47 -2 109.5 -3t129.5 -1h128h104q227 0 348 -100.5t121 -266.5q0 -78 -28.5 -153.5t-89 -136t-154.5 -97.5t-227 -37q-72 0 -131 13v-359q0 -31 17.5 -51t48 -32.5t73.5 -20.5t94 -19l-16 -71q-33 2 -71 4 t-77 3t-74.5 2t-62.5 1q-41 0 -85 -2t-79 -4q-41 -2 -80 -4zM414 614q61 -12 118 -12q88 0 154 26.5t109 71.5t64.5 106.5t21.5 131.5q0 135 -84 214t-234 79q-55 0 -94 -3t-55 -7v-607z" />
<glyph unicode="Q" horiz-adv-x="1411" d="M61 649q0 166 54.5 294t146.5 216t212 134t251 46q139 0 255 -44t198 -128t127 -206.5t45 -282.5q0 -141 -41 -257t-112 -202t-164 -141t-199 -78q84 0 174 -34t168.5 -75t134.5 -77l67 -45q23 -16 85.5 -26.5t146.5 -10.5l16 -62q-51 -14 -100 -24q-41 -10 -86 -17.5 t-76 -7.5q-39 0 -84 26.5t-97.5 67.5t-109.5 88t-118.5 88t-129 68t-137.5 27q-154 0 -271.5 47t-196.5 134t-119 209.5t-40 272.5zM240 674q0 -125 29.5 -233.5t89 -189.5t148.5 -128t208 -47q92 0 175 40t144.5 114.5t97 182t35.5 240.5t-31.5 244t-93 188.5t-149.5 120.5 t-201 43q-94 0 -176 -41t-143.5 -115.5t-97 -181t-35.5 -237.5z" />
<glyph unicode="R" horiz-adv-x="1239" d="M82 61q84 25 134 53.5t50 69.5v949q0 41 -51 69.5t-131 52.5l20 72q123 -4 244 -5t240 -1q231 0 343.5 -97.5t112.5 -254.5q0 -61 -22.5 -118.5t-68.5 -107t-114.5 -84t-158.5 -49.5q49 -14 94 -68.5t89 -126t87 -149.5t86 -139q23 -18 92.5 -28.5t153.5 -10.5l18 -61 q-51 -14 -100 -25q-41 -10 -86 -18.5t-76 -8.5q-37 0 -64.5 7.5t-43.5 35.5q-49 70 -99.5 169.5t-97.5 191.5t-87 156.5t-66 64.5q-49 0 -99.5 3t-66.5 7v-426q0 -31 17.5 -51t48 -32.5t73.5 -20.5t94 -19l-16 -71q-33 2 -71 4t-77 3t-74.5 2t-62.5 1q-41 0 -85 -2t-79 -4 q-41 -2 -80 -4zM414 688q66 -12 123 -12q92 0 156.5 25.5t106.5 65.5t61.5 90t19.5 101q0 129 -79 200t-227 71q-51 0 -92 -2t-69 -6v-533z" />
<glyph unicode="S" horiz-adv-x="964" d="M82 47q0 92 6 157.5t16 117.5h64q0 -86 17.5 -142.5t39.5 -83.5q78 -18 164 -18q74 0 135.5 18.5t107.5 55t71.5 90t25.5 123.5q0 86 -48 139t-118.5 91t-154.5 69.5t-155 74.5t-119 106.5t-48 164.5q0 80 30.5 141t85 103t127 63.5t156.5 21.5q111 0 196 -17t132 -36 q0 -53 -4 -93t-8 -69q-6 -33 -15 -55h-65q0 12 -2 32.5t-7 44t-12.5 46t-17.5 37.5q-41 10 -85 14t-91 4q-106 0 -176 -58.5t-70 -164.5q0 -78 48 -126t119 -84t155 -67.5t154.5 -77.5t118.5 -116t48 -180q0 -86 -33.5 -158t-98 -122t-157 -78.5t-211.5 -28.5q-35 0 -76.5 4 t-84.5 12t-85 19.5t-75 25.5z" />
<glyph unicode="T" horiz-adv-x="1103" d="M31 1331q127 -6 261 -8t263 -2q125 0 259 2t259 8q0 -66 -4 -118t-8 -87q-6 -41 -12 -69h-62q0 12 -3 34.5t-8 48t-12.5 49t-17.5 36.5q-45 2 -92 3t-76 1h-151v-1045q0 -31 16 -51t47 -32.5t74 -20.5t94 -19l-16 -71q-20 2 -54 4t-72 4t-77 2h-70q-90 0 -147 -3t-105 -7 l-20 71q78 25 130 53.5t52 69.5v1045h-174q-29 0 -64.5 -1t-82.5 -3q-10 -12 -18.5 -36t-13.5 -49.5t-8 -48t-3 -34.5h-62q-4 29 -10 69q-4 35 -8 87t-4 118z" />
<glyph unicode="U" horiz-adv-x="1406" d="M61 1257l19 74q53 -4 124.5 -7t119.5 -3q27 0 61.5 1t73.5 2t76.5 3t68.5 4l17 -74q-51 -8 -94.5 -16t-74 -20.5t-48 -32t-17.5 -49.5v-713q0 -78 26.5 -141.5t72.5 -109.5t108.5 -71.5t136.5 -25.5q154 0 246 85t92 251v723q0 41 -51 69.5t-131 50.5l20 74 q41 -4 101.5 -7t107.5 -3q27 0 62.5 1t74.5 2t77 3t69 4l16 -74q-51 -8 -94 -16t-75 -20.5t-49 -33t-17 -50.5v-699q0 -117 -36 -201.5t-100.5 -141t-154.5 -83t-197 -26.5q-117 0 -201.5 33.5t-140 92t-83 136.5t-27.5 168v727q0 39 -51.5 65t-127.5 49z" />
<glyph unicode="V" horiz-adv-x="1390" d="M-20 1257l14 74q59 -4 98 -6t72 -3t66 -1h83q41 0 84 2t78 4q41 2 78 4l22 -74q-35 -10 -68.5 -22t-59 -25.5t-41 -27t-15.5 -27.5q0 -6 17.5 -58.5t46 -135t65.5 -186t76 -211t77 -212t66 -186.5h6q31 86 68 190.5t75 212t74.5 210t65.5 184t46.5 134t17.5 58.5 q0 16 -22.5 31.5t-57.5 29t-78 23.5t-86 18l16 74q68 -6 132.5 -8t123.5 -2q86 0 154.5 3t116.5 7l20 -74q-78 -25 -132 -53t-75 -80l-430 -1138h-106l-445 1149q-20 53 -73 79.5t-170 42.5z" />
<glyph unicode="W" horiz-adv-x="1857" d="M-20 1257l18 74q55 -4 126 -7t116 -3q27 0 62.5 1t74.5 2t78 3t69 4l17 -74q-43 -8 -82 -17t-70 -19.5t-48 -24.5t-17 -31l1 -5q1 -5 7 -34.5t18 -91t36 -175.5t59.5 -289t86.5 -429h9q4 14 17 64.5t47 170.5t94.5 328.5t156.5 540.5h129q102 -311 167 -515t102.5 -327.5 t54 -182t22.5 -79.5h8l209 1033q0 35 -40 51t-126 32l17 74q33 -2 66.5 -4t64.5 -3t54.5 -2t31.5 -1q41 0 84 2t78 4q41 2 80 4l20 -74q-41 -6 -76 -15t-61.5 -24.5t-44 -41t-27.5 -64.5l-266 -1126h-150l-342 1024l-323 -1024h-154l-282 1171q-10 47 -55 62t-117 38z" />
<glyph unicode="X" horiz-adv-x="1449" d="M82 66q53 8 89 15t62.5 17.5t46 25.5t35.5 40l314 475l-350 522q-16 25 -32 40.5t-35 25.5t-45 16t-65 14l15 74q33 -2 68.5 -4t69.5 -3t63.5 -2t50.5 -1q47 0 110.5 3t106.5 7l22 -74q-23 -2 -47 -9t-45.5 -17t-36 -21.5t-14.5 -23.5q0 -6 28.5 -53.5t68.5 -114t84 -137 t77 -121.5l336 561q59 0 127.5 1t140.5 9l14 -74q-51 -8 -87.5 -14t-63.5 -15t-46.5 -24.5t-35.5 -42.5l-317 -487l383 -531q23 -29 89 -40t148 -11l19 -61q-51 -14 -101 -25q-41 -10 -85 -18t-77 -8q-51 0 -78.5 15t-48.5 38l-342 520l-333 -559q-33 4 -61 5t-62 1 q-53 0 -144 -6z" />
<glyph unicode="Y" horiz-adv-x="1144" d="M-20 1260l16 73q76 -8 126 -10t101 -2q78 0 131.5 3t106.5 9l20 -73q-25 -4 -48 -11.5t-42.5 -16.5t-32 -20.5t-12.5 -25.5q0 -12 22.5 -65.5t58.5 -134.5t80 -181t87 -207h8q23 47 50.5 106.5t55 123t55.5 124t48 109.5t32.5 82t12.5 39q0 29 -44 44t-126 31l16 74 l66 -4q33 -2 60.5 -3t49 -2t29.5 -1q41 0 83 2t77 4l78 4l20 -74q-82 -14 -134 -40.5t-66 -55.5l-316 -676v-301q0 -31 17.5 -50t48 -32.5t73.5 -21.5t95 -17l-15 -73q-23 2 -55.5 4t-69 4t-74.5 2h-69q-90 0 -150.5 -3t-107.5 -7l-18 73q80 23 130 51.5t50 69.5v299 l-326 688q-23 39 -65.5 56t-132.5 33z" />
<glyph unicode="Z" horiz-adv-x="1206" d="M102 -10v98l832 1139l-684 -19q-14 -33 -22.5 -82t-8.5 -69h-59q-6 29 -13 69q-4 35 -8 87.5t-4 117.5q117 -6 232.5 -8t232.5 -2q129 0 259 2t259 8v-94l-823 -1147l704 27q18 23 29.5 64.5t24.5 107.5h71q-2 -57 -4 -94t-3 -66t-1 -59v-80q-127 6 -253 8t-253 2 q-129 0 -254 -3t-254 -7z" />
<glyph unicode="[" horiz-adv-x="667" d="M150 -348q4 240 6 476.5t2 475.5q0 391 -6 780h90q39 0 77.5 1t81.5 3.5t103 6.5q4 -16 7 -35t7 -37q-100 -14 -163.5 -34.5t-63.5 -80.5v-1378q0 -59 63.5 -79.5t163.5 -37.5q-4 -18 -7 -35.5t-7 -35.5q-53 2 -96 4t-83 4t-81 2h-94z" />
<glyph unicode="\" horiz-adv-x="628" d="M-35 1360l125 41q123 -395 251 -787.5t267 -789.5l-123 -41q-123 395 -252 788.5t-268 788.5z" />
<glyph unicode="]" horiz-adv-x="667" d="M150 -287q100 16 163.5 37t63.5 80v1378q0 59 -63.5 80t-163.5 35q4 18 7 36.5t7 35.5q59 -4 102 -6.5t82 -3.5t78 -1h90q-6 -389 -6 -780q0 -240 2 -476.5t6 -475.5h-93q-42 0 -82 -2t-83 -4t-96 -4q-4 18 -7 35.5t-7 35.5z" />
<glyph unicode="^" horiz-adv-x="935" d="M57 717q102 176 195.5 349t181.5 347h68q88 -174 181 -347t196 -349l-93 -58l-319 631l-317 -631z" />
<glyph unicode="_" horiz-adv-x="1064" d="M84 -102h897v-103q-123 4 -232.5 5t-218.5 1t-217 -1t-229 -5v103z" />
<glyph unicode="`" horiz-adv-x="860" d="M209 1278l67 129l375 -291l-26 -37z" />
<glyph unicode="a" horiz-adv-x="966" d="M72 225q0 59 28.5 112.5t94 92.5t171 61.5t261.5 22.5v133q0 117 -53.5 182.5t-178.5 65.5q-51 0 -85 -6t-58 -15q-8 -12 -16.5 -32.5t-13.5 -42t-8 -42t-3 -32.5h-57q-6 20 -13 51q-8 51 -12 156q49 16 129 31.5t176 15.5q162 0 248 -71.5t86 -227.5v-485q0 -14 6 -29.5 t27.5 -28t61.5 -20.5t108 -8l16 -60q-49 -14 -96 -24q-41 -10 -84 -17.5t-74 -7.5q-63 0 -85.5 29.5t-22.5 70.5q0 35 10 72l-6 2q-14 -33 -42 -66.5t-67 -61.5t-86 -44t-102 -16q-121 0 -190.5 64t-69.5 175zM231 236q0 -72 40 -113t112 -41q49 0 94 23.5t78 63.5t52.5 92 t19.5 112v67q-188 0 -292 -55t-104 -149z" />
<glyph unicode="b" horiz-adv-x="983" d="M-41 1464l21 72q27 -4 76.5 -8t121.5 -4h38q30 0 58 2v-600q0 -37 -2 -64.5t-6 -56.5l2 -2q29 70 101.5 123t169.5 53q86 0 156.5 -34t120.5 -96.5t78 -150.5t28 -196q0 -109 -31 -203t-89.5 -163.5t-144.5 -109.5t-196 -40q-49 0 -98.5 7t-93.5 20.5t-78.5 29.5 t-57.5 35v1268q0 31 -14.5 50t-38 31.5t-55 20.5t-66.5 16zM274 147q20 -23 63.5 -48t121.5 -25q66 0 120 33.5t92 92t58.5 138.5t20.5 172q0 172 -68 272.5t-186 100.5q-45 0 -86 -20.5t-71 -56.5t-47.5 -85t-17.5 -107v-467z" />
<glyph unicode="c" horiz-adv-x="806" d="M61 485q0 113 32 204t88.5 155.5t136 99.5t178.5 35q66 0 126 -13.5t111 -29.5q0 -100 -10 -158q-6 -31 -12 -53h-60q0 12 -3 33.5t-8 45t-12 45t-18 34.5q-12 6 -33.5 9t-37.5 3q-145 0 -222 -103.5t-77 -302.5q0 -195 65.5 -301t212.5 -106q61 0 119.5 11t107.5 28 l21 -72q-47 -20 -110.5 -41.5t-172.5 -21.5q-96 0 -174 34.5t-133 99t-85 156.5t-30 209z" />
<glyph unicode="d" horiz-adv-x="1075" d="M61 498q0 113 25 201.5t71 151t109.5 95.5t139.5 33q53 0 101 -10.5t88 -25.5t70.5 -32.5t51.5 -29.5v465q0 31 -14.5 50t-38 31.5t-55 20.5t-66.5 16l20 72q27 -4 77 -8t122 -4h39q31 0 57 2v-1331q0 -14 6 -29.5t26.5 -28t60.5 -20.5t108 -8l16 -60q-49 -14 -96 -24 q-41 -10 -84 -17.5t-74 -7.5q-63 0 -85.5 29.5t-22.5 70.5q0 35 10 72l-6 2q-41 -74 -111.5 -131t-183.5 -57q-170 0 -265.5 129t-95.5 383zM233 510q0 -96 12.5 -175t40 -135.5t71.5 -87t108 -30.5q57 0 104 29.5t80 74.5t50.5 98.5t17.5 100.5v416q-39 23 -107.5 52.5 t-154.5 29.5q-59 0 -101.5 -29t-69 -79t-39 -117.5t-12.5 -147.5z" />
<glyph unicode="e" horiz-adv-x="927" d="M61 463q0 123 36 218t97.5 161.5t142.5 101.5t169 35q168 0 259 -124t91 -351h-623q0 -190 73 -306t210 -116q51 0 114.5 5t155.5 34l21 -72q-45 -18 -123 -40.5t-203 -22.5q-195 0 -307.5 123t-112.5 354zM238 575h436q0 152 -46 236t-130 84q-102 0 -174 -81t-86 -239z " />
<glyph unicode="f" horiz-adv-x="741" d="M72 63q76 23 127 48.5t51 66.5v705l-133 10v63q61 10 97 23.5t40 52.5q12 100 47 196.5t96.5 172.5t150.5 122t208 46q31 0 67 -6q0 -16 -1 -45t-3 -64t-6 -71.5t-8 -69.5h-62q0 33 -5 64.5t-13 56.5q-33 6 -70 6q-53 0 -101 -21.5t-84 -77t-57.5 -148.5t-21.5 -237h324 v-106l-324 22v-694q0 -31 16.5 -49t46 -30.5t71.5 -19.5t93 -16l-16 -73q-31 2 -67.5 4t-74.5 3t-74 2t-62 1q-41 0 -82 -2t-76 -4q-39 -2 -76 -4z" />
<glyph unicode="g" horiz-adv-x="976" d="M20 -188q0 86 53.5 145t137.5 86q-47 23 -80 63.5t-33 106.5q0 29 10.5 52.5t24.5 44t29.5 34.5t27.5 25q-102 86 -102 252q0 86 27.5 152.5t77 112.5t118 69.5t150.5 23.5q29 0 64 -2l72 -4q36 -2 68.5 -4t55.5 -2q63 0 111.5 9t93.5 30v-132q-18 -6 -42 -10t-53 -4 q-31 0 -68.5 8.5t-57.5 18.5v-2q47 -29 82.5 -93.5t35.5 -140.5q0 -84 -28.5 -150.5t-79.5 -112.5t-123 -70.5t-156 -24.5q-94 0 -176 33q-18 -20 -31.5 -47t-13.5 -56q0 -61 45 -84.5t162 -23.5h151q68 0 130.5 -7.5t111.5 -29t79 -61.5t30 -103q0 -74 -42 -140.5 t-117 -117.5t-176.5 -82t-219.5 -31q-166 0 -257.5 74t-91.5 195zM174 -188q0 -98 66.5 -146.5t169.5 -48.5q80 0 146.5 23.5t113.5 61.5t72.5 87t25.5 100q0 39 -15.5 62.5t-43 36t-63.5 15.5t-79 3h-112q-35 0 -77 2t-75 6q-53 -18 -91 -71t-38 -131zM252 651 q0 -129 52 -210t159 -81q90 0 145.5 68t55.5 197q0 141 -57.5 214.5t-155.5 73.5q-88 0 -143.5 -66.5t-55.5 -195.5z" />
<glyph unicode="h" horiz-adv-x="1196" d="M61 61q78 23 127.5 50.5t49.5 66.5v1168q0 31 -14.5 50t-38 31.5t-54.5 20.5t-65 16l20 72q27 -4 77 -8t122 -4h38q30 0 56 2v-682q66 51 150.5 93t195.5 42q133 0 198.5 -65.5t65.5 -168.5v-565q0 -31 16.5 -50t47 -31.5t72.5 -20.5t92 -17l-17 -71q-31 2 -67.5 4 t-73.5 3t-72 2t-61 1q-41 0 -79 -2t-69 -4q-37 -2 -67 -4l-21 71q78 23 118 50.5t40 66.5v516q0 92 -48 134t-130 42q-41 0 -83 -12t-80 -30.5t-72 -40t-56 -37.5v-570q0 -31 15.5 -50t43 -31.5t68.5 -20.5t90 -17l-14 -71q-31 2 -68 4t-72.5 3t-68.5 2t-58 1 q-41 0 -81.5 -2t-75.5 -4l-78 -4z" />
<glyph unicode="i" horiz-adv-x="628" d="M82 63q76 23 127 48.5t51 66.5v600q0 31 -14.5 50.5t-38 31.5t-54 20.5t-65.5 16.5l21 72q27 -4 77 -8.5t121 -4.5h38q30 0 56 2v-780q0 -31 16.5 -49t46.5 -30.5t72 -19.5t93 -16l-17 -73q-31 2 -67.5 4t-74.5 3t-74 2t-62 1q-41 0 -82 -2t-76 -4q-39 -2 -76 -4z M217 1249q0 47 34 81t81 34t79.5 -34t32.5 -81t-32.5 -80.5t-79.5 -33.5t-81 33.5t-34 80.5z" />
<glyph unicode="j" horiz-adv-x="509" d="M-119 -489q0 100 5 167.5t16 126.5h59q0 -10 2 -27.5t6 -38.5l8 -43q4 -22 11 -38q41 6 83 32.5t75.5 68.5t56 96.5t22.5 113.5v809q0 31 -14 50.5t-37.5 31.5t-54.5 20.5t-66 16.5l21 72q27 -4 77 -8.5t121 -4.5h38q30 0 57 2v-835q0 -135 -50.5 -247t-124 -193.5 t-158.5 -126.5t-153 -45zM170 1249q0 47 34 81t81 34t79.5 -34t32.5 -81t-32.5 -80.5t-79.5 -33.5t-81 33.5t-34 80.5z" />
<glyph unicode="k" horiz-adv-x="1081" d="M61 63q76 23 127.5 48.5t51.5 66.5v1168q0 31 -13.5 50t-37 31.5t-54.5 20.5t-65 16l20 72q27 -4 77 -8t122 -4h38q30 0 56 2v-973l358 414q35 -4 65 -6.5t66 -2.5q27 0 49.5 1.5t63.5 7.5l19 -72q-72 -4 -137.5 -27.5t-114.5 -68.5l-181 -168l316 -506q29 -16 92 -23.5 t137 -7.5l17 -59q-49 -14 -97 -25q-41 -10 -84 -17t-73 -7q-74 0 -97 43l-286 532l-115 -104v-279q0 -31 16.5 -49t46 -30.5t71.5 -19.5t93 -16l-16 -73q-31 2 -68 4t-74.5 3t-73.5 2t-63 1q-41 0 -82 -2t-75 -4q-39 -2 -76 -4z" />
<glyph unicode="l" horiz-adv-x="608" d="M61 63q76 23 127.5 48.5t51.5 66.5v1168q0 31 -13.5 50t-37 31.5t-54.5 20.5t-65 16l20 72q27 -4 77 -8t122 -4h37q29 0 55 2v-1348q0 -31 16.5 -49t46 -30.5t71.5 -19.5t93 -16l-16 -73q-31 2 -68 4t-74.5 3t-73.5 2t-63 1q-41 0 -82 -2t-75 -4q-39 -2 -76 -4z" />
<glyph unicode="m" horiz-adv-x="1697" d="M82 61q78 23 127 50.5t49 66.5v598q0 31 -13.5 51.5t-37 32.5t-54 20.5t-65.5 16.5l21 72q27 -4 77 -8.5t121 -4.5h33q25 0 51 2q2 -18 4 -38q2 -16 3 -36t1 -40q16 16 45 39.5t69 45t88 36t104 14.5q94 0 145 -42t72 -108q72 57 148.5 103.5t182.5 46.5 q111 0 175.5 -65.5t64.5 -168.5v-565q0 -31 16.5 -48t46 -27.5t71.5 -16.5t91 -16l-14 -82q-31 2 -68 4t-73.5 3t-71.5 2t-61 1q-41 0 -74 -2t-56 -4q-27 -2 -49 -4l-18 71q16 10 36.5 21.5t38 27t30 33t12.5 37.5v514q0 92 -35 134t-117 42q-41 0 -81 -13t-73.5 -32.5 t-59.5 -40t-40 -34.5v-570q0 -31 12.5 -50t38 -31.5t62.5 -19.5t86 -18l-15 -71q-31 2 -65.5 4t-68 3t-62.5 2t-49 1q-41 0 -75 -2t-56 -4q-27 -2 -50 -4l-18 71q18 10 38.5 21.5t38 27t30 33t12.5 37.5v514q0 92 -36 134t-118 42q-41 0 -80 -13t-71.5 -32.5t-58 -40 t-40.5 -34.5v-570q0 -31 12.5 -50t37 -31.5t62.5 -19.5t87 -18l-14 -71q-31 2 -66 4t-68.5 3t-63.5 2t-50 1q-41 0 -82 -2t-76 -4l-78 -4z" />
<glyph unicode="n" horiz-adv-x="1216" d="M82 61q78 23 127 50.5t49 66.5v598q0 31 -13.5 51.5t-37 32.5t-54 20.5t-65.5 16.5l21 72q27 -4 77 -8.5t121 -4.5h33q25 0 51 2q2 -18 4 -38q2 -16 3 -36t1 -40q66 51 151 93t195 42q133 0 200 -65.5t67 -168.5v-565q0 -31 16 -50t46 -31.5t72 -20.5t91 -17l-16 -71 q-31 2 -68 4t-74 3t-71.5 2t-61.5 1q-41 0 -79 -2t-68 -4q-37 -2 -68 -4l-20 71q78 23 117.5 50.5t39.5 68.5v514q0 92 -48 134t-130 42q-41 0 -83 -9t-80 -24.5t-71.5 -35t-56.5 -37.5v-584q0 -31 15.5 -50t43 -31.5t68.5 -20.5t90 -17l-14 -71q-31 2 -67.5 4t-72.5 3 t-69 2t-57 1q-41 0 -82 -2t-76 -4l-78 -4z" />
<glyph unicode="o" horiz-adv-x="1013" d="M61 463q0 123 35 218t97.5 161.5t147.5 101.5t183 35q203 0 315.5 -126t112.5 -349q0 -121 -34.5 -217.5t-97 -163t-149.5 -102t-190 -35.5q-195 0 -307.5 123t-112.5 354zM236 504q0 -94 18 -174t53 -137.5t87 -89t122 -31.5q115 0 188.5 102t73.5 295 q0 209 -76.5 317.5t-203.5 108.5q-113 0 -187.5 -99t-74.5 -292z" />
<glyph unicode="p" horiz-adv-x="1071" d="M31 -379q78 23 126 49.5t48 67.5v1040q0 31 -13.5 50.5t-37 31.5t-54 20.5t-65.5 16.5l20 72q27 -4 77 -8.5t122 -4.5h33q25 0 51 2l4 -20q2 -10 3 -23.5t1 -33.5t-2 -46t-6 -55l4 -2q14 37 39 73t60.5 64.5t82.5 46t107 17.5q174 0 276.5 -134t102.5 -382 q0 -102 -31 -190.5t-83 -152t-123 -99t-150 -35.5q-100 0 -167 37.5t-108 74.5v-360q0 -59 63.5 -79.5t161.5 -37.5l-14 -72q-55 2 -88 4.5t-58.5 4.5t-53.5 2h-74q-41 0 -82 -2t-76 -4l-78 -5zM348 193q43 -47 101.5 -79t138.5 -32q55 0 101 29.5t79 82t51.5 123 t18.5 154.5q0 205 -63.5 308.5t-180.5 103.5q-51 0 -96 -22.5t-78 -62.5t-52.5 -95.5t-19.5 -120.5v-389z" />
<glyph unicode="q" horiz-adv-x="968" d="M61 471q0 117 34 211t93.5 160.5t140.5 101.5t175 35q76 0 136 -27.5t99 -56.5l49 72h56v-1229q0 -59 62.5 -79.5t164.5 -37.5l-16 -72q-55 2 -88 4.5t-58.5 4.5t-53.5 2h-75h-40q-19 0 -38 -2v485q0 35 1.5 61.5t5.5 57.5h-2q-33 -72 -106 -124t-169 -52 q-86 0 -154.5 34.5t-116.5 98t-74 152.5t-26 200zM231 477q0 -86 15.5 -157.5t45.5 -125t75 -83t106 -29.5q47 0 88 22.5t73 61.5t50 91t18 110v454q-23 23 -75 42.5t-111 19.5q-133 0 -209 -109t-76 -297z" />
<glyph unicode="r" horiz-adv-x="808" d="M82 61q78 23 127 50.5t49 68.5v598q0 31 -13.5 50.5t-37 31.5t-54 20.5t-65.5 16.5l21 72q27 -4 77 -8.5t121 -4.5h33q25 0 51 2q4 -23 6 -52t2 -50q0 -23 -3 -57.5t-7 -63.5l6 -2q14 39 46 83t79 82t107.5 64.5t130.5 32.5q0 -49 -1 -85t-2 -67.5t-5.5 -63t-10.5 -72.5 h-59q0 14 -4 45.5t-12 60.5q-61 0 -110.5 -21.5t-83.5 -56.5t-52.5 -82t-18.5 -96v-377q0 -31 16.5 -50t47.5 -31.5t73 -20.5t91 -17l-17 -71q-31 2 -67.5 4t-73.5 3t-72 2t-61 1q-41 0 -83 -2t-77 -4q-39 -2 -76 -4z" />
<glyph unicode="s" horiz-adv-x="819" d="M82 47q0 88 7 152.5t17 111.5h60q0 -78 17.5 -129t35.5 -80q25 -12 71 -20t91 -8q102 0 158.5 48t56.5 146q0 59 -37 93t-93 56.5t-120.5 43t-121 52.5t-93.5 82t-37 134q0 51 20.5 97t58.5 80t91 53.5t121 19.5q92 0 168 -12.5t152 -34.5q0 -53 -5.5 -106.5 t-17.5 -100.5h-59q0 12 -3.5 32.5t-8.5 42t-12 42t-17 32.5q-23 10 -64 15.5t-76 5.5q-82 0 -135 -41t-53 -125q0 -63 37 -99t93 -59.5t121.5 -43t122 -48t93.5 -76t37 -127.5q0 -76 -29 -130t-79 -90t-119.5 -53t-153.5 -17q-72 0 -152 16t-143 45z" />
<glyph unicode="t" horiz-adv-x="675" d="M51 897v59q61 10 93 20.5t49 45.5q8 16 15 38.5t15 43.5q8 23 19 49l82 31v-228h301v-102l-301 20v-714q0 -14 9 -27.5t38.5 -24t85 -15.5t145.5 -5l23 -59q-61 -16 -129 -29.5t-136 -13.5q-84 0 -130 31.5t-46 113.5v752z" />
<glyph unicode="u" horiz-adv-x="1157" d="M20 897l21 72q27 -4 77 -8.5t122 -4.5h36q29 0 56 2v-669q0 -92 41 -142.5t133 -50.5q59 0 111.5 21.5t92.5 60.5t63.5 94.5t23.5 124.5v381q0 31 -13.5 50.5t-37 31.5t-54 20.5t-65.5 16.5l20 72q27 -4 77 -8.5t122 -4.5h37q29 0 55 2v-763q0 -14 6 -29.5t27.5 -28 t61.5 -20.5t108 -8l16 -60q-49 -14 -96 -24q-41 -10 -84 -17.5t-74 -7.5q-63 0 -85.5 29.5t-22.5 70.5q0 35 10 72l-6 2q-18 -33 -49 -66.5t-73 -61.5t-94.5 -44t-113.5 -16q-74 0 -126 22.5t-86 61.5t-50.5 91t-16.5 113v504q0 31 -13 50.5t-36.5 31.5t-54.5 20.5t-66 16.5 z" />
<glyph unicode="v" horiz-adv-x="1054" d="M0 895l16 72q43 -4 71 -6.5t51.5 -3.5t46.5 -1h59q41 0 73.5 2.5t55.5 4.5q27 2 49 4l20 -72q-47 -10 -89 -26.5t-42 -43.5q0 -6 3 -16t20.5 -59.5t53.5 -158t104 -310.5q14 -39 22 -68t12 -47q6 -23 11 -35h4l8 33q4 18 13 47t24 70q43 133 73.5 224t50 151.5t30 93 t15.5 48.5l6 18q1 3 1 5q0 14 -13.5 25.5t-34 21t-45 16.5t-46.5 11l20 72q20 -2 47 -4q23 -2 55.5 -4.5t73.5 -2.5q14 0 78 2.5t141 8.5l17 -72q-63 -8 -110.5 -23.5t-67.5 -68.5l-304 -811h-127l-288 819q-8 18 -18.5 30.5t-27 21.5t-43 16.5t-69.5 15.5z" />
<glyph unicode="w" horiz-adv-x="1462" d="M0 895l14 72q55 -2 82 -4t46.5 -4.5t40.5 -2.5h69q41 0 74.5 2.5t56.5 4.5q27 2 49 4l19 -72q-47 -10 -89.5 -26.5t-42.5 -49.5q0 -8 10.5 -68.5t25 -142.5t29.5 -171t28 -156q4 -29 8 -53.5t8 -47.5q4 -25 6 -47h4q4 25 13 49q6 23 12 48.5t14 50.5l195 639h139 q47 -160 86 -293q16 -57 33.5 -112.5t31 -104t23.5 -82t14 -47.5q10 -27 17.5 -52.5t11.5 -48.5q6 -25 10 -47h4q2 23 7 47q4 23 9 47.5t9 53.5q14 68 34.5 158.5t39 173.5t31 142.5t12.5 65.5q0 12 -16.5 24.5t-40 22t-50 16.5t-49.5 11l21 72q20 -2 47 -4q23 -2 56.5 -4.5 t74.5 -2.5q14 0 77.5 1t141.5 10l16 -72q-33 -4 -62.5 -9t-54 -15.5t-41 -26t-22.5 -41.5l-184 -811h-144l-200 653q-10 39 -14.5 64.5t-8.5 42.5q-4 20 -4 32h-4q0 -12 -6 -32q-4 -16 -11.5 -42t-19.5 -65l-211 -653h-133l-184 825q-8 35 -41 49.5t-117 28.5z" />
<glyph unicode="x" horiz-adv-x="1107" d="M25 72q96 10 162.5 35.5t107.5 85.5l180 264l-231 354q-23 41 -71 55.5t-134 28.5l16 72q51 -6 113.5 -8.5t128.5 -2.5t125 3.5t98 7.5l21 -72q-53 -10 -90 -27.5t-37 -46.5q0 -8 16 -35.5t39 -63.5t47.5 -75t40.5 -69l227 387q35 -4 66 -6.5t72 -2.5q29 0 53 1t65 8 l19 -72q-90 -8 -152.5 -33.5t-107.5 -89.5l-187 -266q63 -96 128 -194.5t128 -192.5q35 -10 87.5 -15.5t111.5 -5.5l16 -57q-47 -14 -90 -25q-37 -10 -78 -18t-71 -8q-47 0 -71.5 25.5t-53.5 70.5l-193 289l-213 -373q-47 2 -82.5 3t-70.5 1q-29 0 -56.5 -1t-62.5 -3z" />
<glyph unicode="y" horiz-adv-x="1103" d="M-55 -440q33 96 59.5 151.5t58.5 106.5l56 -21q-8 -18 -15.5 -59t-9.5 -76q25 -10 51.5 -15t55.5 -5q41 0 87 17t88 58t73.5 107.5t46.5 165.5l-291 821q-16 39 -66.5 53.5t-138.5 30.5l16 72q31 -2 68 -4t75 -4.5t72 -2.5h62q41 0 73.5 2.5t55.5 4.5q27 2 47 4l20 -72 q-51 -12 -89 -27.5t-38 -50.5q0 -12 19.5 -71.5t47.5 -141.5t57.5 -170t52.5 -155q14 -39 22 -67t12 -46q6 -23 11 -37h2l8 33q8 37 39 117l176 542q0 14 -13.5 25.5t-34 21t-45 16.5t-46.5 11l20 72q20 -2 47 -4q23 -2 55.5 -4.5t73.5 -2.5q14 0 78 1t141 10l19 -72 q-66 -8 -112 -22.5t-68 -69.5l-340 -916q-70 -188 -197 -270t-291 -82q-45 0 -82.5 7.5t-68.5 17.5z" />
<glyph unicode="z" horiz-adv-x="886" d="M72 0v102l592 777l-453 -21q-16 -31 -25.5 -65.5t-9.5 -67.5h-61q-10 39 -16.5 97.5t-6.5 140.5q90 -4 171 -5.5t161 -1.5q92 0 183 1t194 6v-119l-572 -760l398 18q31 2 50 12.5t31.5 33t20.5 57.5t16 84h70q-2 -55 -4 -90t-3 -64t-1 -58v-77q-98 4 -189 4h-180h-179 q-89 0 -187 -4z" />
<glyph unicode="{" horiz-adv-x="671" d="M49 492v53q84 0 125 34.5t41 133.5q0 72 -5 121t-12.5 95t-12.5 98t-5 130q0 74 26.5 116t71 65.5t101.5 33.5t117 17l16 -60q-31 -6 -64.5 -14t-61.5 -26.5t-46 -47.5t-18 -76q0 -4 1 -34.5t3 -73.5t3 -94.5t3 -99.5t3 -86t1 -56q0 -70 -32 -127t-81 -72v-10 q49 -12 81 -68.5t32 -128.5q0 -27 -2 -97.5t-5 -145t-5 -135t-2 -68.5q0 -47 18 -76t46 -46t61.5 -26.5t64.5 -13.5l-16 -61q-59 6 -116.5 16t-102 33.5t-71 65.5t-26.5 116q0 78 5 130t12.5 98.5t12.5 96.5t5 120q0 98 -41 134t-125 36z" />
<glyph unicode="|" horiz-adv-x="468" d="M168 1360h133q-4 -211 -7 -398.5t-3 -371.5q0 -186 3 -372.5t7 -393.5h-131q4 188 5 359t1 339q0 205 -2 408t-6 430z" />
<glyph unicode="}" horiz-adv-x="671" d="M160 -293q31 4 64.5 13.5t61 26.5t46 46t18.5 76q0 8 -2 68.5t-5 135t-5 145.5t-2 97q0 72 31.5 128.5t81.5 68.5v10q-49 14 -81 71.5t-32 127.5q0 18 1 56t3 86t3 99.5t3 94.5t3 73.5t1 34.5q0 47 -18.5 76t-46 47.5t-61.5 26.5t-64 14l16 60q59 -6 116.5 -16.5 t101.5 -34t71 -65.5t27 -116q0 -78 -5.5 -130t-12.5 -98t-12 -95.5t-5 -120.5q0 -98 41 -133t125 -35v-53q-84 0 -125 -36t-41 -134q0 -70 5 -120t12 -96.5t12.5 -98.5t5.5 -130q0 -74 -27 -116t-71 -65.5t-101 -33.5t-117 -16z" />
<glyph unicode="~" horiz-adv-x="1015" d="M92 782q72 66 133.5 89.5t114.5 23.5q51 0 99 -19.5t94.5 -43t92.5 -43t93 -19.5q45 0 91 19.5t97 68.5l17 -84q-78 -78 -145.5 -107.5t-129.5 -29.5q-53 0 -102 20.5t-96.5 45t-92.5 45t-90 20.5q-41 0 -79.5 -15.5t-79.5 -56.5z" />
<glyph unicode="&#xa1;" horiz-adv-x="595" d="M76 -403l121 1050l63 21l35 -1002zM141 881q0 41 28 71.5t69 30.5q43 0 70.5 -30.5t27.5 -71.5t-27.5 -69t-70.5 -28q-41 0 -69 28t-28 69z" />
<glyph unicode="&#xa2;" horiz-adv-x="858" d="M68 694q0 104 26.5 191.5t75.5 150t117.5 101.5t154.5 47l19 264l96 8l-29 -268q57 -4 109.5 -16.5t99.5 -26.5q0 -100 -10 -158q-6 -31 -12 -53h-58q0 12 -3 34.5t-9 47t-13 46t-18 34.5q-12 6 -33.5 9t-37.5 3q-72 0 -129.5 -32t-96 -87t-59 -131t-20.5 -166 q0 -82 16 -156.5t54 -130t101.5 -88t157.5 -32.5q55 0 95 9t88 25l22 -79q-59 -23 -122.5 -34t-127.5 -11q-16 0 -31.5 1t-31.5 3l-19 -260l-96 -11l33 287q-143 45 -226 169t-83 310z" />
<glyph unicode="&#xa3;" horiz-adv-x="962" d="M53 72q66 18 110 42.5t70.5 57.5t38 71t11.5 81q0 76 -19.5 149.5t-42.5 147.5h-158v88h132q-18 61 -30.5 125.5t-12.5 134.5q0 381 401 381q72 0 136.5 -15.5t98.5 -27.5q0 -43 -2 -78t-6 -60q-4 -29 -10 -51h-55q0 10 -2 30.5t-6.5 42t-10.5 42t-14 31.5q-27 4 -59.5 8 t-73.5 4q-115 0 -173.5 -61.5t-58.5 -202.5q0 -59 13.5 -137t29.5 -166h277v-88h-262q8 -53 13 -106.5t5 -106.5q0 -88 -20.5 -160t-73.5 -127q25 -10 75 -15.5t140 -5.5h154q31 0 51 11.5t32.5 36t20.5 62.5t16 89h72q-2 -57 -4 -94t-3 -65.5t-1 -59.5v-80q-57 4 -104.5 6 t-90.5 3t-86 1h-90q-25 0 -67.5 -1t-98 -2t-118 -3t-121.5 -4z" />
<glyph unicode="&#xa4;" horiz-adv-x="901" d="M55 348l140 109q-35 43 -53.5 94t-18.5 111q0 57 18.5 108t53.5 94l-138 109l80 84l111 -142q43 35 93 53.5t110 18.5q57 0 108 -18.5t94 -53.5l109 138l84 -80l-139 -111q33 -43 52 -93t19 -107q0 -59 -19.5 -110.5t-51.5 -94.5l137 -107l-80 -84l-111 140 q-43 -35 -94 -53.5t-108 -18.5q-59 0 -110.5 18.5t-94.5 53.5l-107 -138zM223 662q0 -98 64.5 -164t163.5 -66q98 0 162.5 65.5t64.5 164.5q0 47 -17.5 89t-48 72.5t-71.5 48t-90 17.5t-90.5 -17.5t-72 -48t-48 -72.5t-17.5 -89z" />
<glyph unicode="&#xa5;" horiz-adv-x="1204" d="M31 1260l16 73q76 -8 126 -10t101 -2q78 0 131.5 3t106.5 9l20 -73q-23 -4 -47 -10.5t-43.5 -15.5t-33 -20.5t-13.5 -25.5q0 -4 4 -17q51 -129 88 -225t62.5 -164.5t41 -112.5t23.5 -69h25q10 27 28.5 75t53.5 132t88 210t129 304q59 0 115.5 1t111.5 11l9 -73 q-72 -6 -112 -26t-67 -79l-147 -334h123v-88h-162l-59 -133h221v-88h-260l-21 -47v-281q0 -31 17.5 -50t49 -32.5t74.5 -21.5t95 -17l-17 -73q-43 2 -74.5 4t-62.5 4t-64 2h-81q-41 0 -85 -2t-79 -4q-41 -2 -80 -4l-18 73q80 23 130 51.5t50 69.5v281l-23 47h-258v88h219 l-59 133h-160v88h121l-156 350q-18 41 -63 57t-135 32z" />
<glyph unicode="&#xa6;" horiz-adv-x="468" d="M168 1360h133q-4 -147 -6 -282.5t-4 -266.5h-115q-2 133 -3 267.5t-5 281.5zM170 -176q4 147 5 282.5t3 268.5h113q2 -133 4 -268.5t6 -282.5h-131z" />
<glyph unicode="&#xa7;" horiz-adv-x="905" d="M92 -168q0 92 6 160.5t17 120.5h63q0 -86 17.5 -142.5t40.5 -83.5q25 -6 64.5 -12t78.5 -6q47 0 91 12.5t79 37t55.5 62t20.5 89.5q0 53 -19.5 104t-51.5 101.5t-73 100.5t-84 99q-49 57 -97 115.5t-86 121t-61.5 129t-23.5 138.5q0 100 30.5 181t87 138.5t135.5 88 t177 30.5q74 0 135.5 -16.5t110.5 -38.5q0 -53 -4 -94t-8 -70q-6 -33 -15 -57h-65q0 12 -2 32.5t-7.5 44t-12.5 46t-17 36.5q-23 6 -55.5 11.5t-73.5 5.5q-102 0 -167 -47t-65 -140q0 -47 17.5 -92t45 -89t65.5 -87t77 -88q49 -55 99.5 -115.5t91.5 -130t66.5 -147.5 t25.5 -168q0 -68 -19.5 -144.5t-66.5 -143t-127 -110.5t-201 -44q-72 0 -149.5 17t-145.5 44zM217 985q0 -55 19.5 -107.5t51 -103.5t72.5 -102t86 -103q84 -94 157 -191t102 -214q2 10 2 24v25q0 74 -24 140.5t-60.5 128t-83.5 118.5t-95 111q-74 86 -138 172t-81 172 q-8 -33 -8 -70z" />
<glyph unicode="&#xa8;" horiz-adv-x="968" d="M162 1249q0 47 33.5 81t80.5 34t80 -34t33 -81t-32.5 -80.5t-80.5 -33.5q-47 0 -80.5 33.5t-33.5 80.5zM582 1249q0 47 33.5 81t80.5 34t80 -34t33 -81t-33 -80.5t-80 -33.5t-80.5 33.5t-33.5 80.5z" />
<glyph unicode="&#xa9;" horiz-adv-x="1386" d="M57 506q0 133 50.5 248.5t136.5 201.5t202.5 135.5t247.5 49.5t247 -49.5t202 -135.5t136 -201.5t50 -248.5q0 -131 -50 -248t-136 -203t-202 -136t-247 -50t-247.5 50t-202.5 136t-136.5 203t-50.5 248zM152 502q0 -113 42 -211t115.5 -172t173 -117t211.5 -43 q113 0 212.5 43t174 117t117.5 172t43 211t-43 212t-117.5 174t-174 118t-212.5 43t-212 -43t-172.5 -118t-115.5 -174t-42 -212zM340 504q0 96 26.5 174t74.5 132t117 84t151 30q57 0 108 -10.5t94 -26.5q0 -43 -2 -77t-6 -56q-4 -27 -10 -45h-51q0 10 -2 28.5t-7.5 38 t-11.5 37.5t-14 29q-10 6 -28.5 8t-33.5 2q-123 0 -188 -88t-65 -256q0 -166 55 -256t182 -90q53 0 102.5 10t90.5 23l18 -62q-41 -14 -94 -33.5t-148 -19.5q-166 0 -262 112.5t-96 311.5z" />
<glyph unicode="&#xaa;" horiz-adv-x="796" d="M80 893q0 43 20.5 80t66.5 64.5t119.5 43t182.5 15.5v92q0 84 -38 129t-124 45q-37 0 -60.5 -4t-39.5 -12q-6 -8 -12.5 -22.5t-9.5 -30t-5 -29t-2 -21.5h-41q-4 14 -8 37q-4 18 -6 45t-2 64q35 10 91 20t122 10q113 0 174 -49t61 -160v-340q0 -12 4.5 -22t18.5 -19.5 t43 -14.5t76 -5l10 -41q-35 -8 -68 -16q-29 -6 -58.5 -12.5t-51.5 -6.5q-39 0 -57.5 17.5t-18.5 44.5q0 35 8 59l-6 2q-23 -47 -76 -90t-131 -43q-86 0 -134 45t-48 125zM86 553v86h623v-86h-623zM193 899q0 -49 28.5 -78.5t75.5 -29.5q35 0 66.5 16t55 44t37 65.5 t13.5 78.5v47q-133 0 -204.5 -38.5t-71.5 -104.5z" />
<glyph unicode="&#xab;" horiz-adv-x="915" d="M49 588l338 389l39 -51l-188 -338l200 -424l-49 -39zM430 588l338 389l39 -51l-189 -338l201 -424l-49 -39z" />
<glyph unicode="&#xac;" horiz-adv-x="1269" d="M225 547v104h822v-393h-99v289h-723z" />
<glyph unicode="&#xad;" horiz-adv-x="1150" d="M203 512v100q102 -4 192 -5t180 -1t180.5 1t192.5 5v-100q-102 4 -193 5t-182 1q-90 0 -180 -1t-190 -5z" />
<glyph unicode="&#xae;" horiz-adv-x="1404" d="M68 1116q0 131 50 247t136 202t201.5 136t246.5 50q133 0 249 -50t202 -136t136 -202t50 -247t-50 -247.5t-136 -202.5t-201.5 -136.5t-249.5 -50.5q-131 0 -246.5 50.5t-201.5 136.5t-136 202.5t-50 247.5zM160 1112q0 -113 42 -211t115.5 -172t173 -117t211.5 -43 q115 0 214.5 43t173 117t116.5 172t43 211t-43 212t-116.5 174t-173 118t-214.5 43q-113 0 -212 -43t-172.5 -118t-115.5 -174t-42 -212zM379 772q49 16 81 31.5t32 38.5v569q0 29 -20.5 40t-72.5 22l17 51h270q143 0 212 -58.5t69 -156.5q0 -68 -50.5 -129.5t-148.5 -81.5 l162 -287q16 -10 43.5 -18.5t75.5 -8.5l10 -47q-27 -6 -49 -12q-20 -4 -43 -9t-41 -5q-23 0 -40.5 9t-27.5 21l-168 344q-10 -2 -18 -2h-17q-43 0 -67 7v-250q0 -29 34.5 -41.5t108.5 -26.5l-16 -51q-33 2 -53.5 3t-36.5 1h-35h-47h-50q-26 0 -49 -2q-25 -2 -49 -2z M588 1145q18 -4 37 -4h32q53 0 91 14t63 38t36 52.5t11 57.5q0 76 -46 115.5t-132 39.5q-31 0 -52.5 -1t-39.5 -3v-309z" />
<glyph unicode="&#xaf;" horiz-adv-x="860" d="M92 1153v133q92 -4 174 -6t162 -2q82 0 164 2t174 6v-133q-92 4 -174 6t-164 2t-164 -2t-172 -6z" />
<glyph unicode="&#xb0;" horiz-adv-x="774" d="M82 1040q0 63 23.5 118.5t65.5 97.5t97.5 66t118.5 24t118.5 -24t97.5 -66t65.5 -97t23.5 -119q0 -63 -23.5 -118.5t-65.5 -97.5t-97 -65.5t-119 -23.5q-63 0 -118.5 23.5t-97.5 65.5t-65.5 97.5t-23.5 118.5zM178 1040q0 -45 16.5 -82.5t45 -65.5t66.5 -43t81 -15 q90 0 148.5 58t58.5 148q0 43 -15.5 81t-43 67t-65.5 45t-83 16q-43 0 -81 -16t-66.5 -45t-45 -67t-16.5 -81z" />
<glyph unicode="&#xb1;" horiz-adv-x="1269" d="M225 0v104h819v-104h-819zM225 563v105h357v358h104v-358h358v-105h-358v-356h-104v356h-357z" />
<glyph unicode="&#xb2;" horiz-adv-x="798" d="M96 494v65q109 96 193 199q37 43 70.5 93t60 102.5t43 105.5t16.5 104q0 84 -46 120t-109 36q-43 0 -87 -7t-112 -28l-12 49q47 27 106.5 50.5t142.5 23.5q45 0 91.5 -11.5t84 -40t62.5 -79.5t25 -131q0 -55 -17.5 -108.5t-46.5 -102.5t-65.5 -94t-75.5 -84 q-90 -90 -207 -168v-8l309 18q31 2 49.5 9t30.5 24.5t20.5 47.5t16.5 75h55q-4 -51 -6 -83t-3 -56.5t-1 -51.5v-69h-588z" />
<glyph unicode="&#xb3;" horiz-adv-x="733" d="M92 535l8 55q47 -14 96.5 -22.5t98.5 -8.5q55 0 96 16.5t69.5 44t43 62.5t14.5 70q0 37 -16.5 74.5t-48 67.5t-79.5 48.5t-112 18.5l-24 53q37 0 80.5 9t80.5 30.5t62.5 56.5t25.5 90q0 57 -42 92t-115 35q-23 0 -56.5 -7t-56.5 -22q-10 -16 -16 -52t-6 -52h-62 q-4 14 -8 37q-4 18 -6 46t-2 64q51 23 119.5 44.5t142.5 21.5q106 0 177 -52t71 -136q0 -94 -64.5 -148.5t-152.5 -73.5q51 -8 96 -24.5t78.5 -45t53 -72.5t19.5 -105q0 -119 -89 -195t-238 -76q-76 0 -137.5 19t-100.5 37z" />
<glyph unicode="&#xb4;" horiz-adv-x="860" d="M209 1116l377 291l65 -129l-413 -199z" />
<glyph unicode="&#xb5;" horiz-adv-x="1161" d="M20 895l19 72q29 -4 93.5 -8.5t135.5 -4.5q16 0 33.5 1t34.5 1v-667q0 -92 41 -142.5t133 -50.5q59 0 111.5 21.5t92.5 60.5t63.5 94.5t23.5 124.5v559l141 11v-772q0 -14 6 -29.5t27.5 -28t61.5 -20.5t108 -8l16 -60q-49 -14 -96 -24q-41 -10 -85 -17.5t-75 -7.5 q-53 0 -80.5 24.5t-27.5 63.5q0 47 12 86h-8q-18 -33 -49 -66.5t-72 -61.5t-93 -44t-114 -16q-145 0 -213 84v-439l-166 -26q23 68 40.5 151.5t31.5 171.5t21.5 174t7.5 160v514q0 31 -14.5 50.5t-38 31.5t-55.5 20.5t-67 16.5z" />
<glyph unicode="&#x3bc;" horiz-adv-x="1161" d="M20 895l19 72q29 -4 93.5 -8.5t135.5 -4.5q16 0 33.5 1t34.5 1v-667q0 -92 41 -142.5t133 -50.5q59 0 111.5 21.5t92.5 60.5t63.5 94.5t23.5 124.5v559l141 11v-772q0 -14 6 -29.5t27.5 -28t61.5 -20.5t108 -8l16 -60q-49 -14 -96 -24q-41 -10 -85 -17.5t-75 -7.5 q-53 0 -80.5 24.5t-27.5 63.5q0 47 12 86h-8q-18 -33 -49 -66.5t-72 -61.5t-93 -44t-114 -16q-145 0 -213 84v-439l-166 -26q23 68 40.5 151.5t31.5 171.5t21.5 174t7.5 160v514q0 31 -14.5 50.5t-38 31.5t-55.5 20.5t-67 16.5z" />
<glyph unicode="&#xb6;" horiz-adv-x="1185" d="M76 893q0 197 85 302t222 105q63 -2 123 -4q51 -2 103.5 -4t84.5 -2h90q39 0 78 1t83 3t104 6l14 -71q-98 -14 -161.5 -34.5t-63.5 -80.5v-1378q0 -59 63.5 -80t161.5 -37l-14 -72q-53 2 -94.5 4.5t-77 4.5t-69.5 2h-75v1638h-88v-1638q-37 -2 -82 -3t-86 -4l-94 -4 l-21 72q78 23 128.5 49.5t50.5 67.5v901q-27 -51 -85.5 -90t-127.5 -39q-61 0 -107.5 28.5t-79 79t-49 121t-16.5 156.5z" />
<glyph unicode="&#xb7;" horiz-adv-x="335" d="M61 553q0 43 31 76t76 33t75.5 -33t30.5 -76t-30.5 -76t-75.5 -33t-76 33t-31 76z" />
<glyph unicode="&#xb8;" horiz-adv-x="860" d="M283 -393q49 6 79.5 22.5t49 36t24.5 42t6 40.5q0 59 -33.5 90t-89.5 53l52 109h80l-23 -76q68 -18 109 -63t41 -111q0 -49 -23 -87t-61.5 -64.5t-88 -41t-104.5 -14.5z" />
<glyph unicode="&#xb9;" horiz-adv-x="651" d="M104 1319q70 14 137.5 39.5t108.5 52.5h35v-793q0 -39 44 -52t116 -25l-15 -60q-39 4 -61.5 5t-41.5 2t-40 1h-53q-29 0 -65 -1t-68 -3q-37 -2 -78 -4l-17 60q66 14 117 32.5t51 44.5v660q-37 -4 -76.5 -8t-76.5 -6z" />
<glyph unicode="&#xba;" horiz-adv-x="796" d="M86 553v86h623v-86h-623zM88 1059q0 86 24.5 152.5t67.5 112.5t101.5 70.5t128.5 24.5q141 0 221 -88t80 -246q0 -84 -24.5 -151.5t-69 -114.5t-104.5 -71.5t-132 -24.5q-135 0 -214 86t-79 250zM207 1085q0 -133 50 -217t149 -84q80 0 132 71t52 206q0 147 -54.5 223 t-144.5 76q-78 0 -131 -70t-53 -205z" />
<glyph unicode="&#xbb;" horiz-adv-x="915" d="M94 938l49 39l342 -463l-340 -389l-39 51l189 338zM475 938l51 39l340 -463l-338 -389l-39 51l187 338z" />
<glyph unicode="&#xbc;" horiz-adv-x="1624" d="M104 1255q70 14 137.5 40t108.5 51h35v-793q0 -39 44 -52.5t116 -25.5l-15 -59q-39 4 -61.5 5t-41.5 2t-40 1h-53q-29 0 -65 -1t-68 -3q-37 -2 -78 -4l-17 59q66 14 117 33.5t51 44.5v659l-153 -14zM326 -141q193 371 374 735t355 739l108 -55q-195 -373 -376 -737.5 t-357 -739.5zM866 240v65l428 623h92l-446 -619l330 8v381l110 62v-441l125 5v-84h-125v-103q0 -41 34 -54t106 -24l-15 -59q-27 2 -46 3t-37.5 2t-40.5 1h-52h-57q-27 0 -47 -2l-45 -4l-17 59q43 16 75 34t32 44v103h-404z" />
<glyph unicode="&#xbd;" horiz-adv-x="1738" d="M104 1319q70 14 137.5 39.5t108.5 52.5h35v-793q0 -39 44 -52t116 -25l-15 -60q-39 4 -61.5 5t-41.5 2t-40 1h-53q-29 0 -65 -1t-68 -3q-37 -2 -78 -4l-17 60q66 14 117 32.5t51 44.5v660q-37 -4 -76.5 -8t-76.5 -6zM326 -141q193 371 374 735t355 739l108 -55 q-195 -373 -376 -737.5t-357 -739.5zM1036 0v66q109 96 193 198q37 43 70.5 93.5t60 102.5t43 105t16.5 105q0 84 -46 119.5t-109 35.5q-43 0 -87 -7t-112 -27l-12 49q47 27 106.5 50t143.5 23q45 0 91 -11t84 -39.5t62.5 -80t24.5 -131.5q0 -55 -17.5 -108.5t-46 -102.5 t-65.5 -94t-76 -84q-90 -90 -207 -168v-8l309 18q31 2 49.5 9.5t30.5 25t20.5 47t16.5 74.5h55q-4 -51 -6 -83t-3 -56.5t-1 -50.5v-70h-588z" />
<glyph unicode="&#xbe;" horiz-adv-x="1646" d="M92 535l8 55q47 -14 96.5 -22.5t98.5 -8.5q55 0 96 16.5t69.5 44t43 62.5t14.5 70q0 37 -16.5 74.5t-48 67.5t-79.5 48.5t-112 18.5l-24 53q37 0 80.5 9t80.5 30.5t62.5 56.5t25.5 90q0 57 -42 92t-115 35q-23 0 -56.5 -7t-56.5 -22q-10 -16 -16 -52t-6 -52h-62 q-4 14 -8 37q-4 18 -6 46t-2 64q51 23 119.5 44.5t142.5 21.5q106 0 177 -52t71 -136q0 -94 -64.5 -148.5t-152.5 -73.5q51 -8 96 -24.5t78.5 -45t53 -72.5t19.5 -105q0 -119 -89 -195t-238 -76q-76 0 -137.5 19t-100.5 37zM387 -141q193 371 374 735t355 739l111 -55 q-195 -373 -376 -737.5t-359 -739.5zM889 233v66l428 623h92l-446 -617q86 0 164.5 2t164.5 4v381l111 62v-441l123 4v-84h-123v-102q0 -41 33.5 -54.5t103.5 -23.5l-12 -59q-29 2 -48.5 3t-37 2t-38.5 1h-52q-31 0 -57.5 -1t-47.5 -3q-23 -2 -45 -2l-16 59q43 16 74.5 34.5 t31.5 43.5v102h-403z" />
<glyph unicode="&#xbf;" horiz-adv-x="808" d="M76 -10q0 90 34.5 163.5t91 133t125 104.5t136.5 76l-2 180l65 17l49 -224q-63 -29 -121.5 -67.5t-103.5 -91t-71.5 -117t-26.5 -141.5q0 -49 13.5 -102.5t48 -101.5t95 -88t154.5 -65v-69q-96 12 -184 39.5t-155.5 74.5t-107.5 116t-40 163zM391 883q0 41 29 70.5 t69 29.5q41 0 69 -29.5t28 -70.5t-28 -71t-69 -30t-69.5 30t-28.5 71z" />
<glyph unicode="&#xc0;" horiz-adv-x="1388" d="M0 63q80 25 133 53.5t72 80.5l430 1124h106l445 -1137q20 -51 73.5 -77.5t170.5 -43.5l-15 -73q-59 4 -98 6t-72 3t-66 1h-83q-41 0 -84 -2t-78 -4q-41 -2 -78 -4l-22 73q35 10 68.5 22.5t60 26t42 27t15.5 27.5q0 6 -2 11t-10.5 28.5t-26.5 74t-51 146.5h-522 q-16 -43 -33 -87t-29 -80t-19.5 -59.5t-7.5 -27.5q0 -18 21.5 -34.5t55.5 -30t77 -24.5t88 -20l-16 -73q-33 2 -71 4t-77 3t-74.5 2t-62.5 1q-41 0 -84 -2t-78 -4q-41 -2 -80 -4zM430 508h469l-231 637zM494 1642l67 130l375 -291l-27 -37z" />
<glyph unicode="&#xc1;" horiz-adv-x="1388" d="M0 63q80 25 133 53.5t72 80.5l430 1124h106l445 -1137q20 -51 73.5 -77.5t170.5 -43.5l-15 -73q-59 4 -98 6t-72 3t-66 1h-83q-41 0 -84 -2t-78 -4q-41 -2 -78 -4l-22 73q35 10 68.5 22.5t60 26t42 27t15.5 27.5q0 6 -2 11t-10.5 28.5t-26.5 74t-51 146.5h-522 q-16 -43 -33 -87t-29 -80t-19.5 -59.5t-7.5 -27.5q0 -18 21.5 -34.5t55.5 -30t77 -24.5t88 -20l-16 -73q-33 2 -71 4t-77 3t-74.5 2t-62.5 1q-41 0 -84 -2t-78 -4q-41 -2 -80 -4zM430 508h469l-231 637zM494 1481l376 291l66 -130l-414 -198z" />
<glyph unicode="&#xc2;" horiz-adv-x="1388" d="M0 63q80 25 133 53.5t72 80.5l430 1124h106l445 -1137q20 -51 73.5 -77.5t170.5 -43.5l-15 -73q-59 4 -98 6t-72 3t-66 1h-83q-41 0 -84 -2t-78 -4q-41 -2 -78 -4l-22 73q35 10 68.5 22.5t60 26t42 27t15.5 27.5q0 6 -2 11t-10.5 28.5t-26.5 74t-51 146.5h-522 q-16 -43 -33 -87t-29 -80t-19.5 -59.5t-7.5 -27.5q0 -18 21.5 -34.5t55.5 -30t77 -24.5t88 -20l-16 -73q-33 2 -71 4t-77 3t-74.5 2t-62.5 1q-41 0 -84 -2t-78 -4q-41 -2 -80 -4zM430 508h469l-231 637zM430 1481l285 291l284 -291l-47 -37l-237 162l-238 -162z" />
<glyph unicode="&#xc3;" horiz-adv-x="1388" d="M0 63q80 25 133 53.5t72 80.5l430 1124h106l445 -1137q20 -51 73.5 -77.5t170.5 -43.5l-15 -73q-59 4 -98 6t-72 3t-66 1h-83q-41 0 -84 -2t-78 -4q-41 -2 -78 -4l-22 73q35 10 68.5 22.5t60 26t42 27t15.5 27.5q0 6 -2 11t-10.5 28.5t-26.5 74t-51 146.5h-522 q-16 -43 -33 -87t-29 -80t-19.5 -59.5t-7.5 -27.5q0 -18 21.5 -34.5t55.5 -30t77 -24.5t88 -20l-16 -73q-33 2 -71 4t-77 3t-74.5 2t-62.5 1q-41 0 -84 -2t-78 -4q-41 -2 -80 -4zM387 1493q29 94 72 142t92 48q35 0 78 -14t87 -30.5t88 -31t81 -14.5q39 0 64.5 24.5 t47.5 70.5l43 -27q-29 -94 -71.5 -142.5t-91.5 -48.5q-35 0 -78 14.5t-87 31t-88 31t-81 14.5q-39 0 -64.5 -25t-48.5 -70zM430 508h469l-231 637z" />
<glyph unicode="&#xc4;" horiz-adv-x="1388" d="M0 63q80 25 133 53.5t72 80.5l430 1124h106l445 -1137q20 -51 73.5 -77.5t170.5 -43.5l-15 -73q-59 4 -98 6t-72 3t-66 1h-83q-41 0 -84 -2t-78 -4q-41 -2 -78 -4l-22 73q35 10 68.5 22.5t60 26t42 27t15.5 27.5q0 6 -2 11t-10.5 28.5t-26.5 74t-51 146.5h-522 q-16 -43 -33 -87t-29 -80t-19.5 -59.5t-7.5 -27.5q0 -18 21.5 -34.5t55.5 -30t77 -24.5t88 -20l-16 -73q-33 2 -71 4t-77 3t-74.5 2t-62.5 1q-41 0 -84 -2t-78 -4q-41 -2 -80 -4zM391 1614q0 47 34 81t81 34t79.5 -34t32.5 -81t-32.5 -81t-79.5 -34t-81 34t-34 81zM430 508 h469l-231 637zM811 1614q0 47 34 81t81 34t79.5 -34t32.5 -81t-32.5 -81t-79.5 -34t-81 34t-34 81z" />
<glyph unicode="&#xc5;" horiz-adv-x="1388" d="M0 63q80 25 133 53.5t72 80.5l430 1124h106l445 -1137q20 -51 73.5 -77.5t170.5 -43.5l-15 -73q-59 4 -98 6t-72 3t-66 1h-83q-41 0 -84 -2t-78 -4q-41 -2 -78 -4l-22 73q35 10 68.5 22.5t60 26t42 27t15.5 27.5q0 6 -2 11t-10.5 28.5t-26.5 74t-51 146.5h-522 q-16 -43 -33 -87t-29 -80t-19.5 -59.5t-7.5 -27.5q0 -18 21.5 -34.5t55.5 -30t77 -24.5t88 -20l-16 -73q-33 2 -71 4t-77 3t-74.5 2t-62.5 1q-41 0 -84 -2t-78 -4q-41 -2 -80 -4zM430 508h469l-231 637zM516 1583q0 84 57.5 141.5t141.5 57.5q82 0 139 -57.5t57 -141.5 q0 -82 -57 -139.5t-139 -57.5q-84 0 -141.5 57.5t-57.5 139.5zM598 1583q0 -55 35 -94t82 -39q49 0 81.5 39t32.5 94q0 59 -32.5 97t-81.5 38q-47 0 -82 -38t-35 -97z" />
<glyph unicode="&#xc6;" horiz-adv-x="1601" d="M-20 63q80 25 132 53.5t72 80.5l389 1026q-20 10 -44.5 17t-53.5 17l21 74l122 -4q61 -2 117 -4t99 -2h67h116q67 0 136.5 1t134 3t105.5 6q0 -66 -4.5 -118t-8.5 -87q-6 -41 -14 -69h-59q0 12 -3.5 33.5t-7.5 45t-11 46t-17 37.5l-484 8l140 -494h417v-121l-393 43 l131 -471q18 -63 100.5 -76.5t229.5 -13.5q61 0 81.5 46t39.5 149h72q-2 -57 -4.5 -94t-3.5 -66t-1 -59v-80q-117 6 -225 8t-207 2q-41 0 -109.5 -2t-133.5 -4q-76 -2 -160 -4l-23 71q78 23 130.5 48.5t52.5 58.5l-127 487h-322q-63 -178 -97 -274t-49 -142l-19 -56 q-3 -9 -3 -11q0 -18 20.5 -34.5t54.5 -30t77 -24.5t88 -20l-17 -73q-57 4 -92 6t-62.5 3t-55.5 1h-74q-41 0 -84 -2t-78 -4q-41 -2 -80 -4zM496 733h274l-115 432h-8z" />
<glyph unicode="&#xc7;" horiz-adv-x="1073" d="M51 649q0 162 47 290t133 217t209 136t275 47q90 0 168 -17t125 -34q0 -53 -4.5 -96t-8.5 -74q-6 -37 -12 -61h-65q0 12 -3.5 36.5t-8.5 51t-13 51.5t-19 37q-33 8 -72.5 12t-90.5 4q-109 0 -198 -41t-151.5 -115.5t-96.5 -181t-34 -237.5q0 -125 30 -233.5t89.5 -189.5 t148.5 -128t208 -47q102 0 174.5 18.5t132.5 46.5l18 -75q-59 -31 -154.5 -55.5t-199.5 -24.5h-16l-19 -62q68 -18 109 -63t41 -111q0 -49 -22.5 -87t-61.5 -64.5t-88.5 -41t-104.5 -14.5l-18 64q49 6 79.5 22.5t49 36t24.5 42t6 40.5q0 59 -33.5 90t-88.5 53l47 101 q-262 29 -396.5 205t-134.5 452z" />
<glyph unicode="&#xc8;" horiz-adv-x="1036" d="M82 61q80 25 131 53.5t51 69.5v951q0 41 -51 70.5t-131 51.5l20 74q82 -2 160 -4q66 -2 134.5 -4t109.5 -2h105q56 0 113.5 1t111 3t94.5 6q0 -66 -4 -118t-8 -87q-6 -41 -13 -69h-61q0 12 -2 33.5t-7.5 45t-12.5 46t-17 37.5l-393 8v-504h444v-119l-444 43v-463 q0 -29 11 -46t50 -27.5t115 -13.5t203 -3q31 0 50 11.5t31.5 35t21.5 60.5t17 88h74q-4 -57 -7 -94t-4 -66t-1 -59v-80q-117 6 -243 8t-224 2q-41 0 -109.5 -2t-134.5 -4q-78 -2 -160 -4zM297 1642l68 130l374 -291l-26 -37z" />
<glyph unicode="&#xc9;" horiz-adv-x="1036" d="M82 61q80 25 131 53.5t51 69.5v951q0 41 -51 70.5t-131 51.5l20 74q82 -2 160 -4q66 -2 134.5 -4t109.5 -2h105q56 0 113.5 1t111 3t94.5 6q0 -66 -4 -118t-8 -87q-6 -41 -13 -69h-61q0 12 -2 33.5t-7.5 45t-12.5 46t-17 37.5l-393 8v-504h444v-119l-444 43v-463 q0 -29 11 -46t50 -27.5t115 -13.5t203 -3q31 0 50 11.5t31.5 35t21.5 60.5t17 88h74q-4 -57 -7 -94t-4 -66t-1 -59v-80q-117 6 -243 8t-224 2q-41 0 -109.5 -2t-134.5 -4q-78 -2 -160 -4zM297 1481l377 291l65 -130l-413 -198z" />
<glyph unicode="&#xca;" horiz-adv-x="1036" d="M82 61q80 25 131 53.5t51 69.5v951q0 41 -51 70.5t-131 51.5l20 74q82 -2 160 -4q66 -2 134.5 -4t109.5 -2h105q56 0 113.5 1t111 3t94.5 6q0 -66 -4 -118t-8 -87q-6 -41 -13 -69h-61q0 12 -2 33.5t-7.5 45t-12.5 46t-17 37.5l-393 8v-504h444v-119l-444 43v-463 q0 -29 11 -46t50 -27.5t115 -13.5t203 -3q31 0 50 11.5t31.5 35t21.5 60.5t17 88h74q-4 -57 -7 -94t-4 -66t-1 -59v-80q-117 6 -243 8t-224 2q-41 0 -109.5 -2t-134.5 -4q-78 -2 -160 -4zM233 1481l285 291l285 -291l-47 -37l-238 162l-237 -162z" />
<glyph unicode="&#xcb;" horiz-adv-x="1036" d="M82 61q80 25 131 53.5t51 69.5v951q0 41 -51 70.5t-131 51.5l20 74q82 -2 160 -4q66 -2 134.5 -4t109.5 -2h105q56 0 113.5 1t111 3t94.5 6q0 -66 -4 -118t-8 -87q-6 -41 -13 -69h-61q0 12 -2 33.5t-7.5 45t-12.5 46t-17 37.5l-393 8v-504h444v-119l-444 43v-463 q0 -29 11 -46t50 -27.5t115 -13.5t203 -3q31 0 50 11.5t31.5 35t21.5 60.5t17 88h74q-4 -57 -7 -94t-4 -66t-1 -59v-80q-117 6 -243 8t-224 2q-41 0 -109.5 -2t-134.5 -4q-78 -2 -160 -4zM195 1614q0 47 33.5 81t80.5 34t80 -34t33 -81t-33 -81t-80 -34t-80.5 34t-33.5 81z M614 1614q0 47 34 81t81 34t80 -34t33 -81t-33 -81t-80 -34t-81 34t-34 81z" />
<glyph unicode="&#xcc;" horiz-adv-x="712" d="M82 61q84 25 134 53.5t50 69.5v953q0 41 -50 69.5t-134 53.5l20 71q39 -2 80 -4q35 -2 79 -4t85 -2q27 0 62.5 1t74.5 2t77 3t71 4l16 -71q-51 -8 -94 -17.5t-73.5 -23t-48 -34t-17.5 -50.5v-951q0 -31 17.5 -51t48 -32.5t73.5 -20.5t94 -19l-16 -71q-33 2 -71 4t-77 3 t-74.5 2t-62.5 1q-41 0 -85 -2t-79 -4q-41 -2 -80 -4zM119 1642l67 130l375 -291l-26 -37z" />
<glyph unicode="&#xcd;" horiz-adv-x="712" d="M82 61q84 25 134 53.5t50 69.5v953q0 41 -50 69.5t-134 53.5l20 71q39 -2 80 -4q35 -2 79 -4t85 -2q27 0 62.5 1t74.5 2t77 3t71 4l16 -71q-51 -8 -94 -17.5t-73.5 -23t-48 -34t-17.5 -50.5v-951q0 -31 17.5 -51t48 -32.5t73.5 -20.5t94 -19l-16 -71q-33 2 -71 4t-77 3 t-74.5 2t-62.5 1q-41 0 -85 -2t-79 -4q-41 -2 -80 -4zM119 1481l377 291l65 -130l-414 -198z" />
<glyph unicode="&#xce;" horiz-adv-x="712" d="M55 1481l285 291l285 -291l-47 -37l-238 162l-238 -162zM82 61q84 25 134 53.5t50 69.5v953q0 41 -50 69.5t-134 53.5l20 71q39 -2 80 -4q35 -2 79 -4t85 -2q27 0 62.5 1t74.5 2t77 3t71 4l16 -71q-51 -8 -94 -17.5t-73.5 -23t-48 -34t-17.5 -50.5v-951q0 -31 17.5 -51 t48 -32.5t73.5 -20.5t94 -19l-16 -71q-33 2 -71 4t-77 3t-74.5 2t-62.5 1q-41 0 -85 -2t-79 -4q-41 -2 -80 -4z" />
<glyph unicode="&#xcf;" horiz-adv-x="712" d="M16 1614q0 47 34 81t81 34t80 -34t33 -81t-33 -81t-80 -34t-81 34t-34 81zM82 61q84 25 134 53.5t50 69.5v953q0 41 -50 69.5t-134 53.5l20 71q39 -2 80 -4q35 -2 79 -4t85 -2q27 0 62.5 1t74.5 2t77 3t71 4l16 -71q-51 -8 -94 -17.5t-73.5 -23t-48 -34t-17.5 -50.5v-951 q0 -31 17.5 -51t48 -32.5t73.5 -20.5t94 -19l-16 -71q-33 2 -71 4t-77 3t-74.5 2t-62.5 1q-41 0 -85 -2t-79 -4q-41 -2 -80 -4zM436 1614q0 47 34 81t81 34t80 -34t33 -81t-33 -81t-80 -34t-81 34t-34 81z" />
<glyph unicode="&#xd1;" horiz-adv-x="1474" d="M61 63q82 23 132.5 51.5t50.5 69.5v953q0 41 -50.5 69.5t-132.5 53.5l21 73q68 -4 151.5 -8t147.5 -4l778 -1182h8l-18 998q0 41 -51 69.5t-131 53.5l18 73q27 -2 62 -6q59 -6 147 -6q49 0 81 1t57.5 2t52 4t63.5 5l16 -73q-104 -18 -154 -39t-50 -84v-1137h-166 l-750 1116h-6q0 -12 2 -52t5 -141.5t6 -278.5t5 -460q0 -61 65.5 -82.5t168.5 -38.5l-17 -73q-57 4 -92 6t-63.5 3t-58.5 1h-76q-41 0 -78 -2t-66 -4q-33 -2 -57 -4zM442 1493q29 94 72 142t92 48q35 0 78 -14t87 -30.5t88 -31t81 -14.5q39 0 64.5 24.5t48.5 70.5l43 -27 q-29 -94 -72 -142.5t-92 -48.5q-35 0 -78 14.5t-87 31t-88 31t-81 14.5q-39 0 -64.5 -25t-48.5 -70z" />
<glyph unicode="&#xd2;" horiz-adv-x="1390" d="M51 649q0 166 54.5 294t146.5 216t212 134t251 46q139 0 254.5 -44t197.5 -128t127 -206.5t45 -282.5q0 -166 -54 -295t-146 -217t-212 -134t-249 -46q-154 0 -271.5 47t-196.5 134t-119 209.5t-40 272.5zM229 674q0 -125 30 -233.5t89.5 -189.5t148.5 -128t208 -47 q92 0 175 40t144 114.5t97 182t36 240.5t-31.5 244t-93 188.5t-149.5 120.5t-201 43q-94 0 -176 -41t-143.5 -115.5t-97.5 -181t-36 -237.5zM473 1642l68 130l374 -291l-26 -37z" />
<glyph unicode="&#xd3;" horiz-adv-x="1390" d="M51 649q0 166 54.5 294t146.5 216t212 134t251 46q139 0 254.5 -44t197.5 -128t127 -206.5t45 -282.5q0 -166 -54 -295t-146 -217t-212 -134t-249 -46q-154 0 -271.5 47t-196.5 134t-119 209.5t-40 272.5zM229 674q0 -125 30 -233.5t89.5 -189.5t148.5 -128t208 -47 q92 0 175 40t144 114.5t97 182t36 240.5t-31.5 244t-93 188.5t-149.5 120.5t-201 43q-94 0 -176 -41t-143.5 -115.5t-97.5 -181t-36 -237.5zM473 1481l377 291l65 -130l-413 -198z" />
<glyph unicode="&#xd4;" horiz-adv-x="1390" d="M51 649q0 166 54.5 294t146.5 216t212 134t251 46q139 0 254.5 -44t197.5 -128t127 -206.5t45 -282.5q0 -166 -54 -295t-146 -217t-212 -134t-249 -46q-154 0 -271.5 47t-196.5 134t-119 209.5t-40 272.5zM229 674q0 -125 30 -233.5t89.5 -189.5t148.5 -128t208 -47 q92 0 175 40t144 114.5t97 182t36 240.5t-31.5 244t-93 188.5t-149.5 120.5t-201 43q-94 0 -176 -41t-143.5 -115.5t-97.5 -181t-36 -237.5zM410 1481l284 291l285 -291l-47 -37l-238 162l-237 -162z" />
<glyph unicode="&#xd5;" horiz-adv-x="1390" d="M51 649q0 166 54.5 294t146.5 216t212 134t251 46q139 0 254.5 -44t197.5 -128t127 -206.5t45 -282.5q0 -166 -54 -295t-146 -217t-212 -134t-249 -46q-154 0 -271.5 47t-196.5 134t-119 209.5t-40 272.5zM229 674q0 -125 30 -233.5t89.5 -189.5t148.5 -128t208 -47 q92 0 175 40t144 114.5t97 182t36 240.5t-31.5 244t-93 188.5t-149.5 120.5t-201 43q-94 0 -176 -41t-143.5 -115.5t-97.5 -181t-36 -237.5zM369 1493q29 94 71.5 142t91.5 48q35 0 78 -14t87 -30.5t88 -31t81 -14.5q39 0 64.5 24.5t48.5 70.5l43 -27q-29 -94 -72 -142.5 t-92 -48.5q-35 0 -78 14.5t-87 31t-88 31t-81 14.5q-39 0 -64.5 -25t-47.5 -70z" />
<glyph unicode="&#xd6;" horiz-adv-x="1390" d="M51 649q0 166 54.5 294t146.5 216t212 134t251 46q139 0 254.5 -44t197.5 -128t127 -206.5t45 -282.5q0 -166 -54 -295t-146 -217t-212 -134t-249 -46q-154 0 -271.5 47t-196.5 134t-119 209.5t-40 272.5zM229 674q0 -125 30 -233.5t89.5 -189.5t148.5 -128t208 -47 q92 0 175 40t144 114.5t97 182t36 240.5t-31.5 244t-93 188.5t-149.5 120.5t-201 43q-94 0 -176 -41t-143.5 -115.5t-97.5 -181t-36 -237.5zM371 1614q0 47 33.5 81t80.5 34t80 -34t33 -81t-33 -81t-80 -34t-80.5 34t-33.5 81zM791 1614q0 47 33.5 81t80.5 34t80 -34t33 -81 t-33 -81t-80 -34t-80.5 34t-33.5 81z" />
<glyph unicode="&#xd7;" horiz-adv-x="1269" d="M256 309l305 305l-305 308l76 73l305 -305l305 303l74 -73l-305 -306l305 -305l-74 -73l-305 305l-307 -308z" />
<glyph unicode="&#xd8;" horiz-adv-x="1390" d="M51 649q0 166 54.5 294t146.5 216t212 134t251 46q215 0 364 -100l181 238l79 -58l-182 -243q86 -86 134 -210t48 -288q0 -166 -54 -295t-146 -217t-212 -134t-249 -46q-106 0 -193.5 22.5t-158.5 63.5l-187 -246l-78 57l187 248q-98 88 -147.5 219t-49.5 299zM229 674 q0 -123 28 -229.5t85 -186.5l653 866q-59 59 -137 92t-176 33q-94 0 -176 -41t-143.5 -115.5t-97.5 -181t-36 -237.5zM408 182q57 -51 130.5 -78.5t166.5 -27.5q92 0 175 40t144 114.5t97 182t36 240.5q0 236 -98 394z" />
<glyph unicode="&#xd9;" horiz-adv-x="1406" d="M61 1257l19 74q53 -4 124.5 -7t119.5 -3q27 0 61.5 1t73.5 2t76.5 3t68.5 4l17 -74q-51 -8 -94.5 -16t-74 -20.5t-48 -32t-17.5 -49.5v-713q0 -78 26.5 -141.5t72.5 -109.5t108.5 -71.5t136.5 -25.5q154 0 246 85t92 251v723q0 41 -51 69.5t-131 50.5l20 74 q41 -4 101.5 -7t107.5 -3q27 0 62.5 1t74.5 2t77 3t69 4l16 -74q-51 -8 -94 -16t-75 -20.5t-49 -33t-17 -50.5v-699q0 -117 -36 -201.5t-100.5 -141t-154.5 -83t-197 -26.5q-117 0 -201.5 33.5t-140 92t-83 136.5t-27.5 168v727q0 39 -51.5 65t-127.5 49zM481 1642l68 130 l375 -291l-27 -37z" />
<glyph unicode="&#xda;" horiz-adv-x="1406" d="M61 1257l19 74q53 -4 124.5 -7t119.5 -3q27 0 61.5 1t73.5 2t76.5 3t68.5 4l17 -74q-51 -8 -94.5 -16t-74 -20.5t-48 -32t-17.5 -49.5v-713q0 -78 26.5 -141.5t72.5 -109.5t108.5 -71.5t136.5 -25.5q154 0 246 85t92 251v723q0 41 -51 69.5t-131 50.5l20 74 q41 -4 101.5 -7t107.5 -3q27 0 62.5 1t74.5 2t77 3t69 4l16 -74q-51 -8 -94 -16t-75 -20.5t-49 -33t-17 -50.5v-699q0 -117 -36 -201.5t-100.5 -141t-154.5 -83t-197 -26.5q-117 0 -201.5 33.5t-140 92t-83 136.5t-27.5 168v727q0 39 -51.5 65t-127.5 49zM481 1481l377 291 l66 -130l-414 -198z" />
<glyph unicode="&#xdb;" horiz-adv-x="1406" d="M61 1257l19 74q53 -4 124.5 -7t119.5 -3q27 0 61.5 1t73.5 2t76.5 3t68.5 4l17 -74q-51 -8 -94.5 -16t-74 -20.5t-48 -32t-17.5 -49.5v-713q0 -78 26.5 -141.5t72.5 -109.5t108.5 -71.5t136.5 -25.5q154 0 246 85t92 251v723q0 41 -51 69.5t-131 50.5l20 74 q41 -4 101.5 -7t107.5 -3q27 0 62.5 1t74.5 2t77 3t69 4l16 -74q-51 -8 -94 -16t-75 -20.5t-49 -33t-17 -50.5v-699q0 -117 -36 -201.5t-100.5 -141t-154.5 -83t-197 -26.5q-117 0 -201.5 33.5t-140 92t-83 136.5t-27.5 168v727q0 39 -51.5 65t-127.5 49zM418 1481l284 291 l285 -291l-47 -37l-238 162l-237 -162z" />
<glyph unicode="&#xdc;" horiz-adv-x="1406" d="M61 1257l19 74q53 -4 124.5 -7t119.5 -3q27 0 61.5 1t73.5 2t76.5 3t68.5 4l17 -74q-51 -8 -94.5 -16t-74 -20.5t-48 -32t-17.5 -49.5v-713q0 -78 26.5 -141.5t72.5 -109.5t108.5 -71.5t136.5 -25.5q154 0 246 85t92 251v723q0 41 -51 69.5t-131 50.5l20 74 q41 -4 101.5 -7t107.5 -3q27 0 62.5 1t74.5 2t77 3t69 4l16 -74q-51 -8 -94 -16t-75 -20.5t-49 -33t-17 -50.5v-699q0 -117 -36 -201.5t-100.5 -141t-154.5 -83t-197 -26.5q-117 0 -201.5 33.5t-140 92t-83 136.5t-27.5 168v727q0 39 -51.5 65t-127.5 49zM379 1614 q0 47 33.5 81t81.5 34q47 0 79.5 -34t32.5 -81t-32.5 -81t-79.5 -34t-81 34t-34 81zM799 1614q0 47 33.5 81t80.5 34t80 -34t33 -81t-32.5 -81t-80.5 -34q-47 0 -80.5 34t-33.5 81z" />
<glyph unicode="&#xdd;" horiz-adv-x="1144" d="M-20 1260l16 73q76 -8 126 -10t101 -2q78 0 131.5 3t106.5 9l20 -73q-25 -4 -48 -11.5t-42.5 -16.5t-32 -20.5t-12.5 -25.5q0 -12 22.5 -65.5t58.5 -134.5t80 -181t87 -207h8q23 47 50.5 106.5t55 123t55.5 124t48 109.5t32.5 82t12.5 39q0 29 -44 44t-126 31l16 74 l66 -4q33 -2 60.5 -3t49 -2t29.5 -1q41 0 83 2t77 4l78 4l20 -74q-82 -14 -134 -40.5t-66 -55.5l-316 -676v-301q0 -31 17.5 -50t48 -32.5t73.5 -21.5t95 -17l-15 -73q-23 2 -55.5 4t-69 4t-74.5 2h-69q-90 0 -150.5 -3t-107.5 -7l-18 73q80 23 130 51.5t50 69.5v299 l-326 688q-23 39 -65.5 56t-132.5 33zM350 1481l377 291l66 -130l-414 -198z" />
<glyph unicode="&#xde;" horiz-adv-x="1093" d="M82 61q82 25 132 53.5t50 69.5v953q0 41 -50 69.5t-132 50.5l20 74q37 -2 78 -4q35 -2 78 -4t84 -2h85q36 0 67 2l61 4q31 2 72 4l16 -74q-51 -8 -94 -16t-74 -21.5t-47 -33t-16 -51.5v-97q37 4 73 4h88q227 0 348 -98t121 -264q0 -68 -28.5 -137.5t-89 -127t-154.5 -94 t-227 -36.5q-35 0 -69 2t-62 10v-113q0 -31 16 -51t47 -32.5t74 -20.5t94 -19l-16 -71q-57 4 -88 6t-56.5 2t-55.5 1t-85 1q-41 0 -84 -2t-78 -4q-41 -2 -78 -4zM412 369q61 -12 118 -13q88 0 154 26t109 69t64.5 98t21.5 115q0 135 -84 217t-234 82q-51 0 -86 -1t-63 -6 v-587z" />
<glyph unicode="&#xdf;" horiz-adv-x="1185" d="M82 72q78 23 127 50.5t49 67.5v668q-12 8 -34.5 15.5t-46 11.5t-45 7t-34.5 3v61q51 8 86 12.5t74 8.5v477q35 6 120 16.5t181 10.5q100 0 181 -13.5t139.5 -42t90 -74.5t31.5 -114q0 -49 -19 -84t-48 -61.5t-61.5 -49t-61.5 -46t-48.5 -52.5t-19.5 -67q0 -49 30 -86 t75 -71t96 -66.5t96 -74.5t75 -96.5t30 -130.5q0 -90 -32 -158.5t-87 -114.5t-128 -69.5t-157 -23.5q-57 0 -119.5 10t-119.5 33q0 88 5 148.5t17 117.5h60q0 -72 15 -124t38 -91q41 -10 80 -10q109 0 182.5 62.5t73.5 174.5q0 68 -23.5 116t-60.5 86t-78 69.5t-78 69.5 t-60.5 85t-23.5 115t29 106.5t62.5 72.5t61 74t27.5 107q0 92 -71.5 142.5t-188.5 50.5q-76 0 -163 -17v-1384q-39 8 -69 9t-50 1q-41 0 -75 -1t-58 -3q-29 -2 -52 -6z" />
<glyph unicode="&#xe0;" horiz-adv-x="966" d="M72 225q0 59 28.5 112.5t94 92.5t171 61.5t261.5 22.5v133q0 117 -53.5 182.5t-178.5 65.5q-51 0 -85 -6t-58 -15q-8 -12 -16.5 -32.5t-13.5 -42t-8 -42t-3 -32.5h-57q-6 20 -13 51q-8 51 -12 156q49 16 129 31.5t176 15.5q162 0 248 -71.5t86 -227.5v-485q0 -14 6 -29.5 t27.5 -28t61.5 -20.5t108 -8l16 -60q-49 -14 -96 -24q-41 -10 -84 -17.5t-74 -7.5q-63 0 -85.5 29.5t-22.5 70.5q0 35 10 72l-6 2q-14 -33 -42 -66.5t-67 -61.5t-86 -44t-102 -16q-121 0 -190.5 64t-69.5 175zM231 236q0 -72 40 -113t112 -41q49 0 94 23.5t78 63.5t52.5 92 t19.5 112v67q-188 0 -292 -55t-104 -149zM262 1278l68 129l375 -291l-27 -37z" />
<glyph unicode="&#xe1;" horiz-adv-x="966" d="M72 225q0 59 28.5 112.5t94 92.5t171 61.5t261.5 22.5v133q0 117 -53.5 182.5t-178.5 65.5q-51 0 -85 -6t-58 -15q-8 -12 -16.5 -32.5t-13.5 -42t-8 -42t-3 -32.5h-57q-6 20 -13 51q-8 51 -12 156q49 16 129 31.5t176 15.5q162 0 248 -71.5t86 -227.5v-485q0 -14 6 -29.5 t27.5 -28t61.5 -20.5t108 -8l16 -60q-49 -14 -96 -24q-41 -10 -84 -17.5t-74 -7.5q-63 0 -85.5 29.5t-22.5 70.5q0 35 10 72l-6 2q-14 -33 -42 -66.5t-67 -61.5t-86 -44t-102 -16q-121 0 -190.5 64t-69.5 175zM231 236q0 -72 40 -113t112 -41q49 0 94 23.5t78 63.5t52.5 92 t19.5 112v67q-188 0 -292 -55t-104 -149zM262 1116l377 291l66 -129l-414 -199z" />
<glyph unicode="&#xe2;" horiz-adv-x="966" d="M72 225q0 59 28.5 112.5t94 92.5t171 61.5t261.5 22.5v133q0 117 -53.5 182.5t-178.5 65.5q-51 0 -85 -6t-58 -15q-8 -12 -16.5 -32.5t-13.5 -42t-8 -42t-3 -32.5h-57q-6 20 -13 51q-8 51 -12 156q49 16 129 31.5t176 15.5q162 0 248 -71.5t86 -227.5v-485q0 -14 6 -29.5 t27.5 -28t61.5 -20.5t108 -8l16 -60q-49 -14 -96 -24q-41 -10 -84 -17.5t-74 -7.5q-63 0 -85.5 29.5t-22.5 70.5q0 35 10 72l-6 2q-14 -33 -42 -66.5t-67 -61.5t-86 -44t-102 -16q-121 0 -190.5 64t-69.5 175zM199 1116l284 291l285 -291l-47 -37l-238 162l-237 -162z M231 236q0 -72 40 -113t112 -41q49 0 94 23.5t78 63.5t52.5 92t19.5 112v67q-188 0 -292 -55t-104 -149z" />
<glyph unicode="&#xe3;" horiz-adv-x="966" d="M72 225q0 59 28.5 112.5t94 92.5t171 61.5t261.5 22.5v133q0 117 -53.5 182.5t-178.5 65.5q-51 0 -85 -6t-58 -15q-8 -12 -16.5 -32.5t-13.5 -42t-8 -42t-3 -32.5h-57q-6 20 -13 51q-8 51 -12 156q49 16 129 31.5t176 15.5q162 0 248 -71.5t86 -227.5v-485q0 -14 6 -29.5 t27.5 -28t61.5 -20.5t108 -8l16 -60q-49 -14 -96 -24q-41 -10 -84 -17.5t-74 -7.5q-63 0 -85.5 29.5t-22.5 70.5q0 35 10 72l-6 2q-14 -33 -42 -66.5t-67 -61.5t-86 -44t-102 -16q-121 0 -190.5 64t-69.5 175zM156 1128q29 94 71.5 142.5t91.5 48.5q35 0 78 -14.5t87 -31 t88 -30.5t81 -14q39 0 64.5 24.5t48.5 69.5l43 -27q-29 -94 -72 -142t-92 -48q-35 0 -78 14.5t-87 30.5t-88 30.5t-81 14.5q-39 0 -64.5 -24.5t-47.5 -69.5zM231 236q0 -72 40 -113t112 -41q49 0 94 23.5t78 63.5t52.5 92t19.5 112v67q-188 0 -292 -55t-104 -149z" />
<glyph unicode="&#xe4;" horiz-adv-x="966" d="M72 225q0 59 28.5 112.5t94 92.5t171 61.5t261.5 22.5v133q0 117 -53.5 182.5t-178.5 65.5q-51 0 -85 -6t-58 -15q-8 -12 -16.5 -32.5t-13.5 -42t-8 -42t-3 -32.5h-57q-6 20 -13 51q-8 51 -12 156q49 16 129 31.5t176 15.5q162 0 248 -71.5t86 -227.5v-485q0 -14 6 -29.5 t27.5 -28t61.5 -20.5t108 -8l16 -60q-49 -14 -96 -24q-41 -10 -84 -17.5t-74 -7.5q-63 0 -85.5 29.5t-22.5 70.5q0 35 10 72l-6 2q-14 -33 -42 -66.5t-67 -61.5t-86 -44t-102 -16q-121 0 -190.5 64t-69.5 175zM160 1249q0 47 33.5 81t80.5 34t80 -34t33 -81t-32.5 -80.5 t-80.5 -33.5q-47 0 -80.5 33.5t-33.5 80.5zM231 236q0 -72 40 -113t112 -41q49 0 94 23.5t78 63.5t52.5 92t19.5 112v67q-188 0 -292 -55t-104 -149zM580 1249q0 47 33.5 81t80.5 34t80 -34t33 -81t-33 -80.5t-80 -33.5t-80.5 33.5t-33.5 80.5z" />
<glyph unicode="&#xe5;" horiz-adv-x="966" d="M72 225q0 59 28.5 112.5t94 92.5t171 61.5t261.5 22.5v133q0 117 -53.5 182.5t-178.5 65.5q-51 0 -85 -6t-58 -15q-8 -12 -16.5 -32.5t-13.5 -42t-8 -42t-3 -32.5h-57q-6 20 -13 51q-8 51 -12 156q49 16 129 31.5t176 15.5q162 0 248 -71.5t86 -227.5v-485q0 -14 6 -29.5 t27.5 -28t61.5 -20.5t108 -8l16 -60q-49 -14 -96 -24q-41 -10 -84 -17.5t-74 -7.5q-63 0 -85.5 29.5t-22.5 70.5q0 35 10 72l-6 2q-14 -33 -42 -66.5t-67 -61.5t-86 -44t-102 -16q-121 0 -190.5 64t-69.5 175zM231 236q0 -72 40 -113t112 -41q49 0 94 23.5t78 63.5t52.5 92 t19.5 112v67q-188 0 -292 -55t-104 -149zM285 1219q0 84 57 141t141 57q82 0 139.5 -57t57.5 -141q0 -82 -57.5 -139.5t-139.5 -57.5q-84 0 -141 57.5t-57 139.5zM367 1219q0 -55 34.5 -94.5t81.5 -39.5q49 0 82 39t33 95q0 59 -33 97t-82 38q-47 0 -81.5 -38t-34.5 -97z " />
<glyph unicode="&#xe6;" horiz-adv-x="1462" d="M72 225q0 59 28.5 112.5t94 92.5t171 61.5t261.5 22.5v133q0 117 -53.5 182.5t-178.5 65.5q-51 0 -85 -6t-58 -15q-8 -12 -16.5 -32.5t-13.5 -42t-8 -42t-3 -32.5h-57q-6 20 -13 51q-8 51 -12 156q49 16 129 31.5t176 15.5q238 0 293 -158q53 84 138 121t192 37 q92 0 155.5 -42t103.5 -109.5t57.5 -152.5t17.5 -171h-625q0 -190 72.5 -306t210.5 -116q63 0 125.5 7t144.5 32l20 -72q-45 -18 -122.5 -40.5t-202.5 -22.5q-113 0 -212.5 53t-146.5 182q-49 -117 -136 -176t-187 -59q-121 0 -190.5 64t-69.5 175zM231 236q0 -72 40 -113 t112 -41q49 0 94 23.5t78 63.5t52.5 92t19.5 112v67q-188 0 -292 -55t-104 -149zM770 575h436q0 158 -48 239t-128 81q-102 0 -174 -81t-86 -239z" />
<glyph unicode="&#xe7;" horiz-adv-x="806" d="M61 485q0 113 32 204t88.5 155.5t136 99.5t178.5 35q66 0 126 -13.5t111 -29.5q0 -100 -10 -158q-6 -31 -12 -53h-60q0 12 -3 33.5t-8 45t-12 45t-18 34.5q-12 6 -33.5 9t-37.5 3q-145 0 -222 -103.5t-77 -302.5q0 -195 65.5 -301t212.5 -106q61 0 119.5 11t107.5 28 l21 -72q-47 -20 -110.5 -41.5t-172.5 -21.5h-8l-18 -62q68 -18 108.5 -63t40.5 -111q0 -49 -22.5 -87t-61.5 -64.5t-88 -41t-104 -14.5l-19 64q49 6 80 22.5t49.5 36t24.5 42t6 40.5q0 59 -34 90t-89 53l47 103q-156 29 -245 157.5t-89 333.5z" />
<glyph unicode="&#xe8;" horiz-adv-x="927" d="M61 463q0 123 36 218t97.5 161.5t142.5 101.5t169 35q168 0 259 -124t91 -351h-623q0 -190 73 -306t210 -116q51 0 114.5 5t155.5 34l21 -72q-45 -18 -123 -40.5t-203 -22.5q-195 0 -307.5 123t-112.5 354zM238 575h436q0 152 -46 236t-130 84q-102 0 -174 -81t-86 -239z M242 1278l67 129l375 -291l-27 -37z" />
<glyph unicode="&#xe9;" horiz-adv-x="927" d="M61 463q0 123 36 218t97.5 161.5t142.5 101.5t169 35q168 0 259 -124t91 -351h-623q0 -190 73 -306t210 -116q51 0 114.5 5t155.5 34l21 -72q-45 -18 -123 -40.5t-203 -22.5q-195 0 -307.5 123t-112.5 354zM238 575h436q0 152 -46 236t-130 84q-102 0 -174 -81t-86 -239z M242 1116l376 291l66 -129l-414 -199z" />
<glyph unicode="&#xea;" horiz-adv-x="927" d="M61 463q0 123 36 218t97.5 161.5t142.5 101.5t169 35q168 0 259 -124t91 -351h-623q0 -190 73 -306t210 -116q51 0 114.5 5t155.5 34l21 -72q-45 -18 -123 -40.5t-203 -22.5q-195 0 -307.5 123t-112.5 354zM178 1116l285 291l285 -291l-48 -37l-237 162l-238 -162z M238 575h436q0 152 -46 236t-130 84q-102 0 -174 -81t-86 -239z" />
<glyph unicode="&#xeb;" horiz-adv-x="927" d="M61 463q0 123 36 218t97.5 161.5t142.5 101.5t169 35q168 0 259 -124t91 -351h-623q0 -190 73 -306t210 -116q51 0 114.5 5t155.5 34l21 -72q-45 -18 -123 -40.5t-203 -22.5q-195 0 -307.5 123t-112.5 354zM141 1249q0 47 34 81t81 34t80 -34t33 -81t-33 -80.5t-80 -33.5 t-81 33.5t-34 80.5zM238 575h436q0 152 -46 236t-130 84q-102 0 -174 -81t-86 -239zM561 1249q0 47 34 81t81 34t79.5 -34t32.5 -81t-32.5 -80.5t-79.5 -33.5t-81 33.5t-34 80.5z" />
<glyph unicode="&#xec;" horiz-adv-x="628" d="M82 74q76 23 127 48t51 66v590q0 31 -14.5 50.5t-38 31.5t-54 20.5t-65.5 16.5l21 72q27 -4 77 -8.5t121 -4.5h38q30 0 56 2v-770q0 -31 16.5 -49t46.5 -30.5t72 -19.5t93 -15l-17 -74q-31 2 -67.5 4t-74.5 3t-74 2t-62 1q-41 0 -82 -1t-76 -3q-39 -2 -76 -6zM94 1278 l68 129l375 -291l-27 -37z" />
<glyph unicode="&#xed;" horiz-adv-x="628" d="M82 74q76 23 127 48t51 66v590q0 31 -14.5 50.5t-38 31.5t-54 20.5t-65.5 16.5l21 72q27 -4 77 -8.5t121 -4.5h38q30 0 56 2v-770q0 -31 16.5 -49t46.5 -30.5t72 -19.5t93 -15l-17 -74q-31 2 -67.5 4t-74.5 3t-74 2t-62 1q-41 0 -82 -1t-76 -3q-39 -2 -76 -6zM94 1116 l377 291l66 -129l-414 -199z" />
<glyph unicode="&#xee;" horiz-adv-x="628" d="M31 1116l284 291l285 -291l-47 -37l-238 162l-237 -162zM82 74q76 23 127 48t51 66v590q0 31 -14.5 50.5t-38 31.5t-54 20.5t-65.5 16.5l21 72q27 -4 77 -8.5t121 -4.5h38q30 0 56 2v-770q0 -31 16.5 -49t46.5 -30.5t72 -19.5t93 -15l-17 -74q-31 2 -67.5 4t-74.5 3 t-74 2t-62 1q-41 0 -82 -1t-76 -3q-39 -2 -76 -6z" />
<glyph unicode="&#xef;" horiz-adv-x="628" d="M-8 1249q0 47 33.5 81t80.5 34t80 -34t33 -81t-32.5 -80.5t-80.5 -33.5q-47 0 -80.5 33.5t-33.5 80.5zM82 74q76 23 127 48t51 66v590q0 31 -14.5 50.5t-38 31.5t-54 20.5t-65.5 16.5l21 72q27 -4 77 -8.5t121 -4.5h38q30 0 56 2v-770q0 -31 16.5 -49t46.5 -30.5 t72 -19.5t93 -15l-17 -74q-31 2 -67.5 4t-74.5 3t-74 2t-62 1q-41 0 -82 -1t-76 -3q-39 -2 -76 -6zM412 1249q0 47 33.5 81t80.5 34t80 -34t33 -81t-33 -80.5t-80 -33.5t-80.5 33.5t-33.5 80.5z" />
<glyph unicode="&#xf0;" d="M68 463q0 123 34.5 218t97 161.5t146.5 101.5t182 35q102 0 185 -35q-18 74 -60.5 140.5t-99.5 125.5q-74 -29 -149.5 -57.5t-157.5 -62.5l-37 94q72 25 138.5 48t131.5 48q-76 59 -161 99t-168 55q2 14 4 26q2 10 2 19v10q252 -45 428 -170l321 129l37 -94l-276 -101 q145 -133 217.5 -322.5t72.5 -426.5q0 -121 -34.5 -217.5t-97 -163t-148.5 -102t-189 -35.5q-195 0 -307 123t-112 354zM240 504q0 -94 18 -174t54 -137.5t88.5 -89t121.5 -31.5q115 0 188.5 102t73.5 295q0 209 -76.5 317.5t-203.5 108.5q-113 0 -188.5 -99t-75.5 -292z " />
<glyph unicode="&#xf1;" horiz-adv-x="1216" d="M82 61q78 23 127 50.5t49 66.5v598q0 31 -13.5 51.5t-37 32.5t-54 20.5t-65.5 16.5l21 72q27 -4 77 -8.5t121 -4.5h33q25 0 51 2q2 -18 4 -38q2 -16 3 -36t1 -40q66 51 151 93t195 42q133 0 200 -65.5t67 -168.5v-565q0 -31 16 -50t46 -31.5t72 -20.5t91 -17l-16 -71 q-31 2 -68 4t-74 3t-71.5 2t-61.5 1q-41 0 -79 -2t-68 -4q-37 -2 -68 -4l-20 71q78 23 117.5 50.5t39.5 68.5v514q0 92 -48 134t-130 42q-41 0 -83 -9t-80 -24.5t-71.5 -35t-56.5 -37.5v-584q0 -31 15.5 -50t43 -31.5t68.5 -20.5t90 -17l-14 -71q-31 2 -67.5 4t-72.5 3 t-69 2t-57 1q-41 0 -82 -2t-76 -4l-78 -4zM281 1128q29 94 71.5 142.5t91.5 48.5q35 0 78 -14.5t87 -31t88 -30.5t81 -14q39 0 64.5 24.5t48.5 69.5l43 -27q-29 -94 -72 -142t-92 -48q-35 0 -78 14.5t-87 30.5t-88 30.5t-81 14.5q-39 0 -64.5 -24.5t-47.5 -69.5z" />
<glyph unicode="&#xf2;" horiz-adv-x="1013" d="M61 463q0 123 35 218t97.5 161.5t147.5 101.5t183 35q203 0 315.5 -126t112.5 -349q0 -121 -34.5 -217.5t-97 -163t-149.5 -102t-190 -35.5q-195 0 -307.5 123t-112.5 354zM236 504q0 -94 18 -174t53 -137.5t87 -89t122 -31.5q115 0 188.5 102t73.5 295 q0 209 -76.5 317.5t-203.5 108.5q-113 0 -187.5 -99t-74.5 -292zM285 1278l67 129l375 -291l-27 -37z" />
<glyph unicode="&#xf3;" horiz-adv-x="1013" d="M61 463q0 123 35 218t97.5 161.5t147.5 101.5t183 35q203 0 315.5 -126t112.5 -349q0 -121 -34.5 -217.5t-97 -163t-149.5 -102t-190 -35.5q-195 0 -307.5 123t-112.5 354zM236 504q0 -94 18 -174t53 -137.5t87 -89t122 -31.5q115 0 188.5 102t73.5 295 q0 209 -76.5 317.5t-203.5 108.5q-113 0 -187.5 -99t-74.5 -292zM285 1116l377 291l65 -129l-414 -199z" />
<glyph unicode="&#xf4;" horiz-adv-x="1013" d="M61 463q0 123 35 218t97.5 161.5t147.5 101.5t183 35q203 0 315.5 -126t112.5 -349q0 -121 -34.5 -217.5t-97 -163t-149.5 -102t-190 -35.5q-195 0 -307.5 123t-112.5 354zM221 1116l285 291l285 -291l-48 -37l-237 162l-238 -162zM236 504q0 -94 18 -174t53 -137.5 t87 -89t122 -31.5q115 0 188.5 102t73.5 295q0 209 -76.5 317.5t-203.5 108.5q-113 0 -187.5 -99t-74.5 -292z" />
<glyph unicode="&#xf5;" horiz-adv-x="1013" d="M61 463q0 123 35 218t97.5 161.5t147.5 101.5t183 35q203 0 315.5 -126t112.5 -349q0 -121 -34.5 -217.5t-97 -163t-149.5 -102t-190 -35.5q-195 0 -307.5 123t-112.5 354zM180 1128q29 94 72 142.5t92 48.5q35 0 78 -14.5t87 -31t88 -30.5t81 -14q39 0 64.5 24.5 t48.5 69.5l43 -27q-29 -94 -72 -142t-92 -48q-35 0 -78 14.5t-87 30.5t-88 30.5t-81 14.5q-39 0 -64.5 -24.5t-48.5 -69.5zM236 504q0 -94 18 -174t53 -137.5t87 -89t122 -31.5q115 0 188.5 102t73.5 295q0 209 -76.5 317.5t-203.5 108.5q-113 0 -187.5 -99t-74.5 -292z" />
<glyph unicode="&#xf6;" horiz-adv-x="1013" d="M61 463q0 123 35 218t97.5 161.5t147.5 101.5t183 35q203 0 315.5 -126t112.5 -349q0 -121 -34.5 -217.5t-97 -163t-149.5 -102t-190 -35.5q-195 0 -307.5 123t-112.5 354zM182 1249q0 47 34 81t81 34t80 -34t33 -81t-33 -80.5t-80 -33.5t-81 33.5t-34 80.5zM236 504 q0 -94 18 -174t53 -137.5t87 -89t122 -31.5q115 0 188.5 102t73.5 295q0 209 -76.5 317.5t-203.5 108.5q-113 0 -187.5 -99t-74.5 -292zM602 1249q0 47 34 81t81 34t79.5 -34t32.5 -81t-32.5 -80.5t-79.5 -33.5t-81 33.5t-34 80.5z" />
<glyph unicode="&#xf7;" horiz-adv-x="1269" d="M225 563v105h819v-105h-819zM522 311q0 47 33 81t80 34t81 -34t34 -81q0 -45 -34 -78.5t-81 -33.5t-80 33.5t-33 78.5zM522 920q0 47 33 80.5t80 33.5t81 -33.5t34 -80.5q0 -45 -34 -79t-81 -34t-80 34t-33 79z" />
<glyph unicode="&#xf8;" horiz-adv-x="1013" d="M61 -287l175 342q-84 57 -129.5 159.5t-45.5 248.5q0 123 35 218t97.5 161.5t147.5 101.5t183 35q90 0 170 -29l174 340l84 -41l-176 -342q86 -59 131 -161.5t45 -241.5q0 -121 -34.5 -217.5t-97 -163t-149.5 -102t-190 -35.5q-45 0 -86 7t-78 19l-174 -340zM236 504 q0 -96 18 -175t53 -136l334 655q-63 47 -143 47q-113 0 -187.5 -99t-74.5 -292zM371 117q63 -45 145 -45q115 0 188.5 102t73.5 295q0 195 -69 305z" />
<glyph unicode="&#xf9;" horiz-adv-x="1157" d="M20 897l21 72q27 -4 77 -8.5t122 -4.5h36q29 0 56 2v-669q0 -92 41 -142.5t133 -50.5q59 0 111.5 21.5t92.5 60.5t63.5 94.5t23.5 124.5v381q0 31 -13.5 50.5t-37 31.5t-54 20.5t-65.5 16.5l20 72q27 -4 77 -8.5t122 -4.5h37q29 0 55 2v-763q0 -14 6 -29.5t27.5 -28 t61.5 -20.5t108 -8l16 -60q-49 -14 -96 -24q-41 -10 -84 -17.5t-74 -7.5q-63 0 -85.5 29.5t-22.5 70.5q0 35 10 72l-6 2q-18 -33 -49 -66.5t-73 -61.5t-94.5 -44t-113.5 -16q-74 0 -126 22.5t-86 61.5t-50.5 91t-16.5 113v504q0 31 -13 50.5t-36.5 31.5t-54.5 20.5t-66 16.5 zM356 1278l68 129l375 -291l-27 -37z" />
<glyph unicode="&#xfa;" horiz-adv-x="1157" d="M20 897l21 72q27 -4 77 -8.5t122 -4.5h36q29 0 56 2v-669q0 -92 41 -142.5t133 -50.5q59 0 111.5 21.5t92.5 60.5t63.5 94.5t23.5 124.5v381q0 31 -13.5 50.5t-37 31.5t-54 20.5t-65.5 16.5l20 72q27 -4 77 -8.5t122 -4.5h37q29 0 55 2v-763q0 -14 6 -29.5t27.5 -28 t61.5 -20.5t108 -8l16 -60q-49 -14 -96 -24q-41 -10 -84 -17.5t-74 -7.5q-63 0 -85.5 29.5t-22.5 70.5q0 35 10 72l-6 2q-18 -33 -49 -66.5t-73 -61.5t-94.5 -44t-113.5 -16q-74 0 -126 22.5t-86 61.5t-50.5 91t-16.5 113v504q0 31 -13 50.5t-36.5 31.5t-54.5 20.5t-66 16.5 zM356 1116l377 291l66 -129l-414 -199z" />
<glyph unicode="&#xfb;" horiz-adv-x="1157" d="M20 897l21 72q27 -4 77 -8.5t122 -4.5h36q29 0 56 2v-669q0 -92 41 -142.5t133 -50.5q59 0 111.5 21.5t92.5 60.5t63.5 94.5t23.5 124.5v381q0 31 -13.5 50.5t-37 31.5t-54 20.5t-65.5 16.5l20 72q27 -4 77 -8.5t122 -4.5h37q29 0 55 2v-763q0 -14 6 -29.5t27.5 -28 t61.5 -20.5t108 -8l16 -60q-49 -14 -96 -24q-41 -10 -84 -17.5t-74 -7.5q-63 0 -85.5 29.5t-22.5 70.5q0 35 10 72l-6 2q-18 -33 -49 -66.5t-73 -61.5t-94.5 -44t-113.5 -16q-74 0 -126 22.5t-86 61.5t-50.5 91t-16.5 113v504q0 31 -13 50.5t-36.5 31.5t-54.5 20.5t-66 16.5 zM293 1116l285 291l284 -291l-47 -37l-237 162l-238 -162z" />
<glyph unicode="&#xfc;" horiz-adv-x="1157" d="M20 897l21 72q27 -4 77 -8.5t122 -4.5h36q29 0 56 2v-669q0 -92 41 -142.5t133 -50.5q59 0 111.5 21.5t92.5 60.5t63.5 94.5t23.5 124.5v381q0 31 -13.5 50.5t-37 31.5t-54 20.5t-65.5 16.5l20 72q27 -4 77 -8.5t122 -4.5h37q29 0 55 2v-763q0 -14 6 -29.5t27.5 -28 t61.5 -20.5t108 -8l16 -60q-49 -14 -96 -24q-41 -10 -84 -17.5t-74 -7.5q-63 0 -85.5 29.5t-22.5 70.5q0 35 10 72l-6 2q-18 -33 -49 -66.5t-73 -61.5t-94.5 -44t-113.5 -16q-74 0 -126 22.5t-86 61.5t-50.5 91t-16.5 113v504q0 31 -13 50.5t-36.5 31.5t-54.5 20.5t-66 16.5 zM254 1249q0 47 34 81t81 34t79.5 -34t32.5 -81t-32.5 -80.5t-79.5 -33.5t-81 33.5t-34 80.5zM674 1249q0 47 33.5 81t80.5 34t80 -34t33 -81t-32.5 -80.5t-80.5 -33.5q-47 0 -80.5 33.5t-33.5 80.5z" />
<glyph unicode="&#xfd;" horiz-adv-x="1103" d="M-55 -440q33 96 59.5 151.5t58.5 106.5l56 -21q-8 -18 -15.5 -59t-9.5 -76q25 -10 51.5 -15t55.5 -5q41 0 87 17t88 58t73.5 107.5t46.5 165.5l-291 821q-16 39 -66.5 53.5t-138.5 30.5l16 72q31 -2 68 -4t75 -4.5t72 -2.5h62q41 0 73.5 2.5t55.5 4.5q27 2 47 4l20 -72 q-51 -12 -89 -27.5t-38 -50.5q0 -12 19.5 -71.5t47.5 -141.5t57.5 -170t52.5 -155q14 -39 22 -67t12 -46q6 -23 11 -37h2l8 33q8 37 39 117l176 542q0 14 -13.5 25.5t-34 21t-45 16.5t-46.5 11l20 72q20 -2 47 -4q23 -2 55.5 -4.5t73.5 -2.5q14 0 78 1t141 10l19 -72 q-66 -8 -112 -22.5t-68 -69.5l-340 -916q-70 -188 -197 -270t-291 -82q-45 0 -82.5 7.5t-68.5 17.5zM330 1116l377 291l65 -129l-414 -199z" />
<glyph unicode="&#xfe;" horiz-adv-x="1091" d="M31 -379q78 23 126 49.5t48 67.5v1618q0 31 -14.5 50t-38 31.5t-54 20.5t-65.5 17l20 71q35 -4 120 -7t175 -3v-645q0 -66 -10 -111l4 -2q14 37 39 73t60.5 64.5t82.5 46t107 17.5q174 0 276.5 -134t102.5 -382q0 -102 -31 -190.5t-83 -152t-123 -99t-150 -35.5 q-100 0 -167 37.5t-108 74.5v-360q0 -59 63.5 -79.5t161.5 -37.5l-14 -72q-55 2 -88 4.5t-58.5 4.5t-53.5 2h-74q-41 0 -82 -2t-76 -4l-78 -5zM348 193q43 -47 101.5 -79t138.5 -32q55 0 101 29.5t79 82t51.5 123t18.5 154.5q0 205 -63.5 314.5t-180.5 109.5 q-51 0 -96 -24.5t-78 -66.5t-52.5 -99.5t-19.5 -122.5v-389z" />
<glyph unicode="&#xff;" horiz-adv-x="1103" d="M-55 -440q33 96 59.5 151.5t58.5 106.5l56 -21q-8 -18 -15.5 -59t-9.5 -76q25 -10 51.5 -15t55.5 -5q41 0 87 17t88 58t73.5 107.5t46.5 165.5l-291 821q-16 39 -66.5 53.5t-138.5 30.5l16 72q31 -2 68 -4t75 -4.5t72 -2.5h62q41 0 73.5 2.5t55.5 4.5q27 2 47 4l20 -72 q-51 -12 -89 -27.5t-38 -50.5q0 -12 19.5 -71.5t47.5 -141.5t57.5 -170t52.5 -155q14 -39 22 -67t12 -46q6 -23 11 -37h2l8 33q8 37 39 117l176 542q0 14 -13.5 25.5t-34 21t-45 16.5t-46.5 11l20 72q20 -2 47 -4q23 -2 55.5 -4.5t73.5 -2.5q14 0 78 1t141 10l19 -72 q-66 -8 -112 -22.5t-68 -69.5l-340 -916q-70 -188 -197 -270t-291 -82q-45 0 -82.5 7.5t-68.5 17.5zM227 1249q0 47 34 81t81 34t80 -34t33 -81t-33 -80.5t-80 -33.5t-81 33.5t-34 80.5zM647 1249q0 47 34 81t81 34t79.5 -34t32.5 -81t-32.5 -80.5t-79.5 -33.5t-81 33.5 t-34 80.5z" />
<glyph unicode="&#x152;" horiz-adv-x="1650" d="M51 668q0 135 38 257t114 214t190.5 146t270.5 54q78 0 142 -3t122.5 -6t115 -6t117.5 -3q98 0 198.5 1t184.5 9q0 -66 -3 -118t-7 -87q-6 -41 -12 -69h-62q0 12 -2 33.5t-7 45t-13 46t-19 37.5l-393 14v-500h444v-119l-444 43v-473q0 -29 11.5 -46t51 -27.5t114.5 -13.5 t202 -3q31 0 50.5 11.5t31.5 35t21.5 60.5t17.5 88h73q-4 -57 -6 -94t-3 -66t-1 -59v-80q-117 6 -221 8t-203 2q-111 -4 -240.5 -9t-242.5 -5q-172 0 -292 55t-194.5 148.5t-109.5 217.5t-35 261zM229 668q0 -121 26 -231.5t82 -193.5t145 -132.5t214 -49.5q90 0 137.5 35 t47.5 88v951q0 55 -52.5 88.5t-132.5 33.5q-125 0 -214 -47t-145 -128t-82 -187t-26 -227z" />
<glyph unicode="&#x153;" horiz-adv-x="1628" d="M61 463q0 123 35 218t97.5 161.5t146.5 101.5t182 35q121 0 206 -46t138 -130q59 88 153.5 132t203.5 44q92 0 156.5 -42t103.5 -109.5t56 -152.5t17 -171h-622q0 -190 72.5 -306t210.5 -116q61 0 124.5 7t145.5 32l20 -72q-45 -18 -122.5 -40.5t-202.5 -22.5 q-100 0 -191.5 42t-144.5 140q-125 -182 -365 -182q-195 0 -307.5 123t-112.5 354zM233 504q0 -94 18.5 -174t54.5 -137.5t88 -89t122 -31.5q115 0 188.5 102t73.5 295q0 209 -77.5 317.5t-204.5 108.5q-111 0 -187 -99t-76 -292zM938 575h436q0 158 -48 239t-128 81 q-102 0 -174 -81t-86 -239z" />
<glyph unicode="&#x178;" horiz-adv-x="1144" d="M-20 1260l16 73q76 -8 126 -10t101 -2q78 0 131.5 3t106.5 9l20 -73q-25 -4 -48 -11.5t-42.5 -16.5t-32 -20.5t-12.5 -25.5q0 -12 22.5 -65.5t58.5 -134.5t80 -181t87 -207h8q23 47 50.5 106.5t55 123t55.5 124t48 109.5t32.5 82t12.5 39q0 29 -44 44t-126 31l16 74 l66 -4q33 -2 60.5 -3t49 -2t29.5 -1q41 0 83 2t77 4l78 4l20 -74q-82 -14 -134 -40.5t-66 -55.5l-316 -676v-301q0 -31 17.5 -50t48 -32.5t73.5 -21.5t95 -17l-15 -73q-23 2 -55.5 4t-69 4t-74.5 2h-69q-90 0 -150.5 -3t-107.5 -7l-18 73q80 23 130 51.5t50 69.5v299 l-326 688q-23 39 -65.5 56t-132.5 33zM248 1614q0 47 33.5 81t80.5 34t80 -34t33 -81t-32.5 -81t-80.5 -34q-47 0 -80.5 34t-33.5 81zM668 1614q0 47 33.5 81t80.5 34t80 -34t33 -81t-33 -81t-80 -34t-80.5 34t-33.5 81z" />
<glyph unicode="&#x2c6;" horiz-adv-x="860" d="M145 1116l285 291l285 -291l-47 -37l-238 162l-237 -162z" />
<glyph unicode="&#x2dc;" horiz-adv-x="860" d="M102 1128q29 94 72 142.5t92 48.5q35 0 78 -14.5t87 -31t88 -30.5t81 -14q39 0 64.5 24.5t48.5 69.5l43 -27q-29 -94 -72 -142t-92 -48q-35 0 -78 14.5t-87 30.5t-88 30.5t-81 14.5q-39 0 -64.5 -24.5t-48.5 -69.5z" />
<glyph unicode="&#x2000;" horiz-adv-x="890" />
<glyph unicode="&#x2001;" horiz-adv-x="1781" />
<glyph unicode="&#x2002;" horiz-adv-x="890" />
<glyph unicode="&#x2003;" horiz-adv-x="1781" />
<glyph unicode="&#x2004;" horiz-adv-x="593" />
<glyph unicode="&#x2005;" horiz-adv-x="444" />
<glyph unicode="&#x2006;" horiz-adv-x="296" />
<glyph unicode="&#x2007;" horiz-adv-x="296" />
<glyph unicode="&#x2008;" horiz-adv-x="221" />
<glyph unicode="&#x2009;" horiz-adv-x="356" />
<glyph unicode="&#x200a;" horiz-adv-x="98" />
<glyph unicode="&#x2010;" horiz-adv-x="1150" d="M203 512v100q102 -4 192 -5t180 -1t180.5 1t192.5 5v-100q-102 4 -193 5t-182 1q-90 0 -180 -1t-190 -5z" />
<glyph unicode="&#x2011;" horiz-adv-x="1150" d="M203 512v100q102 -4 192 -5t180 -1t180.5 1t192.5 5v-100q-102 4 -193 5t-182 1q-90 0 -180 -1t-190 -5z" />
<glyph unicode="&#x2012;" horiz-adv-x="1150" d="M203 512v100q102 -4 192 -5t180 -1t180.5 1t192.5 5v-100q-102 4 -193 5t-182 1q-90 0 -180 -1t-190 -5z" />
<glyph unicode="&#x2013;" horiz-adv-x="1298" d="M10 512v100q51 -2 122 -3t154 -2t176 -1h187h188q93 0 176 1t153.5 2t119.5 3v-100q-51 2 -121.5 3t-153.5 2t-176 1h-188h-187q-93 0 -176 -1t-154 -2t-120 -3z" />
<glyph unicode="&#x2014;" horiz-adv-x="1779" d="M10 512v100q51 -2 142.5 -3t209 -2t253.5 -1h276h274q135 0 253 1t209 2t140 3v-100q-51 2 -142 3t-208 2t-253 1h-275h-276q-136 0 -253.5 -1t-209 -2t-140.5 -3z" />
<glyph unicode="&#x2018;" horiz-adv-x="438" d="M76 1034q0 47 17.5 91t45 87t63.5 82t72 72l33 -59q-49 -59 -69.5 -112.5t-20.5 -100.5q0 -35 11.5 -71t27.5 -69l-152 -41q-28 64 -28 121z" />
<glyph unicode="&#x2019;" horiz-adv-x="438" d="M131 975q49 59 69.5 112.5t20.5 100.5q0 35 -11 70.5t-28 68.5l152 41q29 -57 28 -121q0 -45 -16 -91t-44 -88t-63.5 -81t-74.5 -72z" />
<glyph unicode="&#x201a;" horiz-adv-x="434" d="M20 -262q53 63 76 121.5t23 107.5q0 39 -12.5 78t-30.5 72l164 45q16 -35 23 -64.5t7 -64.5q0 -49 -18.5 -98.5t-48 -95.5t-68.5 -87t-80 -78z" />
<glyph unicode="&#x201c;" horiz-adv-x="714" d="M76 1036q0 47 17.5 91t45 87t63.5 82t72 72l33 -59q-49 -59 -69.5 -112.5t-20.5 -100.5q0 -35 11.5 -71t27.5 -69l-152 -41q-28 64 -28 121zM352 1036q0 94 60.5 179t142.5 153l29 -59q-51 -59 -70.5 -112.5t-19.5 -100.5q0 -35 11 -71t27 -69l-151 -41q-29 64 -29 121z " />
<glyph unicode="&#x201d;" horiz-adv-x="714" d="M131 973q51 59 70.5 112.5t19.5 100.5q0 35 -11 70.5t-28 68.5l152 41q29 -63 28 -121q0 -94 -60 -179t-142 -153zM408 973q49 59 69.5 112.5t20.5 100.5q0 35 -11.5 70.5t-27.5 68.5l151 41q29 -63 29 -121q0 -45 -17.5 -90t-45 -88t-63.5 -81t-73 -73z" />
<glyph unicode="&#x201e;" horiz-adv-x="739" d="M20 -262q53 63 76 121.5t23 107.5q0 39 -12.5 78t-30.5 72l164 45q16 -35 23 -64.5t7 -64.5q0 -49 -18.5 -98.5t-48 -95.5t-68.5 -87t-80 -78zM326 -262q53 63 75.5 121.5t22.5 107.5q0 39 -12.5 78t-30.5 72l164 45q16 -35 23 -64.5t7 -64.5q0 -49 -18 -98.5t-48 -95.5 t-69 -87t-80 -78z" />
<glyph unicode="&#x2022;" horiz-adv-x="542" d="M76 547q0 82 55 141.5t139 59.5q41 0 77 -16.5t62.5 -44.5t42 -63.5t15.5 -76.5q0 -39 -15.5 -76t-42 -63.5t-62.5 -43t-77 -16.5t-76.5 16.5t-61.5 43t-41 63.5t-15 76z" />
<glyph unicode="&#x2026;" horiz-adv-x="1382" d="M113 84q0 41 28.5 70.5t69.5 29.5t68.5 -29.5t27.5 -70.5t-27.5 -69.5t-68.5 -28.5t-69.5 28.5t-28.5 69.5zM594 84q0 41 28.5 70.5t69.5 29.5t68.5 -29.5t27.5 -70.5t-27.5 -69.5t-68.5 -28.5t-69.5 28.5t-28.5 69.5zM1075 84q0 41 29 70.5t70 29.5t68.5 -29.5 t27.5 -70.5t-28 -69.5t-68 -28.5q-41 0 -70 28.5t-29 69.5z" />
<glyph unicode="&#x202f;" horiz-adv-x="356" />
<glyph unicode="&#x2039;" horiz-adv-x="532" d="M49 588l338 389l39 -51l-188 -338l200 -424l-49 -39z" />
<glyph unicode="&#x203a;" horiz-adv-x="532" d="M94 938l49 39l340 -463l-338 -389l-39 51l189 338z" />
<glyph unicode="&#x205f;" horiz-adv-x="444" />
<glyph unicode="&#x20ac;" horiz-adv-x="1161" d="M20 512v88h127q-2 14 -2 33v35v32q0 18 2 33h-127v88h138q23 129 77 227.5t129.5 166t164.5 101.5t182 34q90 0 168.5 -17.5t148.5 -40.5q0 -72 -4 -118t-10 -74q-8 -33 -17 -51h-75q0 29 -10.5 79t-32.5 89q-23 10 -61 14t-85 4q-51 0 -113.5 -16.5t-120 -62.5 t-101.5 -126t-58 -209h561l-16 -88h-553v-133h534l-16 -88h-506q18 -104 59 -182t101.5 -130.5t136.5 -79t162 -26.5q41 0 64.5 15.5t40 46t26.5 80t22 116.5h88q-6 -66 -9 -106.5t-4 -73.5t-2 -63.5t-1 -73.5q-68 -23 -142.5 -35t-146.5 -12q-100 0 -196.5 29.5t-175 93 t-135 163t-76.5 238.5h-136z" />
<glyph unicode="&#x2122;" horiz-adv-x="1820" d="M63 1526q76 -4 152 -4h150h151q74 0 150 4q0 -78 -7 -121q-4 -25 -8 -43h-35q0 14 -7 49t-19 49q-14 2 -27.5 3t-33.5 1h-48h-71v-620q0 -37 38.5 -50.5t98.5 -23.5l-8 -41q-41 2 -79 2h-77h-79q-38 0 -79 -2l-14 41q47 16 79 32.5t32 41.5v620h-72h-48q-19 0 -33.5 -1 t-29.5 -3q-12 -14 -18 -49t-6 -49h-37l-6 43q-4 23 -6.5 51.5t-2.5 69.5zM690 772q47 14 77 29.5t32 42.5q10 213 15 328.5t7 168.5l4 72q0 23 -30.5 39t-79.5 31l16 43q39 -4 88 -4h115l256 -635l276 637q25 -2 52 -2h51h59q33 0 62 4l8 -43q-61 -10 -100 -22.5t-39 -47.5 l4 -72q4 -53 9 -168.5t13 -328.5q2 -35 41 -48.5t100 -23.5l-10 -43q-41 2 -79 2h-78h-79q-38 0 -79 -2l-10 43q47 14 77.5 30.5t30.5 39.5l-4 69q-2 27 -3 66t-4 96t-6 135t-9 181h-9l-258 -615h-59l-258 615h-8q-6 -203 -10.5 -313.5t-6.5 -162.5q-2 -59 -2 -69 q0 -35 41 -48.5t105 -23.5l-13 -43q-35 2 -55 3t-38 1h-35h-46h-48q-22 0 -38 -2q-20 -2 -35 -2z" />
<glyph unicode="&#xe000;" horiz-adv-x="965" d="M0 965h965v-965h-965v965z" />
<glyph unicode="&#xfb01;" horiz-adv-x="1370" d="M72 63q76 23 127 48.5t51 66.5v705l-133 10v63q61 10 97 23.5t40 52.5q12 100 47 196.5t96.5 172.5t150.5 122t208 46q31 0 67 -6q0 -16 -1 -45t-3 -64t-6 -71.5t-8 -69.5h-62q0 33 -5 64.5t-13 56.5q-33 6 -70 6q-53 0 -101 -21.5t-84 -77t-57.5 -148.5t-21.5 -237h227 h237q112 0 193.5 1t94.5 1v-780q0 -31 16.5 -49t46 -30.5t71.5 -19.5t93 -16l-16 -73q-31 2 -68 4t-74.5 3t-73.5 2t-63 1q-41 0 -82 -2t-75 -4q-39 -2 -76 -4l-19 73q76 23 127 48.5t51 66.5v596q0 31 -43 50.5t-122.5 30.5t-192.5 14t-252 3v-694q0 -31 16.5 -49t46 -30.5 t71.5 -19.5t93 -16l-16 -73q-31 2 -67.5 4t-74.5 3t-74 2t-62 1q-41 0 -82 -2t-76 -4q-39 -2 -76 -4zM958 1249q0 47 34 81t81 34t80 -34t33 -81t-33 -80.5t-80 -33.5t-81 33.5t-34 80.5z" />
<glyph unicode="&#xfb02;" horiz-adv-x="1370" d="M72 63q76 23 127 48.5t51 66.5v705l-133 10v63q61 10 97 23.5t40 52.5q16 135 63.5 236.5t117 168t158.5 100.5t189 34q35 0 82 -4t96.5 -12.5t96.5 -20.5t86 -29v-1327q0 -31 16.5 -49t46 -30.5t71.5 -19.5t93 -16l-16 -73q-31 2 -68 4t-74.5 3t-73.5 2t-63 1 q-41 0 -82 -2t-75 -4q-39 -2 -76 -4l-19 73q76 23 127 48.5t51 66.5v602q-4 29 -49 47.5t-124.5 28.5t-190.5 13t-246 3v-694q0 -31 16.5 -49t46 -30.5t71.5 -19.5t93 -16l-16 -73q-31 2 -67.5 4t-74.5 3t-74 2t-62 1q-41 0 -82 -2t-76 -4q-39 -2 -76 -4zM391 956h610v390 q0 23 -20 46t-54 41.5t-79 31t-94 12.5q-63 0 -128 -25t-117 -84t-85 -159.5t-33 -252.5z" />
<glyph unicode="&#xfb03;" horiz-adv-x="2103" d="M72 63q76 23 127 48.5t51 66.5v705l-133 10v63q61 10 97 23.5t40 52.5q35 272 174 405.5t365 133.5q35 0 84 -5t106 -16.5t115.5 -31t111.5 -48.5q55 47 126 73t161 26q31 0 68 -6q0 -16 -1 -45t-3 -64t-6.5 -71.5t-8.5 -69.5h-61q0 33 -5 64.5t-14 56.5q-33 6 -69 6 q-53 0 -101.5 -21.5t-84 -77t-57 -148.5t-21.5 -237h146h159h154h135q60 0 100.5 1t48.5 1v-780q0 -31 16.5 -49t46 -30.5t71.5 -19.5t93 -16l-16 -73q-31 2 -68 4t-74.5 3t-73.5 2t-63 1q-41 0 -81.5 -2t-75.5 -4q-39 -2 -76 -4l-19 73q76 23 127.5 48.5t51.5 66.5v596 q0 31 -42 50.5t-120 30.5t-189.5 14t-250.5 3v-694q0 -31 16 -49t46 -30.5t72 -19.5t93 -16l-17 -73q-31 2 -67.5 4t-74.5 3t-73.5 2t-62.5 1q-41 0 -82 -2t-76 -4q-39 -2 -76 -4l-18 73q76 23 127 48.5t51 66.5v694h-600v-694q0 -31 16.5 -49t46 -30.5t71.5 -19.5t93 -16 l-16 -73q-31 2 -67.5 4t-74.5 3t-74 2t-62 1q-41 0 -82 -2t-76 -4q-39 -2 -76 -4zM391 956h488q59 0 85.5 18.5t30.5 57.5q10 86 36 169t73 153q-53 45 -143.5 84t-206.5 39q-63 0 -128 -25t-117 -84t-85 -159.5t-33 -252.5zM1692 1249q0 47 33.5 81t80.5 34t80 -34t33 -81 t-33 -80.5t-80 -33.5t-80.5 33.5t-33.5 80.5z" />
<glyph unicode="&#xfb04;" horiz-adv-x="2111" d="M72 63q76 23 127 48.5t51 66.5v705l-133 10v63q61 10 97 23.5t40 52.5q35 272 174 405.5t365 133.5q35 0 84 -5t106 -16.5t116.5 -31t112.5 -50.5q131 102 312 103q35 0 82 -4t96 -12.5t96 -20.5t86 -29v-1327q0 -31 16.5 -49t46 -30.5t71.5 -19.5t93 -16l-16 -73 q-31 2 -67.5 4t-74.5 3t-74 2t-62 1q-41 0 -82 -2t-76 -4q-39 -2 -76 -4l-18 73q76 23 127 48.5t51 66.5v596q0 31 -43 50.5t-123 30.5t-192.5 14t-251.5 3v-694q0 -31 16 -49t46 -30.5t72 -19.5t93 -16l-17 -73q-31 2 -67.5 4t-74.5 3t-73.5 2t-62.5 1q-41 0 -82 -2t-76 -4 q-39 -2 -76 -4l-18 73q76 23 127 48.5t51 66.5v694h-600v-694q0 -31 16.5 -49t46 -30.5t71.5 -19.5t93 -16l-16 -73q-31 2 -67.5 4t-74.5 3t-74 2t-62 1q-41 0 -82 -2t-76 -4q-39 -2 -76 -4zM391 956h486q59 0 86.5 18.5t31.5 57.5q12 100 41 180t72 144q-27 23 -70 44 t-91 38.5t-99 28t-94 10.5q-63 0 -128 -25t-117 -84t-85 -159.5t-33 -252.5zM1133 956h610v390q0 23 -20.5 46t-54.5 41.5t-79 31t-94 12.5q-63 0 -127.5 -25t-117 -84t-85 -159.5t-32.5 -252.5z" />
</font>
</defs>
</svg>
