<?xml version="1.0" standalone="no"?>
<!DOCTYPE svg PUBLIC "-//W3C//DTD SVG 1.1//EN" "http://www.w3.org/Graphics/SVG/1.1/DTD/svg11.dtd" >
<svg xmlns="http://www.w3.org/2000/svg">
<metadata>
This is a custom SVG webfont generated by Font Squirrel.
Copyright   : Copyright c 2011 Typomondo with Reserved Font Name Nosifer
</metadata>
<defs>
<font id="NosiferRegular" horiz-adv-x="1768" >
<font-face units-per-em="2048" ascent="1638" descent="-410" />
<missing-glyph horiz-adv-x="510" />
<glyph unicode=" "  horiz-adv-x="510" />
<glyph unicode="&#x09;" horiz-adv-x="510" />
<glyph unicode="&#xa0;" horiz-adv-x="510" />
<glyph unicode="!" horiz-adv-x="711" d="M92 1352l21 20q39 -39 99 -39h291q60 0 99 39l21 -20q-12 -12 -15.5 -19t-6 -11t-4.5 -11t-3.5 -10t-3 -12t-2.5 -11q-4 -23 -4 -26l-122 -672q-9 -50 39 -98l-20 -21q-39 39 -100 39h-40q-60 0 -99 -39l-21 21q49 49 39 98l-129 672q0 3 -2.5 15.5t-4 21.5t-3 12 t-3.5 10t-4.5 11t-5.5 10q-4 8 -16 20zM164 58v234q0 44 16.5 50.5t105.5 6.5h143q89 0 106 -6.5t17 -50.5v-234q0 -43 -18 -50.5t-105 -7.5h-143q-88 0 -105 7t-17 51z" />
<glyph unicode="&#x22;" horiz-adv-x="925" d="M135 1346q0 16 6 26q17 31 135.5 31t118.5 -57l-34 -480q-2 -26 -30 -40.5t-65.5 -14.5t-66 15t-30.5 41zM539 1346q0 16 6 26q17 31 136 31t119 -57l-35 -480q-2 -26 -30 -40.5t-65.5 -14.5t-66 15t-30.5 41z" />
<glyph unicode="#" d="M91 239v332q52 -13 171 -13h62l70 269h-14q-76 0 -128 -6v331q56 -14 171 -14h51l28 109q29 132 30 166h355q-34 -57 -71 -166l-29 -109h393l27 109q29 132 30 166h356q-36 -61 -72 -166l-28 -109h15q111 0 167 14v-331q-52 6 -125 6h-137l-70 -269h4q114 0 166 13v-332 q-70 8 -124 8h-127l-40 -158q-25 -96 -31 -171h-355q35 58 73 171l40 158h-391l-42 -158q-24 -91 -30 -171h-356q35 58 73 171l41 158h-25q-58 0 -128 -8zM638 558h391l70 269h-392z" />
<glyph unicode="$" horiz-adv-x="1816" d="M44 435l15 19q45 -35 107 -35h323q74 0 95 47l41 -18q-24 -55 32 -104q33 -26 107 -48l26 -8q-1 50 -1 79v187q-27 4 -79 10.5t-87.5 11t-88 13.5t-90 18t-84 24.5t-78.5 33t-65 43t-53 55.5q-45 67 -45 144.5t21.5 133.5t56 95t86.5 69.5t105 49t118 31.5 q104 20 187.5 24.5t99.5 3.5v55q0 37 -35 72l13 13q36 -36 73 -36h131q37 0 73 36l12 -14q-35 -35 -35 -73v-57h52q229 -21 353 -78q125 -57 180 -137q32 -48 47 -107.5t61 -94.5l-16 -21q-45 35 -107 35h-336q-32 0 -49.5 -9t-28.5 -36l-34 16q25 61 -14 108t-102 47v-214 q454 -8 619 -193q88 -99 88 -226q0 -200 -200 -308q-202 -108 -520 -98q4 -78 4 -87v-1q0 -59 38 -97l-19 -21q-39 39 -98 39h-76q-60 0 -99 -39l-20 21q39 39 39 97v1l-2 54q0 15 2 33q-287 10 -468 103t-217 242q-16 63 -58 96zM644 921q0 -28 16.5 -45.5t35.5 -23.5 t50 -13.5t45 -13.5v192q-96 0 -131 -47q-16 -21 -16 -49zM1021 291q27 -2 51 5t30 8q84 29 84 113q0 98 -164 115v-171q0 -49 -1 -70z" />
<glyph unicode="%" horiz-adv-x="2562" d="M80 979q0 305 304 377q82 19 171.5 19t157.5 -11.5t131.5 -40t108.5 -72.5q98 -96 98 -272q0 -404 -494 -404q-214 0 -345.5 103.5t-131.5 300.5zM395 978q0 -207 170.5 -207t170.5 207q0 95 -44 146t-126.5 51t-126.5 -51t-44 -146zM819 -1q52 71 95 171l432 996 q43 100 51 166h356q-55 -75 -94 -166l-431 -996q-44 -103 -54 -171h-355zM1541 371.5q0 208.5 151 302.5q132 83 335 83q368 0 459 -239q26 -69 26 -158q0 -404 -494 -404q-214 0 -345.5 103.5t-131.5 312zM1857 360q0 -208 170 -208t170 208q0 95 -43.5 145.5t-126.5 50.5 t-126.5 -50.5t-43.5 -145.5z" />
<glyph unicode="&#x26;" horiz-adv-x="1862" d="M62 382q0 150 108 253.5t277 151.5q53 16 107 -4l7 22q-130 48 -130 217q0 151 153 232q145 76 400 76q264 0 412 -113q109 -84 109 -223q0 -101 -73 -168.5t-200 -115.5q-54 -21 -109 -7l-6 -21q57 -14 96 -56q10 -11 29 -32.5t27 -30.5q42 -43 36 -98l31 -3q5 54 55 89 q92 64 148 111.5t61 102.5l28 -2q-5 -53 35 -101l65 -75q40 -46 94 -51l-2 -29q-55 5 -108.5 -40.5t-148.5 -117.5q-49 -35 -104 -30l-2 -27q54 -5 98 -49l175 -185q45 -45 96 -67l-6 -14q-53 23 -115 23h-400q-29 0 -45 -9t-28 -35l-29 14q11 28 8 44t-28 46t-16 81l-27 6 q-10 -51 -59 -75q-205 -101 -487 -101q-146 0 -283 63q-153 70 -215 196q-34 69 -34 152zM543 458q0 -74 38.5 -120.5t93 -65t98.5 -18.5t115.5 16t114.5 3l5 22q-57 18 -97 63l-176 198q-39 43 -31 96l-31 5q-7 -52 -57 -83q-73 -42 -73 -116zM909 987q0 -15 31 -65.5 t16 -100.5l31 -9q16 53 63 74q100 46 100 98q0 45 -37.5 71.5t-86 26.5t-83 -25.5t-34.5 -69.5z" />
<glyph unicode="'" horiz-adv-x="520" d="M135 1346q0 16 6 26q17 31 135.5 31t118.5 -57l-34 -480q-2 -26 -30 -40.5t-65.5 -14.5t-66 15t-30.5 41z" />
<glyph unicode="(" horiz-adv-x="1219" d="M118 693q0 242 55 429q39 132 162 248q72 69 259 118q114 29 271.5 33t283.5 4l-2 -342q-187 0 -267 -25.5t-115.5 -59t-62.5 -88.5t-38 -132.5t-11 -177t9 -169t25.5 -122t47 -88.5t66.5 -59t91 -36q99 -22 255 -22l2 -342q-521 0 -678 74q-70 33 -147.5 93t-115.5 148 q-90 205 -90 516z" />
<glyph unicode=")" horiz-adv-x="1230" d="M82 -138l1 342q255 0 346 58q84 54 113 148q35 109 35 249.5t-11 218t-38 132.5t-62.5 88.5t-95.5 52.5q-100 32 -287 32l-1 342q522 0 678 -75q199 -94 264 -240q90 -205 90 -517q0 -313 -90 -516q-39 -88 -116 -148t-147.5 -93t-194.5 -50q-185 -24 -484 -24z" />
<glyph unicode="*" horiz-adv-x="1165" d="M91 1028l118 165q34 -39 147.5 -121.5t138.5 -99.5v218q0 80 -15 143h202q-10 -107 -10 -142v-221q29 21 88.5 64t109.5 79.5t87 78.5l116 -163q-68 -39 -120 -76l-186 -131l186 -133q32 -23 122 -74l-118 -165q-49 51 -98.5 88t-64 48t-66.5 46.5t-56 38.5v-219 q0 -32 10 -142h-202q15 63 15 143v219l-177 -125q-83 -65 -109 -94l-117 162q63 36 121 76l186 132l-186 132q-20 14 -58.5 35t-63.5 38z" />
<glyph unicode="+" horiz-adv-x="1066" d="M104 553v331q52 -13 171 -13h111v115q0 111 -14 167h332q-7 -61 -7 -124v-158h110q115 0 167 13v-331q-53 6 -125 6h-152v-147q0 -67 7 -128h-332q14 56 14 170v105h-153q-77 0 -129 -6z" />
<glyph unicode="," horiz-adv-x="725" d="M138 81v122v47q0 43 7.5 59t47.5 16h276h49q42 0 57.5 -7.5t15.5 -46.5l-1 -190q0 -179 -146 -383l-151 12q59 120 80 248l7 42h-161q-61 0 -71 10t-10 71z" />
<glyph unicode="-" horiz-adv-x="1127" d="M161 553v331q52 -13 171 -13h483q114 0 166 13v-331q-52 6 -123 6h-568q-76 0 -129 -6z" />
<glyph unicode="." horiz-adv-x="665" d="M143 58v234q0 44 16.5 50.5t105.5 6.5h144q89 0 105.5 -6.5t16.5 -50.5v-234q0 -44 -17 -51t-105 -7h-144q-88 0 -105 7t-17 51z" />
<glyph unicode="/" horiz-adv-x="801" d="M18 -1q32 54 72 171l299 996q28 127 29 166h356q-36 -61 -72 -166l-298 -996q-28 -112 -31 -171h-355z" />
<glyph unicode="0" horiz-adv-x="1893" d="M92 657.5q0 176.5 47.5 299t126.5 200t191 128t232 70.5t259 20t259 -20t232 -70t191 -128t126 -200.5t47 -279.5q0 -320 -167 -495.5t-470 -215.5q-3 -5 -3 -22l4 -55q0 -51 -28 -51t-28 49l4 56q0 30 -44 30q-4 -9 -4 -34l6 -97q0 -30 -11 -58t-37 -28q-46 0 -46 82 l6 96q0 25 -23.5 38.5t-51.5 13.5t-50.5 -15t-22.5 -43v-230q0 -50 21 -147t21 -138.5t-18 -68.5t-49.5 -27t-47 28t-15.5 73t22.5 156t22.5 172q0 247 -91 247q-183 0 -323 89.5t-214 244t-74 331zM649 676q0 -366 299.5 -366t299.5 366q0 168 -77 257t-222.5 89 t-222.5 -89t-77 -257z" />
<glyph unicode="1" horiz-adv-x="1009" d="M73 1073l18 28q43 -28 100 -5q135 56 233 129q28 20 37 38t0 46l39 11q9 -27 26.5 -35.5t52.5 -8.5h164q61 0 100 39l21 -21q-40 -40 -40 -99v-1114q0 -60 40 -100l-21 -20q-39 39 -100 39h-317q-61 0 -100 -39l-20 20q39 39 39 100v684q0 8 -1 30t0 33q1 35 16 56 l18 -14q-15 -21 -37.5 -28.5t-42.5 -13t-28.5 -8t-32.5 -9t-33 -9t-28 -9.5t-30 -13q-29 -17 -45 -38l-21 17q36 44 36 105v119q0 61 -43 90z" />
<glyph unicode="2" horiz-adv-x="1914" d="M80 -17q40 37 46 98q34 440 486 600q165 59 344 87q145 24 189 45.5t63 42t19 45.5t-23.5 43t-59.5 27q-63 16 -146.5 16t-159 -29t-98 -78t4.5 -90l-22 -15q-27 41 -72 41h-426q-61 0 -106 -35l-16 20q46 36 62 106t60 135t107 108.5t136.5 75t161.5 48.5q164 32 291 32 t192 -3t149.5 -14.5t152.5 -30t137.5 -53t115.5 -80.5q106 -104 106 -270q0 -122 -86 -215q-56 -61 -208 -119q-93 -36 -193 -50q-189 -28 -327.5 -47t-233 -53t-146.5 -42l2 -9q69 12 142 12q543 0 953 2q61 0 100 39l19 -20q-38 -38 -38 -100v-172q0 -62 38 -100l-19 -20 q-39 39 -100 39h-1477q-63 0 -101 -37z" />
<glyph unicode="3" horiz-adv-x="1855" d="M57 456l17 20q44 -36 106 -36h373q38 0 60 9.5t34 36.5l38 -19q-11 -29 -4 -50t32 -49q69 -78 235 -78q64 0 123 16q111 30 111 97q0 112 -242 112h-333q-60 0 -100 -40l-20 21q39 39 39 100v158q0 54 -39 93l19 19q38 -38 93 -38h334h8q205 0 205 68q0 70 -156 85 q-32 3 -70.5 3t-90 -10.5t-90 -36.5t-30.5 -61l-59 -14q-6 28 -28 37.5t-71 9.5h-319q-62 0 -107 -35l-16 20q44 34 58 92.5t47 104t77.5 77t105.5 54.5t122 36.5t137 21.5q124 13 231 13t167 -3.5t138.5 -13.5t148.5 -26t139.5 -43.5t119.5 -64.5q113 -81 113 -213 t-111 -210q-39 -28 -94 -29v-18q54 3 95 -23q144 -87 144 -267q0 -214 -214 -318q-204 -99 -568 -99q-301 0 -446 34q-176 41 -265 113q-115 95 -142 246q-10 59 -55 98z" />
<glyph unicode="4" horiz-adv-x="1848" d="M59 529l14 34q30 -10 46.5 -4.5t40.5 29.5l610 614q23 23 29 41.5t-5 47.5l34 14q19 -45 80 -45h519q59 0 99 40l20 -21q-38 -38 -38 -100v-547q0 -60 -40 -100l21 -20q39 39 100 39h67q61 0 100 39l20 -20q-39 -39 -39 -100v-200q0 -61 39 -100l-20 -21q-40 40 -100 40 h-76q-60 0 -99 39l-21 -21q39 -39 39 -99v-50q0 -61 39 -100l-20 -20q-39 39 -100 39h-306q-60 0 -99 -39l-21 20q39 39 39 100v50q0 60 39 99l-20 21q-39 -39 -100 -39l-767 2q-61 0 -100 -39l-20 21q39 39 39 99l2 178q0 60 -45 79zM589 543l6 -15q57 23 115 23h240 q61 0 100 -39l20 20q-39 39 -39 100v251q0 58 23 116l-15 5q-23 -57 -65 -99l-288 -296q-45 -45 -97 -66z" />
<glyph unicode="5" horiz-adv-x="1871" d="M51 445l17 19q43 -38 104 -39l315 -12q41 -2 63.5 7t33.5 36l46 -18q-10 -27 0 -48.5t49.5 -55t115 -51t131 -15t93.5 10t78 23.5q90 36 90 116q0 139 -313 139q-83 0 -136.5 -14.5t-69 -26.5t-12.5 -40l-51 -5q-3 28 -21 36.5t-61 10.5l-255 9q-59 3 -103 -33l-17 21 q42 36 50 96l79 553q8 61 -27 100l24 20q34 -40 95 -40l1214 -1q60 0 99 39l21 -21q-39 -39 -39 -99v-154q0 -60 39 -99l-21 -21q-39 39 -99 39h-890q-41 0 -74 39l-16 -14q62 -77 -20 -159l12 -12q39 39 77 46q124 24 255.5 24t189.5 -3t136 -14t144 -29.5t133 -52 t114 -78.5q105 -102 105 -263q0 -236 -204 -355q-198 -114 -558 -114q-278 0 -443 38q-178 41 -282 118q-126 95 -157 249q-12 62 -54 98z" />
<glyph unicode="6" horiz-adv-x="1950" d="M91 661q0 551 533 666q176 38 403 38q379 0 617 -139q141 -83 185 -229q15 -63 54 -94l-16 -22q-40 31 -100.5 31t-127 -4t-151 -11.5t-121.5 -10.5t-57.5 -13.5t-33.5 -36.5l-33 17q11 20 11 40q0 62 -80.5 103t-211 41t-211.5 -74.5t-103 -205.5q416 28 428 28h75 q514 0 649 -225q42 -69 42 -156t-34 -156t-89.5 -114.5t-134.5 -78.5q-140 -58 -333 -79q0 -92 24 -274t24 -242t-14.5 -83t-42.5 -23t-43 23t-15 75t16.5 204t16.5 197.5t-2 58t-3.5 22t-8.5 16.5t-9.5 11.5t-14.5 7.5t-15.5 4.5t-21 2t-21.5 0.5h-26q-55 0 -89 -11.5 t-34 -25.5q0 -46 12.5 -136.5t12.5 -146t-38.5 -55.5t-38.5 54.5t14 146t14 131t-26 39.5q-87 0 -87 -31l12 -432q0 -17 -11 -31t-27 -14t-26 12t-10 28q0 84 9.5 237.5t11.5 233.5q-388 46 -566 259q-137 164 -137 427zM657 530q61 -219 340 -219t279 110q0 126 -213 126 q-25 0 -406 -17z" />
<glyph unicode="7" horiz-adv-x="1315" d="M40 974q39 39 39 99l5 128q0 109 -44 152l20 20q40 -39 100 -39h989q61 0 100 39l19 -20q-38 -38 -38 -100l-5 -128q0 -13 4 -49q8 -75 -13 -123l-453 -872q-4 -114 9 -323t13 -266q0 -106 -40 -106q-23 0 -32.5 31t-9.5 81t14 188.5t14 208.5q0 109 -44 109 q-21 0 -33 -25t-12 -49l23 -209q0 -72 -41 -72q-21 0 -30.5 21t-9.5 49t18 91.5t18 103.5t-35 61t-101 21t-143.5 -52t-77.5 -135q0 -31 13 -93t13 -103.5t-37 -41.5q-42 0 -42 44.5t16 112.5t16 102l19 260q60 120 200 396.5t214 424.5q33 62 90 100l-9 20 q-66 -45 -169 -45l-378 13q-103 0 -149 -46zM591 -692q0 76 25 190q24 -110 24 -191q0 -35 -25 -35q4 -8 2 -7q-12 4 -26 43z" />
<glyph unicode="8" horiz-adv-x="1826" d="M98 389q0 175 185 280q-153 95 -153 267q0 222 224 332q219 107 613 107q416 0 604 -188q106 -106 106 -252t-138 -247q203 -97 203 -290q0 -346 -567 -420q0 -83 13.5 -249.5t13.5 -220.5q0 -104 -40 -104q-23 0 -32.5 31t-9.5 61l20 418q0 108 -43 108q-22 0 -34 -25 t-12 -49l24 -209q0 -25 -10 -48t-31 -23q-41 0 -41 65q0 33 18 96.5t18 103.5t-34.5 61t-86.5 21t-109 -21t-100 -66t-43 -88.5t13.5 -105.5t13.5 -103t-40 -41t-40 44t16 112t16 103l16 122q-405 52 -521 283q-32 65 -32 135zM570 535q0 -229 331.5 -229t331.5 111 q0 126 -261 126q-227 0 -399 38q-3 -16 -3 -46zM620 -693q0 67 25 189q24 -120 24 -191q0 -35 -24.5 -35t-24.5 37zM640 918q0 -65 62 -99q34 -18 74 -22l50 -5q30 -3 59 -4t103 -5q164 -9 239 -22q2 14 2 58.5t-25 89.5t-68 70q-86 49 -211 49q-285 0 -285 -110z" />
<glyph unicode="9" horiz-adv-x="1948" d="M68 436l16 21q39 -30 100.5 -30t124 3.5t157.5 12t125 11.5q64 5 85 49l32 -17q-11 -20 -11 -40q0 -62 81 -103t211.5 -41t211.5 74.5t103 205.5q-416 -28 -428 -28h-75q-392 0 -577 140q-108 82 -114 224l-1 18q0 222 225 332q218 107 612 107q604 0 816 -321 q99 -150 99 -375q0 -306 -164.5 -483t-469.5 -220l19 -475q0 -16 -9.5 -27.5t-25.5 -11.5t-27 13.5t-11 30.5l11 433q0 31 -86 31q-26 0 -26 -39.5t13.5 -130.5t13.5 -146t-38 -55t-38 65l24 272q0 21 -44 29t-63 8h-36q-18 0 -31 -0.5t-30 -5t-24 -13.5q-17 -24 -17 -86 t16.5 -213t16.5 -203.5t-15 -76.5t-43 -24t-42.5 24t-14.5 84t24.5 241t24.5 273q-319 38 -503 170q-111 79 -143 199q-14 62 -55 94zM676 918q0 -127 212 -127q4 0 407 18q-61 219 -340 219t-279 -110z" />
<glyph unicode=":" horiz-adv-x="790" d="M170 58v234q0 44 17 51t105 7h210q88 0 105 -7t17 -51v-234q0 -44 -16.5 -50.5t-105.5 -6.5h-210q-89 0 -105.5 6.5t-16.5 50.5zM170 734v234q0 44 17 51t105 7h210q88 0 105 -7t17 -51v-234q0 -44 -16.5 -50.5t-105.5 -6.5h-210q-89 0 -105.5 6.5t-16.5 50.5z" />
<glyph unicode=";" horiz-adv-x="779" d="M161 81v122v47q0 43 7.5 59t47.5 16h276h50q42 0 57.5 -7.5t15.5 -46.5l-1 -190q0 -176 -148 -383l-150 12q59 120 80 248l7 42h-161q-61 0 -71 10t-10 71zM162 734v234q0 42 16 50t58 8h48h209h48q43 0 59 -8t16 -50v-234q0 -42 -15.5 -49.5t-58.5 -7.5h-49h-209h-49 q-42 0 -57.5 7.5t-15.5 49.5z" />
<glyph unicode="&#x3c;" horiz-adv-x="968" d="M100 487v356q0 20 30 39l604 370q38 22 59 60l12 -7q-20 -34 -20 -82l1 -294q0 -44 32 -62l-13 -23q-22 9 -38 9t-53 -19.5t-76.5 -47t-80.5 -55.5q-100 -66 -165 -66v-15h5q69 0 201 -95t176 -95q11 0 31 10l13 -23q-32 -18 -32 -63l-1 -276q0 -46 20 -82l-12 -7 q-21 38 -59 60l-604 375q-30 20 -30 33z" />
<glyph unicode="=" horiz-adv-x="1147" d="M164 364v234q52 -13 171 -13h483q115 0 167 13v-234q-53 6 -125 6h-568q-93 0 -128 -6zM164 768v234q52 -13 171 -13h483q115 0 167 13v-234q-53 6 -125 6h-568q-93 0 -128 -6z" />
<glyph unicode="&#x3e;" horiz-adv-x="953" d="M149 447l13 23q20 -10 41 -10t92.5 47.5t149.5 95t124 47.5h5v15q-79 0 -205 94t-176 94q-9 0 -31 -9l-13 23q32 18 32 62l2 294q0 46 -21 82l13 7q22 -39 58 -60l603 -370q31 -20 31 -39v-352q0 -15 -8.5 -21.5t-22.5 -15.5l-603 -375q-36 -21 -58 -60l-13 7 q21 38 21 82l-2 276q0 45 -32 63z" />
<glyph unicode="?" horiz-adv-x="1559" d="M-2 979q42 33 59.5 109t66.5 144t114 109t150 67q150 44 342 44q760 0 760 -451q0 -259 -296 -353q-75 -24 -155.5 -41t-92.5 -20t-36 -8t-40.5 -9t-43.5 -16t-44 -26q-42 -36 -41.5 -86t37.5 -88l-21 -20q-39 39 -98 39h-298q-62 0 -100 -37l-19 20q42 36 47 115 t38.5 154t79.5 121t113 80q107 54 263 79q87 20 119.5 51t32.5 74t-41.5 73t-118.5 30q-111 0 -144 -83q-8 -21 -8 -39t17 -43l-22 -15q-27 41 -73 41h-426q-61 0 -106 -35zM317 111q0 44 17 50.5t106 6.5h143q89 0 105.5 -6.5t16.5 -50.5v-234q0 -44 -17 -51t-105 -7h-143 q-88 0 -105.5 7t-17.5 51v234z" />
<glyph unicode="@" horiz-adv-x="2148" d="M95 550q0 163 39.5 304t110 249t166 194.5t207.5 141.5q230 113 482 113q308 0 546 -152q262 -165 361 -468q54 -165 54 -318.5t-33 -241t-88 -140.5q-113 -106 -252.5 -106t-245.5 51t-155 144l-16 2q-13 -92 -121.5 -144.5t-296.5 -52.5q-213 0 -333 89q-98 73 -98 210 q0 271 649 271q125 0 168 -10t69 -29l12 15q-40 29 -60 83q-14 36 -55.5 48t-179 12t-295.5 -41q-48 -13 -65 -55l-23 10q6 19 6 39t-10.5 37.5t-26 44t-23 38t-22.5 30.5q-24 31 -60 46l8 21q31 -11 51.5 -11t80 17t194.5 33t282.5 16t242.5 -17q305 -58 306 -308v-185 q0 -137 17 -173.5t30 -36.5q64 0 111 67t47 205.5t-43.5 273.5t-117.5 227t-173 157q-191 123 -442 123q-256 0 -464 -135q-226 -148 -310 -394q-46 -135 -46 -280t43.5 -264.5t120 -209t178.5 -154.5q206 -132 465 -132q309 0 557 190l113 -147q-303 -221 -671 -221 q-322 0 -572 163q-267 173 -366 450q-53 148 -53 311zM853 423q0 -93 161 -93q196 0 246 120q25 59 69 88l-12 23q-40 -26 -99 -26l-84 2q-281 0 -281 -114z" />
<glyph unicode="A" d="M-9 -239q0 81 20 179.5t35 135.5l480 1181q10 26 10 51t-17 49l28 18q29 -43 90 -43h460q60 0 89 43l29 -18q-17 -24 -17 -46t12 -53l494 -1183q23 -56 71 -88l-12 -19q-49 32 -109 32h-196q2 -22 2 -31q0 -33 -27 -33q-12 0 -21.5 9.5t-9.5 27t2 27.5h-121 q-44 0 -57 -48q-16 -59 -16 -135.5t10 -139.5t10 -86.5t-11.5 -38t-28.5 -14.5t-29 14t-12 39t12.5 97t12.5 108v281q-10 27 -10 50t18 49l-26 19q-30 -43 -90 -43h-411q-60 0 -90 42l-26 -18q19 -27 19 -50t-7 -49v-1q-9 -34 -9 -52t20 -47l-26 -19q-30 42 -90 42h-362 q-3 -19 -3 -64l3 -159q0 -48 -15 -72.5t-36 -24.5q-42 0 -42 81zM637 416l13 -20q47 33 108 33h191q60 0 108 -32l13 19q-47 32 -68 89l-127 325q-22 57 -23 116h-13q-2 -66 -20 -116l-115 -324q-21 -58 -67 -90zM1407 -331q0 69 26 173q29 -120 29 -156q0 -53 -27.5 -53 t-27.5 36z" />
<glyph unicode="B" horiz-adv-x="1979" d="M138 1351l20 21q42 -40 100 -40h846q15 0 53 1h27q28 0 63 -1q52 -2 106.5 -3.5t109 -10.5t104.5 -21.5t93 -36.5t75 -54q69 -66 69 -168t-47 -177.5t-132 -82.5l2 -20q8 1 16 1q50 -1 94 -29q51 -32 83 -86q67 -114 67 -212t-28.5 -165t-79.5 -111t-113 -76t-138 -48 q-145 -32 -288 -32h-935l22 -183q0 -61 -42.5 -61t-42.5 60q0 28 12 83t12 97t-24 42q-19 0 -28 -29.5t-9 -72t14.5 -163t14.5 -180t-45 -59.5t-45 57.5t16 159t16 152.5l1 1348q0 62 -39 100zM294 -795q0 50 15.5 108t18.5 71q3 -15 13.5 -55.5t15.5 -69t5 -66t-34 -37.5 t-34 49zM652 317l20 -21q40 40 100 40h393q7 0 30 -0.5t32.5 0t29 2.5t29 7.5t20.5 14.5q21 15 21 58t-35 64t-80 21l-440 -3q-61 0 -100 39l-20 -20q39 -39 39 -101t-39 -101zM658 820l19 -19q44 43 172 43l234 -10q120 0 153 43q16 21 16 48.5t-22 43.5q-37 26 -97 26 l-361 -1q-55 0 -95 38l-19 -20q39 -39 39 -95t-39 -97z" />
<glyph unicode="C" horiz-adv-x="1951" d="M78 679q0 326 214 501q236 195 701 195q745 0 833 -428q12 -62 53 -95l-17 -22q-42 32 -90 32q-7 0 -14 -1l-385 -24q-67 -5 -87 -49l-33 16q10 22 10 38q0 52 -34.5 90.5t-87.5 57.5q-103 37 -200 37q-148 0 -230.5 -100.5t-82.5 -261t93.5 -262t262.5 -101.5 q54 0 120.5 26.5t118 76.5t51.5 106q0 16 -11 40l33 17q24 -45 77.5 -49t138.5 -11q187 -17 260 -17t115 31l16 -21q-37 -28 -55.5 -103.5t-71.5 -145t-119.5 -115t-154.5 -79.5q-151 -60 -331 -85q0 -92 24 -273t24 -241t-14.5 -84t-42.5 -24t-43 24t-15 76.5t16.5 203.5 t16.5 202t-5 69t-12 27.5t-24 14.5q-26 7 -59 7q-17 0 -35 -2q-110 -9 -110 -37l24 -272q0 -65 -38 -65t-38 55t13.5 146t13.5 130.5t-26 39.5q-51 0 -68.5 -11t-17.5 -20l11 -433q0 -17 -11 -30.5t-27 -13.5t-25.5 11.5t-9.5 27.5l19 475q-305 43 -469.5 220t-164.5 483z " />
<glyph unicode="D" horiz-adv-x="1968" d="M134 1351l20 21q41 -40 100 -40h826q598 0 742 -389q40 -110 40 -234.5t-15.5 -214t-39.5 -157t-67.5 -119.5t-87 -87.5t-110.5 -60.5t-124 -38.5t-143 -20.5q-135 -11 -317 -11h-145q-84 0 -84 -120l16 -128q0 -38 -26 -38q-31 0 -31 39l21 142q0 147 -314 147 q-54 0 -75 -25t-21 -85t18 -166.5t18 -163t-45 -56.5t-45 59.5t14 179.5t14 163q0 102 -37 102q-24 0 -24 -57l24 -166q0 -59 -42.5 -59t-42.5 60l23 184l-1 166v1073q0 62 -39 100zM650 1016q38 -37 38 -100v-230q0 -230 2 -344h227q171 0 242.5 30t102 69.5t47.5 103 t17 153t-30 149.5t-80 88t-111 41.5t-128 15t-125 2.5q-142 2 -182 42zM685 -609.5q0 37.5 4.5 65.5t15.5 71.5t13 54.5q3 -13 11 -43.5t12 -47.5q11 -47 11 -92.5t-33.5 -45.5t-33.5 37.5z" />
<glyph unicode="E" horiz-adv-x="1792" d="M104 -697q0 75 33 222t33 223l-5 335v1166q0 62 -38 99l20 21q41 -39 100 -39h1284q61 0 100 39l20 -21q-44 -44 -44 -172v-45q0 -113 44 -155l-20 -19q-50 51 -235 51l-497 -23q-184 0 -234 51l-21 -20q39 -38 39 -100.5t-39 -100.5l21 -19q48 50 202 50l419 -23 q155 0 205 50l21 -20q-44 -44 -44 -184v-39q0 -107 44 -151l-21 -21q-48 50 -203 50l-419 -22q-154 0 -204 50l-20 -20q42 -43 42 -150l-2 -78l-17 -120q0 -36 26.5 -36t26.5 34l-16 124v11q21 37 57 37l816 -1q61 0 99 39l20 -20q-56 -103 -56 -373q0 -42 18.5 -162.5 t18.5 -160t-13 -58.5t-31 -19t-31.5 21t-13.5 58l16 221q0 88 -31 132.5t-84 44.5q-119 0 -119 -179q0 -69 20.5 -200t20.5 -164t-15 -50.5t-34.5 -17.5t-34 16.5t-14.5 44.5l18 319q0 175 -75 175l-76 -2h-786q-89 0 -131 -34q-48 -40 -48 -226q0 -75 23 -221.5t23 -220.5 q0 -107 -76 -107q-82 0 -82 110z" />
<glyph unicode="F" horiz-adv-x="1765" d="M105 1381l20 20q80 -71 197 -71h1154q117 0 197 71l20 -20q-71 -80 -71 -180t13 -155t58 -106l-20 -20q-53 71 -132 71h-759q-56 0 -96 38l-19 -19q38 -40 38 -97t-38 -97l19 -19q33 32 79.5 41t110.5 9l380 -21q93 0 164.5 16t122.5 65l20 -20q-75 -82 -75 -227t69 -217 l-21 -20q-91 81 -294 81l-374 -21q-137 0 -187 50l-19 -20q37 -38 37 -100l-8 -204q0 -55 26.5 -162.5t26.5 -159t17 -144.5t17 -149.5t-48.5 -56.5t-48.5 55.5t17.5 148t17.5 138.5t-32 83.5t-76 37.5q-100 0 -100 -243q0 -57 15 -171t15 -156q0 -82 -49 -82 q-25 0 -38.5 21.5t-13.5 61.5t17.5 146t17.5 154t-5.5 90.5t-20 91t-46 78.5t-81 30t-89 -43t-39.5 -81.5t14 -80.5t14 -65q0 -44 -32.5 -44t-32.5 44l24 160l-1 1273q0 118 -72 197z" />
<glyph unicode="G" horiz-adv-x="1991" d="M78 679q0 427 352 597q203 99 496 99q473 0 726 -185q137 -100 175 -228q18 -60 64 -92l-15 -20q-41 30 -108 30l-422 -14q-63 -4 -85 -48l-33 16q8 17 8 39t-34 67.5t-93.5 69t-157 23.5t-158.5 -28t-97 -77q-70 -99 -70 -262t104.5 -268.5t273.5 -105.5t257 22 q16 4 31 4t46 -24l12 16q-38 30 -38 70v8q0 40 36 76l-14 13q-36 -36 -75 -36h-97q-61 0 -100 -39l-21 21q40 40 40 99v148q0 60 -40 100l21 20q38 -38 100 -38h614q62 0 100 38l19 -20q-38 -38 -38 -100v-419q0 -31 8.5 -49.5t34.5 -32.5l-16 -29q-18 9 -40.5 9t-51.5 -19 q-232 -155 -660 -174v-96l16 -111q0 -24 -10 -37t-22.5 -13t-22.5 12t-10 23.5t4 31.5q12 62 12 126t-9 64q-196 0 -412 27q-9 3 -9 -107t18.5 -227t18.5 -163q0 -93 -57 -93q-27 0 -46.5 21t-19.5 67.5t33 166t33 186.5v156q-571 128 -571 689z" />
<glyph unicode="H" horiz-adv-x="1960" d="M103 -434.5q0 46.5 32.5 166.5t32.5 187v1332q0 63 -38 100l19 21q41 -40 100 -40h359q59 0 99 40l21 -21q-46 -46 -46 -150l15 -230q0 -103 -47 -150l20 -21q39 39 100 39h414q61 0 99 -39l21 21q-47 48 -47 153l16 228q0 102 -47 149l20 21q41 -40 100 -40h353 q60 0 100 40l20 -21q-39 -39 -39 -100v-1170q0 -60 39 -100l-20 -20q-39 39 -100 39h-353q-61 0 -100 -39l-20 20q38 38 38 100l-2 336q0 60 38 99l-20 20q-38 -38 -100 -38h-410q-61 0 -100 38l-20 -20q2 -23 2 -242v-451q0 -91 23 -258t23 -236t-16.5 -94t-39.5 -25 t-39.5 24.5t-16.5 50t10 117.5q30 278 30 418q0 69 -42 120q-82 99 -225 99q-73 0 -122.5 -34t-49.5 -94.5t19.5 -177.5t19.5 -162q0 -93 -58 -93q-27 0 -46 20.5t-19 67z" />
<glyph unicode="I" horiz-adv-x="882" d="M138 1351l20 21q42 -40 100 -40h362q60 0 100 40l20 -21q-39 -39 -39 -100v-1170q0 -51 -11 -179q-8 -93 -8 -156q0 -23 1 -41h-1q37 -166 37 -253t-33 -87q-48 0 -48 96l11 266q0 129 -9.5 163t-19.5 60t-26 42t-38 30q-42 28 -132 28t-151.5 -73t-61.5 -175 q0 -38 15 -113.5t15 -113.5q0 -72 -51 -72t-51 70q0 39 15.5 117t15.5 118l7 268v1175q0 62 -39 100z" />
<glyph unicode="J" horiz-adv-x="1650" d="M22 587l9 10q29 -27 52 -27q88 0 219.5 23.5t181 29t85.5 50.5l22 -17q-32 -40 -32 -91t10.5 -96.5t32.5 -84.5q50 -87 158.5 -87t165.5 63t57 172l1 719q0 63 -38 100l20 21q40 -40 100 -40h348q61 0 100 40l20 -21q-39 -38 -39 -100v-778q0 -327 -299 -451h-1v-217 q0 -35 16.5 -103t16.5 -102q0 -54 -43 -54q-37 0 -37 41.5t13 103.5t13 106t-42 89q-81 85 -210 85q-35 0 -53.5 -25.5t-18.5 -67.5t18 -132.5t18 -125.5q0 -77 -40 -77q-22 0 -32 23.5t-10 48.5l24 290q0 33 -30 53.5t-64 20.5q-44 0 -44 -109l20 -158q0 -24 -8.5 -50 t-27.5 -26q-30 0 -30 74q0 31 14 91.5t14 92.5q0 62 -64 70q-254 38 -374 128q-114 84 -142 186q-28 103 -29 164q-3 111 -41 145zM1167 -778q0 84 25 191q25 -105 25 -190q0 -37 -25 -37t-25 36z" />
<glyph unicode="K" horiz-adv-x="1978" d="M148 -19q39 39 39 100v1170q0 61 -39 100l20 21q40 -40 100 -40h347q60 0 100 40l20 -21q-39 -39 -39 -100v-311q0 -60 -24 -115l15 -6q23 54 67 96l377 361q23 22 28.5 40t-3.5 48l35 13q19 -45 79 -45h502q56 0 116 22l5 -14q-56 -21 -101 -61l-406 -353 q-37 -34 -83 -34q-8 0 -16 1l-4 -31q54 -5 88 -56l518 -739q34 -50 86 -78l-9 -16q-51 27 -112 27h-483q-60 0 -84 -45l-32 17q14 29 11 48.5t-21 47.5l-286 422q-27 42 -27 87q0 10 1 19l-27 3q-7 -54 -55 -93l-92 -79q-26 -21 -44.5 -25t-47.5 7l-16 -33q45 -22 45 -82 v-213q0 -61 39 -100l-20 -20q-39 39 -100 39h-347q-61 0 -100 -39z" />
<glyph unicode="L" horiz-adv-x="1672" d="M118 -619q0 78 27 216.5t27 208.5l-1 1445q0 61 -40 100l21 21q41 -40 100 -40h358q61 0 100 40l21 -21q-40 -39 -40 -100v-825q0 -60 -39 -99l21 -21q51 51 223 51l474 -24q171 0 222 51l21 -20q-40 -39 -40 -100l-4 -130q0 -109 44 -153l-21 -20q-38 39 -100 39h-291 q1 -14 1 -37q0 -56 -28 -56t-28 63q0 19 1 30h-895q-24 0 -41.5 -86.5t-17.5 -138.5t24 -186.5t24 -210t-59 -75.5q-64 0 -64 78zM1140 -436q0 43 16.5 105.5t17.5 67.5q2 -10 10 -41t12 -48q12 -51 12 -92t-34 -41t-34 49z" />
<glyph unicode="M" horiz-adv-x="2417" d="M105 1383l21 21q82 -72 197 -72h511q131 0 188 76l26 -19q-51 -74 -51 -136.5t32 -138t70 -143.5q103 -184 103 -301h14q0 121 102 301q101 178 101 261.5t-50 156.5l26 19q57 -76 188 -76h512q116 0 197 72l20 -21q-71 -80 -71 -197v-1105q0 -46 -2 -100l-20 -20 q-20 39 -59 39h-337q-22 0 -40 -27t-18 -50l17 -124q0 -36 -26 -36t-26 43l14 111l-2 164v775q0 62 44 121h-55q-29 -143 -180 -508q-143 -346 -143 -440l2 -220q0 -36 16.5 -107.5t16.5 -108.5q0 -57 -44 -57t-44 58q0 38 18 112.5t18 112.5q0 120 -59.5 178.5t-132 58.5 t-119.5 -31t-47 -77l12 -109q0 -37 -27 -37t-27 40l18 187q0 96 -144 437q-150 357 -178 510h-55q42 -56 42 -120v-988l20 -168q0 -53 -36 -53t-36 51l22 164q0 38 -15 55q-33 37 -225 37t-192 -2l5 -132q0 -23 -23 -23t-23 21l6 139v1229q0 118 -72 197z" />
<glyph unicode="N" horiz-adv-x="2009" d="M112 1383l21 21q81 -72 197 -72h299q64 0 108.5 15.5t71.5 61.5l33 -16q-26 -62 -26 -117q0 -45 158 -226q206 -236 265 -317t77 -131h60q-49 72 -49 203q0 61 15 182.5t15 182.5q0 164 -104 213l21 21q81 -72 197 -72h205q116 0 197 72l20 -21q-71 -80 -71 -197 l-2 -1221q0 -43 20 -128.5t20 -128.5q0 -64 -49 -64t-49 64q0 42 19 123.5t19 112t-20 43.5t-39 13h-395q-84 0 -84 -153q0 -63 23.5 -182.5t23.5 -180.5q0 -87 -65 -87t-65 88q0 56 25.5 163t26.5 161l2 133v21q0 75 -19 100l-479 607q-19 25 -42 104l-61 -2 q52 -54 52 -120v-571l19 -506q0 -16 -9.5 -27.5t-26 -11.5t-27.5 13.5t-11 30.5l12 384q0 12 -9 22t-21 10q-26 0 -26 -40t13.5 -131t13.5 -125q0 -76 -37.5 -76t-37.5 66l24 271q0 32 -36 53q-59 33 -144 33q-114 0 -157 -45q-19 -20 -19 -58.5t23 -134.5t23 -135.5 t-14.5 -63t-42.5 -23.5t-43 23.5t-15 63.5t24.5 138t24.5 148l-1 1226q0 118 -72 197z" />
<glyph unicode="O" horiz-adv-x="1986" d="M76 677q0 518 522 654q169 44 349.5 44t307 -20t245 -70.5t202 -128t133.5 -200t50 -279.5q0 -320 -180 -495.5t-506 -215.5q-4 -7 -4 -22l5 -55q0 -51 -28 -51t-28 49l3 56q0 30 -43 30q-4 -9 -4 -34l5 -97q0 -30 -11 -58t-37 -28q-46 0 -46 82l7 96q0 25 -24 38.5 t-52 13.5t-50 -15t-22 -43v-230q0 -50 21 -147t21 -138.5t-18 -68.5t-49.5 -27t-47.5 28t-16 73t23 156t23 172q0 247 -92 247q-124 0 -124 10v-2q0 -69 30.5 -202.5t30.5 -191.5t-21 -95.5t-64.5 -37.5t-68 36t-24.5 93.5t29 197t29 211.5q-237 75 -356.5 245t-119.5 420z M633 676q0 -366 348 -366t348 366q0 168 -90 257t-258 89t-258 -89t-90 -257z" />
<glyph unicode="P" horiz-adv-x="1901" d="M134 -441q0 45 22 159t22 160l-2 203v1174q0 61 -38 99l20 20q38 -38 99 -38h863q207 0 280.5 -12t128.5 -26.5t92 -34.5t76 -51t62 -70q53 -90 53 -201.5t-24.5 -190t-78.5 -140.5q-112 -130 -381 -130h-551q-62 0 -100 38l-21 -19q40 -40 40 -100v-318q0 -77 -2 -189 l-45 -4q-13 112 -34 112h-358q-12 0 -19.5 -48.5t-7.5 -93t19 -151.5t19 -150q0 -92 -67 -92t-67 94zM393 -304q0 36 18.5 125.5t18.5 117t-0.5 70.5t-0.5 72l45 -53q-7 0 -12.5 -32.5t-5.5 -63.5l26 -237q0 -61 -44.5 -61t-44.5 62zM656 763l21 -21q39 39 100 39h324 q101 0 121 11.5t34 23.5q24 22 24 63t-8.5 60.5t-24.5 30.5t-32 18t-39 10q-32 4 -71 4h-328q-62 0 -100 38l-21 -19q40 -40 40 -100v-59q0 -59 -40 -99z" />
<glyph unicode="Q" horiz-adv-x="2032" d="M83 712.5q0 137.5 44.5 256t123.5 198.5t193 133t248.5 76.5t294.5 23.5t294.5 -23.5t249 -76.5t193.5 -133q168 -170 168 -455.5t-144 -441.5q-43 -46 -96 -51l3 -26q9 1 17 1q47 0 88 -28l127 -86q47 -30 96 -30h11l2 -25q-58 -4 -102 -44l-184 -158q-42 -38 -42 -85 v-8l-32 -2q-5 53 -55 85l-254 165q-28 18 -38 35t-4 45l-37 9q-6 -28 -22.5 -39.5t-84.5 -21.5t-156 -10t-169 7t-174.5 27t-171 52t-151.5 87t-124.5 126.5t-81 175.5t-30.5 241.5zM636 706q0 -364 352.5 -364t352.5 364q0 174 -94.5 260.5t-257.5 86.5t-258 -86.5 t-95 -260.5z" />
<glyph unicode="R" horiz-adv-x="2066" d="M138 1354l20 20q39 -38 99 -38h896q210 0 282.5 -12.5t127 -26.5t92 -34.5t76 -51t61.5 -69.5q53 -89 53 -189t-15.5 -163.5t-51.5 -119.5q-78 -121 -274 -121l-8 -23q63 -25 84 -69q88 -192 130 -243.5t78 -82.5t103 -63t81 -41.5t14 -15.5q0 -100 27 -257t27 -202 t-3.5 -65t-15.5 -39.5t-35 -19.5t-34.5 33t-11.5 81t13 171.5t13 186.5q0 125 -81 125q-40 0 -59.5 -14t-19.5 -57.5t18 -138.5t18 -143.5t-37 -48.5t-37 49l22 207q0 127 -102 193q-92 60 -193 59q-11 -1 -23 -1q-113 -8 -158 -76q-23 -33 -23 -78l-5 -268q0 -55 17 -163.5 t17 -163.5q0 -97 -55 -97t-55 94q0 62 18 178t20.5 176t2.5 256q0 52 -32 120t-101 187t-113 210l-30 17q-24 -44 -85 -44l-84 -3q-86 0 -129 42l-21 -20q3 -37 3 -158l-1 -245q0 -110 4 -162l19 -147q0 -41 -28 -41t-28 38l16 124q0 45 -26.5 71.5t-69 26.5t-75 -37.5 t-32.5 -97.5t22 -162.5t22 -147.5q0 -94 -67 -94t-67 92q0 43 19.5 150t19.5 170t-29 103.5t-66 40.5t-63 -25.5t-26 -63.5l27 -237q0 -61 -45 -61t-45 62q0 36 19 126q18 85 18 134v5q-1 50 -1 1294q0 62 -38 99zM656 754l21 -20q43 44 178 44l253 -9q101 0 156.5 26.5 t55.5 97.5q0 45 -31 70.5t-75 33t-112 7.5l-236 -7q-145 0 -189 43l-21 -19q40 -39 40 -100v-67q0 -60 -40 -100z" />
<glyph unicode="S" horiz-adv-x="1887" d="M48 436l15 21q45 -30 97.5 -30t134.5 4t185 9.5t147 7.5t65 12.5t30 38.5l45 -15q-3 -8 -3 -21q0 -33 55 -75t199 -42q97 0 138 33q18 15 18 36q0 49 -54 65t-130.5 27.5t-153 18.5t-165.5 20t-168 28.5t-153.5 45.5t-127.5 70.5t-85.5 104t-32.5 144.5t25.5 148 t69.5 115t106.5 85t131 60t149.5 37q141 26 266 26t190.5 -3.5t154 -13t160 -31t141.5 -54.5q146 -68 205 -211q24 -51 66 -95l-13 -23q-42 29 -97 29h-13q-80 -3 -228.5 -11.5t-191 -10.5t-61 -12t-26.5 -38l-44 12q3 9 3 19q0 42 -68 72.5t-154 30.5q-168 0 -168 -66 q0 -59 252 -86q59 -7 134 -14q261 -27 400 -71q292 -92 292 -351q0 -106 -44 -190.5t-114.5 -137.5t-166.5 -88q-173 -63 -395 -63q-60 0 -71 1q-54 0 -54 -83v-24q0 -27 13.5 -79.5t13.5 -78.5q0 -53 -37 -53q-19 0 -29.5 16t-10.5 40t12.5 81.5t12.5 83.5t-0.5 36.5t-3 26 t-8.5 22.5q-14 18 -48 18q-62 0 -62 -108l6 -164q0 -66 -19 -66t-19 36l10 101v187q-269 14 -402 73.5t-196 149.5q-38 53 -58.5 118.5t-67.5 98.5z" />
<glyph unicode="T" horiz-adv-x="1667" d="M54 974q38 38 38 99l5 128q0 110 -43 152l20 20q40 -39 99 -39h1313q61 0 100 39l20 -20q-38 -38 -38 -100l-5 -128q0 -108 43 -151l-20 -21q-45 46 -146 46l-221 -14q-105 0 -151 46l-21 -20q39 -38 39 -100v-830q0 -104 18.5 -310t18.5 -271q0 -114 -41 -114t-41 81 t13.5 219.5t13.5 208.5q0 109 -43 109q-21 0 -33 -25t-12 -49l23 -209q0 -72 -41 -72q-21 0 -31 21t-10 49t18 91.5t18 103.5t-34.5 61t-87 21t-109 -21t-99.5 -65.5t-43 -88t13.5 -105.5t13.5 -103.5t-37 -41.5q-42 0 -42 44.5t16 112.5t16 102v260q2 548 2 821 q0 63 38 100l-20 20q-44 -45 -146 -45l-215 13q-103 0 -149 -46zM928 -696q0 90 26 194q24 -110 24 -191q0 -35 -25 -35t-25 32z" />
<glyph unicode="U" horiz-adv-x="1887" d="M106 1334l21 20q37 -38 99 -38h354q61 0 99 38l21 -20q-38 -39 -38 -99l2 -514q0 -149 8 -189t17.5 -73.5t23 -53.5t34.5 -42.5t48 -34.5q63 -28 123.5 -28t94 5.5t59 18t46 27t35 37t25.5 43t17.5 51.5t10.5 54.5t6 59.5q3 55 3 125l2 514q0 61 -37 99l19 20 q38 -38 100 -38h354q63 0 100 38l20 -20q-41 -42 -41 -204l9 -511q0 -267 -66 -391q-62 -118 -177 -177q-131 -68 -348 -88v-187l10 -103q0 -34 -19 -34t-19 66l6 163q0 108 -67 108q-52 0 -52 -85l5 -87q0 -30 12.5 -87.5t12.5 -81.5t-10 -40t-29 -16t-28.5 16.5t-9.5 39.5 t13.5 75.5t13.5 67.5v30q0 16 -1 32t-5 40q-8 50 -48 50q-74 0 -74 -146v-46q0 -37 18 -108t18 -102q0 -77 -50 -77q-25 0 -39.5 21t-14.5 54t16.5 112t16.5 120v199q-284 13 -426 83q-248 120 -255 456q-2 93 -2 277l2 462q0 59 -39 99zM1108 -553q0 48 14.5 81.5 t17.5 33.5t11 -18q23 -52 23 -99t-33 -47t-33 49z" />
<glyph unicode="V" horiz-adv-x="1760" d="M-13 1383l13 19q47 -31 108 -31h349q61 0 88 42l29 -18q-17 -22 -17 -42.5t27.5 -92.5t72.5 -180.5t84.5 -201.5t83.5 -195t49 -114q5 12 49 114t83.5 195t84.5 202q100 241 100 268t-16 47l28 18q27 -42 88 -42h350q62 0 109 31l12 -19q-49 -33 -71 -87l-503 -1190 q-13 -30 -13 -144t23.5 -253.5t23.5 -207.5q0 -97 -69.5 -97t-69.5 96q0 65 25 192.5t25 233.5t-26 106h-484q-16 0 -16 -74l15 -220q0 -33 -30 -33q-15 0 -24 10.5t-9 39.5t14 113.5t14 148t-33 138.5l-496 1141q-22 54 -71 87z" />
<glyph unicode="W" horiz-adv-x="2587" d="M12 1367l14 20q48 -33 107 -33h367q62 0 92 42l26 -20q-21 -27 -21 -71t31 -139.5t68 -183.5q98 -236 98 -375h13q0 133 118.5 376.5t118.5 340.5q0 27 -18 53l26 20q30 -43 91 -43h283q60 0 90 43l27 -20q-19 -25 -19 -65t36.5 -136.5t80.5 -187.5q118 -244 120 -381h13 q0 143 98 374.5t98 336.5q0 33 -19 58l26 20q30 -42 92 -42h367q59 0 107 33l13 -20q-44 -30 -65 -91q-7 -21 -61 -171t-108 -303.5t-112 -323.5q-133 -385 -133 -421t19 -61l-27 -20q-30 43 -91 43l-371 1q-62 0 -91 -42l-27 18q18 24 18 66.5t-34 135t-75 177.5 q-108 228 -108 358h-12q0 -132 -109 -359.5t-109 -322.5q0 -32 19 -55l-27 -18q-29 42 -91 42l-370 -1q-59 0 -59 -35l17 -245q0 -25 -12 -46t-35 -21q-40 0 -40 59t14 158.5t14 141.5t-6 64l-406 1181q-22 61 -66 91z" />
<glyph unicode="X" horiz-adv-x="1832" d="M-21 4q57 28 93 73l483 583q39 46 93 46v31q-53 0 -90 49l-392 502q-37 48 -90 74l8 16q52 -26 113 -26l446 -2q61 0 83 45l32 -16q-10 -23 -10.5 -42t25.5 -52l116 -150q36 -46 36 -105h25q0 58 37 105l116 150q24 32 24 52.5t-9 41.5l32 16q22 -45 83 -45l435 2 q60 0 114 25l7 -15q-53 -26 -91 -73l-411 -504q-38 -47 -92 -47v-32q54 0 91 -47l459 -582q35 -45 91 -73l-8 -16q-52 26 -113 26h-462q-44 0 -69 -29t-25 -104.5t21 -260.5t21 -246.5t-23.5 -88.5t-54 -27t-52 23.5t-21.5 82t34.5 255.5t34.5 271l1 190l-159 226 q-36 53 -36 106h-25q0 -57 -35 -106l-163 -226q-23 -33 -23 -52t11 -41l-33 -17q-24 44 -84 44h-472q-60 0 -114 -25z" />
<glyph unicode="Y" horiz-adv-x="1780" d="M-6 1350l9 17q50 -28 113 -28l403 2q60 0 85 43l31 -17q-13 -24 -13 -52.5t40.5 -97.5t89 -134t89 -144t40.5 -137h21v8q0 94 130 274t130 241q0 16 -14 42l31 17q25 -43 86 -43l379 -2q62 0 112 28l9 -17q-54 -32 -83 -80l-512 -826q-26 -43 -53 -43q-11 0 -23 4 l-12 -37q48 -15 48 -100l-6 -139q0 -96 42 -138l-21 -20q-39 39 -99 39h-234q-64 0 -64 -181l15 -186q0 -35 -21.5 -35t-21.5 38l11 196q0 168 -42 168t-42 -106v-29q0 -43 19.5 -128t19.5 -129q0 -68 -50.5 -68t-50.5 68q0 46 21 134t21 134l-2 408q0 31 8.5 48t35.5 25 l-10 38q-14 -4 -24.5 -4t-21.5 7q-13 9 -30 36l-507 826q-30 49 -82 80z" />
<glyph unicode="Z" horiz-adv-x="1881" d="M84 292l15 34q28 -12 47 -7.5t44 25.5l700 602q48 40 102 60l-5 14q-57 -21 -117 -21h-593q-59 0 -99 -40l-20 21q38 38 38 100v171q0 62 -38 100l20 21q40 -40 99 -40h1377q60 0 100 40l20 -21q-39 -39 -39 -100v-155q0 -60 45 -82l-15 -33q-29 11 -47.5 7t-44.5 -25 l-677 -568q-46 -37 -102 -58l5 -14q57 21 116 21h609q62 0 100 38l20 -20q-38 -38 -38 -99v-182q0 -62 38 -100l-20 -20q-39 39 -100 39h-1414q-61 0 -100 -39l-21 20q40 40 40 100v130q0 60 -45 81z" />
<glyph unicode="[" horiz-adv-x="1128" d="M138 -326q43 42 43 152v1592q0 110 -43 152l20 20q39 -38 99 -38h717q62 0 100 38l20 -20q-39 -39 -39 -99l-5 -129q0 -107 44 -151l-20 -21q-45 46 -147 46l-91 -14q-105 0 -151 46l-20 -20q39 -38 39 -99v-1013q0 -62 -39 -100l20 -20q46 46 151 46l91 -13 q103 0 147 45l20 -21q-44 -44 -44 -151l5 -128q0 -61 39 -100l-20 -20q-39 39 -100 39h-717q-59 0 -99 -39z" />
<glyph unicode="\" horiz-adv-x="801" d="M35 1332h356q1 -39 29 -166l299 -996q38 -113 73 -171h-356q-3 59 -31 171l-299 996q-37 109 -71 166z" />
<glyph unicode="]" horiz-adv-x="1131" d="M39 53l20 21q44 -45 147 -45l91 13q105 0 151 -46l21 20q-40 39 -40 100v1013q0 60 40 99l-21 20q-46 -46 -151 -46l-91 14q-102 0 -147 -46l-20 21q44 44 44 151l-5 129q0 60 -39 99l20 20q38 -38 100 -38h716q61 0 100 38l20 -20q-43 -42 -43 -152v-1592 q0 -110 43 -152l-20 -20q-40 39 -100 39h-716q-61 0 -100 -39l-20 20q39 39 39 100l5 128q0 107 -44 151z" />
<glyph unicode="^" horiz-adv-x="1399" d="M57 330q39 22 61 59l374 603q21 31 38 31h352q18 0 38 -31l370 -603q22 -37 61 -59l-7 -12q-34 20 -82 20l-295 -1q-44 0 -62 -32l-22 13q9 23 9 41.5t-29.5 68.5t-64.5 98q-94 127 -94 205h-16v-6q0 -46 -47.5 -124t-95 -149.5t-47.5 -92.5t10 -41l-22 -13 q-18 32 -63 32l-277 1q-45 0 -81 -20z" />
<glyph unicode="_" horiz-adv-x="1034" d="M110 0q52 -13 171 -13h484q114 0 166 13v-331q-53 6 -124 6h-568q-77 0 -129 -6v331z" />
<glyph unicode="`" horiz-adv-x="858" d="M54 1219.5q0 1.5 6 8.5q19 24 38 72l75 192q17 43 20 67t4 24t7 -7q24 -25 68 -50l430 -250q71 -42 71 -45t-8.5 -9t-18.5 -16q-27 -27 -27 -102l11 -136q0 -16 -8.5 -25.5t-19.5 -9.5q-25 0 -25 32l5 102q0 12 -69 30t-282.5 67t-237.5 51.5t-31.5 2.5t-7.5 1.5z" />
<glyph unicode="a" d="M-9 -239q0 81 20 179.5t35 135.5l480 1181q10 26 10 51t-17 49l28 18q29 -43 90 -43h460q60 0 89 43l29 -18q-17 -24 -17 -46t12 -53l494 -1183q23 -56 71 -88l-12 -19q-49 32 -109 32h-196q2 -22 2 -31q0 -33 -27 -33q-12 0 -21.5 9.5t-9.5 27t2 27.5h-121 q-44 0 -57 -48q-16 -59 -16 -135.5t10 -139.5t10 -86.5t-11.5 -38t-28.5 -14.5t-29 14t-12 39t12.5 97t12.5 108v281q-10 27 -10 50t18 49l-26 19q-30 -43 -90 -43h-411q-60 0 -90 42l-26 -18q19 -27 19 -50t-7 -49v-1q-9 -34 -9 -52t20 -47l-26 -19q-30 42 -90 42h-362 q-3 -19 -3 -64l3 -159q0 -48 -15 -72.5t-36 -24.5q-42 0 -42 81zM637 416l13 -20q47 33 108 33h191q60 0 108 -32l13 19q-47 32 -68 89l-127 325q-22 57 -23 116h-13q-2 -66 -20 -116l-115 -324q-21 -58 -67 -90zM1407 -331q0 69 26 173q29 -120 29 -156q0 -53 -27.5 -53 t-27.5 36z" />
<glyph unicode="b" horiz-adv-x="1979" d="M138 1351l20 21q42 -40 100 -40h846q15 0 53 1h27q28 0 63 -1q52 -2 106.5 -3.5t109 -10.5t104.5 -21.5t93 -36.5t75 -54q69 -66 69 -168t-47 -177.5t-132 -82.5l2 -20q8 1 16 1q50 -1 94 -29q51 -32 83 -86q67 -114 67 -212t-28.5 -165t-79.5 -111t-113 -76t-138 -48 q-145 -32 -288 -32h-935l22 -183q0 -61 -42.5 -61t-42.5 60q0 28 12 83t12 97t-24 42q-19 0 -28 -29.5t-9 -72t14.5 -163t14.5 -180t-45 -59.5t-45 57.5t16 159t16 152.5l1 1348q0 62 -39 100zM294 -795q0 50 15.5 108t18.5 71q3 -15 13.5 -55.5t15.5 -69t5 -66t-34 -37.5 t-34 49zM652 317l20 -21q40 40 100 40h393q7 0 30 -0.5t32.5 0t29 2.5t29 7.5t20.5 14.5q21 15 21 58t-35 64t-80 21l-440 -3q-61 0 -100 39l-20 -20q39 -39 39 -101t-39 -101zM658 820l19 -19q44 43 172 43l234 -10q120 0 153 43q16 21 16 48.5t-22 43.5q-37 26 -97 26 l-361 -1q-55 0 -95 38l-19 -20q39 -39 39 -95t-39 -97z" />
<glyph unicode="c" horiz-adv-x="1951" d="M78 679q0 326 214 501q236 195 701 195q745 0 833 -428q12 -62 53 -95l-17 -22q-42 32 -90 32q-7 0 -14 -1l-385 -24q-67 -5 -87 -49l-33 16q10 22 10 38q0 52 -34.5 90.5t-87.5 57.5q-103 37 -200 37q-148 0 -230.5 -100.5t-82.5 -261t93.5 -262t262.5 -101.5 q54 0 120.5 26.5t118 76.5t51.5 106q0 16 -11 40l33 17q24 -45 77.5 -49t138.5 -11q187 -17 260 -17t115 31l16 -21q-37 -28 -55.5 -103.5t-71.5 -145t-119.5 -115t-154.5 -79.5q-151 -60 -331 -85q0 -92 24 -273t24 -241t-14.5 -84t-42.5 -24t-43 24t-15 76.5t16.5 203.5 t16.5 202t-5 69t-12 27.5t-24 14.5q-26 7 -59 7q-17 0 -35 -2q-110 -9 -110 -37l24 -272q0 -65 -38 -65t-38 55t13.5 146t13.5 130.5t-26 39.5q-51 0 -68.5 -11t-17.5 -20l11 -433q0 -17 -11 -30.5t-27 -13.5t-25.5 11.5t-9.5 27.5l19 475q-305 43 -469.5 220t-164.5 483z " />
<glyph unicode="d" horiz-adv-x="1982" d="M146 -19q38 38 38 100v1170q0 63 -38 100l20 21q41 -40 99 -40h827q598 0 742 -389q40 -110 40 -250q0 -396 -214 -554q-147 -109 -441 -131q-108 -9 -247 -9q-8 1 -16 1h-174q-17 0 -29 -48t-12 -72l17 -128q0 -38 -28.5 -38t-28.5 39l20 142q0 24 -9.5 64.5t-26.5 40.5 h-420q-59 0 -99 -39zM662 1016q39 -38 39 -100q0 -447 2 -574h227q170 0 241.5 30t101.5 69.5t47 103t17 153t-30 149.5t-80 88t-111 41.5t-127.5 15t-124.5 2.5q-142 2 -182 42z" />
<glyph unicode="e" horiz-adv-x="1789" d="M104 -697q0 75 33 222t33 223l-5 335v1166q0 62 -38 99l20 21q41 -39 100 -39h1284q61 0 100 39l20 -21q-44 -44 -44 -166v-56q0 -107 44 -150l-20 -19q-50 51 -235 51l-497 -23q-184 0 -234 51l-21 -20q39 -38 39 -100.5t-39 -100.5l21 -19q48 50 202 50l419 -23 q155 0 205 50l21 -20q-44 -44 -44 -169v-56q0 -103 44 -149l-21 -21q-48 50 -203 50l-419 -22q-154 0 -204 50l-20 -20q30 -30 35 -71.5t6 -59t0 -54t-1 -43.5l-17 -120q0 -36 26.5 -36t26.5 34l-16 124v11q21 37 57 37l816 -1q61 0 99 39l20 -20q-44 -44 -44 -168v-58 q0 -101 44 -147l-20 -20q-39 39 -99 39h-1183q-89 0 -131 -34q-48 -40 -48 -226q0 -75 23 -221.5t23 -220.5q0 -107 -76 -107q-82 0 -82 110z" />
<glyph unicode="f" horiz-adv-x="1765" d="M105 1381l20 20q80 -71 197 -71h1154q117 0 197 71l20 -20q-71 -80 -71 -180t13 -155t58 -106l-20 -20q-53 71 -132 71h-759q-56 0 -96 38l-19 -19q38 -40 38 -97t-38 -97l19 -19q33 32 79.5 41t110.5 9l380 -21q93 0 164.5 16t122.5 65l20 -20q-75 -82 -75 -227t69 -217 l-21 -20q-91 81 -294 81l-374 -21q-137 0 -187 50l-19 -20q37 -38 37 -100l-8 -204q0 -55 26.5 -162.5t26.5 -159t17 -144.5t17 -149.5t-48.5 -56.5t-48.5 55.5t17.5 148t17.5 138.5t-32 83.5t-76 37.5q-100 0 -100 -243q0 -57 15 -171t15 -156q0 -82 -49 -82 q-25 0 -38.5 21.5t-13.5 61.5t17.5 146t17.5 154t-5.5 90.5t-20 91t-46 78.5t-81 30t-89 -43t-39.5 -81.5t14 -80.5t14 -65q0 -44 -32.5 -44t-32.5 44l24 160l-1 1273q0 118 -72 197z" />
<glyph unicode="g" horiz-adv-x="1991" d="M78 679q0 427 352 597q203 99 496 99q473 0 726 -185q137 -100 175 -228q18 -60 64 -92l-15 -20q-41 30 -108 30l-422 -14q-63 -4 -85 -48l-33 16q8 17 8 39t-34 67.5t-93.5 69t-157 23.5t-158.5 -28t-97 -77q-70 -99 -70 -262t104.5 -268.5t273.5 -105.5t257 22 q16 4 31 4t46 -24l12 16q-38 30 -38 70v8q0 40 36 76l-14 13q-36 -36 -75 -36h-97q-61 0 -100 -39l-21 21q40 40 40 99v148q0 60 -40 100l21 20q38 -38 100 -38h614q62 0 100 38l19 -20q-38 -38 -38 -100v-419q0 -31 8.5 -49.5t34.5 -32.5l-16 -29q-18 9 -40.5 9t-51.5 -19 q-232 -155 -660 -174v-96l16 -111q0 -24 -10 -37t-22.5 -13t-22.5 12t-10 23.5t4 31.5q12 62 12 126t-9 64q-196 0 -412 27q-9 3 -9 -107t18.5 -227t18.5 -163q0 -93 -57 -93q-27 0 -46.5 21t-19.5 67.5t33 166t33 186.5v156q-571 128 -571 689z" />
<glyph unicode="h" horiz-adv-x="1960" d="M103 -434.5q0 46.5 32.5 166.5t32.5 187v1332q0 63 -38 100l19 21q41 -40 100 -40h359q59 0 99 40l21 -21q-46 -46 -46 -150l15 -230q0 -103 -47 -150l20 -21q39 39 100 39h414q61 0 99 -39l21 21q-47 48 -47 153l16 228q0 102 -47 149l20 21q41 -40 100 -40h353 q60 0 100 40l20 -21q-39 -39 -39 -100v-1170q0 -60 39 -100l-20 -20q-39 39 -100 39h-353q-61 0 -100 -39l-20 20q38 38 38 100l-2 336q0 60 38 99l-20 20q-38 -38 -100 -38h-410q-61 0 -100 38l-20 -20q2 -23 2 -242v-451q0 -91 23 -258t23 -236t-16.5 -94t-39.5 -25 t-39.5 24.5t-16.5 50t10 117.5q30 278 30 418q0 69 -42 120q-82 99 -225 99q-73 0 -122.5 -34t-49.5 -94.5t19.5 -177.5t19.5 -162q0 -93 -58 -93q-27 0 -46 20.5t-19 67z" />
<glyph unicode="i" horiz-adv-x="882" d="M138 1351l20 21q42 -40 100 -40h362q60 0 100 40l20 -21q-39 -39 -39 -100v-1170q0 -51 -11 -179q-8 -93 -8 -156q0 -23 1 -41h-1q37 -166 37 -253t-33 -87q-48 0 -48 96l11 266q0 129 -9.5 163t-19.5 60t-26 42t-38 30q-42 28 -132 28t-151.5 -73t-61.5 -175 q0 -38 15 -113.5t15 -113.5q0 -72 -51 -72t-51 70q0 39 15.5 117t15.5 118l7 268v1175q0 62 -39 100z" />
<glyph unicode="j" horiz-adv-x="1650" d="M22 587l9 10q29 -27 52 -27q88 0 219.5 23.5t181 29t85.5 50.5l22 -17q-32 -40 -32 -91t10.5 -96.5t32.5 -84.5q50 -87 158.5 -87t165.5 63t57 172l1 719q0 63 -38 100l20 21q40 -40 100 -40h348q61 0 100 40l20 -21q-39 -38 -39 -100v-778q0 -327 -299 -451h-1v-217 q0 -35 16.5 -103t16.5 -102q0 -54 -43 -54q-37 0 -37 41.5t13 103.5t13 106t-42 89q-81 85 -210 85q-35 0 -53.5 -25.5t-18.5 -67.5t18 -132.5t18 -125.5q0 -77 -40 -77q-22 0 -32 23.5t-10 48.5l24 290q0 33 -30 53.5t-64 20.5q-44 0 -44 -109l20 -158q0 -24 -8.5 -50 t-27.5 -26q-30 0 -30 74q0 31 14 91.5t14 92.5q0 62 -64 70q-254 38 -374 128q-114 84 -142 186q-28 103 -29 164q-3 111 -41 145zM1167 -778q0 84 25 191q25 -105 25 -190q0 -37 -25 -37t-25 36z" />
<glyph unicode="k" horiz-adv-x="1978" d="M148 -19q39 39 39 100v1170q0 61 -39 100l20 21q40 -40 100 -40h347q60 0 100 40l20 -21q-39 -39 -39 -100v-311q0 -60 -24 -115l15 -6q23 54 67 96l377 361q23 22 28.5 40t-3.5 48l35 13q19 -45 79 -45h502q56 0 116 22l5 -14q-56 -21 -101 -61l-406 -353 q-37 -34 -83 -34q-8 0 -16 1l-4 -31q54 -5 88 -56l518 -739q34 -50 86 -78l-9 -16q-51 27 -112 27h-483q-60 0 -84 -45l-32 17q14 29 11 48.5t-21 47.5l-286 422q-27 42 -27 87q0 10 1 19l-27 3q-7 -54 -55 -93l-92 -79q-26 -21 -44.5 -25t-47.5 7l-16 -33q45 -22 45 -82 v-213q0 -61 39 -100l-20 -20q-39 39 -100 39h-347q-61 0 -100 -39z" />
<glyph unicode="l" horiz-adv-x="1672" d="M118 -619q0 78 27 216.5t27 208.5l-1 1445q0 61 -40 100l21 21q41 -40 100 -40h358q61 0 100 40l21 -21q-40 -39 -40 -100v-825q0 -60 -39 -99l21 -21q51 51 223 51l474 -24q171 0 222 51l21 -20q-40 -39 -40 -100l-4 -130q0 -109 44 -153l-21 -20q-38 39 -100 39h-291 q1 -14 1 -37q0 -56 -28 -56t-28 63q0 19 1 30h-895q-24 0 -41.5 -86.5t-17.5 -138.5t24 -186.5t24 -210t-59 -75.5q-64 0 -64 78zM1140 -436q0 43 16.5 105.5t17.5 67.5q2 -10 10 -41t12 -48q12 -51 12 -92t-34 -41t-34 49z" />
<glyph unicode="m" horiz-adv-x="2407" d="M134 1351l20 21q42 -40 100 -40h641q61 0 90 43l26 -19q-18 -23 -18 -66t32 -127.5t70 -160.5q103 -204 103 -332h14q0 133 102 333q102 198 102 298q0 30 -19 55l27 19q29 -43 90 -43h641q60 0 100 40l20 -21q-39 -39 -39 -100v-1170q0 -73 -1 -100l-20 -20 q-20 39 -60 39h-335q-50 0 -50 -207q0 -36 14.5 -105.5t14.5 -102.5t-12.5 -50t-30.5 -17t-31.5 17.5t-13.5 48.5t12.5 99.5t12.5 100.5l3 297v775q0 63 10 120l-7 1q-20 -98 -106 -307t-159 -393t-73 -248l4 -227q1 -60 24 -180.5t23 -173t-17 -78t-38.5 -25.5t-36 23.5 t-14.5 78.5t14 181t14 182.5t-6 94t-14.5 62t-24.5 42t-30 26.5t-36 14q-39 9 -74 9q-66 0 -116 -33q-47 -31 -47 -77l12 -109q0 -37 -27 -37t-27 40l17 187q0 67 -73.5 248.5t-159.5 388.5t-105 311l-6 -1q10 -57 10 -120v-988q0 -17 15.5 -135t15.5 -167t-20.5 -75.5 t-47.5 -26.5t-46.5 25t-19.5 68.5t15.5 153t15.5 151.5l1 29q0 26 -13 38q-26 25 -201.5 25t-175.5 -2l3 -132q0 -23 -22.5 -23t-22.5 21l6 139v1294q0 62 -39 100z" />
<glyph unicode="n" horiz-adv-x="2009" d="M112 1383l21 21q81 -72 197 -72h299q64 0 108.5 15.5t71.5 61.5l33 -16q-26 -62 -26 -117q0 -45 158 -226q206 -236 265 -317t77 -131h60q-49 72 -49 203q0 61 15 182.5t15 182.5q0 164 -104 213l21 21q81 -72 197 -72h205q116 0 197 72l20 -21q-71 -80 -71 -197 l-2 -1221q0 -43 20 -128.5t20 -128.5q0 -64 -49 -64t-49 64q0 42 19 123.5t19 112t-20 43.5t-39 13h-395q-84 0 -84 -153q0 -63 23.5 -182.5t23.5 -180.5q0 -87 -65 -87t-65 88q0 56 25.5 163t26.5 161l2 133v21q0 75 -19 100l-479 607q-19 25 -42 104l-61 -2 q52 -54 52 -120v-571l19 -506q0 -16 -9.5 -27.5t-26 -11.5t-27.5 13.5t-11 30.5l12 384q0 12 -9 22t-21 10q-26 0 -26 -40t13.5 -131t13.5 -125q0 -76 -37.5 -76t-37.5 66l24 271q0 32 -36 53q-59 33 -144 33q-114 0 -157 -45q-19 -20 -19 -58.5t23 -134.5t23 -135.5 t-14.5 -63t-42.5 -23.5t-43 23.5t-15 63.5t24.5 138t24.5 148l-1 1226q0 118 -72 197z" />
<glyph unicode="o" horiz-adv-x="1986" d="M76 677q0 518 522 654q169 44 349.5 44t307 -20t245 -70.5t202 -128t133.5 -200t50 -279.5q0 -320 -180 -495.5t-506 -215.5q-4 -7 -4 -22l5 -55q0 -51 -28 -51t-28 49l3 56q0 30 -43 30q-4 -9 -4 -34l5 -97q0 -30 -11 -58t-37 -28q-46 0 -46 82l7 96q0 25 -24 38.5 t-52 13.5t-50 -15t-22 -43v-230q0 -50 21 -147t21 -138.5t-18 -68.5t-49.5 -27t-47.5 28t-16 73t23 156t23 172q0 247 -92 247q-124 0 -124 10v-2q0 -69 30.5 -202.5t30.5 -191.5t-21 -95.5t-64.5 -37.5t-68 36t-24.5 93.5t29 197t29 211.5q-237 75 -356.5 245t-119.5 420z M633 676q0 -366 348 -366t348 366q0 168 -90 257t-258 89t-258 -89t-90 -257z" />
<glyph unicode="p" horiz-adv-x="1901" d="M134 -441q0 45 22 159t22 160l-2 203v1174q0 61 -38 99l20 20q38 -38 99 -38h863q207 0 280.5 -12t128.5 -26.5t92 -34.5t76 -51t62 -70q53 -90 53 -201.5t-24.5 -190t-78.5 -140.5q-112 -130 -381 -130h-551q-62 0 -100 38l-21 -19q40 -40 40 -100v-318q0 -77 -2 -189 l-45 -4q-13 112 -34 112h-358q-12 0 -19.5 -48.5t-7.5 -93t19 -151.5t19 -150q0 -92 -67 -92t-67 94zM393 -304q0 36 18.5 125.5t18.5 117t-0.5 70.5t-0.5 72l45 -53q-7 0 -12.5 -32.5t-5.5 -63.5l26 -237q0 -61 -44.5 -61t-44.5 62zM656 763l21 -21q39 39 100 39h324 q101 0 121 11.5t34 23.5q24 22 24 63t-8.5 60.5t-24.5 30.5t-32 18t-39 10q-32 4 -71 4h-328q-62 0 -100 38l-21 -19q40 -40 40 -100v-59q0 -59 -40 -99z" />
<glyph unicode="q" horiz-adv-x="2019" d="M79 701q0 431 363 599q216 100 543 100q699 0 859 -432q44 -118 44 -267q0 -276 -143 -431q-43 -46 -95 -51l1 -26q6 1 35.5 1t70.5 -28l128 -86q44 -30 95 -31l11 1l2 -25q-56 -4 -102 -44l-185 -158q0 -31 12 -92t12 -91q0 -61 -43.5 -61t-43.5 60q0 28 12.5 83 t12.5 96.5t-25 41.5q-19 0 -27.5 -28.5t-8.5 -71.5t14 -163.5t14 -180.5t-42 -60q-48 0 -48 64l15 230q0 167 -90 229l-146 99q-44 31 -44 62q0 11 2 18l-37 9q-6 -28 -22.5 -39.5t-85 -21.5t-155.5 -10t-168 7t-175 27t-171.5 52t-151.5 87t-125 127q-112 157 -112 405z M633 706q0 -364 352 -364t352 364q0 174 -94 260.5t-257 86.5t-258 -86.5t-95 -260.5zM1653 -832q0 49 15.5 108t18.5 72q3 -14 13 -56q21 -81 21 -127t-34 -46t-34 49z" />
<glyph unicode="r" horiz-adv-x="2066" d="M138 1354l20 20q39 -38 99 -38h896q210 0 282.5 -12.5t127 -26.5t92 -34.5t76 -51t61.5 -69.5q53 -89 53 -189t-15.5 -163.5t-51.5 -119.5q-78 -121 -274 -121l-8 -23q63 -25 84 -69q88 -192 130 -243.5t78 -82.5t103 -63t81 -41.5t14 -15.5q0 -100 27 -257t27 -202 t-3.5 -65t-15.5 -39.5t-35 -19.5t-34.5 33t-11.5 81t13 171.5t13 186.5q0 125 -81 125q-40 0 -59.5 -14t-19.5 -57.5t18 -138.5t18 -143.5t-37 -48.5t-37 49l22 207q0 127 -102 193q-92 60 -193 59q-11 -1 -23 -1q-113 -8 -158 -76q-23 -33 -23 -78l-5 -268q0 -55 17 -163.5 t17 -163.5q0 -97 -55 -97t-55 94q0 62 18 178t20.5 176t2.5 256q0 52 -32 120t-101 187t-113 210l-30 17q-24 -44 -85 -44l-84 -3q-86 0 -129 42l-21 -20q3 -37 3 -158l-1 -245q0 -110 4 -162l19 -147q0 -41 -28 -41t-28 38l16 124q0 45 -26.5 71.5t-69 26.5t-75 -37.5 t-32.5 -97.5t22 -162.5t22 -147.5q0 -94 -67 -94t-67 92q0 43 19.5 150t19.5 170t-29 103.5t-66 40.5t-63 -25.5t-26 -63.5l27 -237q0 -61 -45 -61t-45 62q0 36 19 126q18 85 18 134v5q-1 50 -1 1294q0 62 -38 99zM656 754l21 -20q43 44 178 44l253 -9q101 0 156.5 26.5 t55.5 97.5q0 45 -31 70.5t-75 33t-112 7.5l-236 -7q-145 0 -189 43l-21 -19q40 -39 40 -100v-67q0 -60 -40 -100z" />
<glyph unicode="s" horiz-adv-x="1887" d="M48 436l15 21q45 -30 97.5 -30t134.5 4t185 9.5t147 7.5t65 12.5t30 38.5l45 -15q-3 -8 -3 -21q0 -33 55 -75t199 -42q97 0 138 33q18 15 18 36q0 49 -54 65t-130.5 27.5t-153 18.5t-165.5 20t-168 28.5t-153.5 45.5t-127.5 70.5t-85.5 104t-32.5 144.5t25.5 148 t69.5 115t106.5 85t131 60t149.5 37q141 26 266 26t190.5 -3.5t154 -13t160 -31t141.5 -54.5q146 -68 205 -211q24 -51 66 -95l-13 -23q-42 29 -97 29h-13q-80 -3 -228.5 -11.5t-191 -10.5t-61 -12t-26.5 -38l-44 12q3 9 3 19q0 42 -68 72.5t-154 30.5q-168 0 -168 -66 q0 -59 252 -86q59 -7 134 -14q261 -27 400 -71q292 -92 292 -351q0 -106 -44 -190.5t-114.5 -137.5t-166.5 -88q-173 -63 -395 -63q-60 0 -71 1q-54 0 -54 -83v-24q0 -27 13.5 -79.5t13.5 -78.5q0 -53 -37 -53q-19 0 -29.5 16t-10.5 40t12.5 81.5t12.5 83.5t-0.5 36.5t-3 26 t-8.5 22.5q-14 18 -48 18q-62 0 -62 -108l6 -164q0 -66 -19 -66t-19 36l10 101v187q-269 14 -402 73.5t-196 149.5q-38 53 -58.5 118.5t-67.5 98.5z" />
<glyph unicode="t" horiz-adv-x="1667" d="M54 974q38 38 38 99l5 128q0 110 -43 152l20 20q40 -39 99 -39h1313q61 0 100 39l20 -20q-38 -38 -38 -100l-5 -128q0 -108 43 -151l-20 -21q-45 46 -146 46l-221 -14q-105 0 -151 46l-21 -20q39 -38 39 -100v-830q0 -104 18.5 -310t18.5 -271q0 -114 -41 -114t-41 81 t13.5 219.5t13.5 208.5q0 109 -43 109q-21 0 -33 -25t-12 -49l23 -209q0 -72 -41 -72q-21 0 -31 21t-10 49t18 91.5t18 103.5t-34.5 61t-87 21t-109 -21t-99.5 -65.5t-43 -88t13.5 -105.5t13.5 -103.5t-37 -41.5q-42 0 -42 44.5t16 112.5t16 102v260q2 548 2 821 q0 63 38 100l-20 20q-44 -45 -146 -45l-215 13q-103 0 -149 -46zM928 -696q0 90 26 194q24 -110 24 -191q0 -35 -25 -35t-25 32z" />
<glyph unicode="u" horiz-adv-x="1887" d="M106 1334l21 20q37 -38 99 -38h354q61 0 99 38l21 -20q-38 -39 -38 -99l2 -514q0 -149 8 -189t17.5 -73.5t23 -53.5t34.5 -42.5t48 -34.5q63 -28 123.5 -28t94 5.5t59 18t46 27t35 37t25.5 43t17.5 51.5t10.5 54.5t6 59.5q3 55 3 125l2 514q0 61 -37 99l19 20 q38 -38 100 -38h354q63 0 100 38l20 -20q-41 -42 -41 -204l9 -511q0 -267 -66 -391q-62 -118 -177 -177q-131 -68 -348 -88v-187l10 -103q0 -34 -19 -34t-19 66l6 163q0 108 -67 108q-52 0 -52 -85l5 -87q0 -30 12.5 -87.5t12.5 -81.5t-10 -40t-29 -16t-28.5 16.5t-9.5 39.5 t13.5 75.5t13.5 67.5v30q0 16 -1 32t-5 40q-8 50 -48 50q-74 0 -74 -146v-46q0 -37 18 -108t18 -102q0 -77 -50 -77q-25 0 -39.5 21t-14.5 54t16.5 112t16.5 120v199q-284 13 -426 83q-248 120 -255 456q-2 93 -2 277l2 462q0 59 -39 99zM1108 -553q0 48 14.5 81.5 t17.5 33.5t11 -18q23 -52 23 -99t-33 -47t-33 49z" />
<glyph unicode="v" horiz-adv-x="1760" d="M-13 1383l13 19q47 -31 108 -31h349q61 0 88 42l29 -18q-17 -22 -17 -42.5t27.5 -92.5t72.5 -180.5t84.5 -201.5t83.5 -195t49 -114q5 12 49 114t83.5 195t84.5 202q100 241 100 268t-16 47l28 18q27 -42 88 -42h350q62 0 109 31l12 -19q-49 -33 -71 -87l-503 -1190 q-13 -30 -13 -144t23.5 -253.5t23.5 -207.5q0 -97 -69.5 -97t-69.5 96q0 65 25 192.5t25 233.5t-26 106h-484q-16 0 -16 -74l15 -220q0 -33 -30 -33q-15 0 -24 10.5t-9 39.5t14 113.5t14 148t-33 138.5l-496 1141q-22 54 -71 87z" />
<glyph unicode="w" horiz-adv-x="2587" d="M12 1367l14 20q48 -33 107 -33h367q62 0 92 42l26 -20q-21 -27 -21 -71t31 -139.5t68 -183.5q98 -236 98 -375h13q0 133 118.5 376.5t118.5 340.5q0 27 -18 53l26 20q30 -43 91 -43h283q60 0 90 43l27 -20q-19 -25 -19 -65t36.5 -136.5t80.5 -187.5q118 -244 120 -381h13 q0 143 98 374.5t98 336.5q0 33 -19 58l26 20q30 -42 92 -42h367q59 0 107 33l13 -20q-44 -30 -65 -91q-7 -21 -61 -171t-108 -303.5t-112 -323.5q-133 -385 -133 -421t19 -61l-27 -20q-30 43 -91 43l-371 1q-62 0 -91 -42l-27 18q18 24 18 66.5t-34 135t-75 177.5 q-108 228 -108 358h-12q0 -132 -109 -359.5t-109 -322.5q0 -32 19 -55l-27 -18q-29 42 -91 42l-370 -1q-59 0 -59 -35l17 -245q0 -25 -12 -46t-35 -21q-40 0 -40 59t14 158.5t14 141.5t-6 64l-406 1181q-22 61 -66 91z" />
<glyph unicode="x" horiz-adv-x="1832" d="M-21 4q57 28 93 73l483 583q39 46 93 46v31q-53 0 -90 49l-392 502q-37 48 -90 74l8 16q52 -26 113 -26l446 -2q61 0 83 45l32 -16q-10 -23 -10.5 -42t25.5 -52l116 -150q36 -46 36 -105h25q0 58 37 105l116 150q24 32 24 52.5t-9 41.5l32 16q22 -45 83 -45l435 2 q60 0 114 25l7 -15q-53 -26 -91 -73l-411 -504q-38 -47 -92 -47v-32q54 0 91 -47l459 -582q35 -45 91 -73l-8 -16q-52 26 -113 26h-462q-44 0 -69 -29t-25 -104.5t21 -260.5t21 -246.5t-23.5 -88.5t-54 -27t-52 23.5t-21.5 82t34.5 255.5t34.5 271l1 190l-159 226 q-36 53 -36 106h-25q0 -57 -35 -106l-163 -226q-23 -33 -23 -52t11 -41l-33 -17q-24 44 -84 44h-472q-60 0 -114 -25z" />
<glyph unicode="y" horiz-adv-x="1780" d="M-6 1350l9 17q50 -28 113 -28l403 2q60 0 85 43l31 -17q-13 -24 -13 -52.5t40.5 -97.5t89 -134t89 -144t40.5 -137h21v8q0 94 130 274t130 241q0 16 -14 42l31 17q25 -43 86 -43l379 -2q62 0 112 28l9 -17q-54 -32 -83 -80l-512 -826q-26 -43 -53 -43q-11 0 -23 4 l-12 -37q48 -15 48 -100l-6 -139q0 -96 42 -138l-21 -20q-39 39 -99 39h-234q-64 0 -64 -181l15 -186q0 -35 -21.5 -35t-21.5 38l11 196q0 168 -42 168t-42 -106v-29q0 -43 19.5 -128t19.5 -129q0 -68 -50.5 -68t-50.5 68q0 46 21 134t21 134l-2 408q0 31 8.5 48t35.5 25 l-10 38q-14 -4 -24.5 -4t-21.5 7q-13 9 -30 36l-507 826q-30 49 -82 80z" />
<glyph unicode="z" horiz-adv-x="1866" d="M66 292l15 34q23 -9 41.5 -8.5t48.5 26.5l700 602q48 40 102 60l-5 14q-57 -21 -117 -21h-592q-60 0 -100 -40l-20 21q39 39 39 100v171q0 61 -39 100l20 21q40 -40 100 -40h1377q59 0 99 40l21 -21q-39 -39 -39 -100v-155q0 -32 9 -50.5t35 -31.5l-15 -33q-23 9 -40.5 9 t-51.5 -27l-676 -568q-43 -36 -102 -58l4 -14q57 21 116 21h610q62 0 100 38l19 -20q-38 -38 -38 -99v-393q0 -63 30 -225t30 -220.5t-18.5 -86.5t-45 -28t-47 28t-20.5 76l26 450q-12 61 -84.5 108.5t-138.5 47.5q-108 0 -108 -185l5 -163q0 -33 13 -97.5t13 -102.5 q0 -85 -54.5 -85t-54.5 80q0 29 20.5 98.5t20.5 88.5v102q0 244 -99 244h-887q-75 0 -100 -26t-25 -81l16 -555q0 -47 -16.5 -73.5t-39.5 -26.5t-38.5 26t-15.5 88.5t21.5 259.5t21.5 274l-2 195v130q0 32 -9 50.5t-35 30.5z" />
<glyph unicode="{" horiz-adv-x="1090" d="M65 666q64 0 97 16q68 33 68 214q0 346 93 484q63 94 158 125q89 29 228 29l367 -9l-2 -342q-139 0 -192.5 -24t-73.5 -57q-42 -65 -42 -179t-15 -172t-50.5 -95t-81 -57t-119.5 -36q115 -25 161 -56t65 -65q40 -72 40 -188t14.5 -171.5t53.5 -86.5t93 -41t146 -10 l2 -342l-367 -10q-223 0 -317 76q-85 69 -121 192q-41 143 -41 370q0 181 -67 215q-32 16 -96 16z" />
<glyph unicode="|" horiz-adv-x="637" d="M159 -1q17 52 24 171v996q-8 128 -18 166h315q-19 -57 -25 -166v-996q8 -134 18 -171h-314z" />
<glyph unicode="}" horiz-adv-x="1101" d="M31 -397l1 342q92 0 146 10t93.5 41t54 86.5t14.5 138.5t10.5 135t29.5 86t54 58q57 38 172 63q-74 16 -119.5 36t-81.5 57q-66 68 -66 240q0 93 -14.5 148.5t-53.5 87t-93 41.5t-146 10l-1 342l366 9q223 0 317 -76q85 -69 120 -192q42 -143 42 -370q0 -145 38 -190 q21 -24 49.5 -32t76.5 -8v-204q-64 0 -96 -16q-67 -34 -67 -215q0 -346 -93 -485q-63 -93 -158 -124q-89 -29 -228 -29z" />
<glyph unicode="~" horiz-adv-x="1355" d="M124 1206q0 80 23.5 155t67.5 116q83 77 219 77q129 0 256.5 -58t167.5 -58q54 0 54 90l347 -2q2 -50 2 -115t-20.5 -141.5t-58.5 -118.5q-72 -78 -197 -78q-171 0 -304.5 61t-162.5 61q-44 0 -44 -101l-347 3q-3 29 -3 109z" />
<glyph unicode="&#xa1;" horiz-adv-x="710" d="M89 20q24 24 29.5 47.5t10.5 51.5l129 671q10 51 -39 100l21 21q40 -40 100 -40h39q59 0 99 40l21 -21q-48 -48 -39 -100l122 -671q2 -5 4 -20.5t4.5 -25.5t4.5 -14.5t6 -12.5q7 -14 19 -26l-20 -21q-39 39 -99 39h-291q-61 0 -100 -39zM162 1080v234q0 44 17 51t105 7 h144q87 0 104.5 -7.5t17.5 -50.5v-234q0 -44 -17 -51t-105 -7h-144q-88 0 -105 7t-17 51z" />
<glyph unicode="&#xa2;" horiz-adv-x="1958" d="M82 679q0 283 183 447q205 184 621 206l-1 225q47 -19 95 -19t95 19l1 -224q671 -22 753 -362q12 -60 54 -94l-17 -22q-43 31 -104 31l-385 -25q-67 -7 -87 -49l-33 16q11 24 11 39q0 74 -192 104v-621q78 16 140 55t62 82q0 17 -10 39l32 18q24 -46 76.5 -50t139.5 -12 q178 -15 283 -15q49 0 92 32l17 -22q-36 -26 -58 -106.5t-99 -152.5t-187 -116q-220 -88 -488 -98v-279q-47 19 -95 19t-95 -19v271q-378 0 -591 172.5t-213 510.5zM631 669.5q0 -124.5 66 -211t189 -113.5v637q-121 -17 -188 -102.5t-67 -210z" />
<glyph unicode="&#xa3;" horiz-adv-x="1949" d="M67 -19q43 43 43 153l-5 130q0 63 -38 100l20 20q49 -49 168 -49q34 0 65 -29l19 21q-38 38 -38 99v95h-70q-29 0 -78 -8t-50 -8v234q56 -14 171 -14h28q17 398 323 557q178 93 431 93q402 0 618 -192q115 -102 145 -231q18 -60 64 -92l-15 -21q-54 31 -107 31l-390 -4 q-64 -3 -86 -48l-33 16q8 12 8 36q0 76 -58.5 119.5t-137.5 43.5t-133 -43q-98 -80 -109 -265h131q116 0 167 14v-234q-4 0 -49.5 8t-74.5 8h-175v-95q0 -60 -39 -99l20 -21q51 51 223 51l547 -24q171 0 222 51l21 -20q-39 -38 -39 -100l-5 -130q0 -109 44 -153l-21 -20 q-38 39 -99 39h-292q1 -14 1 -37q0 -56 -28 -56t-28 63q0 19 1 30h-1162q-62 0 -100 -39zM1338 -436q0 40 16 102.5t18 70.5q1 -6 10 -40.5t12 -48.5q11 -54 11 -93.5t-33.5 -39.5t-33.5 49z" />
<glyph unicode="&#xa4;" horiz-adv-x="1252" d="M102 398q57 29 137 103l92 93q-66 95 -66 222t64 224l-90 89q-80 74 -137 103l102 104q22 -40 109 -134l86 -87q94 73 226.5 73t227.5 -74l91 91q90 104 105 131l103 -104q-51 -28 -134 -101l-95 -93q64 -98 64 -223t-66 -220l97 -96q83 -73 134 -101l-103 -104 q-15 27 -105 131l-95 94q-91 -69 -223.5 -69t-221.5 68l-91 -90q-87 -94 -109 -134zM394 819q0 -65 25 -121.5t79 -94t128 -37.5t128 37.5t79 94t25 121.5t-25 121.5t-79 94t-128 37.5t-128 -37.5t-79 -94t-25 -121.5z" />
<glyph unicode="&#xa5;" horiz-adv-x="1743" d="M-12 1350l10 17q50 -28 111 -28l379 2q62 0 87 43l30 -17q-12 -22 -12 -49t40.5 -96.5t88.5 -137.5q130 -182 130 -274v-8h21q0 106 129 281t129 242q0 18 -13 42l31 17q25 -43 86 -43l404 -2q61 0 111 28l9 -17q-52 -31 -82 -80l-344 -561h136q60 0 89 7v-177 q-25 4 -66 4h-260l-55 -89h292q55 0 89 8v-178q-25 4 -66 4h-364l-1 -402q0 -46 21 -134t21 -134q0 -68 -51 -68t-51 68q0 43 20 128.5t20 128.5q0 135 -42 135t-42 -168l11 -196q0 -38 -21.5 -38t-21.5 35l14 186q0 181 -63 181h-235q-60 0 -99 -39l-21 20q43 43 43 138 l-7 139v20h-352q-43 0 -68 -4v178q34 -8 91 -8h283l-55 89h-251q-43 0 -68 -4v177q29 -7 91 -7h125l-347 561q-29 48 -84 80z" />
<glyph unicode="&#xa6;" horiz-adv-x="735" d="M168 -55q0 2 4 12q10 30 10 75v524q0 45 -7 66t-7 22t2.5 1t13.5 -2q33 -6 79 -6h209q46 0 68 4t24 4t2 -1t-3 -11q-9 -30 -9 -77v-524q0 -47 4 -68t4 -23t-2 -2t-12 3q-30 9 -76 9h-209q-46 0 -68 -4t-24.5 -4t-2.5 2zM168 1542.5q0 1.5 2.5 1.5t13.5 -2q38 -7 79 -7 h209q40 0 65 4.5t27 4.5t2 -1t-3 -11q-9 -32 -9 -78v-523q0 -46 6 -66t6 -21.5t-2 -1.5t-13 2q-33 6 -79 6h-209q-49 0 -87 -20q-1 0 -1 2l7 99v523q0 45 -7 66t-7 22.5z" />
<glyph unicode="&#xa7;" horiz-adv-x="1493" d="M131 274l10 17q40 -24 101 -24l266 10q33 2 48 10t19 33l39 -8q-4 -8 -4 -18q0 -52 47 -86t109 -34q151 0 151 73q0 47 -155 73q-68 11 -150.5 23t-165.5 34.5t-151.5 55t-111.5 90.5t-43 136q0 112 90 186q-97 67 -97 181q0 147 95 220q62 49 121.5 64.5t95.5 21.5 t85 10q64 4 147.5 4t124 -1t100.5 -5t100 -11.5t88.5 -22t81.5 -34.5q78 -49 117 -125q23 -44 71 -75l-10 -17q-39 23 -101 23l-266 -10q-33 -2 -48.5 -10t-19.5 -32l-39 7q5 12 5 18q0 45 -47 75t-109 30q-152 0 -152 -107q0 -41 155 -64q68 -10 151 -20.5t166 -30 t151.5 -47.5t111.5 -79.5t43 -120.5q0 -112 -90 -187q97 -85 97 -229q0 -161 -156 -233q-119 -55 -406 -55q-201 0 -253.5 9t-98 19t-77.5 26t-65 38q-64 43 -101 123q-25 48 -70 76zM606 668q0 -18 33.5 -27.5t104.5 -18.5h29q112 0 112 55q0 19 -52 33t-95 14t-64.5 -3 t-44.5 -16.5t-23 -36.5z" />
<glyph unicode="&#xa8;" horiz-adv-x="1297" d="M132 1127v193q0 44 17.5 51t105.5 7h110q88 0 105.5 -7t17.5 -51v-193q0 -44 -17.5 -51t-105.5 -7h-110q-88 0 -105.5 7t-17.5 51zM819 1127v193q0 44 17 51t105 7h112q88 0 105 -7t17 -51v-193q0 -44 -17 -51t-105 -7h-112q-88 0 -105 7t-17 51z" />
<glyph unicode="&#xa9;" horiz-adv-x="2076" d="M92 612q0 316 184 560q185 247 465 340q145 48 299 48t299 -48t261.5 -135.5t203.5 -204.5q184 -244 184 -541t-147.5 -527.5t-390.5 -346.5q-21 -5 -84 -25t-95 -25q0 -92 24 -273.5t24 -241.5t-14.5 -83.5t-42.5 -23.5t-43 23.5t-15 75.5t16.5 203.5t16.5 203t-5 69.5 t-12 27.5t-24 14.5q-21 5 -60 5t-63.5 -2t-52.5 -11.5t-28 -23.5l24 -272q0 -66 -38 -66t-38 55t13.5 146.5t13.5 131t-25 39.5t-56 -7.5t-31 -24.5l11 -432q0 -17 -11 -31t-27 -14t-25.5 12t-9.5 28l19 474q-42 6 -99.5 26t-69.5 24q-248 114 -399.5 342.5t-151.5 510.5z M204 612q0 -171 66 -325.5t178 -266.5t267 -178t325.5 -66t325.5 66t267 178t178.5 266.5t66.5 325t-66.5 325.5t-178.5 267.5t-267 179t-326 66.5q-227 0 -419.5 -112.5t-304.5 -305.5t-112 -420zM325 628q0 352 311 480q170 71 413 71q591 0 660 -338q10 -51 42 -76 l-13 -17q-33 24 -75 24h-8l-305 -19q-54 -5 -69 -39l-26 12q9 23 9 48t-27 55.5t-69 45.5q-83 29 -160 29q-117 0 -183 -79.5t-66 -207t74 -208.5t208 -81q43 0 96 21t94 61.5t41 84.5q0 11 -8 31l26 13q16 -34 58.5 -37.5t111.5 -9.5q140 -12 203 -12t95 24l13 -17 q-31 -23 -47 -88.5t-68 -127t-119.5 -98.5t-152.5 -61q-148 -42 -276.5 -43t-202 4.5t-151.5 21.5t-139 42t-117 69t-93 100q-80 125 -80 322z" />
<glyph unicode="&#xaa;" horiz-adv-x="1742" d="M90 317q0 318 759 318q82 0 158 -6t120 -39l14 18q-47 34 -70 96q-15 42 -65 57t-207 15t-349 -51q-56 -15 -76 -63l-29 13q19 51 -9 98q-10 16 -32 51.5t-32 51.5q-32 54 -84 74l9 23q57 -22 111 -5q112 32 270.5 50.5t325 18.5t271.5 -17q377 -61 377 -363v-334 q0 -51 29.5 -74t72.5 -1l13 -25q-44 -22 -44 -69v-73q0 -60 40 -100l-21 -20q-39 39 -100 39h-133q-48 0 -74.5 1t-39 2.5t-35.5 5t-35 8.5t-30 13t-29 18q-72 59 -64 148l-20 2q-5 -54 -38 -88q-65 -70 -170 -106.5t-278 -36.5q-370 0 -474 205q-32 63 -32 145zM596 315 q0 -108 187 -108q229 0 288 139q29 70 83 105l-17 25q-52 -33 -109.5 -29.5t-105.5 3.5q-326 0 -326 -135z" />
<glyph unicode="&#xab;" horiz-adv-x="1817" d="M149 491v352q0 19 31 39l603 370q36 21 58 60l13 -7q-21 -36 -21 -82l2 -294q0 -44 32 -62l-13 -23q-22 9 -31 9q-49 0 -175.5 -94t-205.5 -94v-15h5q46 0 124 -47.5t149.5 -95t92.5 -47.5t41 10l13 -23q-32 -18 -32 -63l-2 -276q0 -44 21 -82l-13 -7q-22 39 -58 60 l-603 375q-14 9 -22.5 15.5t-8.5 21.5zM1013 491v352q0 19 31 39l603 370q36 21 58 60l13 -7q-21 -36 -21 -82l2 -294q0 -44 32 -62l-13 -23q-22 9 -31 9q-49 0 -175.5 -94t-205.5 -94v-15h5q46 0 124 -47.5t149.5 -95t92.5 -47.5t41 10l13 -23q-32 -18 -32 -63l-2 -276 q0 -44 21 -82l-13 -7q-22 39 -58 60l-603 375q-14 9 -22.5 15.5t-8.5 21.5z" />
<glyph unicode="&#xac;" horiz-adv-x="1119" d="M136 553v331q52 -13 333 -13l364 -1l123 1v-526q0 -68 7 -129h-169q13 52 13 171v172h-543q-75 0 -128 -6z" />
<glyph unicode="&#xad;" horiz-adv-x="1127" d="M161 553v331q52 -13 171 -13h483q114 0 166 13v-331q-52 6 -123 6h-568q-76 0 -129 -6z" />
<glyph unicode="&#xae;" horiz-adv-x="2076" d="M92 612q0 316 184 560q185 247 465 340q145 48 299 48t299 -48t261.5 -135.5t203.5 -204.5q184 -244 184 -541t-147.5 -527.5t-390.5 -346.5q-21 -5 -84 -25t-95 -25q0 -92 24 -273.5t24 -241.5t-14.5 -83.5t-42.5 -23.5t-43 23.5t-15 75.5t16.5 203.5t16.5 203t-5 69.5 t-12 27.5t-24 14.5q-21 5 -60 5t-63.5 -2t-52.5 -11.5t-28 -23.5l24 -272q0 -66 -38 -66t-38 55t13.5 146.5t13.5 131t-25 39.5t-56 -7.5t-31 -24.5l11 -432q0 -17 -11 -31t-27 -14t-25.5 12t-9.5 28l19 474q-42 6 -99.5 26t-69.5 24q-248 114 -399.5 342.5t-151.5 510.5z M204 612q0 -171 66 -325.5t178 -266.5t267 -178t325.5 -66t325.5 66t267 178t178.5 266.5t66.5 325t-66.5 325.5t-178.5 267.5t-267 179t-326 66.5q-227 0 -419.5 -112.5t-304.5 -305.5t-112 -420zM480 1127l15 14q27 -27 67 -27h611q149 0 195.5 -8t84 -18t62.5 -23.5 t52 -34.5t43 -48q35 -60 35 -122.5t-6 -98t-22.5 -70t-42.5 -58.5q-57 -54 -162 -54l-6 -16q43 -17 59 -51q37 -80 114 -210l79 -144h-418q-79 202 -158 370h-244v-370h-330q-1 78 -1 901q0 42 -27 68zM835 717l13 -13q29 30 122 30l173 -6q68 0 106.5 18t38.5 64.5t-39 62 t-110 15.5l-162 -4q-99 0 -129 30l-13 -14q26 -26 26 -68v-46q0 -42 -26 -69z" />
<glyph unicode="&#xaf;" horiz-adv-x="1127" d="M161 553v331q52 -13 171 -13h483q114 0 166 13v-331q-52 6 -123 6h-568q-76 0 -129 -6z" />
<glyph unicode="&#xb0;" horiz-adv-x="920" d="M103 1734q0 71 23 135.5t66 117.5t113.5 84.5t158.5 31.5t158.5 -31.5t113.5 -84.5q88 -108 88 -253q0 -184 -128 -292q-92 -78 -232 -78q-178 0 -272 116q-89 110 -89 254zM232 1734q0 -65 25 -121.5t79 -94t128 -37.5t128 37.5t78.5 94t24.5 121.5t-24.5 121.5 t-78.5 94t-128 37.5t-128 -37.5t-79 -94t-25 -121.5z" />
<glyph unicode="&#xb1;" horiz-adv-x="1104" d="M124 553v331q52 -13 171 -13h110v115q0 115 -13 167h331q-6 -52 -6 -124v-158h110q114 0 166 13v-331q-53 6 -124 6h-152v-147q0 -76 6 -128h-331q13 52 13 170v105h-152q-77 0 -129 -6zM144 -9v169q48 -12 170 -12h484q118 0 166 12v-169q-52 6 -123 6h-568 q-77 0 -129 -6z" />
<glyph unicode="&#xb2;" horiz-adv-x="1914" d="M80 -17q40 37 46 98q34 440 486 600q165 59 344 87q145 24 189 45.5t63 42t19 45.5t-23.5 43t-59.5 27q-63 16 -146.5 16t-159 -29t-98 -78t4.5 -90l-22 -15q-27 41 -72 41h-426q-61 0 -106 -35l-16 20q46 36 62 106t60 135t107 108.5t136.5 75t161.5 48.5q164 32 291 32 t192 -3t149.5 -14.5t152.5 -30t137.5 -53t115.5 -80.5q106 -104 106 -270q0 -122 -86 -215q-56 -61 -208 -119q-93 -36 -193 -50q-189 -28 -327.5 -47t-233 -53t-146.5 -42l2 -9q69 12 142 12q543 0 953 2q61 0 100 39l19 -20q-38 -38 -38 -100v-172q0 -62 38 -100l-19 -20 q-39 39 -100 39h-1477q-63 0 -101 -37z" />
<glyph unicode="&#xb3;" horiz-adv-x="1855" d="M57 456l17 20q44 -36 106 -36h373q38 0 60 9.5t34 36.5l38 -19q-11 -29 -4 -50t32 -49q69 -78 235 -78q64 0 123 16q111 30 111 97q0 112 -242 112h-333q-60 0 -100 -40l-20 21q39 39 39 100v158q0 54 -39 93l19 19q38 -38 93 -38h334h8q205 0 205 68q0 70 -156 85 q-32 3 -70.5 3t-90 -10.5t-90 -36.5t-30.5 -61l-59 -14q-6 28 -28 37.5t-71 9.5h-319q-62 0 -107 -35l-16 20q44 34 58 92.5t47 104t77.5 77t105.5 54.5t122 36.5t137 21.5q124 13 231 13t167 -3.5t138.5 -13.5t148.5 -26t139.5 -43.5t119.5 -64.5q113 -81 113 -213 t-111 -210q-39 -28 -94 -29v-18q54 3 95 -23q144 -87 144 -267q0 -214 -214 -318q-204 -99 -568 -99q-301 0 -446 34q-176 41 -265 113q-115 95 -142 246q-10 59 -55 98z" />
<glyph unicode="&#xb4;" horiz-adv-x="880" d="M87 1240.5q0 1.5 7 3.5q32 6 76 32l429 250q46 27 60 41t15 14t2 -8q5 -39 22 -81l75 -192q30 -74 30 -77.5t-7 -5t-29 -3t-44 -7.5l-461 -112q-52 -13 -67.5 -21t-16.5 -8q-14 46 -34 84.5t-32.5 57t-18.5 25t-6 8z" />
<glyph unicode="&#xb5;" horiz-adv-x="1941" d="M146 -436q39 39 39 99v874q-2 78 -2 236l2 462q0 59 -39 99l21 20q37 -38 99 -38h354q62 0 100 38l20 -20q-38 -39 -38 -99l2 -514q0 -149 8 -189t17.5 -73.5t23 -53.5t34.5 -42.5t48 -34.5q63 -28 123.5 -28t94 5.5t59 18t46 27t35 37t25.5 43t17.5 51.5t10.5 54.5 t6 59.5q3 55 3 125l2 514q0 60 -38 99l20 20q38 -38 100 -38h354q63 0 100 38l20 -20q-41 -42 -41 -204l10 -511q0 -206 -36 -315q-34 -104 -78.5 -150.5t-89 -77.5t-100.5 -52q-117 -45 -288 -61v-187l10 -103q0 -34 -19 -34t-19 66l6 163q0 79 -31 99q-14 9 -35 9 q-53 0 -53 -85l5 -87q0 -30 12.5 -87.5t12.5 -81.5q0 -56 -38 -56t-38 53q0 26 13 78.5t13 67.5v30q0 16 -1 32t-5 40q-8 50 -48 50q-74 0 -74 -146v-46q0 -37 18.5 -108t18.5 -102q0 -77 -51 -77q-25 0 -39.5 21t-14.5 54t16.5 112t16.5 120v199q-112 10 -229 63v-357 q0 -60 39 -99l-21 -20q-38 38 -99 38h-291q-61 0 -99 -38zM1147 -553q0 48 15.5 81.5t18.5 33.5t11 -18q23 -52 23 -99t-34 -47t-34 49z" />
<glyph unicode="&#xb6;" horiz-adv-x="1891" d="M80 931q0 190 115 281q78 62 150.5 81t115.5 26t105 11q94 6 206 6h862q62 0 100 38l21 -20q-40 -40 -40 -99v-1174l-1 -203q0 -46 21.5 -160t21.5 -159q0 -94 -67 -94t-67 92q0 43 19.5 150t19.5 149q0 1314 -3 1314h-198v-1222q0 -37 18.5 -126.5t18.5 -125.5 q0 -62 -44.5 -62t-44.5 61l26 237q0 49 -5 68h-153q-16 0 -25.5 -41.5t-9.5 -83t22 -150.5t22 -152q0 -87 -64.5 -87t-64.5 89q0 43 20 151.5t20 151.5v521q0 62 38 100l-20 19q-38 -38 -100 -38h-550q-485 0 -485 451z" />
<glyph unicode="&#xb7;" horiz-adv-x="692" d="M160 586v234q0 44 17.5 51t105.5 7h143q88 0 105 -7t17 -51v-234q0 -44 -17 -51t-105 -7h-143q-88 0 -105.5 7t-17.5 51z" />
<glyph unicode="&#xb8;" horiz-adv-x="644" d="M87 -462l21 131q92 -33 138 -33t70 10t35 26q20 29 20 53t-7 41t-24 38q-38 47 -142 47q-25 0 -39 -1v150h184l-26 -66q265 -41 265 -219q0 -116 -70.5 -167t-183 -51t-241.5 41z" />
<glyph unicode="&#xb9;" horiz-adv-x="1009" d="M73 1073l18 28q43 -28 100 -5q135 56 233 129q28 20 37 38t0 46l39 11q9 -27 26.5 -35.5t52.5 -8.5h164q61 0 100 39l21 -21q-40 -40 -40 -99v-1114q0 -60 40 -100l-21 -20q-39 39 -100 39h-317q-61 0 -100 -39l-20 20q39 39 39 100v684q0 8 -1 30t0 33q1 35 16 56 l18 -14q-15 -21 -37.5 -28.5t-42.5 -13t-28.5 -8t-32.5 -9t-33 -9t-28 -9.5t-30 -13q-29 -17 -45 -38l-21 17q36 44 36 105v119q0 61 -43 90z" />
<glyph unicode="&#xba;" horiz-adv-x="1751" d="M119 503q0 92 22 167.5t60.5 130.5t95 96.5t120.5 67.5t143 43q141 29 294.5 29t256 -13t201.5 -49t168 -94q151 -129 165 -378q0 -215 -111 -333q-112 -120 -280 -161q-242 -59 -538 -35q-176 15 -270 54t-150.5 81t-94.5 96.5t-60 130t-22 167.5zM612 499.5 q0 -125.5 69.5 -193.5t200.5 -68t201 68t70 193t-74 194.5t-197 69.5t-196.5 -69t-73.5 -194.5z" />
<glyph unicode="&#xbb;" horiz-adv-x="1817" d="M1013 447l13 23q20 -10 41 -10t92.5 47.5t149.5 95t124 47.5h5v15q-79 0 -205 94t-176 94q-9 0 -31 -9l-13 23q32 18 32 62l2 294q0 46 -21 82l13 7q22 -39 58 -60l603 -370q31 -20 31 -39v-352q0 -15 -8.5 -21.5t-22.5 -15.5l-603 -375q-36 -21 -58 -60l-13 7 q21 38 21 82l-2 276q0 45 -32 63zM149 447l13 23q20 -10 41 -10t92.5 47.5t149.5 95t124 47.5h5v15q-79 0 -205 94t-176 94q-9 0 -31 -9l-13 23q32 18 32 62l2 294q0 46 -21 82l13 7q22 -39 58 -60l603 -370q31 -20 31 -39v-352q0 -15 -8.5 -21.5t-22.5 -15.5l-603 -375 q-36 -21 -58 -60l-13 7q21 38 21 82l-2 276q0 45 -32 63z" />
<glyph unicode="&#xbc;" horiz-adv-x="3658" d="M1869 529l14 34q30 -10 46.5 -4.5t40.5 29.5l610 614q23 23 29 41.5t-5 47.5l34 14q19 -45 80 -45h519q59 0 99 40l20 -21q-38 -38 -38 -100v-547q0 -60 -40 -100l21 -20q39 39 100 39h67q61 0 100 39l20 -20q-39 -39 -39 -100v-200q0 -61 39 -100l-20 -21 q-40 40 -100 40h-76q-60 0 -99 39l-21 -21q39 -39 39 -99v-50q0 -61 39 -100l-20 -20q-39 39 -100 39h-306q-60 0 -99 -39l-21 20q39 39 39 100v50q0 60 39 99l-20 21q-39 -39 -100 -39l-767 2q-61 0 -100 -39l-20 21q39 39 39 99l2 178q0 60 -45 79zM2399 543l6 -15 q57 23 115 23h240q61 0 100 -39l20 20q-39 39 -39 100v251q0 58 23 116l-15 5q-23 -57 -65 -99l-288 -296q-45 -45 -97 -66zM1027 -1q32 54 72 171l299 996q28 127 29 166h356q-36 -61 -72 -166l-298 -996q-28 -112 -31 -171h-355zM73 1073l18 28q43 -28 100 -5 q135 56 233 129q28 20 37 38t0 46l39 11q9 -27 26.5 -35.5t52.5 -8.5h164q61 0 100 39l21 -21q-40 -40 -40 -99v-1114q0 -60 40 -100l-21 -20q-39 39 -100 39h-317q-61 0 -100 -39l-20 20q39 39 39 100v684q0 8 -1 30t0 33q1 35 16 56l18 -14q-15 -21 -37.5 -28.5t-42.5 -13 t-28.5 -8t-32.5 -9t-33 -9t-28 -9.5t-30 -13q-29 -17 -45 -38l-21 17q36 44 36 105v119q0 61 -43 90z" />
<glyph unicode="&#xbd;" horiz-adv-x="3724" d="M1890 -17q40 37 46 98q34 440 486 600q165 59 344 87q145 24 189 45.5t63 42t19 45.5t-23.5 43t-59.5 27q-63 16 -146.5 16t-159 -29t-98 -78t4.5 -90l-22 -15q-27 41 -72 41h-426q-61 0 -106 -35l-16 20q46 36 62 106t60 135t107 108.5t136.5 75t161.5 48.5 q164 32 291 32t192 -3t149.5 -14.5t152.5 -30t137.5 -53t115.5 -80.5q106 -104 106 -270q0 -122 -86 -215q-56 -61 -208 -119q-93 -36 -193 -50q-189 -28 -327.5 -47t-233 -53t-146.5 -42l2 -9q69 12 142 12q543 0 953 2q61 0 100 39l19 -20q-38 -38 -38 -100v-172 q0 -62 38 -100l-19 -20q-39 39 -100 39h-1477q-63 0 -101 -37zM1027 -1q32 54 72 171l299 996q28 127 29 166h356q-36 -61 -72 -166l-298 -996q-28 -112 -31 -171h-355zM73 1073l18 28q43 -28 100 -5q135 56 233 129q28 20 37 38t0 46l39 11q9 -27 26.5 -35.5t52.5 -8.5h164 q61 0 100 39l21 -21q-40 -40 -40 -99v-1114q0 -60 40 -100l-21 -20q-39 39 -100 39h-317q-61 0 -100 -39l-20 20q39 39 39 100v684q0 8 -1 30t0 33q1 35 16 56l18 -14q-15 -21 -37.5 -28.5t-42.5 -13t-28.5 -8t-32.5 -9t-33 -9t-28 -9.5t-30 -13q-29 -17 -45 -38l-21 17 q36 44 36 105v119q0 61 -43 90z" />
<glyph unicode="&#xbe;" horiz-adv-x="4504" d="M2715 529l14 34q30 -10 46.5 -4.5t40.5 29.5l610 614q23 23 29 41.5t-5 47.5l34 14q19 -45 80 -45h519q59 0 99 40l20 -21q-38 -38 -38 -100v-547q0 -60 -40 -100l21 -20q39 39 100 39h67q61 0 100 39l20 -20q-39 -39 -39 -100v-200q0 -61 39 -100l-20 -21 q-40 40 -100 40h-76q-60 0 -99 39l-21 -21q39 -39 39 -99v-50q0 -61 39 -100l-20 -20q-39 39 -100 39h-306q-60 0 -99 -39l-21 20q39 39 39 100v50q0 60 39 99l-20 21q-39 -39 -100 -39l-767 2q-61 0 -100 -39l-20 21q39 39 39 99l2 178q0 60 -45 79zM3245 543l6 -15 q57 23 115 23h240q61 0 100 -39l20 20q-39 39 -39 100v251q0 58 23 116l-15 5q-23 -57 -65 -99l-288 -296q-45 -45 -97 -66zM1873 -1q32 54 72 171l299 996q28 127 29 166h356q-36 -61 -72 -166l-298 -996q-28 -112 -31 -171h-355zM57 456l17 20q44 -36 106 -36h373 q38 0 60 9.5t34 36.5l38 -19q-11 -29 -4 -50t32 -49q69 -78 235 -78q64 0 123 16q111 30 111 97q0 112 -242 112h-333q-60 0 -100 -40l-20 21q39 39 39 100v158q0 54 -39 93l19 19q38 -38 93 -38h334h8q205 0 205 68q0 70 -156 85q-32 3 -70.5 3t-90 -10.5t-90 -36.5 t-30.5 -61l-59 -14q-6 28 -28 37.5t-71 9.5h-319q-62 0 -107 -35l-16 20q44 34 58 92.5t47 104t77.5 77t105.5 54.5t122 36.5t137 21.5q124 13 231 13t167 -3.5t138.5 -13.5t148.5 -26t139.5 -43.5t119.5 -64.5q113 -81 113 -213t-111 -210q-39 -28 -94 -29v-18q54 3 95 -23 q144 -87 144 -267q0 -214 -214 -318q-204 -99 -568 -99q-301 0 -446 34q-176 41 -265 113q-115 95 -142 246q-10 59 -55 98z" />
<glyph unicode="&#xbf;" horiz-adv-x="1501" d="M33 270q0 116 59 201q25 36 67.5 67t79 49.5t91.5 36t91 25.5t91 19.5t70.5 14.5t73.5 17q83 20 115 81q37 71 -26 135l21 20q39 -39 100 -39h296q63 0 102 38l18 -21q-42 -36 -46.5 -107t-27.5 -137q-39 -111 -144 -190q-106 -81 -323 -116q-87 -20 -119.5 -51 t-32.5 -74t41.5 -72.5t118.5 -29.5q110 0 143 83q9 23 9 40t-17 42l23 15q27 -42 72 -42h425q61 0 106 35l16 -19q-43 -34 -59 -96q-19 -89 -68 -157q-159 -220 -605 -220q-761 0 -761 452zM818 1159v234q0 44 17.5 51t105.5 7h144q88 0 104.5 -7t16.5 -51v-234 q0 -44 -16.5 -50.5t-104.5 -6.5h-144q-89 0 -106 6.5t-17 50.5z" />
<glyph unicode="&#xc0;" d="M235 1783.5q0 1.5 6 8.5q19 24 38 72l75 192q17 43 20 67t4 24t7 -7q24 -25 68 -50l430 -250q71 -42 71 -45t-8.5 -9t-18.5 -16q-27 -27 -27 -102l11 -136q0 -16 -8.5 -25.5t-19.5 -9.5q-25 0 -25 32l5 102q0 12 -69 30t-282.5 67t-237.5 51.5t-31.5 2.5t-7.5 1.5z M-9 -239q0 81 20 179.5t35 135.5l480 1181q10 26 10 51t-17 49l28 18q29 -43 90 -43h460q60 0 89 43l29 -18q-17 -24 -17 -46t12 -53l494 -1183q23 -56 71 -88l-12 -19q-49 32 -109 32h-196q2 -22 2 -31q0 -33 -27 -33q-12 0 -21.5 9.5t-9.5 27t2 27.5h-121q-44 0 -57 -48 q-16 -59 -16 -135.5t10 -139.5t10 -86.5t-11.5 -38t-28.5 -14.5t-29 14t-12 39t12.5 97t12.5 108v281q-10 27 -10 50t18 49l-26 19q-30 -43 -90 -43h-411q-60 0 -90 42l-26 -18q19 -27 19 -50t-7 -49v-1q-9 -34 -9 -52t20 -47l-26 -19q-30 42 -90 42h-362q-3 -19 -3 -64 l3 -159q0 -48 -15 -72.5t-36 -24.5q-42 0 -42 81zM637 416l13 -20q47 33 108 33h191q60 0 108 -32l13 19q-47 32 -68 89l-127 325q-22 57 -23 116h-13q-2 -66 -20 -116l-115 -324q-21 -58 -67 -90zM1407 -331q0 69 26 173q29 -120 29 -156q0 -53 -27.5 -53t-27.5 36z" />
<glyph unicode="&#xc1;" d="M792 1671.5q0 1.5 7 3.5q32 6 76 32l429 250q46 27 60 41t15 14t2 -8q5 -39 22 -81l75 -192q30 -74 30 -77.5t-7 -5t-29 -3t-44 -7.5l-461 -112q-52 -13 -67.5 -21t-16.5 -8q-14 46 -34 84.5t-32.5 57t-18.5 25t-6 8zM-9 -239q0 81 20 179.5t35 135.5l480 1181 q10 26 10 51t-17 49l28 18q29 -43 90 -43h460q60 0 89 43l29 -18q-17 -24 -17 -46t12 -53l494 -1183q23 -56 71 -88l-12 -19q-49 32 -109 32h-196q2 -22 2 -31q0 -33 -27 -33q-12 0 -21.5 9.5t-9.5 27t2 27.5h-121q-44 0 -57 -48q-16 -59 -16 -135.5t10 -139.5t10 -86.5 t-11.5 -38t-28.5 -14.5t-29 14t-12 39t12.5 97t12.5 108v281q-10 27 -10 50t18 49l-26 19q-30 -43 -90 -43h-411q-60 0 -90 42l-26 -18q19 -27 19 -50t-7 -49v-1q-9 -34 -9 -52t20 -47l-26 -19q-30 42 -90 42h-362q-3 -19 -3 -64l3 -159q0 -48 -15 -72.5t-36 -24.5 q-42 0 -42 81zM637 416l13 -20q47 33 108 33h191q60 0 108 -32l13 19q-47 32 -68 89l-127 325q-22 57 -23 116h-13q-2 -66 -20 -116l-115 -324q-21 -58 -67 -90zM1407 -331q0 69 26 173q29 -120 29 -156q0 -53 -27.5 -53t-27.5 36z" />
<glyph unicode="&#xc2;" d="M406 1529q51 27 85 79l171 260q18 28 21 47t-11 48l31 16q24 -44 85 -44h189q61 0 85 44l31 -16q-14 -29 -11 -48t21 -47l171 -260q34 -52 85 -79l-10 -16q-49 27 -112 27h-179q-61 0 -90 -43l-27 19q28 44 7 100l-37 93q-21 56 -21 116h-15q0 -60 -21 -116l-37 -93 q-21 -56 7 -100l-28 -19q-29 43 -89 43h-179q-63 0 -112 -27zM-9 -239q0 81 20 179.5t35 135.5l480 1181q10 26 10 51t-17 49l28 18q29 -43 90 -43h460q60 0 89 43l29 -18q-17 -24 -17 -46t12 -53l494 -1183q23 -56 71 -88l-12 -19q-49 32 -109 32h-196q2 -22 2 -31 q0 -33 -27 -33q-12 0 -21.5 9.5t-9.5 27t2 27.5h-121q-44 0 -57 -48q-16 -59 -16 -135.5t10 -139.5t10 -86.5t-11.5 -38t-28.5 -14.5t-29 14t-12 39t12.5 97t12.5 108v281q-10 27 -10 50t18 49l-26 19q-30 -43 -90 -43h-411q-60 0 -90 42l-26 -18q19 -27 19 -50t-7 -49v-1 q-9 -34 -9 -52t20 -47l-26 -19q-30 42 -90 42h-362q-3 -19 -3 -64l3 -159q0 -48 -15 -72.5t-36 -24.5q-42 0 -42 81zM637 416l13 -20q47 33 108 33h191q60 0 108 -32l13 19q-47 32 -68 89l-127 325q-22 57 -23 116h-13q-2 -66 -20 -116l-115 -324q-21 -58 -67 -90z M1407 -331q0 69 26 173q29 -120 29 -156q0 -53 -27.5 -53t-27.5 36z" />
<glyph unicode="&#xc3;" d="M314 1630q0 80 23.5 155t67.5 116q83 77 219 77q129 0 256.5 -58t167.5 -58q54 0 54 90l347 -2q2 -50 2 -115t-20.5 -141.5t-58.5 -118.5q-72 -78 -197 -78q-171 0 -304.5 61t-162.5 61q-44 0 -44 -101l-347 3q-3 29 -3 109zM-9 -239q0 81 20 179.5t35 135.5l480 1181 q10 26 10 51t-17 49l28 18q29 -43 90 -43h460q60 0 89 43l29 -18q-17 -24 -17 -46t12 -53l494 -1183q23 -56 71 -88l-12 -19q-49 32 -109 32h-196q2 -22 2 -31q0 -33 -27 -33q-12 0 -21.5 9.5t-9.5 27t2 27.5h-121q-44 0 -57 -48q-16 -59 -16 -135.5t10 -139.5t10 -86.5 t-11.5 -38t-28.5 -14.5t-29 14t-12 39t12.5 97t12.5 108v281q-10 27 -10 50t18 49l-26 19q-30 -43 -90 -43h-411q-60 0 -90 42l-26 -18q19 -27 19 -50t-7 -49v-1q-9 -34 -9 -52t20 -47l-26 -19q-30 42 -90 42h-362q-3 -19 -3 -64l3 -159q0 -48 -15 -72.5t-36 -24.5 q-42 0 -42 81zM637 416l13 -20q47 33 108 33h191q60 0 108 -32l13 19q-47 32 -68 89l-127 325q-22 57 -23 116h-13q-2 -66 -20 -116l-115 -324q-21 -58 -67 -90zM1407 -331q0 69 26 173q29 -120 29 -156q0 -53 -27.5 -53t-27.5 36z" />
<glyph unicode="&#xc4;" d="M362 1555v193q0 44 17.5 51t105.5 7h110q88 0 105.5 -7t17.5 -51v-193q0 -44 -17.5 -51t-105.5 -7h-110q-88 0 -105.5 7t-17.5 51zM1049 1555v193q0 44 17 51t105 7h112q88 0 105 -7t17 -51v-193q0 -44 -17 -51t-105 -7h-112q-88 0 -105 7t-17 51zM-9 -239q0 81 20 179.5 t35 135.5l480 1181q10 26 10 51t-17 49l28 18q29 -43 90 -43h460q60 0 89 43l29 -18q-17 -24 -17 -46t12 -53l494 -1183q23 -56 71 -88l-12 -19q-49 32 -109 32h-196q2 -22 2 -31q0 -33 -27 -33q-12 0 -21.5 9.5t-9.5 27t2 27.5h-121q-44 0 -57 -48q-16 -59 -16 -135.5 t10 -139.5t10 -86.5t-11.5 -38t-28.5 -14.5t-29 14t-12 39t12.5 97t12.5 108v281q-10 27 -10 50t18 49l-26 19q-30 -43 -90 -43h-411q-60 0 -90 42l-26 -18q19 -27 19 -50t-7 -49v-1q-9 -34 -9 -52t20 -47l-26 -19q-30 42 -90 42h-362q-3 -19 -3 -64l3 -159q0 -48 -15 -72.5 t-36 -24.5q-42 0 -42 81zM637 416l13 -20q47 33 108 33h191q60 0 108 -32l13 19q-47 32 -68 89l-127 325q-22 57 -23 116h-13q-2 -66 -20 -116l-115 -324q-21 -58 -67 -90zM1407 -331q0 69 26 173q29 -120 29 -156q0 -53 -27.5 -53t-27.5 36z" />
<glyph unicode="&#xc5;" d="M513 1810q0 71 23.5 135.5t68 117.5t117 84.5t162.5 31.5t162.5 -31.5t116.5 -84.5t67.5 -117.5t23.5 -135.5t-23.5 -136t-67.5 -118t-116.5 -84.5t-162.5 -31.5t-162.5 31.5t-117 84.5t-68 118t-23.5 136zM692 1810q0 -86 50.5 -149.5t141.5 -63.5t141 63.5t50 149.5 t-50 149.5t-141 63.5t-141.5 -63.5t-50.5 -149.5zM-9 -239q0 81 20 179.5t35 135.5l480 1181q10 26 10 51t-17 49l28 18q29 -43 90 -43h460q60 0 89 43l29 -18q-17 -24 -17 -46t12 -53l494 -1183q23 -56 71 -88l-12 -19q-49 32 -109 32h-196q2 -22 2 -31q0 -33 -27 -33 q-12 0 -21.5 9.5t-9.5 27t2 27.5h-121q-44 0 -57 -48q-16 -59 -16 -135.5t10 -139.5t10 -86.5t-11.5 -38t-28.5 -14.5t-29 14t-12 39t12.5 97t12.5 108v281q-10 27 -10 50t18 49l-26 19q-30 -43 -90 -43h-411q-60 0 -90 42l-26 -18q19 -27 19 -50t-7 -49v-1q-9 -34 -9 -52 t20 -47l-26 -19q-30 42 -90 42h-362q-3 -19 -3 -64l3 -159q0 -48 -15 -72.5t-36 -24.5q-42 0 -42 81zM637 416l13 -20q47 33 108 33h191q60 0 108 -32l13 19q-47 32 -68 89l-127 325q-22 57 -23 116h-13q-2 -66 -20 -116l-115 -324q-21 -58 -67 -90zM1407 -331q0 69 26 173 q29 -120 29 -156q0 -53 -27.5 -53t-27.5 36z" />
<glyph unicode="&#xc6;" horiz-adv-x="2820" d="M-38 -210q0 59 16 133t36 98l1020 1236q39 49 39 70t-3 30l36 18q13 -43 72 -43h460l922 -2q61 0 100 39l20 -21q-43 -43 -43 -152v-65q0 -115 43 -155l-20 -19q-50 51 -235 51l-497 -23q-184 0 -234 51l-20 -20q39 -38 39 -99v-95h1l420 1q156 0 206 50l20 -20 q-44 -40 -44 -160v-34q0 -94 44 -132l-20 -20q-48 50 -204 50l-423 -1v-218l894 -1q61 0 99 39l21 -20q-57 -105 -57 -373q0 -42 19 -162.5t19 -160t-13 -58.5t-31 -19t-31.5 21t-13.5 58l15 221q0 88 -31 132.5t-84 44.5q-118 0 -118 -179q0 -69 20.5 -200t20.5 -164 t-15.5 -50.5t-35 -17.5t-34 16.5t-14.5 44.5l18 319q0 175 -74 175l-77 -2h-768l-5 -2v-29q0 -29 -27 -29t-27 29v29q-86 -9 -112 -63.5t-26 -162t23 -254t23 -220.5q0 -107 -76 -107q-81 0 -81 110q0 75 33 222t33 223l-5 335v70q-29 -1 -86 -1h-412q-59 0 -72 42l-34 -18 q4 -9 4 -31.5t-33 -67.5l-2 -1q-33 -44 -33 -67t4 -32l-33 -19q-13 42 -72 42h-362l-8 -64q2 -102 2 -150.5t-15.5 -72t-34.5 -23.5t-32.5 20.5t-13.5 79.5zM-23 -575.5q0 36.5 29 152.5q27 -121 27 -175q-2 -33 -27 -33q-11 0 -20 9.5t-9 46zM840 448l4 -20q25 1 73 1h192 q64 0 86 -1v475q-26 -47 -47 -73l-253 -324q-4 -5 -13 -16.5t-14 -16.5q-14 -16 -28 -25z" />
<glyph unicode="&#xc7;" horiz-adv-x="1951" d="M78 650q0 143 26.5 238.5t73 166t114 126t145.5 91.5t171 60q172 43 385 43q745 0 833 -428q12 -62 53 -95l-17 -22q-43 31 -93 31h-11l-385 -24q-67 -5 -87 -49l-33 16q10 22 10 38q0 52 -34.5 90.5t-87.5 57.5q-103 37 -200 37q-148 0 -230.5 -100.5t-82.5 -261 t93.5 -262t262.5 -101.5q54 0 120.5 26.5t118 76.5t51.5 106q0 16 -11 40l33 17q24 -45 77.5 -49t138.5 -11q187 -17 260 -17t115 31l16 -21q-37 -28 -53.5 -93.5t-51 -123t-82.5 -102t-109.5 -81.5t-128.5 -63t-142 -45q-141 -36 -296 -44l-17 -42q265 -41 265 -219 q0 -141 -115 -193q-55 -25 -153.5 -25t-226.5 41l21 131q92 -33 149 -33q98 0 112 77q2 10 2 21t-3.5 24.5t-15 30.5t-29.5 30q-43 32 -125 32q-25 0 -39 -1v127q-363 20 -572 199q-104 89 -159.5 223.5t-55.5 277.5z" />
<glyph unicode="&#xc8;" horiz-adv-x="1792" d="M252 1783.5q0 1.5 6 8.5q19 24 38 72l75 192q17 43 20 67t4 24t7 -7q24 -25 68 -50l430 -250q71 -42 71 -45t-8.5 -9t-18.5 -16q-27 -27 -27 -102l11 -136q0 -16 -8.5 -25.5t-19.5 -9.5q-25 0 -25 32l5 102q0 12 -69 30t-282.5 67t-237.5 51.5t-31.5 2.5t-7.5 1.5z M104 -697q0 75 33 222t33 223l-5 335v1166q0 62 -38 99l20 21q41 -39 100 -39h1284q61 0 100 39l20 -21q-44 -44 -44 -172v-45q0 -113 44 -155l-20 -19q-50 51 -235 51l-497 -23q-184 0 -234 51l-21 -20q39 -38 39 -100.5t-39 -100.5l21 -19q48 50 202 50l419 -23 q155 0 205 50l21 -20q-44 -44 -44 -184v-39q0 -107 44 -151l-21 -21q-48 50 -203 50l-419 -22q-154 0 -204 50l-20 -20q42 -43 42 -150l-2 -78l-17 -120q0 -36 26.5 -36t26.5 34l-16 124v11q21 37 57 37l816 -1q61 0 99 39l20 -20q-56 -103 -56 -373q0 -42 18.5 -162.5 t18.5 -160t-13 -58.5t-31 -19t-31.5 21t-13.5 58l16 221q0 88 -31 132.5t-84 44.5q-119 0 -119 -179q0 -69 20.5 -200t20.5 -164t-15 -50.5t-34.5 -17.5t-34 16.5t-14.5 44.5l18 319q0 175 -75 175l-76 -2h-786q-89 0 -131 -34q-48 -40 -48 -226q0 -75 23 -221.5t23 -220.5 q0 -107 -76 -107q-82 0 -82 110z" />
<glyph unicode="&#xc9;" horiz-adv-x="1792" d="M809 1671.5q0 1.5 7 3.5q32 6 76 32l429 250q46 27 60 41t15 14t2 -8q5 -39 22 -81l75 -192q30 -74 30 -77.5t-7 -5t-29 -3t-44 -7.5l-461 -112q-52 -13 -67.5 -21t-16.5 -8q-14 46 -34 84.5t-32.5 57t-18.5 25t-6 8zM104 -697q0 75 33 222t33 223l-5 335v1166 q0 62 -38 99l20 21q41 -39 100 -39h1284q61 0 100 39l20 -21q-44 -44 -44 -172v-45q0 -113 44 -155l-20 -19q-50 51 -235 51l-497 -23q-184 0 -234 51l-21 -20q39 -38 39 -100.5t-39 -100.5l21 -19q48 50 202 50l419 -23q155 0 205 50l21 -20q-44 -44 -44 -184v-39 q0 -107 44 -151l-21 -21q-48 50 -203 50l-419 -22q-154 0 -204 50l-20 -20q42 -43 42 -150l-2 -78l-17 -120q0 -36 26.5 -36t26.5 34l-16 124v11q21 37 57 37l816 -1q61 0 99 39l20 -20q-56 -103 -56 -373q0 -42 18.5 -162.5t18.5 -160t-13 -58.5t-31 -19t-31.5 21t-13.5 58 l16 221q0 88 -31 132.5t-84 44.5q-119 0 -119 -179q0 -69 20.5 -200t20.5 -164t-15 -50.5t-34.5 -17.5t-34 16.5t-14.5 44.5l18 319q0 175 -75 175l-76 -2h-786q-89 0 -131 -34q-48 -40 -48 -226q0 -75 23 -221.5t23 -220.5q0 -107 -76 -107q-82 0 -82 110z" />
<glyph unicode="&#xca;" horiz-adv-x="1792" d="M424 1529q51 27 85 79l171 260q18 28 21 47t-11 48l31 16q24 -44 85 -44h189q61 0 85 44l31 -16q-14 -29 -11 -48t21 -47l171 -260q34 -52 85 -79l-10 -16q-49 27 -112 27h-179q-61 0 -90 -43l-27 19q28 44 7 100l-37 93q-21 56 -21 116h-15q0 -60 -21 -116l-37 -93 q-21 -56 7 -100l-28 -19q-29 43 -89 43h-179q-63 0 -112 -27zM104 -697q0 75 33 222t33 223l-5 335v1166q0 62 -38 99l20 21q41 -39 100 -39h1284q61 0 100 39l20 -21q-44 -44 -44 -172v-45q0 -113 44 -155l-20 -19q-50 51 -235 51l-497 -23q-184 0 -234 51l-21 -20 q39 -38 39 -100.5t-39 -100.5l21 -19q48 50 202 50l419 -23q155 0 205 50l21 -20q-44 -44 -44 -184v-39q0 -107 44 -151l-21 -21q-48 50 -203 50l-419 -22q-154 0 -204 50l-20 -20q42 -43 42 -150l-2 -78l-17 -120q0 -36 26.5 -36t26.5 34l-16 124v11q21 37 57 37l816 -1 q61 0 99 39l20 -20q-56 -103 -56 -373q0 -42 18.5 -162.5t18.5 -160t-13 -58.5t-31 -19t-31.5 21t-13.5 58l16 221q0 88 -31 132.5t-84 44.5q-119 0 -119 -179q0 -69 20.5 -200t20.5 -164t-15 -50.5t-34.5 -17.5t-34 16.5t-14.5 44.5l18 319q0 175 -75 175l-76 -2h-786 q-89 0 -131 -34q-48 -40 -48 -226q0 -75 23 -221.5t23 -220.5q0 -107 -76 -107q-82 0 -82 110z" />
<glyph unicode="&#xcb;" horiz-adv-x="1792" d="M379 1555v193q0 44 17.5 51t105.5 7h110q88 0 105.5 -7t17.5 -51v-193q0 -44 -17.5 -51t-105.5 -7h-110q-88 0 -105.5 7t-17.5 51zM1066 1555v193q0 44 17 51t105 7h112q88 0 105 -7t17 -51v-193q0 -44 -17 -51t-105 -7h-112q-88 0 -105 7t-17 51zM104 -697q0 75 33 222 t33 223l-5 335v1166q0 62 -38 99l20 21q41 -39 100 -39h1284q61 0 100 39l20 -21q-44 -44 -44 -172v-45q0 -113 44 -155l-20 -19q-50 51 -235 51l-497 -23q-184 0 -234 51l-21 -20q39 -38 39 -100.5t-39 -100.5l21 -19q48 50 202 50l419 -23q155 0 205 50l21 -20 q-44 -44 -44 -184v-39q0 -107 44 -151l-21 -21q-48 50 -203 50l-419 -22q-154 0 -204 50l-20 -20q42 -43 42 -150l-2 -78l-17 -120q0 -36 26.5 -36t26.5 34l-16 124v11q21 37 57 37l816 -1q61 0 99 39l20 -20q-56 -103 -56 -373q0 -42 18.5 -162.5t18.5 -160t-13 -58.5 t-31 -19t-31.5 21t-13.5 58l16 221q0 88 -31 132.5t-84 44.5q-119 0 -119 -179q0 -69 20.5 -200t20.5 -164t-15 -50.5t-34.5 -17.5t-34 16.5t-14.5 44.5l18 319q0 175 -75 175l-76 -2h-786q-89 0 -131 -34q-48 -40 -48 -226q0 -75 23 -221.5t23 -220.5q0 -107 -76 -107 q-82 0 -82 110z" />
<glyph unicode="&#xcc;" horiz-adv-x="882" d="M-209 1783.5q0 1.5 6 8.5q19 24 38 72l75 192q17 43 20 67t4 24t7 -7q24 -25 68 -50l430 -250q71 -42 71 -45t-8.5 -9t-18.5 -16q-27 -27 -27 -102l11 -136q0 -16 -8.5 -25.5t-19.5 -9.5q-25 0 -25 32l5 102q0 12 -69 30t-282.5 67t-237.5 51.5t-31.5 2.5t-7.5 1.5z M138 1351l20 21q42 -40 100 -40h362q60 0 100 40l20 -21q-39 -39 -39 -100v-1170q0 -51 -11 -179q-8 -93 -8 -156q0 -23 1 -41h-1q37 -166 37 -253t-33 -87q-48 0 -48 96l11 266q0 129 -9.5 163t-19.5 60t-26 42t-38 30q-42 28 -132 28t-151.5 -73t-61.5 -175 q0 -38 15 -113.5t15 -113.5q0 -72 -51 -72t-51 70q0 39 15.5 117t15.5 118l7 268v1175q0 62 -39 100z" />
<glyph unicode="&#xcd;" horiz-adv-x="882" d="M348 1671.5q0 1.5 7 3.5q32 6 76 32l429 250q46 27 60 41t15 14t2 -8q5 -39 22 -81l75 -192q30 -74 30 -77.5t-7 -5t-29 -3t-44 -7.5l-461 -112q-52 -13 -67.5 -21t-16.5 -8q-14 46 -34 84.5t-32.5 57t-18.5 25t-6 8zM138 1351l20 21q42 -40 100 -40h362q60 0 100 40 l20 -21q-39 -39 -39 -100v-1170q0 -51 -11 -179q-8 -93 -8 -156q0 -23 1 -41h-1q37 -166 37 -253t-33 -87q-48 0 -48 96l11 266q0 129 -9.5 163t-19.5 60t-26 42t-38 30q-42 28 -132 28t-151.5 -73t-61.5 -175q0 -38 15 -113.5t15 -113.5q0 -72 -51 -72t-51 70 q0 39 15.5 117t15.5 118l7 268v1175q0 62 -39 100z" />
<glyph unicode="&#xce;" horiz-adv-x="882" d="M-38 1529q51 27 85 79l171 260q18 28 21 47t-11 48l31 16q24 -44 85 -44h189q61 0 85 44l31 -16q-14 -29 -11 -48t21 -47l171 -260q34 -52 85 -79l-10 -16q-49 27 -112 27h-179q-61 0 -90 -43l-27 19q28 44 7 100l-37 93q-21 56 -21 116h-15q0 -60 -21 -116l-37 -93 q-21 -56 7 -100l-28 -19q-29 43 -89 43h-179q-63 0 -112 -27zM138 1351l20 21q42 -40 100 -40h362q60 0 100 40l20 -21q-39 -39 -39 -100v-1170q0 -51 -11 -179q-8 -93 -8 -156q0 -23 1 -41h-1q37 -166 37 -253t-33 -87q-48 0 -48 96l11 266q0 129 -9.5 163t-19.5 60t-26 42 t-38 30q-42 28 -132 28t-151.5 -73t-61.5 -175q0 -38 15 -113.5t15 -113.5q0 -72 -51 -72t-51 70q0 39 15.5 117t15.5 118l7 268v1175q0 62 -39 100z" />
<glyph unicode="&#xcf;" horiz-adv-x="882" d="M-82 1555v193q0 44 17.5 51t105.5 7h110q88 0 105.5 -7t17.5 -51v-193q0 -44 -17.5 -51t-105.5 -7h-110q-88 0 -105.5 7t-17.5 51zM605 1555v193q0 44 17 51t105 7h112q88 0 105 -7t17 -51v-193q0 -44 -17 -51t-105 -7h-112q-88 0 -105 7t-17 51zM138 1351l20 21 q42 -40 100 -40h362q60 0 100 40l20 -21q-39 -39 -39 -100v-1170q0 -51 -11 -179q-8 -93 -8 -156q0 -23 1 -41h-1q37 -166 37 -253t-33 -87q-48 0 -48 96l11 266q0 129 -9.5 163t-19.5 60t-26 42t-38 30q-42 28 -132 28t-151.5 -73t-61.5 -175q0 -38 15 -113.5t15 -113.5 q0 -72 -51 -72t-51 70q0 39 15.5 117t15.5 118l7 268v1175q0 62 -39 100z" />
<glyph unicode="&#xd0;" horiz-adv-x="2013" d="M68 539v281q49 -12 151 -14v445q0 62 -39 100l20 21q41 -40 100 -40h826q597 0 740 -389q41 -110 41 -234.5t-15 -214t-39.5 -157t-68 -119.5t-86.5 -87.5t-110 -60.5t-124 -38.5t-143 -20.5q-135 -11 -317 -11h-145q-84 0 -84 -120l16 -128q0 -38 -26 -38q-31 0 -31 39 l21 142q0 147 -314 147q-54 0 -75.5 -25.5t-21.5 -85t18.5 -166t18.5 -163t-45 -56.5t-45 59.5t14 179.5t14 163q0 102 -36 102q-25 0 -25 -42t12.5 -97.5t12.5 -83.5q0 -59 -43 -59t-43 60l22 184v540h-22q-25 0 -129 -13zM696 1016q38 -37 38 -100v-110q102 0 154 14v-281 q-10 1 -34 5q-50 8 -89 8h-31q0 -72 2 -210h227q228 0 307 64q71 58 90 160q11 57 11 139t-30 142t-80 88t-111 41.5t-127.5 15t-124.5 2.5q-142 2 -182 42zM731 -609.5q0 37.5 4.5 65.5t15.5 71.5t13 54.5q2 -9 10.5 -42.5t11.5 -49.5q11 -46 11 -91.5t-33 -45.5t-33 37.5z " />
<glyph unicode="&#xd1;" horiz-adv-x="2009" d="M495 1642q0 80 23.5 155t67.5 116q83 77 219 77q129 0 256.5 -58t167.5 -58q54 0 54 90l347 -2q2 -50 2 -115t-20.5 -141.5t-58.5 -118.5q-72 -78 -197 -78q-171 0 -304.5 61t-162.5 61q-44 0 -44 -101l-347 3q-3 29 -3 109zM112 1383l21 21q81 -72 197 -72h299 q64 0 108.5 15.5t71.5 61.5l33 -16q-26 -62 -26 -117q0 -45 158 -226q206 -236 265 -317t77 -131h60q-49 72 -49 203q0 61 15 182.5t15 182.5q0 164 -104 213l21 21q81 -72 197 -72h205q116 0 197 72l20 -21q-71 -80 -71 -197l-2 -1221q0 -43 20 -128.5t20 -128.5 q0 -64 -49 -64t-49 64q0 42 19 123.5t19 112t-20 43.5t-39 13h-395q-84 0 -84 -153q0 -63 23.5 -182.5t23.5 -180.5q0 -87 -65 -87t-65 88q0 56 25.5 163t26.5 161l2 133v21q0 75 -19 100l-479 607q-19 25 -42 104l-61 -2q52 -54 52 -120v-571l19 -506q0 -16 -9.5 -27.5 t-26 -11.5t-27.5 13.5t-11 30.5l12 384q0 12 -9 22t-21 10q-26 0 -26 -40t13.5 -131t13.5 -125q0 -76 -37.5 -76t-37.5 66l24 271q0 32 -36 53q-59 33 -144 33q-114 0 -157 -45q-19 -20 -19 -58.5t23 -134.5t23 -135.5t-14.5 -63t-42.5 -23.5t-43 23.5t-15 63.5t24.5 138 t24.5 148l-1 1226q0 118 -72 197z" />
<glyph unicode="&#xd2;" horiz-adv-x="1986" d="M332 1783.5q0 1.5 6 8.5q19 24 38 72l75 192q17 43 20 67t4 24t7 -7q24 -25 68 -50l430 -250q71 -42 71 -45t-8.5 -9t-18.5 -16q-27 -27 -27 -102l11 -136q0 -16 -8.5 -25.5t-19.5 -9.5q-25 0 -25 32l5 102q0 12 -69 30t-282.5 67t-237.5 51.5t-31.5 2.5t-7.5 1.5z M76 677q0 518 522 654q169 44 349.5 44t307 -20t245 -70.5t202 -128t133.5 -200t50 -279.5q0 -320 -180 -495.5t-506 -215.5q-4 -7 -4 -22l5 -55q0 -51 -28 -51t-28 49l3 56q0 30 -43 30q-4 -9 -4 -34l5 -97q0 -30 -11 -58t-37 -28q-46 0 -46 82l7 96q0 25 -24 38.5 t-52 13.5t-50 -15t-22 -43v-230q0 -50 21 -147t21 -138.5t-18 -68.5t-49.5 -27t-47.5 28t-16 73t23 156t23 172q0 247 -92 247q-124 0 -124 10v-2q0 -69 30.5 -202.5t30.5 -191.5t-21 -95.5t-64.5 -37.5t-68 36t-24.5 93.5t29 197t29 211.5q-237 75 -356.5 245t-119.5 420z M633 676q0 -366 348 -366t348 366q0 168 -90 257t-258 89t-258 -89t-90 -257z" />
<glyph unicode="&#xd3;" horiz-adv-x="1986" d="M889 1671.5q0 1.5 7 3.5q32 6 76 32l429 250q46 27 60 41t15 14t2 -8q5 -39 22 -81l75 -192q30 -74 30 -77.5t-7 -5t-29 -3t-44 -7.5l-461 -112q-52 -13 -67.5 -21t-16.5 -8q-14 46 -34 84.5t-32.5 57t-18.5 25t-6 8zM76 677q0 518 522 654q169 44 349.5 44t307 -20 t245 -70.5t202 -128t133.5 -200t50 -279.5q0 -320 -180 -495.5t-506 -215.5q-4 -7 -4 -22l5 -55q0 -51 -28 -51t-28 49l3 56q0 30 -43 30q-4 -9 -4 -34l5 -97q0 -30 -11 -58t-37 -28q-46 0 -46 82l7 96q0 25 -24 38.5t-52 13.5t-50 -15t-22 -43v-230q0 -50 21 -147 t21 -138.5t-18 -68.5t-49.5 -27t-47.5 28t-16 73t23 156t23 172q0 247 -92 247q-124 0 -124 10v-2q0 -69 30.5 -202.5t30.5 -191.5t-21 -95.5t-64.5 -37.5t-68 36t-24.5 93.5t29 197t29 211.5q-237 75 -356.5 245t-119.5 420zM633 676q0 -366 348 -366t348 366 q0 168 -90 257t-258 89t-258 -89t-90 -257z" />
<glyph unicode="&#xd4;" horiz-adv-x="1986" d="M504 1529q51 27 85 79l171 260q18 28 21 47t-11 48l31 16q24 -44 85 -44h189q61 0 85 44l31 -16q-14 -29 -11 -48t21 -47l171 -260q34 -52 85 -79l-10 -16q-49 27 -112 27h-179q-61 0 -90 -43l-27 19q28 44 7 100l-37 93q-21 56 -21 116h-15q0 -60 -21 -116l-37 -93 q-21 -56 7 -100l-28 -19q-29 43 -89 43h-179q-63 0 -112 -27zM76 677q0 518 522 654q169 44 349.5 44t307 -20t245 -70.5t202 -128t133.5 -200t50 -279.5q0 -320 -180 -495.5t-506 -215.5q-4 -7 -4 -22l5 -55q0 -51 -28 -51t-28 49l3 56q0 30 -43 30q-4 -9 -4 -34l5 -97 q0 -30 -11 -58t-37 -28q-46 0 -46 82l7 96q0 25 -24 38.5t-52 13.5t-50 -15t-22 -43v-230q0 -50 21 -147t21 -138.5t-18 -68.5t-49.5 -27t-47.5 28t-16 73t23 156t23 172q0 247 -92 247q-124 0 -124 10v-2q0 -69 30.5 -202.5t30.5 -191.5t-21 -95.5t-64.5 -37.5t-68 36 t-24.5 93.5t29 197t29 211.5q-237 75 -356.5 245t-119.5 420zM633 676q0 -366 348 -366t348 366q0 168 -90 257t-258 89t-258 -89t-90 -257z" />
<glyph unicode="&#xd5;" horiz-adv-x="1986" d="M473 1607q0 80 23.5 155t67.5 116q83 77 219 77q129 0 256.5 -58t167.5 -58q54 0 54 90l347 -2q2 -50 2 -115t-20.5 -141.5t-58.5 -118.5q-72 -78 -197 -78q-171 0 -304.5 61t-162.5 61q-44 0 -44 -101l-347 3q-3 29 -3 109zM76 677q0 518 522 654q169 44 349.5 44 t307 -20t245 -70.5t202 -128t133.5 -200t50 -279.5q0 -320 -180 -495.5t-506 -215.5q-4 -7 -4 -22l5 -55q0 -51 -28 -51t-28 49l3 56q0 30 -43 30q-4 -9 -4 -34l5 -97q0 -30 -11 -58t-37 -28q-46 0 -46 82l7 96q0 25 -24 38.5t-52 13.5t-50 -15t-22 -43v-230q0 -50 21 -147 t21 -138.5t-18 -68.5t-49.5 -27t-47.5 28t-16 73t23 156t23 172q0 247 -92 247q-124 0 -124 10v-2q0 -69 30.5 -202.5t30.5 -191.5t-21 -95.5t-64.5 -37.5t-68 36t-24.5 93.5t29 197t29 211.5q-237 75 -356.5 245t-119.5 420zM633 676q0 -366 348 -366t348 366 q0 168 -90 257t-258 89t-258 -89t-90 -257z" />
<glyph unicode="&#xd6;" horiz-adv-x="1986" d="M459 1555v193q0 44 17.5 51t105.5 7h110q88 0 105.5 -7t17.5 -51v-193q0 -44 -17.5 -51t-105.5 -7h-110q-88 0 -105.5 7t-17.5 51zM1146 1555v193q0 44 17 51t105 7h112q88 0 105 -7t17 -51v-193q0 -44 -17 -51t-105 -7h-112q-88 0 -105 7t-17 51zM76 677q0 518 522 654 q169 44 349.5 44t307 -20t245 -70.5t202 -128t133.5 -200t50 -279.5q0 -320 -180 -495.5t-506 -215.5q-4 -7 -4 -22l5 -55q0 -51 -28 -51t-28 49l3 56q0 30 -43 30q-4 -9 -4 -34l5 -97q0 -30 -11 -58t-37 -28q-46 0 -46 82l7 96q0 25 -24 38.5t-52 13.5t-50 -15t-22 -43 v-230q0 -50 21 -147t21 -138.5t-18 -68.5t-49.5 -27t-47.5 28t-16 73t23 156t23 172q0 247 -92 247q-124 0 -124 10v-2q0 -69 30.5 -202.5t30.5 -191.5t-21 -95.5t-64.5 -37.5t-68 36t-24.5 93.5t29 197t29 211.5q-237 75 -356.5 245t-119.5 420zM633 676q0 -366 348 -366 t348 366q0 168 -90 257t-258 89t-258 -89t-90 -257z" />
<glyph unicode="&#xd7;" horiz-adv-x="994" d="M62 908l235 234q26 -36 83 -93l112 -111l77 78q79 79 109 127l234 -235q-36 -26 -93 -83l-107 -108l104 -103q63 -63 95 -87l-234 -234q-32 49 -112 131l-73 74l-108 -108q-60 -60 -87 -96l-234 234q50 31 131 112l77 77l-82 82q-81 79 -127 109z" />
<glyph unicode="&#xd8;" horiz-adv-x="2016" d="M76 -67q44 24 148 113l100 94q-229 186 -229 537q0 518 522 654q169 44 383 44q317 0 529 -94l187 176q61 53 107 131l169 -167q-40 -22 -144 -111l-146 -138q201 -176 201 -495.5t-179.5 -495t-505.5 -215.5q-4 -7 -4 -22l4 -55q0 -51 -27.5 -51t-27.5 49l3 56 q0 30 -43 30q-5 -11 -5 -34l6 -97q0 -30 -11 -58t-37 -28q-46 0 -46 82l7 96q0 25 -24 38.5t-52 13.5t-50 -15t-22 -43v-230q0 -51 20.5 -147.5t20.5 -138t-17.5 -68.5t-49 -27t-47.5 28t-16 73t23 156t23 172q0 247 -92 247q-124 0 -124 10v-2q0 -69 30.5 -202.5 t30.5 -191.5t-21 -95.5t-64.5 -37.5t-68 36t-24.5 93.5t28.5 197t28.5 211.5q-36 11 -69 25l-146 -138q-57 -48 -110 -133zM651 676q0 -115 35 -194l519 492q-82 48 -205 48q-168 0 -258.5 -89.5t-90.5 -256.5zM824 342q73 -32 176 -32q348 0 348 366q0 79 -21 142z" />
<glyph unicode="&#xd9;" horiz-adv-x="1887" d="M292 1783.5q0 1.5 6 8.5q19 24 38 72l75 192q17 43 20 67t4 24t7 -7q24 -25 68 -50l430 -250q71 -42 71 -45t-8.5 -9t-18.5 -16q-27 -27 -27 -102l11 -136q0 -16 -8.5 -25.5t-19.5 -9.5q-25 0 -25 32l5 102q0 12 -69 30t-282.5 67t-237.5 51.5t-31.5 2.5t-7.5 1.5z M106 1334l21 20q37 -38 99 -38h354q61 0 99 38l21 -20q-38 -39 -38 -99l2 -514q0 -149 8 -189t17.5 -73.5t23 -53.5t34.5 -42.5t48 -34.5q63 -28 123.5 -28t94 5.5t59 18t46 27t35 37t25.5 43t17.5 51.5t10.5 54.5t6 59.5q3 55 3 125l2 514q0 61 -37 99l19 20 q38 -38 100 -38h354q63 0 100 38l20 -20q-41 -42 -41 -204l9 -511q0 -267 -66 -391q-62 -118 -177 -177q-131 -68 -348 -88v-187l10 -103q0 -34 -19 -34t-19 66l6 163q0 108 -67 108q-52 0 -52 -85l5 -87q0 -30 12.5 -87.5t12.5 -81.5t-10 -40t-29 -16t-28.5 16.5t-9.5 39.5 t13.5 75.5t13.5 67.5v30q0 16 -1 32t-5 40q-8 50 -48 50q-74 0 -74 -146v-46q0 -37 18 -108t18 -102q0 -77 -50 -77q-25 0 -39.5 21t-14.5 54t16.5 112t16.5 120v199q-284 13 -426 83q-248 120 -255 456q-2 93 -2 277l2 462q0 59 -39 99zM1108 -553q0 48 14.5 81.5 t17.5 33.5t11 -18q23 -52 23 -99t-33 -47t-33 49z" />
<glyph unicode="&#xda;" horiz-adv-x="1887" d="M849 1671.5q0 1.5 7 3.5q32 6 76 32l429 250q46 27 60 41t15 14t2 -8q5 -39 22 -81l75 -192q30 -74 30 -77.5t-7 -5t-29 -3t-44 -7.5l-461 -112q-52 -13 -67.5 -21t-16.5 -8q-14 46 -34 84.5t-32.5 57t-18.5 25t-6 8zM106 1334l21 20q37 -38 99 -38h354q61 0 99 38 l21 -20q-38 -39 -38 -99l2 -514q0 -149 8 -189t17.5 -73.5t23 -53.5t34.5 -42.5t48 -34.5q63 -28 123.5 -28t94 5.5t59 18t46 27t35 37t25.5 43t17.5 51.5t10.5 54.5t6 59.5q3 55 3 125l2 514q0 61 -37 99l19 20q38 -38 100 -38h354q63 0 100 38l20 -20q-41 -42 -41 -204 l9 -511q0 -267 -66 -391q-62 -118 -177 -177q-131 -68 -348 -88v-187l10 -103q0 -34 -19 -34t-19 66l6 163q0 108 -67 108q-52 0 -52 -85l5 -87q0 -30 12.5 -87.5t12.5 -81.5t-10 -40t-29 -16t-28.5 16.5t-9.5 39.5t13.5 75.5t13.5 67.5v30q0 16 -1 32t-5 40q-8 50 -48 50 q-74 0 -74 -146v-46q0 -37 18 -108t18 -102q0 -77 -50 -77q-25 0 -39.5 21t-14.5 54t16.5 112t16.5 120v199q-284 13 -426 83q-248 120 -255 456q-2 93 -2 277l2 462q0 59 -39 99zM1108 -553q0 48 14.5 81.5t17.5 33.5t11 -18q23 -52 23 -99t-33 -47t-33 49z" />
<glyph unicode="&#xdb;" horiz-adv-x="1887" d="M463 1529q51 27 85 79l171 260q18 28 21 47t-11 48l31 16q24 -44 85 -44h189q61 0 85 44l31 -16q-14 -29 -11 -48t21 -47l171 -260q34 -52 85 -79l-10 -16q-49 27 -112 27h-179q-61 0 -90 -43l-27 19q28 44 7 100l-37 93q-21 56 -21 116h-15q0 -60 -21 -116l-37 -93 q-21 -56 7 -100l-28 -19q-29 43 -89 43h-179q-63 0 -112 -27zM106 1334l21 20q37 -38 99 -38h354q61 0 99 38l21 -20q-38 -39 -38 -99l2 -514q0 -149 8 -189t17.5 -73.5t23 -53.5t34.5 -42.5t48 -34.5q63 -28 123.5 -28t94 5.5t59 18t46 27t35 37t25.5 43t17.5 51.5 t10.5 54.5t6 59.5q3 55 3 125l2 514q0 61 -37 99l19 20q38 -38 100 -38h354q63 0 100 38l20 -20q-41 -42 -41 -204l9 -511q0 -267 -66 -391q-62 -118 -177 -177q-131 -68 -348 -88v-187l10 -103q0 -34 -19 -34t-19 66l6 163q0 108 -67 108q-52 0 -52 -85l5 -87 q0 -30 12.5 -87.5t12.5 -81.5t-10 -40t-29 -16t-28.5 16.5t-9.5 39.5t13.5 75.5t13.5 67.5v30q0 16 -1 32t-5 40q-8 50 -48 50q-74 0 -74 -146v-46q0 -37 18 -108t18 -102q0 -77 -50 -77q-25 0 -39.5 21t-14.5 54t16.5 112t16.5 120v199q-284 13 -426 83q-248 120 -255 456 q-2 93 -2 277l2 462q0 59 -39 99zM1108 -553q0 48 14.5 81.5t17.5 33.5t11 -18q23 -52 23 -99t-33 -47t-33 49z" />
<glyph unicode="&#xdc;" horiz-adv-x="1887" d="M418 1555v193q0 44 17.5 51t105.5 7h110q88 0 105.5 -7t17.5 -51v-193q0 -44 -17.5 -51t-105.5 -7h-110q-88 0 -105.5 7t-17.5 51zM1105 1555v193q0 44 17 51t105 7h112q88 0 105 -7t17 -51v-193q0 -44 -17 -51t-105 -7h-112q-88 0 -105 7t-17 51zM106 1334l21 20 q37 -38 99 -38h354q61 0 99 38l21 -20q-38 -39 -38 -99l2 -514q0 -149 8 -189t17.5 -73.5t23 -53.5t34.5 -42.5t48 -34.5q63 -28 123.5 -28t94 5.5t59 18t46 27t35 37t25.5 43t17.5 51.5t10.5 54.5t6 59.5q3 55 3 125l2 514q0 61 -37 99l19 20q38 -38 100 -38h354 q63 0 100 38l20 -20q-41 -42 -41 -204l9 -511q0 -267 -66 -391q-62 -118 -177 -177q-131 -68 -348 -88v-187l10 -103q0 -34 -19 -34t-19 66l6 163q0 108 -67 108q-52 0 -52 -85l5 -87q0 -30 12.5 -87.5t12.5 -81.5t-10 -40t-29 -16t-28.5 16.5t-9.5 39.5t13.5 75.5 t13.5 67.5v30q0 16 -1 32t-5 40q-8 50 -48 50q-74 0 -74 -146v-46q0 -37 18 -108t18 -102q0 -77 -50 -77q-25 0 -39.5 21t-14.5 54t16.5 112t16.5 120v199q-284 13 -426 83q-248 120 -255 456q-2 93 -2 277l2 462q0 59 -39 99zM1108 -553q0 48 14.5 81.5t17.5 33.5t11 -18 q23 -52 23 -99t-33 -47t-33 49z" />
<glyph unicode="&#xdd;" horiz-adv-x="1780" d="M789 1680.5q0 1.5 7 3.5q32 6 76 32l429 250q46 27 60 41t15 14t2 -8q5 -39 22 -81l75 -192q30 -74 30 -77.5t-7 -5t-29 -3t-44 -7.5l-461 -112q-52 -13 -67.5 -21t-16.5 -8q-14 46 -34 84.5t-32.5 57t-18.5 25t-6 8zM-6 1350l9 17q50 -28 113 -28l403 2q60 0 85 43 l31 -17q-13 -24 -13 -52.5t40.5 -97.5t89 -134t89 -144t40.5 -137h21v8q0 94 130 274t130 241q0 16 -14 42l31 17q25 -43 86 -43l379 -2q62 0 112 28l9 -17q-54 -32 -83 -80l-512 -826q-26 -43 -53 -43q-11 0 -23 4l-12 -37q48 -15 48 -100l-6 -139q0 -96 42 -138l-21 -20 q-39 39 -99 39h-234q-64 0 -64 -181l15 -186q0 -35 -21.5 -35t-21.5 38l11 196q0 168 -42 168t-42 -106v-29q0 -43 19.5 -128t19.5 -129q0 -68 -50.5 -68t-50.5 68q0 46 21 134t21 134l-2 408q0 31 8.5 48t35.5 25l-10 38q-14 -4 -24.5 -4t-21.5 7q-13 9 -30 36l-507 826 q-30 49 -82 80z" />
<glyph unicode="&#xde;" horiz-adv-x="1903" d="M133 -441q0 45 22 159t22 160l-2 203v1057h1v113q0 63 -38 100l19 21q42 -40 100 -40h362q60 0 100 40l20 -21q-39 -39 -39 -100v-112l419 2q216 0 285.5 -12t124 -26.5t92 -34.5t76 -51t61.5 -70q53 -87 53 -200t-24.5 -191.5t-78.5 -141.5q-112 -129 -381 -129h-551 q-62 0 -100 39l-20 -20q39 -39 39 -100v-123q0 -77 -2 -189l-44 -4q-13 112 -35 112h-152q-7 -26 -7 -68l26 -237q0 -61 -44.5 -61t-44.5 62q0 36 18.5 125.5t18.5 126.5v52h-173q-12 0 -19.5 -48.5t-7.5 -93t19 -151.5t19 -150q0 -92 -67 -92t-67 94zM656 569l20 -21 q39 39 100 39h324q100 0 120.5 11t33.5 23q25 22 25 63t-8.5 60.5t-24.5 30.5t-32 18t-40 10q-31 4 -70 4h-328q-61 0 -100 39l-20 -20q39 -39 39 -100v-58q0 -60 -39 -99z" />
<glyph unicode="&#xdf;" horiz-adv-x="1982" d="M138 1351l20 21q42 -40 100 -40h949q221 0 303.5 -21t134 -44t84.5 -54q75 -70 75 -173.5t-47 -179t-132 -82.5l2 -20q5 1 16 1q113 0 178.5 -97.5t65.5 -244.5q0 -157 -87 -251t-208 -130q-124 -37 -249 -37q-32 0 -46 1h-273q-185 0 -235 -51l-20 20q44 45 44 168v45 q0 128 -44 172l20 20q38 -38 100 -38h276l47 -1q86 0 106 39q9 17 9 52.5t-34.5 56t-80.5 20.5h-136q-184 0 -234 -51l-20 20q44 45 44 163v45q0 129 -44 173l20 20q39 -39 99 -39h142q120 0 153 43q16 21 16 48.5t-22 43.5q-37 26 -97 26l-364 -1q-57 0 -97 38l-18 -20 q37 -37 37 -94v-965q0 -33 14.5 -115t14.5 -116q0 -73 -52 -73t-52 72q0 33 15.5 116.5t15.5 117.5q0 118 -171 118t-171 -97l22 -159q0 -61 -42.5 -61t-42.5 60q0 28 12 83t12 97t-24 42q-19 0 -28 -29.5t-9 -72t14.5 -163t14.5 -180t-45 -59.5t-45 57.5t16 159t16 152.5 l1 1348q0 62 -39 100zM294 -795q0 50 15.5 108t18.5 71q3 -15 13.5 -55.5t15.5 -69t5 -66t-34 -37.5t-34 49z" />
<glyph unicode="&#xe0;" d="M235 1783.5q0 1.5 6 8.5q19 24 38 72l75 192q17 43 20 67t4 24t7 -7q24 -25 68 -50l430 -250q71 -42 71 -45t-8.5 -9t-18.5 -16q-27 -27 -27 -102l11 -136q0 -16 -8.5 -25.5t-19.5 -9.5q-25 0 -25 32l5 102q0 12 -69 30t-282.5 67t-237.5 51.5t-31.5 2.5t-7.5 1.5z M-9 -239q0 81 20 179.5t35 135.5l480 1181q10 26 10 51t-17 49l28 18q29 -43 90 -43h460q60 0 89 43l29 -18q-17 -24 -17 -46t12 -53l494 -1183q23 -56 71 -88l-12 -19q-49 32 -109 32h-196q2 -22 2 -31q0 -33 -27 -33q-12 0 -21.5 9.5t-9.5 27t2 27.5h-121q-44 0 -57 -48 q-16 -59 -16 -135.5t10 -139.5t10 -86.5t-11.5 -38t-28.5 -14.5t-29 14t-12 39t12.5 97t12.5 108v281q-10 27 -10 50t18 49l-26 19q-30 -43 -90 -43h-411q-60 0 -90 42l-26 -18q19 -27 19 -50t-7 -49v-1q-9 -34 -9 -52t20 -47l-26 -19q-30 42 -90 42h-362q-3 -19 -3 -64 l3 -159q0 -48 -15 -72.5t-36 -24.5q-42 0 -42 81zM637 416l13 -20q47 33 108 33h191q60 0 108 -32l13 19q-47 32 -68 89l-127 325q-22 57 -23 116h-13q-2 -66 -20 -116l-115 -324q-21 -58 -67 -90zM1407 -331q0 69 26 173q29 -120 29 -156q0 -53 -27.5 -53t-27.5 36z" />
<glyph unicode="&#xe1;" d="M792 1671.5q0 1.5 7 3.5q32 6 76 32l429 250q46 27 60 41t15 14t2 -8q5 -39 22 -81l75 -192q30 -74 30 -77.5t-7 -5t-29 -3t-44 -7.5l-461 -112q-52 -13 -67.5 -21t-16.5 -8q-14 46 -34 84.5t-32.5 57t-18.5 25t-6 8zM-9 -239q0 81 20 179.5t35 135.5l480 1181 q10 26 10 51t-17 49l28 18q29 -43 90 -43h460q60 0 89 43l29 -18q-17 -24 -17 -46t12 -53l494 -1183q23 -56 71 -88l-12 -19q-49 32 -109 32h-196q2 -22 2 -31q0 -33 -27 -33q-12 0 -21.5 9.5t-9.5 27t2 27.5h-121q-44 0 -57 -48q-16 -59 -16 -135.5t10 -139.5t10 -86.5 t-11.5 -38t-28.5 -14.5t-29 14t-12 39t12.5 97t12.5 108v281q-10 27 -10 50t18 49l-26 19q-30 -43 -90 -43h-411q-60 0 -90 42l-26 -18q19 -27 19 -50t-7 -49v-1q-9 -34 -9 -52t20 -47l-26 -19q-30 42 -90 42h-362q-3 -19 -3 -64l3 -159q0 -48 -15 -72.5t-36 -24.5 q-42 0 -42 81zM637 416l13 -20q47 33 108 33h191q60 0 108 -32l13 19q-47 32 -68 89l-127 325q-22 57 -23 116h-13q-2 -66 -20 -116l-115 -324q-21 -58 -67 -90zM1407 -331q0 69 26 173q29 -120 29 -156q0 -53 -27.5 -53t-27.5 36z" />
<glyph unicode="&#xe2;" d="M406 1529q51 27 85 79l171 260q18 28 21 47t-11 48l31 16q24 -44 85 -44h189q61 0 85 44l31 -16q-14 -29 -11 -48t21 -47l171 -260q34 -52 85 -79l-10 -16q-49 27 -112 27h-179q-61 0 -90 -43l-27 19q28 44 7 100l-37 93q-21 56 -21 116h-15q0 -60 -21 -116l-37 -93 q-21 -56 7 -100l-28 -19q-29 43 -89 43h-179q-63 0 -112 -27zM-9 -239q0 81 20 179.5t35 135.5l480 1181q10 26 10 51t-17 49l28 18q29 -43 90 -43h460q60 0 89 43l29 -18q-17 -24 -17 -46t12 -53l494 -1183q23 -56 71 -88l-12 -19q-49 32 -109 32h-196q2 -22 2 -31 q0 -33 -27 -33q-12 0 -21.5 9.5t-9.5 27t2 27.5h-121q-44 0 -57 -48q-16 -59 -16 -135.5t10 -139.5t10 -86.5t-11.5 -38t-28.5 -14.5t-29 14t-12 39t12.5 97t12.5 108v281q-10 27 -10 50t18 49l-26 19q-30 -43 -90 -43h-411q-60 0 -90 42l-26 -18q19 -27 19 -50t-7 -49v-1 q-9 -34 -9 -52t20 -47l-26 -19q-30 42 -90 42h-362q-3 -19 -3 -64l3 -159q0 -48 -15 -72.5t-36 -24.5q-42 0 -42 81zM637 416l13 -20q47 33 108 33h191q60 0 108 -32l13 19q-47 32 -68 89l-127 325q-22 57 -23 116h-13q-2 -66 -20 -116l-115 -324q-21 -58 -67 -90z M1407 -331q0 69 26 173q29 -120 29 -156q0 -53 -27.5 -53t-27.5 36z" />
<glyph unicode="&#xe3;" d="M375 1607q0 80 23.5 155t67.5 116q83 77 219 77q129 0 256.5 -58t167.5 -58q54 0 54 90l347 -2q2 -50 2 -115t-20.5 -141.5t-58.5 -118.5q-72 -78 -197 -78q-171 0 -304.5 61t-162.5 61q-44 0 -44 -101l-347 3q-3 29 -3 109zM-9 -239q0 81 20 179.5t35 135.5l480 1181 q10 26 10 51t-17 49l28 18q29 -43 90 -43h460q60 0 89 43l29 -18q-17 -24 -17 -46t12 -53l494 -1183q23 -56 71 -88l-12 -19q-49 32 -109 32h-196q2 -22 2 -31q0 -33 -27 -33q-12 0 -21.5 9.5t-9.5 27t2 27.5h-121q-44 0 -57 -48q-16 -59 -16 -135.5t10 -139.5t10 -86.5 t-11.5 -38t-28.5 -14.5t-29 14t-12 39t12.5 97t12.5 108v281q-10 27 -10 50t18 49l-26 19q-30 -43 -90 -43h-411q-60 0 -90 42l-26 -18q19 -27 19 -50t-7 -49v-1q-9 -34 -9 -52t20 -47l-26 -19q-30 42 -90 42h-362q-3 -19 -3 -64l3 -159q0 -48 -15 -72.5t-36 -24.5 q-42 0 -42 81zM637 416l13 -20q47 33 108 33h191q60 0 108 -32l13 19q-47 32 -68 89l-127 325q-22 57 -23 116h-13q-2 -66 -20 -116l-115 -324q-21 -58 -67 -90zM1407 -331q0 69 26 173q29 -120 29 -156q0 -53 -27.5 -53t-27.5 36z" />
<glyph unicode="&#xe4;" d="M362 1555v193q0 44 17.5 51t105.5 7h110q88 0 105.5 -7t17.5 -51v-193q0 -44 -17.5 -51t-105.5 -7h-110q-88 0 -105.5 7t-17.5 51zM1049 1555v193q0 44 17 51t105 7h112q88 0 105 -7t17 -51v-193q0 -44 -17 -51t-105 -7h-112q-88 0 -105 7t-17 51zM-9 -239q0 81 20 179.5 t35 135.5l480 1181q10 26 10 51t-17 49l28 18q29 -43 90 -43h460q60 0 89 43l29 -18q-17 -24 -17 -46t12 -53l494 -1183q23 -56 71 -88l-12 -19q-49 32 -109 32h-196q2 -22 2 -31q0 -33 -27 -33q-12 0 -21.5 9.5t-9.5 27t2 27.5h-121q-44 0 -57 -48q-16 -59 -16 -135.5 t10 -139.5t10 -86.5t-11.5 -38t-28.5 -14.5t-29 14t-12 39t12.5 97t12.5 108v281q-10 27 -10 50t18 49l-26 19q-30 -43 -90 -43h-411q-60 0 -90 42l-26 -18q19 -27 19 -50t-7 -49v-1q-9 -34 -9 -52t20 -47l-26 -19q-30 42 -90 42h-362q-3 -19 -3 -64l3 -159q0 -48 -15 -72.5 t-36 -24.5q-42 0 -42 81zM637 416l13 -20q47 33 108 33h191q60 0 108 -32l13 19q-47 32 -68 89l-127 325q-22 57 -23 116h-13q-2 -66 -20 -116l-115 -324q-21 -58 -67 -90zM1407 -331q0 69 26 173q29 -120 29 -156q0 -53 -27.5 -53t-27.5 36z" />
<glyph unicode="&#xe5;" d="M513 1867q0 71 23.5 135.5t68 117.5t117 84.5t162.5 31.5t162.5 -31.5t116.5 -84.5t67.5 -117.5t23.5 -135.5t-23.5 -136t-67.5 -118t-116.5 -84.5t-162.5 -31.5t-162.5 31.5t-117 84.5t-68 118t-23.5 136zM692 1867q0 -86 50.5 -149.5t141.5 -63.5t141 63.5t50 149.5 t-50 149.5t-141 63.5t-141.5 -63.5t-50.5 -149.5zM-9 -239q0 81 20 179.5t35 135.5l480 1181q10 26 10 51t-17 49l28 18q29 -43 90 -43h460q60 0 89 43l29 -18q-17 -24 -17 -46t12 -53l494 -1183q23 -56 71 -88l-12 -19q-49 32 -109 32h-196q2 -22 2 -31q0 -33 -27 -33 q-12 0 -21.5 9.5t-9.5 27t2 27.5h-121q-44 0 -57 -48q-16 -59 -16 -135.5t10 -139.5t10 -86.5t-11.5 -38t-28.5 -14.5t-29 14t-12 39t12.5 97t12.5 108v281q-10 27 -10 50t18 49l-26 19q-30 -43 -90 -43h-411q-60 0 -90 42l-26 -18q19 -27 19 -50t-7 -49v-1q-9 -34 -9 -52 t20 -47l-26 -19q-30 42 -90 42h-362q-3 -19 -3 -64l3 -159q0 -48 -15 -72.5t-36 -24.5q-42 0 -42 81zM637 416l13 -20q47 33 108 33h191q60 0 108 -32l13 19q-47 32 -68 89l-127 325q-22 57 -23 116h-13q-2 -66 -20 -116l-115 -324q-21 -58 -67 -90zM1407 -331q0 69 26 173 q29 -120 29 -156q0 -53 -27.5 -53t-27.5 36z" />
<glyph unicode="&#xe6;" horiz-adv-x="2820" d="M-38 -210q0 59 16 133t36 98l1020 1236q39 49 39 70t-3 30l36 18q13 -43 72 -43h460l922 -2q61 0 100 39l20 -21q-43 -43 -43 -152v-65q0 -115 43 -155l-20 -19q-50 51 -235 51l-497 -23q-184 0 -234 51l-20 -20q39 -38 39 -99v-95h1l420 1q156 0 206 50l20 -20 q-44 -40 -44 -160v-34q0 -94 44 -132l-20 -20q-48 50 -204 50l-423 -1v-218l894 -1q61 0 99 39l21 -20q-57 -105 -57 -373q0 -42 19 -162.5t19 -160t-13 -58.5t-31 -19t-31.5 21t-13.5 58l15 221q0 88 -31 132.5t-84 44.5q-118 0 -118 -179q0 -69 20.5 -200t20.5 -164 t-15.5 -50.5t-35 -17.5t-34 16.5t-14.5 44.5l18 319q0 175 -74 175l-77 -2h-768l-5 -2v-29q0 -29 -27 -29t-27 29v29q-86 -9 -112 -63.5t-26 -162t23 -254t23 -220.5q0 -107 -76 -107q-81 0 -81 110q0 75 33 222t33 223l-5 335v70q-29 -1 -86 -1h-412q-59 0 -72 42l-34 -18 q4 -9 4 -31.5t-33 -67.5l-2 -1q-33 -44 -33 -67t4 -32l-33 -19q-13 42 -72 42h-362l-8 -64q2 -102 2 -150.5t-15.5 -72t-34.5 -23.5t-32.5 20.5t-13.5 79.5zM-23 -575.5q0 36.5 29 152.5q27 -121 27 -175q-2 -33 -27 -33q-11 0 -20 9.5t-9 46zM840 448l4 -20q25 1 73 1h192 q64 0 86 -1v475q-26 -47 -47 -73l-253 -324q-4 -5 -13 -16.5t-14 -16.5q-14 -16 -28 -25z" />
<glyph unicode="&#xe7;" horiz-adv-x="1951" d="M78 650q0 143 26.5 238.5t73 166t114 126t145.5 91.5t171 60q172 43 385 43q745 0 833 -428q12 -62 53 -95l-17 -22q-43 31 -93 31h-11l-385 -24q-67 -5 -87 -49l-33 16q10 22 10 38q0 52 -34.5 90.5t-87.5 57.5q-103 37 -200 37q-148 0 -230.5 -100.5t-82.5 -261 t93.5 -262t262.5 -101.5q54 0 120.5 26.5t118 76.5t51.5 106q0 16 -11 40l33 17q24 -45 77.5 -49t138.5 -11q187 -17 260 -17t115 31l16 -21q-37 -28 -53.5 -93.5t-51 -123t-82.5 -102t-109.5 -81.5t-128.5 -63t-142 -45q-141 -36 -296 -44l-17 -42q265 -41 265 -219 q0 -141 -115 -193q-55 -25 -153.5 -25t-226.5 41l21 131q92 -33 149 -33q98 0 112 77q2 10 2 21t-3.5 24.5t-15 30.5t-29.5 30q-43 32 -125 32q-25 0 -39 -1v127q-363 20 -572 199q-104 89 -159.5 223.5t-55.5 277.5z" />
<glyph unicode="&#xe8;" horiz-adv-x="1789" d="M252 1783.5q0 1.5 6 8.5q19 24 38 72l75 192q17 43 20 67t4 24t7 -7q24 -25 68 -50l430 -250q71 -42 71 -45t-8.5 -9t-18.5 -16q-27 -27 -27 -102l11 -136q0 -16 -8.5 -25.5t-19.5 -9.5q-25 0 -25 32l5 102q0 12 -69 30t-282.5 67t-237.5 51.5t-31.5 2.5t-7.5 1.5z M104 -697q0 75 33 222t33 223l-5 335v1166q0 62 -38 99l20 21q41 -39 100 -39h1284q61 0 100 39l20 -21q-44 -44 -44 -166v-56q0 -107 44 -150l-20 -19q-50 51 -235 51l-497 -23q-184 0 -234 51l-21 -20q39 -38 39 -100.5t-39 -100.5l21 -19q48 50 202 50l419 -23 q155 0 205 50l21 -20q-44 -44 -44 -169v-56q0 -103 44 -149l-21 -21q-48 50 -203 50l-419 -22q-154 0 -204 50l-20 -20q30 -30 35 -71.5t6 -59t0 -54t-1 -43.5l-17 -120q0 -36 26.5 -36t26.5 34l-16 124v11q21 37 57 37l816 -1q61 0 99 39l20 -20q-44 -44 -44 -168v-58 q0 -101 44 -147l-20 -20q-39 39 -99 39h-1183q-89 0 -131 -34q-48 -40 -48 -226q0 -75 23 -221.5t23 -220.5q0 -107 -76 -107q-82 0 -82 110z" />
<glyph unicode="&#xe9;" horiz-adv-x="1789" d="M809 1671.5q0 1.5 7 3.5q32 6 76 32l429 250q46 27 60 41t15 14t2 -8q5 -39 22 -81l75 -192q30 -74 30 -77.5t-7 -5t-29 -3t-44 -7.5l-461 -112q-52 -13 -67.5 -21t-16.5 -8q-14 46 -34 84.5t-32.5 57t-18.5 25t-6 8zM104 -697q0 75 33 222t33 223l-5 335v1166 q0 62 -38 99l20 21q41 -39 100 -39h1284q61 0 100 39l20 -21q-44 -44 -44 -166v-56q0 -107 44 -150l-20 -19q-50 51 -235 51l-497 -23q-184 0 -234 51l-21 -20q39 -38 39 -100.5t-39 -100.5l21 -19q48 50 202 50l419 -23q155 0 205 50l21 -20q-44 -44 -44 -169v-56 q0 -103 44 -149l-21 -21q-48 50 -203 50l-419 -22q-154 0 -204 50l-20 -20q30 -30 35 -71.5t6 -59t0 -54t-1 -43.5l-17 -120q0 -36 26.5 -36t26.5 34l-16 124v11q21 37 57 37l816 -1q61 0 99 39l20 -20q-44 -44 -44 -168v-58q0 -101 44 -147l-20 -20q-39 39 -99 39h-1183 q-89 0 -131 -34q-48 -40 -48 -226q0 -75 23 -221.5t23 -220.5q0 -107 -76 -107q-82 0 -82 110z" />
<glyph unicode="&#xea;" horiz-adv-x="1789" d="M424 1529q51 27 85 79l171 260q18 28 21 47t-11 48l31 16q24 -44 85 -44h189q61 0 85 44l31 -16q-14 -29 -11 -48t21 -47l171 -260q34 -52 85 -79l-10 -16q-49 27 -112 27h-179q-61 0 -90 -43l-27 19q28 44 7 100l-37 93q-21 56 -21 116h-15q0 -60 -21 -116l-37 -93 q-21 -56 7 -100l-28 -19q-29 43 -89 43h-179q-63 0 -112 -27zM104 -697q0 75 33 222t33 223l-5 335v1166q0 62 -38 99l20 21q41 -39 100 -39h1284q61 0 100 39l20 -21q-44 -44 -44 -166v-56q0 -107 44 -150l-20 -19q-50 51 -235 51l-497 -23q-184 0 -234 51l-21 -20 q39 -38 39 -100.5t-39 -100.5l21 -19q48 50 202 50l419 -23q155 0 205 50l21 -20q-44 -44 -44 -169v-56q0 -103 44 -149l-21 -21q-48 50 -203 50l-419 -22q-154 0 -204 50l-20 -20q30 -30 35 -71.5t6 -59t0 -54t-1 -43.5l-17 -120q0 -36 26.5 -36t26.5 34l-16 124v11 q21 37 57 37l816 -1q61 0 99 39l20 -20q-44 -44 -44 -168v-58q0 -101 44 -147l-20 -20q-39 39 -99 39h-1183q-89 0 -131 -34q-48 -40 -48 -226q0 -75 23 -221.5t23 -220.5q0 -107 -76 -107q-82 0 -82 110z" />
<glyph unicode="&#xeb;" horiz-adv-x="1789" d="M379 1555v193q0 44 17.5 51t105.5 7h110q88 0 105.5 -7t17.5 -51v-193q0 -44 -17.5 -51t-105.5 -7h-110q-88 0 -105.5 7t-17.5 51zM1066 1555v193q0 44 17 51t105 7h112q88 0 105 -7t17 -51v-193q0 -44 -17 -51t-105 -7h-112q-88 0 -105 7t-17 51zM104 -697q0 75 33 222 t33 223l-5 335v1166q0 62 -38 99l20 21q41 -39 100 -39h1284q61 0 100 39l20 -21q-44 -44 -44 -166v-56q0 -107 44 -150l-20 -19q-50 51 -235 51l-497 -23q-184 0 -234 51l-21 -20q39 -38 39 -100.5t-39 -100.5l21 -19q48 50 202 50l419 -23q155 0 205 50l21 -20 q-44 -44 -44 -169v-56q0 -103 44 -149l-21 -21q-48 50 -203 50l-419 -22q-154 0 -204 50l-20 -20q30 -30 35 -71.5t6 -59t0 -54t-1 -43.5l-17 -120q0 -36 26.5 -36t26.5 34l-16 124v11q21 37 57 37l816 -1q61 0 99 39l20 -20q-44 -44 -44 -168v-58q0 -101 44 -147l-20 -20 q-39 39 -99 39h-1183q-89 0 -131 -34q-48 -40 -48 -226q0 -75 23 -221.5t23 -220.5q0 -107 -76 -107q-82 0 -82 110z" />
<glyph unicode="&#xec;" horiz-adv-x="824" d="M-179 1760.5q0 1.5 6 8.5q19 24 38 72l75 192q17 43 20 67t4 24t7 -7q24 -25 68 -50l430 -250q71 -42 71 -45t-8.5 -9t-18.5 -16q-27 -27 -27 -102l11 -136q0 -16 -8.5 -25.5t-19.5 -9.5q-25 0 -25 32l5 102q0 12 -69 30t-282.5 67t-237.5 51.5t-31.5 2.5t-7.5 1.5z M148 -19q39 39 39 100v1172q0 61 -39 100l20 19q38 -38 100 -38h291q62 0 100 38l20 -19q-39 -39 -39 -100v-1172q0 -61 39 -100l-20 -20q-39 39 -100 39h-291q-61 0 -100 -39z" />
<glyph unicode="&#xed;" horiz-adv-x="824" d="M395 1649.5q0 1.5 7 3.5q32 6 76 32l429 250q46 27 60 41t15 14t2 -8q5 -39 22 -81l75 -192q30 -74 30 -77.5t-7 -5t-29 -3t-44 -7.5l-461 -112q-52 -13 -67.5 -21t-16.5 -8q-14 46 -34 84.5t-32.5 57t-18.5 25t-6 8zM148 -19q39 39 39 100v1172q0 61 -39 100l20 19 q38 -38 100 -38h291q62 0 100 38l20 -19q-39 -39 -39 -100v-1172q0 -61 39 -100l-20 -20q-39 39 -100 39h-291q-61 0 -100 -39z" />
<glyph unicode="&#xee;" horiz-adv-x="824" d="M-12 1506q51 27 85 79l171 260q18 28 21 47t-11 48l31 16q24 -44 85 -44h189q61 0 85 44l31 -16q-14 -29 -11 -48t21 -47l171 -260q34 -52 85 -79l-10 -16q-49 27 -112 27h-179q-61 0 -90 -43l-27 19q28 44 7 100l-37 93q-21 56 -21 116h-15q0 -60 -21 -116l-37 -93 q-21 -56 7 -100l-28 -19q-29 43 -89 43h-179q-63 0 -112 -27zM148 -19q39 39 39 100v1172q0 61 -39 100l20 19q38 -38 100 -38h291q62 0 100 38l20 -19q-39 -39 -39 -100v-1172q0 -61 39 -100l-20 -20q-39 39 -100 39h-291q-61 0 -100 -39z" />
<glyph unicode="&#xef;" horiz-adv-x="824" d="M-49 1532v193q0 44 17.5 51t105.5 7h110q88 0 105.5 -7t17.5 -51v-193q0 -44 -17.5 -51t-105.5 -7h-110q-88 0 -105.5 7t-17.5 51zM638 1532v193q0 44 17 51t105 7h112q88 0 105 -7t17 -51v-193q0 -44 -17 -51t-105 -7h-112q-88 0 -105 7t-17 51zM148 -19q39 39 39 100 v1172q0 61 -39 100l20 19q38 -38 100 -38h291q62 0 100 38l20 -19q-39 -39 -39 -100v-1172q0 -61 39 -100l-20 -20q-39 39 -100 39h-291q-61 0 -100 -39z" />
<glyph unicode="&#xf0;" horiz-adv-x="2013" d="M68 539v281q49 -12 151 -14v445q0 62 -39 100l20 21q41 -40 100 -40h826q597 0 740 -389q41 -110 41 -234.5t-15 -214t-39.5 -157t-68 -119.5t-86.5 -87.5t-110 -60.5t-124 -38.5t-143 -20.5q-135 -11 -317 -11h-145q-84 0 -84 -120l16 -128q0 -38 -26 -38q-31 0 -31 39 l21 142q0 147 -314 147q-54 0 -75.5 -25.5t-21.5 -85t18.5 -166t18.5 -163t-45 -56.5t-45 59.5t14 179.5t14 163q0 102 -36 102q-25 0 -25 -42t12.5 -97.5t12.5 -83.5q0 -59 -43 -59t-43 60l22 184v540h-22q-25 0 -129 -13zM696 1016q38 -37 38 -100v-110q102 0 154 14v-281 q-10 1 -34 5q-50 8 -89 8h-31q0 -72 2 -210h227q228 0 307 64q71 58 90 160q11 57 11 139t-30 142t-80 88t-111 41.5t-127.5 15t-124.5 2.5q-142 2 -182 42zM731 -609.5q0 37.5 4.5 65.5t15.5 71.5t13 54.5q2 -9 10.5 -42.5t11.5 -49.5q11 -46 11 -91.5t-33 -45.5t-33 37.5z " />
<glyph unicode="&#xf1;" horiz-adv-x="2009" d="M495 1642q0 80 23.5 155t67.5 116q83 77 219 77q129 0 256.5 -58t167.5 -58q54 0 54 90l347 -2q2 -50 2 -115t-20.5 -141.5t-58.5 -118.5q-72 -78 -197 -78q-171 0 -304.5 61t-162.5 61q-44 0 -44 -101l-347 3q-3 29 -3 109zM112 1383l21 21q81 -72 197 -72h299 q64 0 108.5 15.5t71.5 61.5l33 -16q-26 -62 -26 -117q0 -45 158 -226q206 -236 265 -317t77 -131h60q-49 72 -49 203q0 61 15 182.5t15 182.5q0 164 -104 213l21 21q81 -72 197 -72h205q116 0 197 72l20 -21q-71 -80 -71 -197l-2 -1221q0 -43 20 -128.5t20 -128.5 q0 -64 -49 -64t-49 64q0 42 19 123.5t19 112t-20 43.5t-39 13h-395q-84 0 -84 -153q0 -63 23.5 -182.5t23.5 -180.5q0 -87 -65 -87t-65 88q0 56 25.5 163t26.5 161l2 133v21q0 75 -19 100l-479 607q-19 25 -42 104l-61 -2q52 -54 52 -120v-571l19 -506q0 -16 -9.5 -27.5 t-26 -11.5t-27.5 13.5t-11 30.5l12 384q0 12 -9 22t-21 10q-26 0 -26 -40t13.5 -131t13.5 -125q0 -76 -37.5 -76t-37.5 66l24 271q0 32 -36 53q-59 33 -144 33q-114 0 -157 -45q-19 -20 -19 -58.5t23 -134.5t23 -135.5t-14.5 -63t-42.5 -23.5t-43 23.5t-15 63.5t24.5 138 t24.5 148l-1 1226q0 118 -72 197z" />
<glyph unicode="&#xf2;" horiz-adv-x="1986" d="M332 1783.5q0 1.5 6 8.5q19 24 38 72l75 192q17 43 20 67t4 24t7 -7q24 -25 68 -50l430 -250q71 -42 71 -45t-8.5 -9t-18.5 -16q-27 -27 -27 -102l11 -136q0 -16 -8.5 -25.5t-19.5 -9.5q-25 0 -25 32l5 102q0 12 -69 30t-282.5 67t-237.5 51.5t-31.5 2.5t-7.5 1.5z M76 677q0 518 522 654q169 44 349.5 44t307 -20t245 -70.5t202 -128t133.5 -200t50 -279.5q0 -320 -180 -495.5t-506 -215.5q-4 -7 -4 -22l5 -55q0 -51 -28 -51t-28 49l3 56q0 30 -43 30q-4 -9 -4 -34l5 -97q0 -30 -11 -58t-37 -28q-46 0 -46 82l7 96q0 25 -24 38.5 t-52 13.5t-50 -15t-22 -43v-230q0 -50 21 -147t21 -138.5t-18 -68.5t-49.5 -27t-47.5 28t-16 73t23 156t23 172q0 247 -92 247q-124 0 -124 10v-2q0 -69 30.5 -202.5t30.5 -191.5t-21 -95.5t-64.5 -37.5t-68 36t-24.5 93.5t29 197t29 211.5q-237 75 -356.5 245t-119.5 420z M633 676q0 -366 348 -366t348 366q0 168 -90 257t-258 89t-258 -89t-90 -257z" />
<glyph unicode="&#xf3;" horiz-adv-x="1986" d="M889 1671.5q0 1.5 7 3.5q32 6 76 32l429 250q46 27 60 41t15 14t2 -8q5 -39 22 -81l75 -192q30 -74 30 -77.5t-7 -5t-29 -3t-44 -7.5l-461 -112q-52 -13 -67.5 -21t-16.5 -8q-14 46 -34 84.5t-32.5 57t-18.5 25t-6 8zM76 677q0 518 522 654q169 44 349.5 44t307 -20 t245 -70.5t202 -128t133.5 -200t50 -279.5q0 -320 -180 -495.5t-506 -215.5q-4 -7 -4 -22l5 -55q0 -51 -28 -51t-28 49l3 56q0 30 -43 30q-4 -9 -4 -34l5 -97q0 -30 -11 -58t-37 -28q-46 0 -46 82l7 96q0 25 -24 38.5t-52 13.5t-50 -15t-22 -43v-230q0 -50 21 -147 t21 -138.5t-18 -68.5t-49.5 -27t-47.5 28t-16 73t23 156t23 172q0 247 -92 247q-124 0 -124 10v-2q0 -69 30.5 -202.5t30.5 -191.5t-21 -95.5t-64.5 -37.5t-68 36t-24.5 93.5t29 197t29 211.5q-237 75 -356.5 245t-119.5 420zM633 676q0 -366 348 -366t348 366 q0 168 -90 257t-258 89t-258 -89t-90 -257z" />
<glyph unicode="&#xf4;" horiz-adv-x="1986" d="M504 1529q51 27 85 79l171 260q18 28 21 47t-11 48l31 16q24 -44 85 -44h189q61 0 85 44l31 -16q-14 -29 -11 -48t21 -47l171 -260q34 -52 85 -79l-10 -16q-49 27 -112 27h-179q-61 0 -90 -43l-27 19q28 44 7 100l-37 93q-21 56 -21 116h-15q0 -60 -21 -116l-37 -93 q-21 -56 7 -100l-28 -19q-29 43 -89 43h-179q-63 0 -112 -27zM76 677q0 518 522 654q169 44 349.5 44t307 -20t245 -70.5t202 -128t133.5 -200t50 -279.5q0 -320 -180 -495.5t-506 -215.5q-4 -7 -4 -22l5 -55q0 -51 -28 -51t-28 49l3 56q0 30 -43 30q-4 -9 -4 -34l5 -97 q0 -30 -11 -58t-37 -28q-46 0 -46 82l7 96q0 25 -24 38.5t-52 13.5t-50 -15t-22 -43v-230q0 -50 21 -147t21 -138.5t-18 -68.5t-49.5 -27t-47.5 28t-16 73t23 156t23 172q0 247 -92 247q-124 0 -124 10v-2q0 -69 30.5 -202.5t30.5 -191.5t-21 -95.5t-64.5 -37.5t-68 36 t-24.5 93.5t29 197t29 211.5q-237 75 -356.5 245t-119.5 420zM633 676q0 -366 348 -366t348 366q0 168 -90 257t-258 89t-258 -89t-90 -257z" />
<glyph unicode="&#xf5;" horiz-adv-x="1986" d="M473 1607q0 80 23.5 155t67.5 116q83 77 219 77q129 0 256.5 -58t167.5 -58q54 0 54 90l347 -2q2 -50 2 -115t-20.5 -141.5t-58.5 -118.5q-72 -78 -197 -78q-171 0 -304.5 61t-162.5 61q-44 0 -44 -101l-347 3q-3 29 -3 109zM76 677q0 518 522 654q169 44 349.5 44 t307 -20t245 -70.5t202 -128t133.5 -200t50 -279.5q0 -320 -180 -495.5t-506 -215.5q-4 -7 -4 -22l5 -55q0 -51 -28 -51t-28 49l3 56q0 30 -43 30q-4 -9 -4 -34l5 -97q0 -30 -11 -58t-37 -28q-46 0 -46 82l7 96q0 25 -24 38.5t-52 13.5t-50 -15t-22 -43v-230q0 -50 21 -147 t21 -138.5t-18 -68.5t-49.5 -27t-47.5 28t-16 73t23 156t23 172q0 247 -92 247q-124 0 -124 10v-2q0 -69 30.5 -202.5t30.5 -191.5t-21 -95.5t-64.5 -37.5t-68 36t-24.5 93.5t29 197t29 211.5q-237 75 -356.5 245t-119.5 420zM633 676q0 -366 348 -366t348 366 q0 168 -90 257t-258 89t-258 -89t-90 -257z" />
<glyph unicode="&#xf6;" horiz-adv-x="1986" d="M459 1555v193q0 44 17.5 51t105.5 7h110q88 0 105.5 -7t17.5 -51v-193q0 -44 -17.5 -51t-105.5 -7h-110q-88 0 -105.5 7t-17.5 51zM1146 1555v193q0 44 17 51t105 7h112q88 0 105 -7t17 -51v-193q0 -44 -17 -51t-105 -7h-112q-88 0 -105 7t-17 51zM76 677q0 518 522 654 q169 44 349.5 44t307 -20t245 -70.5t202 -128t133.5 -200t50 -279.5q0 -320 -180 -495.5t-506 -215.5q-4 -7 -4 -22l5 -55q0 -51 -28 -51t-28 49l3 56q0 30 -43 30q-4 -9 -4 -34l5 -97q0 -30 -11 -58t-37 -28q-46 0 -46 82l7 96q0 25 -24 38.5t-52 13.5t-50 -15t-22 -43 v-230q0 -50 21 -147t21 -138.5t-18 -68.5t-49.5 -27t-47.5 28t-16 73t23 156t23 172q0 247 -92 247q-124 0 -124 10v-2q0 -69 30.5 -202.5t30.5 -191.5t-21 -95.5t-64.5 -37.5t-68 36t-24.5 93.5t29 197t29 211.5q-237 75 -356.5 245t-119.5 420zM633 676q0 -366 348 -366 t348 366q0 168 -90 257t-258 89t-258 -89t-90 -257z" />
<glyph unicode="&#xf7;" horiz-adv-x="1029" d="M64 569v250q52 -13 171 -13h565q113 0 165 13v-250q-53 6 -123 6h-649q-77 0 -129 -6zM326 136v234q0 44 17 51t105 7h144q88 0 105 -7t17 -51v-234q0 -44 -17 -51t-105 -7h-144q-88 0 -105 7t-17 51zM326 983v234q0 44 16.5 50.5t105.5 6.5h144q89 0 105.5 -6.5 t16.5 -50.5v-234q0 -44 -17 -51t-105 -7h-144q-88 0 -105 7t-17 51z" />
<glyph unicode="&#xf8;" horiz-adv-x="2016" d="M76 -67q44 24 148 113l100 94q-229 186 -229 537q0 518 522 654q169 44 383 44q317 0 529 -94l187 176q61 53 107 131l169 -167q-40 -22 -144 -111l-146 -138q201 -176 201 -495.5t-179.5 -495t-505.5 -215.5q-4 -7 -4 -22l4 -55q0 -51 -27.5 -51t-27.5 49l3 56 q0 30 -43 30q-5 -11 -5 -34l6 -97q0 -30 -11 -58t-37 -28q-46 0 -46 82l7 96q0 25 -24 38.5t-52 13.5t-50 -15t-22 -43v-230q0 -51 20.5 -147.5t20.5 -138t-17.5 -68.5t-49 -27t-47.5 28t-16 73t23 156t23 172q0 247 -92 247q-124 0 -124 10v-2q0 -69 30.5 -202.5 t30.5 -191.5t-21 -95.5t-64.5 -37.5t-68 36t-24.5 93.5t28.5 197t28.5 211.5q-36 11 -69 25l-146 -138q-57 -48 -110 -133zM651 676q0 -115 35 -194l519 492q-82 48 -205 48q-168 0 -258.5 -89.5t-90.5 -256.5zM824 342q73 -32 176 -32q348 0 348 366q0 79 -21 142z" />
<glyph unicode="&#xf9;" horiz-adv-x="1887" d="M292 1783.5q0 1.5 6 8.5q19 24 38 72l75 192q17 43 20 67t4 24t7 -7q24 -25 68 -50l430 -250q71 -42 71 -45t-8.5 -9t-18.5 -16q-27 -27 -27 -102l11 -136q0 -16 -8.5 -25.5t-19.5 -9.5q-25 0 -25 32l5 102q0 12 -69 30t-282.5 67t-237.5 51.5t-31.5 2.5t-7.5 1.5z M106 1334l21 20q37 -38 99 -38h354q61 0 99 38l21 -20q-38 -39 -38 -99l2 -514q0 -149 8 -189t17.5 -73.5t23 -53.5t34.5 -42.5t48 -34.5q63 -28 123.5 -28t94 5.5t59 18t46 27t35 37t25.5 43t17.5 51.5t10.5 54.5t6 59.5q3 55 3 125l2 514q0 61 -37 99l19 20 q38 -38 100 -38h354q63 0 100 38l20 -20q-41 -42 -41 -204l9 -511q0 -267 -66 -391q-62 -118 -177 -177q-131 -68 -348 -88v-187l10 -103q0 -34 -19 -34t-19 66l6 163q0 108 -67 108q-52 0 -52 -85l5 -87q0 -30 12.5 -87.5t12.5 -81.5t-10 -40t-29 -16t-28.5 16.5t-9.5 39.5 t13.5 75.5t13.5 67.5v30q0 16 -1 32t-5 40q-8 50 -48 50q-74 0 -74 -146v-46q0 -37 18 -108t18 -102q0 -77 -50 -77q-25 0 -39.5 21t-14.5 54t16.5 112t16.5 120v199q-284 13 -426 83q-248 120 -255 456q-2 93 -2 277l2 462q0 59 -39 99zM1108 -553q0 48 14.5 81.5 t17.5 33.5t11 -18q23 -52 23 -99t-33 -47t-33 49z" />
<glyph unicode="&#xfa;" horiz-adv-x="1887" d="M849 1671.5q0 1.5 7 3.5q32 6 76 32l429 250q46 27 60 41t15 14t2 -8q5 -39 22 -81l75 -192q30 -74 30 -77.5t-7 -5t-29 -3t-44 -7.5l-461 -112q-52 -13 -67.5 -21t-16.5 -8q-14 46 -34 84.5t-32.5 57t-18.5 25t-6 8zM106 1334l21 20q37 -38 99 -38h354q61 0 99 38 l21 -20q-38 -39 -38 -99l2 -514q0 -149 8 -189t17.5 -73.5t23 -53.5t34.5 -42.5t48 -34.5q63 -28 123.5 -28t94 5.5t59 18t46 27t35 37t25.5 43t17.5 51.5t10.5 54.5t6 59.5q3 55 3 125l2 514q0 61 -37 99l19 20q38 -38 100 -38h354q63 0 100 38l20 -20q-41 -42 -41 -204 l9 -511q0 -267 -66 -391q-62 -118 -177 -177q-131 -68 -348 -88v-187l10 -103q0 -34 -19 -34t-19 66l6 163q0 108 -67 108q-52 0 -52 -85l5 -87q0 -30 12.5 -87.5t12.5 -81.5t-10 -40t-29 -16t-28.5 16.5t-9.5 39.5t13.5 75.5t13.5 67.5v30q0 16 -1 32t-5 40q-8 50 -48 50 q-74 0 -74 -146v-46q0 -37 18 -108t18 -102q0 -77 -50 -77q-25 0 -39.5 21t-14.5 54t16.5 112t16.5 120v199q-284 13 -426 83q-248 120 -255 456q-2 93 -2 277l2 462q0 59 -39 99zM1108 -553q0 48 14.5 81.5t17.5 33.5t11 -18q23 -52 23 -99t-33 -47t-33 49z" />
<glyph unicode="&#xfb;" horiz-adv-x="1887" d="M463 1529q51 27 85 79l171 260q18 28 21 47t-11 48l31 16q24 -44 85 -44h189q61 0 85 44l31 -16q-14 -29 -11 -48t21 -47l171 -260q34 -52 85 -79l-10 -16q-49 27 -112 27h-179q-61 0 -90 -43l-27 19q28 44 7 100l-37 93q-21 56 -21 116h-15q0 -60 -21 -116l-37 -93 q-21 -56 7 -100l-28 -19q-29 43 -89 43h-179q-63 0 -112 -27zM106 1334l21 20q37 -38 99 -38h354q61 0 99 38l21 -20q-38 -39 -38 -99l2 -514q0 -149 8 -189t17.5 -73.5t23 -53.5t34.5 -42.5t48 -34.5q63 -28 123.5 -28t94 5.5t59 18t46 27t35 37t25.5 43t17.5 51.5 t10.5 54.5t6 59.5q3 55 3 125l2 514q0 61 -37 99l19 20q38 -38 100 -38h354q63 0 100 38l20 -20q-41 -42 -41 -204l9 -511q0 -267 -66 -391q-62 -118 -177 -177q-131 -68 -348 -88v-187l10 -103q0 -34 -19 -34t-19 66l6 163q0 108 -67 108q-52 0 -52 -85l5 -87 q0 -30 12.5 -87.5t12.5 -81.5t-10 -40t-29 -16t-28.5 16.5t-9.5 39.5t13.5 75.5t13.5 67.5v30q0 16 -1 32t-5 40q-8 50 -48 50q-74 0 -74 -146v-46q0 -37 18 -108t18 -102q0 -77 -50 -77q-25 0 -39.5 21t-14.5 54t16.5 112t16.5 120v199q-284 13 -426 83q-248 120 -255 456 q-2 93 -2 277l2 462q0 59 -39 99zM1108 -553q0 48 14.5 81.5t17.5 33.5t11 -18q23 -52 23 -99t-33 -47t-33 49z" />
<glyph unicode="&#xfc;" horiz-adv-x="1887" d="M418 1555v193q0 44 17.5 51t105.5 7h110q88 0 105.5 -7t17.5 -51v-193q0 -44 -17.5 -51t-105.5 -7h-110q-88 0 -105.5 7t-17.5 51zM1105 1555v193q0 44 17 51t105 7h112q88 0 105 -7t17 -51v-193q0 -44 -17 -51t-105 -7h-112q-88 0 -105 7t-17 51zM106 1334l21 20 q37 -38 99 -38h354q61 0 99 38l21 -20q-38 -39 -38 -99l2 -514q0 -149 8 -189t17.5 -73.5t23 -53.5t34.5 -42.5t48 -34.5q63 -28 123.5 -28t94 5.5t59 18t46 27t35 37t25.5 43t17.5 51.5t10.5 54.5t6 59.5q3 55 3 125l2 514q0 61 -37 99l19 20q38 -38 100 -38h354 q63 0 100 38l20 -20q-41 -42 -41 -204l9 -511q0 -267 -66 -391q-62 -118 -177 -177q-131 -68 -348 -88v-187l10 -103q0 -34 -19 -34t-19 66l6 163q0 108 -67 108q-52 0 -52 -85l5 -87q0 -30 12.5 -87.5t12.5 -81.5t-10 -40t-29 -16t-28.5 16.5t-9.5 39.5t13.5 75.5 t13.5 67.5v30q0 16 -1 32t-5 40q-8 50 -48 50q-74 0 -74 -146v-46q0 -37 18 -108t18 -102q0 -77 -50 -77q-25 0 -39.5 21t-14.5 54t16.5 112t16.5 120v199q-284 13 -426 83q-248 120 -255 456q-2 93 -2 277l2 462q0 59 -39 99zM1108 -553q0 48 14.5 81.5t17.5 33.5t11 -18 q23 -52 23 -99t-33 -47t-33 49z" />
<glyph unicode="&#xfd;" horiz-adv-x="1780" d="M789 1680.5q0 1.5 7 3.5q32 6 76 32l429 250q46 27 60 41t15 14t2 -8q5 -39 22 -81l75 -192q30 -74 30 -77.5t-7 -5t-29 -3t-44 -7.5l-461 -112q-52 -13 -67.5 -21t-16.5 -8q-14 46 -34 84.5t-32.5 57t-18.5 25t-6 8zM-6 1350l9 17q50 -28 113 -28l403 2q60 0 85 43 l31 -17q-13 -24 -13 -52.5t40.5 -97.5t89 -134t89 -144t40.5 -137h21v8q0 94 130 274t130 241q0 16 -14 42l31 17q25 -43 86 -43l379 -2q62 0 112 28l9 -17q-54 -32 -83 -80l-512 -826q-26 -43 -53 -43q-11 0 -23 4l-12 -37q48 -15 48 -100l-6 -139q0 -96 42 -138l-21 -20 q-39 39 -99 39h-234q-64 0 -64 -181l15 -186q0 -35 -21.5 -35t-21.5 38l11 196q0 168 -42 168t-42 -106v-29q0 -43 19.5 -128t19.5 -129q0 -68 -50.5 -68t-50.5 68q0 46 21 134t21 134l-2 408q0 31 8.5 48t35.5 25l-10 38q-14 -4 -24.5 -4t-21.5 7q-13 9 -30 36l-507 826 q-30 49 -82 80z" />
<glyph unicode="&#xfe;" horiz-adv-x="1903" d="M133 -441q0 45 22 159t22 160l-2 203v1057h1v113q0 63 -38 100l19 21q42 -40 100 -40h362q60 0 100 40l20 -21q-39 -39 -39 -100v-112l419 2q216 0 285.5 -12t124 -26.5t92 -34.5t76 -51t61.5 -70q53 -87 53 -200t-24.5 -191.5t-78.5 -141.5q-112 -129 -381 -129h-551 q-62 0 -100 39l-20 -20q39 -39 39 -100v-123q0 -77 -2 -189l-44 -4q-13 112 -35 112h-152q-7 -26 -7 -68l26 -237q0 -61 -44.5 -61t-44.5 62q0 36 18.5 125.5t18.5 126.5v52h-173q-12 0 -19.5 -48.5t-7.5 -93t19 -151.5t19 -150q0 -92 -67 -92t-67 94zM656 569l20 -21 q39 39 100 39h324q100 0 120.5 11t33.5 23q25 22 25 63t-8.5 60.5t-24.5 30.5t-32 18t-40 10q-31 4 -70 4h-328q-61 0 -100 39l-20 -20q39 -39 39 -100v-58q0 -60 -39 -99z" />
<glyph unicode="&#xff;" horiz-adv-x="1780" d="M358 1564v193q0 44 17.5 51t105.5 7h110q88 0 105.5 -7t17.5 -51v-193q0 -44 -17.5 -51t-105.5 -7h-110q-88 0 -105.5 7t-17.5 51zM1045 1564v193q0 44 17 51t105 7h112q88 0 105 -7t17 -51v-193q0 -44 -17 -51t-105 -7h-112q-88 0 -105 7t-17 51zM-6 1350l9 17 q50 -28 113 -28l403 2q60 0 85 43l31 -17q-13 -24 -13 -52.5t40.5 -97.5t89 -134t89 -144t40.5 -137h21v8q0 94 130 274t130 241q0 16 -14 42l31 17q25 -43 86 -43l379 -2q62 0 112 28l9 -17q-54 -32 -83 -80l-512 -826q-26 -43 -53 -43q-11 0 -23 4l-12 -37q48 -15 48 -100 l-6 -139q0 -96 42 -138l-21 -20q-39 39 -99 39h-234q-64 0 -64 -181l15 -186q0 -35 -21.5 -35t-21.5 38l11 196q0 168 -42 168t-42 -106v-29q0 -43 19.5 -128t19.5 -129q0 -68 -50.5 -68t-50.5 68q0 46 21 134t21 134l-2 408q0 31 8.5 48t35.5 25l-10 38q-14 -4 -24.5 -4 t-21.5 7q-13 9 -30 36l-507 826q-30 49 -82 80z" />
<glyph unicode="&#x131;" horiz-adv-x="824" d="M148 -19q39 39 39 100v1172q0 61 -39 100l20 19q38 -38 100 -38h291q62 0 100 38l20 -19q-39 -39 -39 -100v-1172q0 -61 39 -100l-20 -20q-39 39 -100 39h-291q-61 0 -100 -39z" />
<glyph unicode="&#x152;" horiz-adv-x="2748" d="M82 700q0 118 44.5 229t123.5 186.5t193 124.5q213 93 543 93l1496 -1q60 0 99 39l21 -21q-39 -39 -39 -99v-175q0 -61 39 -100l-21 -19q-38 38 -99 38h-647q-60 0 -99 39l-21 -20q39 -39 39 -98v-2q0 -60 -39 -99l21 -19q38 38 99 38h508q61 0 100 39l19 -20 q-38 -38 -38 -100v-174q0 -62 38 -100l-19 -21q-40 40 -100 40h-510q-59 0 -97 38l-20 -20q38 -38 38 -97.5t-39 -98.5l21 -19q37 37 97 37l695 -1q61 0 100 39l20 -20q-39 -39 -39 -100v-173q0 -61 39 -100l-20 -20q-39 39 -100 39l-1542 -3q-773 0 -886 501 q-18 82 -18 200zM638 676q0 -366 348 -366l169 1q61 2 100 -37l21 20q-39 39 -39 99v547q0 61 39 100l-21 20q-38 -38 -100 -38h-169q-163 0 -255.5 -86t-92.5 -260z" />
<glyph unicode="&#x153;" horiz-adv-x="2748" d="M82 700q0 118 44.5 229t123.5 186.5t193 124.5q213 93 543 93l1496 -1q60 0 99 39l21 -21q-39 -39 -39 -99v-175q0 -61 39 -100l-21 -19q-38 38 -99 38h-647q-60 0 -99 39l-21 -20q39 -39 39 -98v-2q0 -60 -39 -99l21 -19q38 38 99 38h508q61 0 100 39l19 -20 q-38 -38 -38 -100v-174q0 -62 38 -100l-19 -21q-40 40 -100 40h-510q-59 0 -97 38l-20 -20q38 -38 38 -97.5t-39 -98.5l21 -19q37 37 97 37l695 -1q61 0 100 39l20 -20q-39 -39 -39 -100v-173q0 -61 39 -100l-20 -20q-39 39 -100 39l-1542 -3q-773 0 -886 501 q-18 82 -18 200zM638 676q0 -366 348 -366l169 1q61 2 100 -37l21 20q-39 39 -39 99v547q0 61 39 100l-21 20q-38 -38 -100 -38h-169q-163 0 -255.5 -86t-92.5 -260z" />
<glyph unicode="&#x178;" horiz-adv-x="1780" d="M358 1564v193q0 44 17.5 51t105.5 7h110q88 0 105.5 -7t17.5 -51v-193q0 -44 -17.5 -51t-105.5 -7h-110q-88 0 -105.5 7t-17.5 51zM1045 1564v193q0 44 17 51t105 7h112q88 0 105 -7t17 -51v-193q0 -44 -17 -51t-105 -7h-112q-88 0 -105 7t-17 51zM-6 1350l9 17 q50 -28 113 -28l403 2q60 0 85 43l31 -17q-13 -24 -13 -52.5t40.5 -97.5t89 -134t89 -144t40.5 -137h21v8q0 94 130 274t130 241q0 16 -14 42l31 17q25 -43 86 -43l379 -2q62 0 112 28l9 -17q-54 -32 -83 -80l-512 -826q-26 -43 -53 -43q-11 0 -23 4l-12 -37q48 -15 48 -100 l-6 -139q0 -96 42 -138l-21 -20q-39 39 -99 39h-234q-64 0 -64 -181l15 -186q0 -35 -21.5 -35t-21.5 38l11 196q0 168 -42 168t-42 -106v-29q0 -43 19.5 -128t19.5 -129q0 -68 -50.5 -68t-50.5 68q0 46 21 134t21 134l-2 408q0 31 8.5 48t35.5 25l-10 38q-14 -4 -24.5 -4 t-21.5 7q-13 9 -30 36l-507 826q-30 49 -82 80z" />
<glyph unicode="&#x2c6;" horiz-adv-x="1121" d="M86 1114q51 27 85 79l171 260q18 28 21 47t-11 48l31 16q24 -44 85 -44h189q61 0 85 44l31 -16q-14 -29 -11 -48t21 -47l171 -260q34 -52 85 -79l-10 -16q-49 27 -112 27h-179q-61 0 -90 -43l-27 19q28 44 7 100l-37 93q-21 56 -21 116h-15q0 -60 -21 -116l-37 -93 q-21 -56 7 -100l-28 -19q-29 43 -89 43h-179q-63 0 -112 -27z" />
<glyph unicode="&#x2da;" horiz-adv-x="920" d="M93 1734q0 71 23.5 135.5t68 117.5t117 84.5t162.5 31.5t162.5 -31.5t116.5 -84.5t67.5 -117.5t23.5 -135.5t-23.5 -136t-67.5 -118t-116.5 -84.5t-162.5 -31.5t-162.5 31.5t-117 84.5t-68 118t-23.5 136zM272 1734q0 -86 50.5 -149.5t141.5 -63.5t141 63.5t50 149.5 t-50 149.5t-141 63.5t-141.5 -63.5t-50.5 -149.5z" />
<glyph unicode="&#x2dc;" horiz-adv-x="1355" d="M124 1206q0 80 23.5 155t67.5 116q83 77 219 77q129 0 256.5 -58t167.5 -58q54 0 54 90l347 -2q2 -50 2 -115t-20.5 -141.5t-58.5 -118.5q-72 -78 -197 -78q-171 0 -304.5 61t-162.5 61q-44 0 -44 -101l-347 3q-3 29 -3 109z" />
<glyph unicode="&#x2000;" horiz-adv-x="1118" />
<glyph unicode="&#x2001;" horiz-adv-x="2236" />
<glyph unicode="&#x2002;" horiz-adv-x="1118" />
<glyph unicode="&#x2003;" horiz-adv-x="2236" />
<glyph unicode="&#x2004;" horiz-adv-x="745" />
<glyph unicode="&#x2005;" horiz-adv-x="559" />
<glyph unicode="&#x2006;" horiz-adv-x="372" />
<glyph unicode="&#x2007;" horiz-adv-x="372" />
<glyph unicode="&#x2008;" horiz-adv-x="279" />
<glyph unicode="&#x2009;" horiz-adv-x="447" />
<glyph unicode="&#x200a;" horiz-adv-x="124" />
<glyph unicode="&#x2010;" horiz-adv-x="1127" d="M161 553v331q52 -13 171 -13h483q114 0 166 13v-331q-52 6 -123 6h-568q-76 0 -129 -6z" />
<glyph unicode="&#x2011;" horiz-adv-x="1127" d="M161 553v331q52 -13 171 -13h483q114 0 166 13v-331q-52 6 -123 6h-568q-76 0 -129 -6z" />
<glyph unicode="&#x2012;" horiz-adv-x="1127" d="M161 553v331q52 -13 171 -13h483q114 0 166 13v-331q-52 6 -123 6h-568q-76 0 -129 -6z" />
<glyph unicode="&#x2013;" horiz-adv-x="1127" d="M161 553v331q52 -13 171 -13h483q114 0 166 13v-331q-52 6 -123 6h-568q-76 0 -129 -6z" />
<glyph unicode="&#x2014;" horiz-adv-x="1532" d="M161 553v331q52 -13 171 -13h889q113 0 165 13v-331q-53 6 -123 6h-973q-76 0 -129 -6z" />
<glyph unicode="&#x2018;" horiz-adv-x="717" d="M144 773v189q0 101 46.5 204.5t100.5 179.5l151 -13q-60 -123 -80 -247l-7 -43h162q61 0 70.5 -10t9.5 -71v-122q0 -87 -6.5 -104.5t-48.5 -17.5h-277q-87 0 -104 6.5t-17 48.5z" />
<glyph unicode="&#x2019;" horiz-adv-x="694" d="M110 1089v122v31q0 27 0.5 42.5t6.5 30t16 16.5t32 2h276h49q43 0 58.5 -7.5t15.5 -46.5l-1 -190q0 -176 -148 -383l-149 12q62 127 86 290h-161q-61 0 -71 10t-10 71z" />
<glyph unicode="&#x201a;" horiz-adv-x="694" d="M110 1089v122v31q0 27 0.5 42.5t6.5 30t16 16.5t32 2h276h49q43 0 58.5 -7.5t15.5 -46.5l-1 -190q0 -176 -148 -383l-149 12q62 127 86 290h-161q-61 0 -71 10t-10 71z" />
<glyph unicode="&#x201c;" horiz-adv-x="1292" d="M144 773v189q0 101 46.5 204.5t100.5 179.5l151 -13q-60 -123 -80 -247l-7 -43h162q61 0 70.5 -10t9.5 -71v-122q0 -87 -6.5 -104.5t-48.5 -17.5h-277q-87 0 -104 6.5t-17 48.5zM718 773v24l1 165q0 101 46.5 204t101.5 180l150 -13q-60 -123 -80 -247l-7 -43h161 q61 0 71 -10t10 -71v-122q0 -87 -6.5 -104.5t-48.5 -17.5h-276q-88 0 -105.5 6.5t-17.5 48.5z" />
<glyph unicode="&#x201d;" horiz-adv-x="1272" d="M110 1090v122v32q0 26 0.5 41.5t6.5 30t16 16.5t32 2h276h49q43 0 58.5 -7.5t15.5 -46.5l-1 -190q0 -176 -148 -383l-149 12q62 127 86 290h-161q-61 0 -71 10t-10 71zM688 1090v122v30q0 25 0.5 41.5t6.5 31.5t16.5 17t32.5 2h276h49q42 0 57 -7t15 -47v-190 q0 -177 -147 -383l-150 12q62 127 87 290h-162q-61 0 -71 10t-10 71z" />
<glyph unicode="&#x201e;" horiz-adv-x="1272" d="M110 1090v122v32q0 26 0.5 41.5t6.5 30t16 16.5t32 2h276h49q43 0 58.5 -7.5t15.5 -46.5l-1 -190q0 -176 -148 -383l-149 12q62 127 86 290h-161q-61 0 -71 10t-10 71zM688 1090v122v30q0 25 0.5 41.5t6.5 31.5t16.5 17t32.5 2h276h49q42 0 57 -7t15 -47v-190 q0 -177 -147 -383l-150 12q62 127 87 290h-162q-61 0 -71 10t-10 71z" />
<glyph unicode="&#x2022;" horiz-adv-x="830" d="M146 707q0 114 88 176.5t215 62.5t210 -66.5t83 -181.5q0 -39 -5.5 -55t-27 -68.5t-21.5 -70.5l10 -58q0 -22 -10.5 -30.5t-41.5 -15.5q-59 -14 -84 -78l-10 3l-13 29q-103 -3 -146.5 -9.5t-60.5 -28.5l-12 6q-4 39 -19 54t-48.5 19t-45 12.5t-11.5 35.5l8 48q0 7 -12 36 q-46 97 -46 180zM244 579q0 -45 17.5 -64.5t61.5 -19.5q57 0 57 81q0 21 -29 34.5t-59 13.5q-48 0 -48 -45zM279 235v99l39 -84q76 -25 200 -10q43 6 59 12q8 67 16.5 78t16.5 16q0 -21 -4 -52.5t-6 -58.5q-63 -98 -161 -98q-57 0 -91 24t-69 74zM391 465q0 -31 26 -31l59 4 q8 0 14 8.5t6 20.5t-13 35q-25 17 -40 35q-2 -4 -27 -33.5t-25 -38.5zM500 576q0 -81 57 -81q44 0 61.5 19.5t17.5 64.5t-48 45q-30 0 -59 -13.5t-29 -34.5z" />
<glyph unicode="&#x2026;" horiz-adv-x="1840" d="M140 58v193q0 44 17.5 51t105.5 7h143q88 0 105 -7t17 -51v-193q0 -44 -17 -51t-105 -7h-143q-88 0 -105.5 7t-17.5 51zM731 58v193q0 44 17 51t105 7h143q88 0 105.5 -7t17.5 -51v-193q0 -44 -17.5 -51t-105.5 -7h-143q-88 0 -105 7t-17 51zM1321 58v193q0 44 17 51 t105 7h144q88 0 105 -7t17 -51v-193q0 -44 -17 -51t-105 -7h-144q-88 0 -105 7t-17 51z" />
<glyph unicode="&#x202f;" horiz-adv-x="447" />
<glyph unicode="&#x2039;" horiz-adv-x="968" d="M100 487v356q0 20 30 39l604 370q38 22 59 60l12 -7q-20 -34 -20 -82l1 -294q0 -44 32 -62l-13 -23q-22 9 -38 9t-53 -19.5t-76.5 -47t-80.5 -55.5q-100 -66 -165 -66v-15h5q69 0 201 -95t176 -95q11 0 31 10l13 -23q-32 -18 -32 -63l-1 -276q0 -46 20 -82l-12 -7 q-21 38 -59 60l-604 375q-30 20 -30 33z" />
<glyph unicode="&#x203a;" horiz-adv-x="953" d="M149 447l13 23q20 -10 41 -10t92.5 47.5t149.5 95t124 47.5h5v15q-79 0 -205 94t-176 94q-9 0 -31 -9l-13 23q32 18 32 62l2 294q0 46 -21 82l13 7q22 -39 58 -60l603 -370q31 -20 31 -39v-352q0 -15 -8.5 -21.5t-22.5 -15.5l-603 -375q-36 -21 -58 -60l-13 7 q21 38 21 82l-2 276q0 45 -32 63z" />
<glyph unicode="&#x2044;" horiz-adv-x="801" d="M18 -1q32 54 72 171l299 996q28 127 29 166h356q-36 -61 -72 -166l-298 -996q-28 -112 -31 -171h-355z" />
<glyph unicode="&#x205f;" horiz-adv-x="559" />
<glyph unicode="&#x20ac;" horiz-adv-x="2121" d="M69 463v152q52 -13 171 -13h1q-2 25 -2 70.5t1 65.5h-42q-76 0 -129 -6v152q52 -13 171 -13h21q120 504 878.5 504t846.5 -428q12 -61 54 -95l-18 -22q-43 31 -104 31l-385 -24q-67 -5 -87 -49l-33 16q11 24 11 38q0 52 -34.5 90.5t-87.5 57.5q-103 37 -198 37 q-188 0 -271 -156h106q113 0 165 13v-152q-52 6 -123 6h-189q-4 -20 -4 -63.5t5 -72.5h146q113 0 165 13v-152q-52 6 -123 6h-147q90 -167 310 -167q54 0 120.5 26.5t118.5 76.5t52 106q0 16 -11 40l32 17q24 -45 78 -49t139 -11q187 -17 260 -17t115 31l16 -21 q-39 -27 -57 -103t-71.5 -145.5t-120.5 -115t-155 -80.5q-145 -58 -329 -84q0 -92 24.5 -273t24.5 -241t-15 -84t-43 -24t-42.5 24t-14.5 76.5t16.5 203.5t16.5 202t-5 69t-12 27.5t-24 14.5q-59 15 -161 -3q-44 -8 -44 -29l24 -272q0 -65 -37 -65q-20 0 -29.5 20.5t-9.5 55 t14 125.5t14 130.5t-26 39.5q-87 0 -87 -31l11 -433q0 -17 -11 -30.5t-27 -13.5t-26 11.5t-10 27.5l20 475q-508 69 -610 493h-64q-76 0 -129 -6z" />
<glyph unicode="&#x2122;" horiz-adv-x="2299" d="M44 1262q22 23 22 59l3 76q0 64 -25 90l12 13q24 -24 56 -24h654q34 0 57 24l12 -13q-23 -24 -23 -59l-2 -76q0 -64 25 -90l-12 -12q-26 27 -83 27l-83 -1q-29 0 -42 1l-24 1v-597h-295v597h-134q-80 0 -106 -28zM932 1506l11 12q47 -43 111 -43h289q74 0 106 45l15 -11 q-29 -46 -29 -86t29 -100.5t58 -127t29 -114.5h8q0 49 29 115t57.5 126t28.5 100.5t-29 86.5l15 11q32 -45 106 -45h290q64 0 111 43l11 -12q-40 -47 -40 -118v-707h-282v511q0 37 25 72h-32q-12 -74 -86 -298t-88 -285h-241q-13 57 -87.5 278t-86.5 304h-32q25 -35 25 -71 v-511h-281v707q0 71 -40 118z" />
<glyph unicode="&#xe000;" horiz-adv-x="1395" d="M0 1395h1395v-1395h-1395v1395z" />
<glyph unicode="&#xfb01;" horiz-adv-x="2647" d="M1903 1351l20 21q42 -40 100 -40h362q60 0 100 40l20 -21q-39 -39 -39 -100v-1170q0 -51 -11 -179q-8 -93 -8 -156q0 -23 1 -41h-1q37 -166 37 -253t-33 -87q-48 0 -48 96l11 266q0 129 -9.5 163t-19.5 60t-26 42t-38 30q-42 28 -132 28t-151.5 -73t-61.5 -175 q0 -38 15 -113.5t15 -113.5q0 -72 -51 -72t-51 70q0 39 15.5 117t15.5 118l7 268v1175q0 62 -39 100zM105 1381l20 20q80 -71 197 -71h1154q117 0 197 71l20 -20q-71 -80 -71 -180t13 -155t58 -106l-20 -20q-53 71 -132 71h-759q-56 0 -96 38l-19 -19q38 -40 38 -97t-38 -97 l19 -19q33 32 79.5 41t110.5 9l380 -21q93 0 164.5 16t122.5 65l20 -20q-75 -82 -75 -227t69 -217l-21 -20q-91 81 -294 81l-374 -21q-137 0 -187 50l-19 -20q37 -38 37 -100l-8 -204q0 -55 26.5 -162.5t26.5 -159t17 -144.5t17 -149.5t-48.5 -56.5t-48.5 55.5t17.5 148 t17.5 138.5t-32 83.5t-76 37.5q-100 0 -100 -243q0 -57 15 -171t15 -156q0 -82 -49 -82q-25 0 -38.5 21.5t-13.5 61.5t17.5 146t17.5 154t-5.5 90.5t-20 91t-46 78.5t-81 30t-89 -43t-39.5 -81.5t14 -80.5t14 -65q0 -44 -32.5 -44t-32.5 44l24 160l-1 1273q0 118 -72 197z " />
<glyph unicode="&#xfb02;" horiz-adv-x="3437" d="M1883 -619q0 78 27 216.5t27 208.5l-1 1445q0 61 -40 100l21 21q41 -40 100 -40h358q61 0 100 40l21 -21q-40 -39 -40 -100v-825q0 -60 -39 -99l21 -21q51 51 223 51l474 -24q171 0 222 51l21 -20q-40 -39 -40 -100l-4 -130q0 -109 44 -153l-21 -20q-38 39 -100 39h-291 q1 -14 1 -37q0 -56 -28 -56t-28 63q0 19 1 30h-895q-24 0 -41.5 -86.5t-17.5 -138.5t24 -186.5t24 -210t-59 -75.5q-64 0 -64 78zM2905 -436q0 43 16.5 105.5t17.5 67.5q2 -10 10 -41t12 -48q12 -51 12 -92t-34 -41t-34 49zM105 1381l20 20q80 -71 197 -71h1154 q117 0 197 71l20 -20q-71 -80 -71 -180t13 -155t58 -106l-20 -20q-53 71 -132 71h-759q-56 0 -96 38l-19 -19q38 -40 38 -97t-38 -97l19 -19q33 32 79.5 41t110.5 9l380 -21q93 0 164.5 16t122.5 65l20 -20q-75 -82 -75 -227t69 -217l-21 -20q-91 81 -294 81l-374 -21 q-137 0 -187 50l-19 -20q37 -38 37 -100l-8 -204q0 -55 26.5 -162.5t26.5 -159t17 -144.5t17 -149.5t-48.5 -56.5t-48.5 55.5t17.5 148t17.5 138.5t-32 83.5t-76 37.5q-100 0 -100 -243q0 -57 15 -171t15 -156q0 -82 -49 -82q-25 0 -38.5 21.5t-13.5 61.5t17.5 146t17.5 154 t-5.5 90.5t-20 91t-46 78.5t-81 30t-89 -43t-39.5 -81.5t14 -80.5t14 -65q0 -44 -32.5 -44t-32.5 44l24 160l-1 1273q0 118 -72 197z" />
<glyph unicode="&#xfb03;" horiz-adv-x="4412" d="M3668 1351l20 21q42 -40 100 -40h362q60 0 100 40l20 -21q-39 -39 -39 -100v-1170q0 -51 -11 -179q-8 -93 -8 -156q0 -23 1 -41h-1q37 -166 37 -253t-33 -87q-48 0 -48 96l11 266q0 129 -9.5 163t-19.5 60t-26 42t-38 30q-42 28 -132 28t-151.5 -73t-61.5 -175 q0 -38 15 -113.5t15 -113.5q0 -72 -51 -72t-51 70q0 39 15.5 117t15.5 118l7 268v1175q0 62 -39 100zM1870 1381l20 20q80 -71 197 -71h1154q117 0 197 71l20 -20q-71 -80 -71 -180t13 -155t58 -106l-20 -20q-53 71 -132 71h-759q-56 0 -96 38l-19 -19q38 -40 38 -97 t-38 -97l19 -19q33 32 79.5 41t110.5 9l380 -21q93 0 164.5 16t122.5 65l20 -20q-75 -82 -75 -227t69 -217l-21 -20q-91 81 -294 81l-374 -21q-137 0 -187 50l-19 -20q37 -38 37 -100l-8 -204q0 -55 26.5 -162.5t26.5 -159t17 -144.5t17 -149.5t-48.5 -56.5t-48.5 55.5 t17.5 148t17.5 138.5t-32 83.5t-76 37.5q-100 0 -100 -243q0 -57 15 -171t15 -156q0 -82 -49 -82q-25 0 -38.5 21.5t-13.5 61.5t17.5 146t17.5 154t-5.5 90.5t-20 91t-46 78.5t-81 30t-89 -43t-39.5 -81.5t14 -80.5t14 -65q0 -44 -32.5 -44t-32.5 44l24 160l-1 1273 q0 118 -72 197zM105 1381l20 20q80 -71 197 -71h1154q117 0 197 71l20 -20q-71 -80 -71 -180t13 -155t58 -106l-20 -20q-53 71 -132 71h-759q-56 0 -96 38l-19 -19q38 -40 38 -97t-38 -97l19 -19q33 32 79.5 41t110.5 9l380 -21q93 0 164.5 16t122.5 65l20 -20 q-75 -82 -75 -227t69 -217l-21 -20q-91 81 -294 81l-374 -21q-137 0 -187 50l-19 -20q37 -38 37 -100l-8 -204q0 -55 26.5 -162.5t26.5 -159t17 -144.5t17 -149.5t-48.5 -56.5t-48.5 55.5t17.5 148t17.5 138.5t-32 83.5t-76 37.5q-100 0 -100 -243q0 -57 15 -171t15 -156 q0 -82 -49 -82q-25 0 -38.5 21.5t-13.5 61.5t17.5 146t17.5 154t-5.5 90.5t-20 91t-46 78.5t-81 30t-89 -43t-39.5 -81.5t14 -80.5t14 -65q0 -44 -32.5 -44t-32.5 44l24 160l-1 1273q0 118 -72 197z" />
<glyph unicode="&#xfb04;" horiz-adv-x="5202" d="M3648 -619q0 78 27 216.5t27 208.5l-1 1445q0 61 -40 100l21 21q41 -40 100 -40h358q61 0 100 40l21 -21q-40 -39 -40 -100v-825q0 -60 -39 -99l21 -21q51 51 223 51l474 -24q171 0 222 51l21 -20q-40 -39 -40 -100l-4 -130q0 -109 44 -153l-21 -20q-38 39 -100 39h-291 q1 -14 1 -37q0 -56 -28 -56t-28 63q0 19 1 30h-895q-24 0 -41.5 -86.5t-17.5 -138.5t24 -186.5t24 -210t-59 -75.5q-64 0 -64 78zM4670 -436q0 43 16.5 105.5t17.5 67.5q2 -10 10 -41t12 -48q12 -51 12 -92t-34 -41t-34 49zM1870 1381l20 20q80 -71 197 -71h1154 q117 0 197 71l20 -20q-71 -80 -71 -180t13 -155t58 -106l-20 -20q-53 71 -132 71h-759q-56 0 -96 38l-19 -19q38 -40 38 -97t-38 -97l19 -19q33 32 79.5 41t110.5 9l380 -21q93 0 164.5 16t122.5 65l20 -20q-75 -82 -75 -227t69 -217l-21 -20q-91 81 -294 81l-374 -21 q-137 0 -187 50l-19 -20q37 -38 37 -100l-8 -204q0 -55 26.5 -162.5t26.5 -159t17 -144.5t17 -149.5t-48.5 -56.5t-48.5 55.5t17.5 148t17.5 138.5t-32 83.5t-76 37.5q-100 0 -100 -243q0 -57 15 -171t15 -156q0 -82 -49 -82q-25 0 -38.5 21.5t-13.5 61.5t17.5 146t17.5 154 t-5.5 90.5t-20 91t-46 78.5t-81 30t-89 -43t-39.5 -81.5t14 -80.5t14 -65q0 -44 -32.5 -44t-32.5 44l24 160l-1 1273q0 118 -72 197zM105 1381l20 20q80 -71 197 -71h1154q117 0 197 71l20 -20q-71 -80 -71 -180t13 -155t58 -106l-20 -20q-53 71 -132 71h-759q-56 0 -96 38 l-19 -19q38 -40 38 -97t-38 -97l19 -19q33 32 79.5 41t110.5 9l380 -21q93 0 164.5 16t122.5 65l20 -20q-75 -82 -75 -227t69 -217l-21 -20q-91 81 -294 81l-374 -21q-137 0 -187 50l-19 -20q37 -38 37 -100l-8 -204q0 -55 26.5 -162.5t26.5 -159t17 -144.5t17 -149.5 t-48.5 -56.5t-48.5 55.5t17.5 148t17.5 138.5t-32 83.5t-76 37.5q-100 0 -100 -243q0 -57 15 -171t15 -156q0 -82 -49 -82q-25 0 -38.5 21.5t-13.5 61.5t17.5 146t17.5 154t-5.5 90.5t-20 91t-46 78.5t-81 30t-89 -43t-39.5 -81.5t14 -80.5t14 -65q0 -44 -32.5 -44t-32.5 44 l24 160l-1 1273q0 118 -72 197z" />
</font>
</defs>
</svg>
